<?xml version="1.0" encoding="utf-8"?>
<!-- Generator: Adobe Illustrator 18.1.0, SVG Export Plug-In . SVG Version: 6.00 Build 0)  -->
<!DOCTYPE svg PUBLIC "-//W3C//DTD SVG 1.1//EN" "http://www.w3.org/Graphics/SVG/1.1/DTD/svg11.dtd">
<svg version="1.1" id="Layer_1" xmlns="http://www.w3.org/2000/svg" xmlns:xlink="http://www.w3.org/1999/xlink" x="0px" y="0px"
	 viewBox="0 0 585.8 249.6" enable-background="new 0 0 585.8 249.6" xml:space="preserve">
<rect x="22.8" y="0" fill="#4C4C4C" width="161.5" height="38.6"/>
<g>
	<path fill="#232323" d="M83.9,18.6c0-0.7,0.1-1.4,0.4-2c0.3-0.6,0.6-1.2,1.1-1.6s1-0.8,1.6-1.1c0.6-0.3,1.3-0.4,2-0.4
		c0.6,0,1.3,0.1,1.9,0.3c0.6,0.2,1.1,0.6,1.6,1c0.1,0.1,0.1,0.1,0.1,0.2s0,0.1-0.1,0.2l-0.9,0.9c-0.1,0.1-0.2,0.1-0.4,0
		c-0.6-0.6-1.3-0.8-2.2-0.8c-0.4,0-0.9,0.1-1.3,0.3c-0.4,0.2-0.7,0.4-1,0.7c-0.3,0.3-0.5,0.7-0.7,1.1c-0.2,0.4-0.2,0.8-0.2,1.3
		c0,0.4,0.1,0.9,0.2,1.3c0.2,0.4,0.4,0.7,0.7,1c0.3,0.3,0.6,0.5,1,0.7s0.8,0.3,1.3,0.3c0.4,0,0.7,0,1-0.1c0.3-0.1,0.5-0.2,0.7-0.2
		v-1.2h-1.1c-0.1,0-0.1,0-0.2-0.1c-0.1,0-0.1-0.1-0.1-0.2v-1.1c0-0.2,0.1-0.3,0.3-0.3h2.7c0.1,0,0.1,0,0.2,0.1
		c0,0.1,0.1,0.1,0.1,0.2v3.7c0,0.1,0,0.2-0.1,0.2c-0.3,0.2-0.6,0.3-1,0.5c-0.3,0.1-0.7,0.2-1.1,0.3c-0.4,0.1-0.9,0.1-1.4,0.1
		c-0.7,0-1.4-0.1-2-0.4c-0.6-0.3-1.2-0.6-1.6-1.1s-0.8-1-1.1-1.6C84,20,83.9,19.3,83.9,18.6z"/>
	<path fill="#232323" d="M93.7,23.6c-0.1,0-0.2,0-0.2-0.1c-0.1-0.1-0.1-0.2,0-0.3l4.4-9.6c0-0.1,0.1-0.2,0.2-0.2h0.1
		c0.1,0,0.1,0,0.2,0s0.1,0.1,0.1,0.1l4.4,9.6c0,0.1,0,0.2,0,0.3c-0.1,0.1-0.1,0.1-0.2,0.1h-1.2c-0.1,0-0.2,0-0.2-0.1
		c-0.1,0-0.1-0.1-0.2-0.2l-0.7-1.5H96l-0.7,1.5c0,0.1-0.1,0.1-0.1,0.2c-0.1,0.1-0.2,0.1-0.3,0.1H93.7z M99.6,20.2L98.2,17h0
		l-1.4,3.1H99.6z"/>
	<path fill="#232323" d="M105.2,13.7c0-0.1,0-0.1,0.1-0.1s0.1-0.1,0.2-0.1h0.2c0.1,0,0.2,0,0.2,0.1l3.1,6.7h0l3.1-6.7
		c0-0.1,0.1-0.1,0.2-0.1h0.2c0.1,0,0.1,0,0.2,0.1s0.1,0.1,0.1,0.1l1.7,9.6c0,0.1,0,0.2,0,0.2c0,0.1-0.1,0.1-0.2,0.1h-1.3
		c-0.1,0-0.1,0-0.2-0.1c0,0-0.1-0.1-0.1-0.1L112,18h0l-2.5,5.6c0,0.1-0.1,0.2-0.2,0.2H109c-0.1,0-0.2-0.1-0.2-0.2l-2.5-5.6h0
		l-0.8,5.4c0,0,0,0.1-0.1,0.1c0,0-0.1,0.1-0.2,0.1h-1.3c-0.2,0-0.3-0.1-0.3-0.3L105.2,13.7z"/>
	<path fill="#232323" d="M116.6,13.9c0-0.1,0-0.1,0.1-0.2c0.1-0.1,0.1-0.1,0.2-0.1h5.8c0.1,0,0.1,0,0.2,0.1c0.1,0.1,0.1,0.1,0.1,0.2
		v1.2c0,0.1,0,0.1-0.1,0.2c-0.1,0.1-0.1,0.1-0.2,0.1h-4.2v2.3h3.5c0.1,0,0.1,0,0.2,0.1c0.1,0.1,0.1,0.1,0.1,0.2v1.2
		c0,0.1,0,0.1-0.1,0.2c-0.1,0.1-0.1,0.1-0.2,0.1h-3.5v2.5h4.2c0.1,0,0.1,0,0.2,0.1c0.1,0.1,0.1,0.1,0.1,0.2v1.2c0,0.1,0,0.1-0.1,0.2
		c-0.1,0.1-0.1,0.1-0.2,0.1h-5.8c-0.1,0-0.1,0-0.2-0.1c-0.1-0.1-0.1-0.1-0.1-0.2V13.9z"/>
</g>
<rect x="22.8" y="58.3" fill="#4C4C4C" width="161.5" height="191.3"/>
<g>
	<path fill="#232323" d="M75.3,71.1c0-0.1,0-0.1,0.1-0.2c0.1-0.1,0.1-0.1,0.2-0.1h4.1c0.4,0,0.8,0.1,1.2,0.2c0.4,0.2,0.7,0.4,1,0.7
		s0.5,0.6,0.7,1c0.2,0.4,0.2,0.8,0.2,1.2c0,0.3-0.1,0.6-0.2,0.9c-0.1,0.3-0.3,0.6-0.4,0.8c-0.2,0.2-0.4,0.5-0.7,0.7
		c-0.3,0.2-0.5,0.4-0.9,0.5l2,3.6c0,0.1,0,0.2,0,0.3s-0.1,0.1-0.3,0.1h-1.5c-0.1,0-0.1,0-0.1,0c0,0-0.1-0.1-0.1-0.1L78.7,77h-1.6
		v3.6c0,0.1,0,0.1-0.1,0.2c-0.1,0.1-0.1,0.1-0.2,0.1h-1.3c-0.1,0-0.1,0-0.2-0.1c-0.1-0.1-0.1-0.1-0.1-0.2V71.1z M79.5,75.4
		c0.2,0,0.4,0,0.5-0.1s0.3-0.2,0.4-0.3c0.1-0.1,0.2-0.3,0.3-0.5c0.1-0.2,0.1-0.4,0.1-0.6c0-0.2,0-0.4-0.1-0.5s-0.2-0.3-0.3-0.4
		c-0.1-0.1-0.3-0.2-0.4-0.3c-0.2-0.1-0.4-0.1-0.5-0.1h-2.3v2.8H79.5z"/>
	<path fill="#232323" d="M84.8,71.1c0-0.1,0-0.1,0.1-0.2c0.1-0.1,0.1-0.1,0.2-0.1h5.8c0.1,0,0.1,0,0.2,0.1c0.1,0.1,0.1,0.1,0.1,0.2
		v1.2c0,0.1,0,0.1-0.1,0.2c-0.1,0.1-0.1,0.1-0.2,0.1h-4.2v2.3h3.5c0.1,0,0.1,0,0.2,0.1c0.1,0.1,0.1,0.1,0.1,0.2v1.2
		c0,0.1,0,0.1-0.1,0.2c-0.1,0.1-0.1,0.1-0.2,0.1h-3.5v2.5h4.2c0.1,0,0.1,0,0.2,0.1c0.1,0.1,0.1,0.1,0.1,0.2v1.2c0,0.1,0,0.1-0.1,0.2
		c-0.1,0.1-0.1,0.1-0.2,0.1H85c-0.1,0-0.1,0-0.2-0.1c-0.1-0.1-0.1-0.1-0.1-0.2V71.1z"/>
	<path fill="#232323" d="M93.2,71.1c0-0.1,0-0.1,0.1-0.2c0.1-0.1,0.1-0.1,0.2-0.1h1.3c0.1,0,0.1,0,0.2,0.1C95,71,95,71.1,95,71.1v8
		h3.6c0.1,0,0.1,0,0.2,0.1c0.1,0.1,0.1,0.1,0.1,0.2v1.2c0,0.1,0,0.1-0.1,0.2c-0.1,0.1-0.1,0.1-0.2,0.1h-5.2c-0.1,0-0.1,0-0.2-0.1
		c-0.1-0.1-0.1-0.1-0.1-0.2V71.1z"/>
	<path fill="#232323" d="M100.4,71.1c0-0.1,0-0.1,0.1-0.2c0.1-0.1,0.1-0.1,0.2-0.1h5.8c0.1,0,0.1,0,0.2,0.1c0.1,0.1,0.1,0.1,0.1,0.2
		v1.2c0,0.1,0,0.1-0.1,0.2c-0.1,0.1-0.1,0.1-0.2,0.1h-4.2v2.3h3.5c0.1,0,0.1,0,0.2,0.1c0.1,0.1,0.1,0.1,0.1,0.2v1.2
		c0,0.1,0,0.1-0.1,0.2c-0.1,0.1-0.1,0.1-0.2,0.1h-3.5v2.5h4.2c0.1,0,0.1,0,0.2,0.1c0.1,0.1,0.1,0.1,0.1,0.2v1.2c0,0.1,0,0.1-0.1,0.2
		c-0.1,0.1-0.1,0.1-0.2,0.1h-5.8c-0.1,0-0.1,0-0.2-0.1c-0.1-0.1-0.1-0.1-0.1-0.2V71.1z"/>
	<path fill="#232323" d="M107.7,80.9c-0.1,0-0.2,0-0.2-0.1c-0.1-0.1-0.1-0.2,0-0.3l4.4-9.6c0-0.1,0.1-0.2,0.2-0.2h0.1
		c0.1,0,0.1,0,0.2,0c0,0,0.1,0.1,0.1,0.1l4.4,9.6c0,0.1,0,0.2,0,0.3c-0.1,0.1-0.1,0.1-0.2,0.1h-1.2c-0.1,0-0.2,0-0.2-0.1
		c-0.1,0-0.1-0.1-0.2-0.2l-0.7-1.5H110l-0.7,1.5c0,0.1-0.1,0.1-0.1,0.2s-0.2,0.1-0.3,0.1H107.7z M113.6,77.4l-1.4-3.1h0l-1.4,3.1
		H113.6z"/>
	<path fill="#232323" d="M117.7,79.9c-0.1-0.1-0.1-0.1-0.1-0.2c0-0.1,0-0.1,0.1-0.2l0.5-0.9c0.1-0.1,0.1-0.2,0.2-0.2
		c0.1,0,0.2,0,0.2,0.1c0,0,0.1,0.1,0.2,0.2s0.3,0.2,0.5,0.3c0.2,0.1,0.4,0.2,0.7,0.3s0.5,0.1,0.7,0.1c0.4,0,0.7-0.1,0.9-0.3
		c0.2-0.2,0.4-0.5,0.4-0.8c0-0.4-0.2-0.7-0.5-0.9c-0.3-0.3-0.8-0.5-1.4-0.8c-0.3-0.1-0.7-0.3-1-0.5s-0.6-0.4-0.9-0.6
		c-0.3-0.2-0.5-0.5-0.6-0.9c-0.2-0.3-0.2-0.7-0.2-1.1c0-0.3,0.1-0.6,0.2-1c0.1-0.3,0.3-0.6,0.6-0.9c0.3-0.3,0.6-0.5,1-0.6
		s0.9-0.2,1.5-0.2c0.4,0,0.7,0,1,0.1c0.3,0.1,0.6,0.2,0.8,0.3c0.2,0.1,0.5,0.2,0.6,0.3c0.2,0.1,0.3,0.2,0.4,0.2
		c0.1,0,0.1,0.1,0.1,0.2c0,0.1,0,0.2,0,0.3l-0.5,0.8c-0.1,0.1-0.1,0.1-0.2,0.2c-0.1,0-0.2,0-0.3,0c0,0-0.1-0.1-0.3-0.2
		s-0.3-0.2-0.5-0.3s-0.4-0.2-0.6-0.2s-0.4-0.1-0.6-0.1c-0.4,0-0.7,0.1-0.9,0.3s-0.3,0.4-0.3,0.7c0,0.3,0.1,0.6,0.4,0.9
		c0.3,0.2,0.7,0.5,1.3,0.7c0.3,0.1,0.7,0.3,1.1,0.5c0.4,0.2,0.7,0.4,1,0.6s0.5,0.5,0.7,0.9c0.2,0.3,0.3,0.7,0.3,1.2
		c0,0.4-0.1,0.7-0.2,1.1c-0.2,0.3-0.4,0.6-0.7,0.9c-0.3,0.3-0.6,0.5-1,0.6c-0.4,0.2-0.9,0.2-1.4,0.2c-0.4,0-0.8,0-1.2-0.1
		c-0.4-0.1-0.7-0.2-0.9-0.3c-0.3-0.1-0.5-0.2-0.6-0.4S117.8,80,117.7,79.9z"/>
	<path fill="#232323" d="M125.9,71.1c0-0.1,0-0.1,0.1-0.2c0.1-0.1,0.1-0.1,0.2-0.1h5.8c0.1,0,0.1,0,0.2,0.1c0.1,0.1,0.1,0.1,0.1,0.2
		v1.2c0,0.1,0,0.1-0.1,0.2c-0.1,0.1-0.1,0.1-0.2,0.1h-4.2v2.3h3.5c0.1,0,0.1,0,0.2,0.1c0.1,0.1,0.1,0.1,0.1,0.2v1.2
		c0,0.1,0,0.1-0.1,0.2c-0.1,0.1-0.1,0.1-0.2,0.1h-3.5v2.5h4.2c0.1,0,0.1,0,0.2,0.1c0.1,0.1,0.1,0.1,0.1,0.2v1.2c0,0.1,0,0.1-0.1,0.2
		c-0.1,0.1-0.1,0.1-0.2,0.1h-5.8c-0.1,0-0.1,0-0.2-0.1c-0.1-0.1-0.1-0.1-0.1-0.2V71.1z"/>
</g>
<g>
	<path fill="#232323" d="M32.3,93.8c0-0.1,0-0.1,0.1-0.2c0.1-0.1,0.1-0.1,0.2-0.1h0.9c0.1,0,0.1,0,0.2,0.1c0.1,0.1,0.1,0.1,0.1,0.2
		v9.4c0,0.1,0,0.1-0.1,0.2c-0.1,0.1-0.1,0.1-0.2,0.1h-0.9c-0.1,0-0.1,0-0.2-0.1c-0.1-0.1-0.1-0.1-0.1-0.2V93.8z"/>
	<path fill="#232323" d="M36.6,93.8c0-0.1,0-0.1,0.1-0.2c0-0.1,0.1-0.1,0.2-0.1h3.3c0.7,0,1.3,0.1,1.9,0.4c0.6,0.3,1.1,0.6,1.6,1.1
		c0.5,0.5,0.8,1,1.1,1.6c0.3,0.6,0.4,1.2,0.4,1.9c0,0.7-0.1,1.3-0.4,2s-0.6,1.1-1.1,1.6c-0.5,0.5-1,0.8-1.6,1.1
		c-0.6,0.3-1.3,0.4-1.9,0.4h-3.3c-0.1,0-0.1,0-0.2-0.1c0-0.1-0.1-0.1-0.1-0.2V93.8z M39.9,102.2c0.5,0,1-0.1,1.4-0.3
		s0.8-0.4,1.1-0.8s0.6-0.7,0.8-1.2c0.2-0.4,0.3-0.9,0.3-1.5c0-0.5-0.1-1-0.3-1.4c-0.2-0.4-0.4-0.8-0.8-1.1s-0.7-0.6-1.1-0.8
		c-0.4-0.2-0.9-0.3-1.4-0.3H38v7.3H39.9z"/>
	<path fill="#232323" d="M31.5,115.7c0-0.7,0.1-1.4,0.4-2c0.3-0.6,0.6-1.2,1.1-1.6c0.5-0.5,1-0.8,1.6-1.1s1.3-0.4,2-0.4
		c0.6,0,1.3,0.1,1.9,0.3c0.6,0.2,1.1,0.6,1.6,1c0.1,0.1,0.1,0.1,0.1,0.2s0,0.1-0.1,0.2l-0.9,0.9c-0.1,0.1-0.2,0.1-0.4,0
		c-0.6-0.6-1.3-0.8-2.2-0.8c-0.4,0-0.9,0.1-1.3,0.3c-0.4,0.2-0.7,0.4-1,0.7c-0.3,0.3-0.5,0.7-0.7,1.1c-0.2,0.4-0.2,0.8-0.2,1.3
		s0.1,0.9,0.2,1.3c0.2,0.4,0.4,0.7,0.7,1c0.3,0.3,0.6,0.5,1,0.7s0.8,0.3,1.3,0.3c0.4,0,0.7,0,1-0.1c0.3-0.1,0.5-0.2,0.7-0.2v-1.2
		h-1.1c-0.1,0-0.1,0-0.2-0.1c-0.1,0-0.1-0.1-0.1-0.2V116c0-0.2,0.1-0.3,0.3-0.3H40c0.1,0,0.1,0,0.2,0.1c0,0.1,0.1,0.1,0.1,0.2v3.7
		c0,0.1,0,0.2-0.1,0.2c-0.3,0.2-0.6,0.3-1,0.5c-0.3,0.1-0.7,0.2-1.1,0.3c-0.4,0.1-0.9,0.1-1.4,0.1c-0.7,0-1.4-0.1-2-0.4
		s-1.2-0.6-1.6-1.1c-0.5-0.5-0.8-1-1.1-1.6C31.7,117,31.5,116.4,31.5,115.7z"/>
	<path fill="#232323" d="M41.3,120.6c-0.1,0-0.2,0-0.2-0.1c-0.1-0.1-0.1-0.2,0-0.3l4.4-9.6c0-0.1,0.1-0.2,0.2-0.2h0.1
		c0.1,0,0.1,0,0.2,0c0,0,0.1,0.1,0.1,0.1l4.4,9.6c0,0.1,0,0.2,0,0.3c-0.1,0.1-0.1,0.1-0.2,0.1h-1.2c-0.1,0-0.2,0-0.2-0.1
		c-0.1,0-0.1-0.1-0.2-0.2l-0.7-1.5h-4.3l-0.7,1.5c0,0.1-0.1,0.1-0.1,0.2s-0.2,0.1-0.3,0.1H41.3z M47.3,117.2l-1.4-3.1h0l-1.4,3.1
		H47.3z"/>
	<path fill="#232323" d="M52.9,110.7c0-0.1,0-0.1,0.1-0.1s0.1-0.1,0.2-0.1h0.2c0.1,0,0.2,0,0.2,0.1l3.1,6.7h0l3.1-6.7
		c0-0.1,0.1-0.1,0.2-0.1h0.2c0.1,0,0.1,0,0.2,0.1s0.1,0.1,0.1,0.1l1.7,9.6c0,0.1,0,0.2,0,0.2s-0.1,0.1-0.2,0.1h-1.3
		c-0.1,0-0.1,0-0.2-0.1c0,0-0.1-0.1-0.1-0.1l-0.8-5.4h0l-2.5,5.6c0,0.1-0.1,0.2-0.2,0.2h-0.3c-0.1,0-0.2-0.1-0.2-0.2l-2.5-5.6h0
		l-0.8,5.4c0,0,0,0.1-0.1,0.1c0,0-0.1,0.1-0.2,0.1h-1.3c-0.2,0-0.3-0.1-0.3-0.3L52.9,110.7z"/>
	<path fill="#232323" d="M64.3,110.9c0-0.1,0-0.1,0.1-0.2c0.1-0.1,0.1-0.1,0.2-0.1h5.8c0.1,0,0.1,0,0.2,0.1c0.1,0.1,0.1,0.1,0.1,0.2
		v1.2c0,0.1,0,0.1-0.1,0.2c-0.1,0.1-0.1,0.1-0.2,0.1h-4.2v2.3h3.5c0.1,0,0.1,0,0.2,0.1c0.1,0.1,0.1,0.1,0.1,0.2v1.2
		c0,0.1,0,0.1-0.1,0.2c-0.1,0.1-0.1,0.1-0.2,0.1h-3.5v2.5h4.2c0.1,0,0.1,0,0.2,0.1c0.1,0.1,0.1,0.1,0.1,0.2v1.2c0,0.1,0,0.1-0.1,0.2
		c-0.1,0.1-0.1,0.1-0.2,0.1h-5.8c-0.1,0-0.1,0-0.2-0.1c-0.1-0.1-0.1-0.1-0.1-0.2V110.9z"/>
	<path fill="#232323" d="M30.9,128.1c0-0.1,0-0.2,0-0.3c0.1-0.1,0.1-0.1,0.2-0.1h1.5c0.1,0,0.1,0,0.2,0s0.1,0.1,0.1,0.1l2.7,6.1h0.1
		l2.7-6.1c0,0,0-0.1,0.1-0.1s0.1,0,0.2,0h1.5c0.1,0,0.2,0,0.2,0.1c0.1,0.1,0.1,0.2,0,0.3l-4.4,9.6c-0.1,0.1-0.1,0.2-0.2,0.2h-0.1
		c-0.1,0-0.2-0.1-0.2-0.2L30.9,128.1z"/>
	<path fill="#232323" d="M41.7,128c0-0.1,0-0.1,0.1-0.2c0.1-0.1,0.1-0.1,0.2-0.1h5.8c0.1,0,0.1,0,0.2,0.1C48,127.9,48,128,48,128
		v1.2c0,0.1,0,0.1-0.1,0.2c-0.1,0.1-0.1,0.1-0.2,0.1h-4.2v2.3h3.5c0.1,0,0.1,0,0.2,0.1c0.1,0.1,0.1,0.1,0.1,0.2v1.2
		c0,0.1,0,0.1-0.1,0.2c-0.1,0.1-0.1,0.1-0.2,0.1h-3.5v2.5h4.2c0.1,0,0.1,0,0.2,0.1c0.1,0.1,0.1,0.1,0.1,0.2v1.2c0,0.1,0,0.1-0.1,0.2
		c-0.1,0.1-0.1,0.1-0.2,0.1H42c-0.1,0-0.1,0-0.2-0.1c-0.1-0.1-0.1-0.1-0.1-0.2V128z"/>
	<path fill="#232323" d="M50.1,128c0-0.1,0-0.1,0.1-0.2c0.1-0.1,0.1-0.1,0.2-0.1h4.1c0.4,0,0.8,0.1,1.2,0.2c0.4,0.2,0.7,0.4,1,0.7
		c0.3,0.3,0.5,0.6,0.7,1c0.2,0.4,0.2,0.8,0.2,1.2c0,0.3-0.1,0.6-0.2,0.9c-0.1,0.3-0.3,0.6-0.4,0.8s-0.4,0.5-0.7,0.7
		s-0.5,0.4-0.9,0.5l2,3.6c0,0.1,0,0.2,0,0.3c0,0.1-0.1,0.1-0.3,0.1h-1.5c-0.1,0-0.1,0-0.1,0s-0.1-0.1-0.1-0.1l-1.9-3.8h-1.6v3.6
		c0,0.1,0,0.1-0.1,0.2c-0.1,0.1-0.1,0.1-0.2,0.1h-1.3c-0.1,0-0.1,0-0.2-0.1c-0.1-0.1-0.1-0.1-0.1-0.2V128z M54.3,132.3
		c0.2,0,0.4,0,0.5-0.1s0.3-0.2,0.4-0.3c0.1-0.1,0.2-0.3,0.3-0.5s0.1-0.4,0.1-0.6c0-0.2,0-0.4-0.1-0.5c-0.1-0.2-0.2-0.3-0.3-0.4
		c-0.1-0.1-0.3-0.2-0.4-0.3s-0.4-0.1-0.5-0.1h-2.3v2.8H54.3z"/>
	<path fill="#232323" d="M59.1,136.8c-0.1-0.1-0.1-0.1-0.1-0.2c0-0.1,0-0.1,0.1-0.2l0.5-0.9c0.1-0.1,0.1-0.2,0.2-0.2
		c0.1,0,0.2,0,0.2,0.1c0,0,0.1,0.1,0.2,0.2c0.1,0.1,0.3,0.2,0.5,0.3c0.2,0.1,0.4,0.2,0.7,0.3c0.2,0.1,0.5,0.1,0.7,0.1
		c0.4,0,0.7-0.1,0.9-0.3c0.2-0.2,0.4-0.5,0.4-0.8c0-0.4-0.2-0.7-0.5-0.9c-0.3-0.3-0.8-0.5-1.4-0.8c-0.3-0.1-0.7-0.3-1-0.5
		s-0.6-0.4-0.9-0.6c-0.3-0.2-0.5-0.5-0.6-0.9c-0.2-0.3-0.2-0.7-0.2-1.1c0-0.3,0.1-0.6,0.2-1c0.1-0.3,0.3-0.6,0.6-0.9
		c0.3-0.3,0.6-0.5,1-0.6c0.4-0.2,0.9-0.2,1.5-0.2c0.4,0,0.7,0,1,0.1c0.3,0.1,0.6,0.2,0.8,0.3c0.2,0.1,0.5,0.2,0.6,0.3
		c0.2,0.1,0.3,0.2,0.4,0.2c0.1,0,0.1,0.1,0.1,0.2c0,0.1,0,0.2,0,0.3l-0.5,0.8c-0.1,0.1-0.1,0.2-0.2,0.2c-0.1,0-0.2,0-0.3,0
		c0,0-0.1-0.1-0.3-0.2c-0.1-0.1-0.3-0.2-0.5-0.3c-0.2-0.1-0.4-0.2-0.6-0.3s-0.4-0.1-0.6-0.1c-0.4,0-0.7,0.1-0.9,0.3
		s-0.3,0.4-0.3,0.7c0,0.3,0.1,0.6,0.4,0.9c0.3,0.2,0.7,0.5,1.3,0.7c0.3,0.1,0.7,0.3,1.1,0.5c0.4,0.2,0.7,0.4,1,0.6s0.5,0.5,0.7,0.9
		c0.2,0.3,0.3,0.7,0.3,1.2c0,0.4-0.1,0.7-0.2,1.1c-0.2,0.3-0.4,0.6-0.7,0.9c-0.3,0.3-0.6,0.5-1,0.6c-0.4,0.2-0.9,0.2-1.4,0.2
		c-0.4,0-0.8,0-1.2-0.1s-0.7-0.2-0.9-0.3c-0.3-0.1-0.5-0.2-0.6-0.4C59.2,136.9,59.1,136.9,59.1,136.8z"/>
	<path fill="#232323" d="M67.3,128c0-0.1,0-0.1,0.1-0.2c0.1-0.1,0.1-0.1,0.2-0.1h1.3c0.1,0,0.1,0,0.2,0.1c0.1,0.1,0.1,0.1,0.1,0.2
		v9.4c0,0.1,0,0.1-0.1,0.2c-0.1,0.1-0.1,0.1-0.2,0.1h-1.3c-0.1,0-0.1,0-0.2-0.1c-0.1-0.1-0.1-0.1-0.1-0.2V128z"/>
	<path fill="#232323" d="M71.1,132.8c0-0.7,0.1-1.4,0.4-2c0.3-0.6,0.6-1.2,1.1-1.6c0.5-0.5,1-0.8,1.6-1.1c0.6-0.3,1.3-0.4,2-0.4
		s1.4,0.1,2,0.4c0.6,0.3,1.2,0.6,1.6,1.1c0.5,0.5,0.8,1,1.1,1.6c0.3,0.6,0.4,1.3,0.4,2s-0.1,1.4-0.4,2c-0.3,0.6-0.6,1.2-1.1,1.6
		s-1,0.8-1.6,1.1c-0.6,0.3-1.3,0.4-2,0.4s-1.4-0.1-2-0.4c-0.6-0.3-1.2-0.6-1.6-1.1c-0.5-0.5-0.8-1-1.1-1.6
		C71.2,134.2,71.1,133.5,71.1,132.8z M72.9,132.8c0,0.4,0.1,0.9,0.3,1.3s0.4,0.7,0.7,1c0.3,0.3,0.6,0.5,1,0.7
		c0.4,0.2,0.8,0.3,1.3,0.3c0.4,0,0.9-0.1,1.3-0.3c0.4-0.2,0.7-0.4,1-0.7c0.3-0.3,0.5-0.6,0.7-1s0.3-0.8,0.3-1.3
		c0-0.4-0.1-0.9-0.3-1.3s-0.4-0.7-0.7-1c-0.3-0.3-0.6-0.5-1-0.7s-0.8-0.3-1.3-0.3c-0.4,0-0.9,0.1-1.3,0.3c-0.4,0.2-0.7,0.4-1,0.7
		c-0.3,0.3-0.5,0.6-0.7,1S72.9,132.3,72.9,132.8z"/>
	<path fill="#232323" d="M83.2,127.9c0-0.1,0-0.1,0.1-0.2c0.1,0,0.1-0.1,0.2-0.1h0.4l5.9,6.3h0V128c0-0.1,0-0.1,0.1-0.2
		c0.1-0.1,0.1-0.1,0.2-0.1h1.3c0.1,0,0.1,0,0.2,0.1c0.1,0.1,0.1,0.1,0.1,0.2v9.6c0,0.1,0,0.1-0.1,0.2c-0.1,0-0.1,0.1-0.2,0.1H91
		l-5.9-6.5h0v6.1c0,0.1,0,0.1-0.1,0.2c-0.1,0.1-0.1,0.1-0.2,0.1h-1.3c-0.1,0-0.1,0-0.2-0.1c-0.1-0.1-0.1-0.1-0.1-0.2V127.9z"/>
	<path fill="#232323" d="M93.7,136.8c-0.1-0.1-0.1-0.1-0.1-0.2c0-0.1,0-0.1,0.1-0.2l0.5-0.9c0.1-0.1,0.1-0.2,0.2-0.2
		c0.1,0,0.2,0,0.2,0.1c0,0,0.1,0.1,0.2,0.2c0.1,0.1,0.3,0.2,0.5,0.3c0.2,0.1,0.4,0.2,0.7,0.3c0.2,0.1,0.5,0.1,0.7,0.1
		c0.4,0,0.7-0.1,0.9-0.3c0.2-0.2,0.4-0.5,0.4-0.8c0-0.4-0.2-0.7-0.5-0.9c-0.3-0.3-0.8-0.5-1.4-0.8c-0.3-0.1-0.7-0.3-1-0.5
		s-0.6-0.4-0.9-0.6c-0.3-0.2-0.5-0.5-0.6-0.9c-0.2-0.3-0.2-0.7-0.2-1.1c0-0.3,0.1-0.6,0.2-1c0.1-0.3,0.3-0.6,0.6-0.9
		c0.3-0.3,0.6-0.5,1-0.6c0.4-0.2,0.9-0.2,1.5-0.2c0.4,0,0.7,0,1,0.1c0.3,0.1,0.6,0.2,0.8,0.3c0.2,0.1,0.5,0.2,0.6,0.3
		c0.2,0.1,0.3,0.2,0.4,0.2c0.1,0,0.1,0.1,0.1,0.2c0,0.1,0,0.2,0,0.3l-0.5,0.8c-0.1,0.1-0.1,0.2-0.2,0.2c-0.1,0-0.2,0-0.3,0
		c0,0-0.1-0.1-0.3-0.2c-0.1-0.1-0.3-0.2-0.5-0.3c-0.2-0.1-0.4-0.2-0.6-0.3s-0.4-0.1-0.6-0.1c-0.4,0-0.7,0.1-0.9,0.3
		s-0.3,0.4-0.3,0.7c0,0.3,0.1,0.6,0.4,0.9c0.3,0.2,0.7,0.5,1.3,0.7c0.3,0.1,0.7,0.3,1.1,0.5c0.4,0.2,0.7,0.4,1,0.6s0.5,0.5,0.7,0.9
		c0.2,0.3,0.3,0.7,0.3,1.2c0,0.4-0.1,0.7-0.2,1.1c-0.2,0.3-0.4,0.6-0.7,0.9c-0.3,0.3-0.6,0.5-1,0.6c-0.4,0.2-0.9,0.2-1.4,0.2
		c-0.4,0-0.8,0-1.2-0.1s-0.7-0.2-0.9-0.3c-0.3-0.1-0.5-0.2-0.6-0.4C93.9,136.9,93.8,136.9,93.7,136.8z"/>
	<path fill="#232323" d="M32.3,145.2c0-0.1,0-0.1,0.1-0.2c0-0.1,0.1-0.1,0.2-0.1h3.3c0.7,0,1.3,0.1,1.9,0.4s1.1,0.6,1.6,1.1
		c0.5,0.5,0.8,1,1.1,1.6s0.4,1.2,0.4,1.9c0,0.7-0.1,1.3-0.4,2s-0.6,1.1-1.1,1.6c-0.5,0.5-1,0.8-1.6,1.1s-1.3,0.4-1.9,0.4h-3.3
		c-0.1,0-0.1,0-0.2-0.1c0-0.1-0.1-0.1-0.1-0.2V145.2z M35.7,153.5c0.5,0,1-0.1,1.4-0.3s0.8-0.4,1.1-0.8s0.6-0.7,0.8-1.2
		c0.2-0.4,0.3-0.9,0.3-1.5c0-0.5-0.1-1-0.3-1.4c-0.2-0.4-0.4-0.8-0.8-1.1s-0.7-0.6-1.1-0.8s-0.9-0.3-1.4-0.3h-1.9v7.3H35.7z"/>
	<path fill="#232323" d="M42.9,145.2c0-0.1,0-0.1,0.1-0.2c0.1-0.1,0.1-0.1,0.2-0.1h5.7c0.1,0,0.1,0,0.2,0.1c0.1,0.1,0.1,0.1,0.1,0.2
		v0.8c0,0.1,0,0.1-0.1,0.2c-0.1,0.1-0.1,0.1-0.2,0.1h-4.5v2.9h3.8c0.1,0,0.1,0,0.2,0.1c0.1,0.1,0.1,0.1,0.1,0.2v0.8
		c0,0.1,0,0.1-0.1,0.2c-0.1,0.1-0.1,0.1-0.2,0.1h-3.8v3.1h4.5c0.1,0,0.1,0,0.2,0.1c0.1,0.1,0.1,0.1,0.1,0.2v0.8c0,0.1,0,0.1-0.1,0.2
		c-0.1,0.1-0.1,0.1-0.2,0.1h-5.7c-0.1,0-0.1,0-0.2-0.1c-0.1-0.1-0.1-0.1-0.1-0.2V145.2z"/>
	<path fill="#232323" d="M50.8,153.9c-0.1-0.1-0.1-0.1-0.1-0.2c0-0.1,0-0.2,0.1-0.3c0.1-0.1,0.1-0.2,0.2-0.3
		c0.1-0.1,0.1-0.2,0.2-0.3c0.1-0.1,0.1-0.2,0.2-0.2c0.1,0,0.2,0,0.3,0.1c0,0,0.1,0.1,0.2,0.2c0.1,0.1,0.3,0.2,0.5,0.3
		s0.5,0.2,0.7,0.3c0.3,0.1,0.5,0.1,0.8,0.1c0.5,0,0.9-0.1,1.2-0.4s0.4-0.6,0.4-0.9c0-0.4-0.2-0.8-0.5-1.1c-0.4-0.3-0.9-0.6-1.6-0.9
		c-0.4-0.2-0.7-0.3-1-0.5c-0.3-0.2-0.6-0.4-0.8-0.6c-0.2-0.2-0.4-0.5-0.5-0.8c-0.1-0.3-0.2-0.7-0.2-1.1c0-0.3,0.1-0.6,0.2-0.9
		c0.1-0.3,0.3-0.6,0.5-0.9c0.2-0.3,0.6-0.5,1-0.6s0.9-0.3,1.4-0.3c0.4,0,0.7,0,1,0.1c0.3,0.1,0.6,0.2,0.8,0.3
		c0.2,0.1,0.4,0.2,0.6,0.3c0.1,0.1,0.2,0.1,0.3,0.2c0.1,0,0.1,0.1,0.1,0.2c0,0.1,0,0.2-0.1,0.3c-0.1,0.1-0.1,0.2-0.2,0.3
		c-0.1,0.1-0.1,0.2-0.2,0.3c-0.1,0.1-0.1,0.2-0.2,0.2c-0.1,0-0.2,0-0.3,0c0,0-0.1-0.1-0.2-0.1c-0.1-0.1-0.3-0.2-0.5-0.2
		c-0.2-0.1-0.4-0.2-0.6-0.2c-0.2-0.1-0.4-0.1-0.6-0.1c-0.3,0-0.6,0-0.8,0.1c-0.2,0.1-0.4,0.2-0.5,0.3c-0.1,0.1-0.2,0.3-0.3,0.4
		c-0.1,0.1-0.1,0.3-0.1,0.4c0,0.4,0.2,0.7,0.5,1c0.3,0.3,0.8,0.5,1.4,0.8c0.4,0.2,0.8,0.4,1.2,0.5c0.4,0.2,0.7,0.4,1,0.7
		c0.3,0.2,0.5,0.5,0.7,0.9c0.2,0.3,0.2,0.7,0.2,1.1c0,0.4-0.1,0.7-0.2,1c-0.2,0.3-0.4,0.6-0.7,0.9s-0.6,0.4-1,0.6s-0.8,0.2-1.3,0.2
		c-0.4,0-0.8,0-1.2-0.1c-0.4-0.1-0.7-0.2-0.9-0.3c-0.3-0.1-0.5-0.3-0.6-0.4C50.9,154,50.8,153.9,50.8,153.9z"/>
	<path fill="#232323" d="M58.2,149.9c0-0.7,0.1-1.4,0.4-2c0.3-0.6,0.6-1.2,1.1-1.6s1-0.8,1.6-1.1c0.6-0.3,1.3-0.4,2-0.4
		c0.7,0,1.4,0.1,1.9,0.3c0.5,0.2,1.1,0.6,1.5,1c0.1,0.1,0.1,0.3,0,0.4l-0.6,0.6c-0.1,0.1-0.2,0.1-0.4,0c-0.3-0.3-0.7-0.5-1.1-0.7
		c-0.4-0.2-0.9-0.3-1.3-0.3c-0.5,0-1,0.1-1.4,0.3c-0.4,0.2-0.8,0.5-1.1,0.8c-0.3,0.3-0.6,0.7-0.8,1.2c-0.2,0.5-0.3,0.9-0.3,1.4
		c0,0.5,0.1,1,0.3,1.4c0.2,0.4,0.4,0.8,0.8,1.2c0.3,0.3,0.7,0.6,1.1,0.8c0.4,0.2,0.9,0.3,1.4,0.3c0.5,0,1-0.1,1.4-0.3
		c0.4-0.2,0.7-0.4,1.1-0.7c0.1-0.1,0.2-0.1,0.3,0l0.7,0.6c0.1,0,0.1,0.1,0.1,0.2c0,0.1,0,0.1-0.1,0.2c-0.5,0.5-1,0.8-1.6,1
		c-0.6,0.2-1.2,0.3-1.8,0.3c-0.7,0-1.4-0.1-2-0.4c-0.6-0.3-1.2-0.6-1.6-1.1c-0.5-0.5-0.8-1-1.1-1.6
		C58.4,151.3,58.2,150.6,58.2,149.9z"/>
	<path fill="#232323" d="M68.9,145.2c0-0.1,0-0.1,0.1-0.2c0.1-0.1,0.1-0.1,0.2-0.1H73c0.4,0,0.8,0.1,1.2,0.2c0.4,0.2,0.7,0.4,1,0.6
		c0.3,0.3,0.5,0.6,0.7,1c0.2,0.4,0.2,0.8,0.2,1.2c0,0.3-0.1,0.6-0.2,0.9s-0.3,0.6-0.4,0.8c-0.2,0.2-0.4,0.5-0.7,0.7
		c-0.3,0.2-0.5,0.4-0.9,0.5l2,3.6c0,0.1,0,0.2,0,0.3c0,0.1-0.1,0.1-0.2,0.1h-1.1c-0.1,0-0.1,0-0.1,0c0,0-0.1-0.1-0.1-0.1l-1.9-3.8
		h-2.1v3.6c0,0.1,0,0.1-0.1,0.2c-0.1,0.1-0.1,0.1-0.2,0.1h-0.9c-0.1,0-0.1,0-0.2-0.1c-0.1-0.1-0.1-0.1-0.1-0.2V145.2z M72.9,149.7
		c0.2,0,0.4,0,0.7-0.1c0.2-0.1,0.4-0.2,0.6-0.4s0.3-0.3,0.4-0.6c0.1-0.2,0.1-0.4,0.1-0.7c0-0.2,0-0.4-0.1-0.7
		c-0.1-0.2-0.2-0.4-0.4-0.5s-0.3-0.3-0.6-0.4c-0.2-0.1-0.4-0.1-0.7-0.1h-2.5v3.5H72.9z"/>
	<path fill="#232323" d="M78.4,145.2c0-0.1,0-0.1,0.1-0.2c0.1-0.1,0.1-0.1,0.2-0.1h0.9c0.1,0,0.1,0,0.2,0.1c0.1,0.1,0.1,0.1,0.1,0.2
		v9.4c0,0.1,0,0.1-0.1,0.2c-0.1,0.1-0.1,0.1-0.2,0.1h-0.9c-0.1,0-0.1,0-0.2-0.1c-0.1-0.1-0.1-0.1-0.1-0.2V145.2z"/>
	<path fill="#232323" d="M82.6,145.2c0-0.1,0-0.1,0.1-0.2c0.1-0.1,0.1-0.1,0.2-0.1h3.3c0.4,0,0.9,0.1,1.2,0.3c0.4,0.2,0.7,0.4,1,0.7
		s0.5,0.6,0.7,1s0.3,0.8,0.3,1.2c0,0.4-0.1,0.9-0.2,1.2c-0.2,0.4-0.4,0.7-0.7,1c-0.3,0.3-0.6,0.5-1,0.7c-0.4,0.2-0.8,0.2-1.2,0.2
		h-2.1v3.4c0,0.1,0,0.1-0.1,0.2c-0.1,0.1-0.1,0.1-0.2,0.1h-0.9c-0.1,0-0.1,0-0.2-0.1c-0.1-0.1-0.1-0.1-0.1-0.2V145.2z M86.1,149.8
		c0.2,0,0.5,0,0.7-0.1c0.2-0.1,0.4-0.2,0.6-0.4c0.2-0.2,0.3-0.4,0.4-0.6c0.1-0.2,0.1-0.5,0.1-0.7c0-0.2,0-0.5-0.1-0.7
		c-0.1-0.2-0.2-0.4-0.4-0.5c-0.2-0.2-0.4-0.3-0.6-0.4c-0.2-0.1-0.4-0.1-0.7-0.1h-2v3.5H86.1z"/>
	<path fill="#232323" d="M92.5,146.2h-2.3c-0.1,0-0.1,0-0.2-0.1c-0.1-0.1-0.1-0.1-0.1-0.2v-0.8c0-0.1,0-0.1,0.1-0.2
		c0.1-0.1,0.1-0.1,0.2-0.1h6.1c0.1,0,0.1,0,0.2,0.1c0.1,0.1,0.1,0.1,0.1,0.2v0.8c0,0.1,0,0.1-0.1,0.2c-0.1,0.1-0.1,0.1-0.2,0.1H94
		v8.4c0,0.1,0,0.1-0.1,0.2c-0.1,0.1-0.1,0.1-0.2,0.1h-0.9c-0.1,0-0.1,0-0.2-0.1c-0.1-0.1-0.1-0.1-0.1-0.2V146.2z"/>
	<path fill="#232323" d="M98.1,145.2c0-0.1,0-0.1,0.1-0.2c0.1-0.1,0.1-0.1,0.2-0.1h0.9c0.1,0,0.1,0,0.2,0.1c0.1,0.1,0.1,0.1,0.1,0.2
		v9.4c0,0.1,0,0.1-0.1,0.2c-0.1,0.1-0.1,0.1-0.2,0.1h-0.9c-0.1,0-0.1,0-0.2-0.1c-0.1-0.1-0.1-0.1-0.1-0.2V145.2z"/>
	<path fill="#232323" d="M101.6,149.9c0-0.7,0.1-1.4,0.4-2c0.3-0.6,0.6-1.2,1.1-1.6c0.5-0.5,1-0.8,1.6-1.1c0.6-0.3,1.3-0.4,2-0.4
		s1.4,0.1,2,0.4c0.6,0.3,1.2,0.6,1.6,1.1s0.8,1,1.1,1.6c0.3,0.6,0.4,1.3,0.4,2s-0.1,1.4-0.4,2c-0.3,0.6-0.6,1.2-1.1,1.6
		c-0.5,0.5-1,0.8-1.6,1.1c-0.6,0.3-1.3,0.4-2,0.4s-1.4-0.1-2-0.4c-0.6-0.3-1.2-0.6-1.6-1.1c-0.5-0.5-0.8-1-1.1-1.6
		C101.7,151.3,101.6,150.6,101.6,149.9z M103,149.9c0,0.5,0.1,1,0.3,1.4c0.2,0.4,0.5,0.8,0.8,1.2s0.7,0.6,1.2,0.8
		c0.5,0.2,0.9,0.3,1.4,0.3c0.5,0,1-0.1,1.4-0.3c0.4-0.2,0.8-0.5,1.2-0.8c0.3-0.3,0.6-0.7,0.8-1.2c0.2-0.4,0.3-0.9,0.3-1.4
		c0-0.5-0.1-1-0.3-1.4c-0.2-0.5-0.5-0.8-0.8-1.2c-0.3-0.3-0.7-0.6-1.2-0.8c-0.4-0.2-0.9-0.3-1.4-0.3c-0.5,0-1,0.1-1.4,0.3
		c-0.5,0.2-0.8,0.5-1.2,0.8c-0.3,0.3-0.6,0.7-0.8,1.2C103.1,148.9,103,149.4,103,149.9z"/>
	<path fill="#232323" d="M113.9,145c0-0.1,0-0.1,0.1-0.2c0.1,0,0.1-0.1,0.2-0.1h0.4l6.2,7.2h0v-6.7c0-0.1,0-0.1,0.1-0.2
		c0.1-0.1,0.1-0.1,0.2-0.1h0.9c0.1,0,0.1,0,0.2,0.1c0.1,0.1,0.1,0.1,0.1,0.2v9.6c0,0.1,0,0.1-0.1,0.2c-0.1,0-0.1,0.1-0.2,0.1h-0.4
		l-6.2-7.4h0v6.9c0,0.1,0,0.1-0.1,0.2c-0.1,0.1-0.1,0.1-0.2,0.1h-0.9c-0.1,0-0.1,0-0.2-0.1c-0.1-0.1-0.1-0.1-0.1-0.2V145z"/>
	<path fill="#232323" d="M31.2,172c-0.1,0-0.2,0-0.2-0.1c-0.1-0.1-0.1-0.2,0-0.3l4.4-9.6c0,0,0.1-0.1,0.1-0.1c0.1,0,0.1,0,0.1,0h0.1
		c0,0,0.1,0,0.1,0c0.1,0,0.1,0.1,0.1,0.1l4.3,9.6c0,0.1,0,0.2,0,0.3c-0.1,0.1-0.1,0.1-0.2,0.1h-0.9c-0.2,0-0.3-0.1-0.3-0.2l-0.9-2
		h-4.7c-0.1,0.3-0.3,0.7-0.4,1c-0.1,0.3-0.3,0.6-0.4,1c0,0-0.1,0.1-0.1,0.1c-0.1,0-0.1,0.1-0.2,0.1H31.2z M37.4,168.6l-1.8-3.9h-0.1
		l-1.7,3.9H37.4z"/>
	<path fill="#232323" d="M41.5,162.3c0-0.1,0-0.1,0.1-0.2c0.1-0.1,0.1-0.1,0.2-0.1h0.9c0.1,0,0.1,0,0.2,0.1c0.1,0.1,0.1,0.1,0.1,0.2
		v5.9c0,0.4,0.1,0.7,0.2,1c0.1,0.3,0.3,0.6,0.5,0.8c0.2,0.2,0.5,0.4,0.8,0.5c0.3,0.1,0.6,0.2,1,0.2c0.4,0,0.7-0.1,1-0.2
		c0.3-0.1,0.5-0.3,0.8-0.5c0.2-0.2,0.4-0.5,0.5-0.8c0.1-0.3,0.2-0.6,0.2-1v-5.9c0-0.1,0-0.1,0.1-0.2c0.1-0.1,0.1-0.1,0.2-0.1H49
		c0.1,0,0.1,0,0.2,0.1c0.1,0.1,0.1,0.1,0.1,0.2v6c0,0.5-0.1,1-0.3,1.5c-0.2,0.5-0.5,0.9-0.8,1.2c-0.3,0.3-0.8,0.6-1.2,0.8
		c-0.5,0.2-1,0.3-1.6,0.3c-0.6,0-1.1-0.1-1.5-0.3c-0.5-0.2-0.9-0.5-1.2-0.8c-0.3-0.3-0.6-0.8-0.8-1.2c-0.2-0.5-0.3-1-0.3-1.5V162.3z
		"/>
	<path fill="#232323" d="M53.3,163.4H51c-0.1,0-0.1,0-0.2-0.1c-0.1-0.1-0.1-0.1-0.1-0.2v-0.8c0-0.1,0-0.1,0.1-0.2
		c0.1-0.1,0.1-0.1,0.2-0.1h6.1c0.1,0,0.1,0,0.2,0.1c0.1,0.1,0.1,0.1,0.1,0.2v0.8c0,0.1,0,0.1-0.1,0.2c-0.1,0.1-0.1,0.1-0.2,0.1h-2.3
		v8.4c0,0.1,0,0.1-0.1,0.2c-0.1,0.1-0.1,0.1-0.2,0.1h-0.9c-0.1,0-0.1,0-0.2-0.1c-0.1-0.1-0.1-0.1-0.1-0.2V163.4z"/>
	<path fill="#232323" d="M58.9,162.3c0-0.1,0-0.1,0.1-0.2c0.1-0.1,0.1-0.1,0.2-0.1h0.9c0.1,0,0.1,0,0.2,0.1c0.1,0.1,0.1,0.1,0.1,0.2
		v4h5.2v-4c0-0.1,0-0.1,0.1-0.2c0.1-0.1,0.1-0.1,0.2-0.1h0.9c0.1,0,0.1,0,0.2,0.1c0.1,0.1,0.1,0.1,0.1,0.2v9.4c0,0.1,0,0.1-0.1,0.2
		c-0.1,0.1-0.1,0.1-0.2,0.1h-0.9c-0.1,0-0.1,0-0.2-0.1c-0.1-0.1-0.1-0.1-0.1-0.2v-4.1h-5.2v4.1c0,0.1,0,0.1-0.1,0.2
		c-0.1,0.1-0.1,0.1-0.2,0.1h-0.9c-0.1,0-0.1,0-0.2-0.1c-0.1-0.1-0.1-0.1-0.1-0.2V162.3z"/>
	<path fill="#232323" d="M69.1,167c0-0.7,0.1-1.4,0.4-2c0.3-0.6,0.6-1.2,1.1-1.6c0.5-0.5,1-0.8,1.6-1.1c0.6-0.3,1.3-0.4,2-0.4
		s1.4,0.1,2,0.4c0.6,0.3,1.2,0.6,1.6,1.1c0.5,0.5,0.8,1,1.1,1.6c0.3,0.6,0.4,1.3,0.4,2s-0.1,1.4-0.4,2c-0.3,0.6-0.6,1.2-1.1,1.6
		s-1,0.8-1.6,1.1c-0.6,0.3-1.3,0.4-2,0.4s-1.4-0.1-2-0.4c-0.6-0.3-1.2-0.6-1.6-1.1c-0.5-0.5-0.8-1-1.1-1.6
		C69.3,168.4,69.1,167.7,69.1,167z M70.6,167c0,0.5,0.1,1,0.3,1.4c0.2,0.4,0.5,0.8,0.8,1.2s0.7,0.6,1.2,0.8c0.5,0.2,0.9,0.3,1.4,0.3
		c0.5,0,1-0.1,1.4-0.3c0.4-0.2,0.8-0.5,1.2-0.8c0.3-0.3,0.6-0.7,0.8-1.2c0.2-0.4,0.3-0.9,0.3-1.4c0-0.5-0.1-1-0.3-1.4
		c-0.2-0.5-0.5-0.8-0.8-1.2c-0.3-0.3-0.7-0.6-1.2-0.8c-0.4-0.2-0.9-0.3-1.4-0.3c-0.5,0-1,0.1-1.4,0.3c-0.5,0.2-0.8,0.5-1.2,0.8
		c-0.3,0.3-0.6,0.7-0.8,1.2C70.7,166,70.6,166.5,70.6,167z"/>
	<path fill="#232323" d="M81.4,162.3c0-0.1,0-0.1,0.1-0.2c0.1-0.1,0.1-0.1,0.2-0.1h3.9c0.4,0,0.8,0.1,1.2,0.2c0.4,0.2,0.7,0.4,1,0.6
		s0.5,0.6,0.7,1c0.2,0.4,0.2,0.8,0.2,1.2c0,0.3-0.1,0.6-0.2,0.9c-0.1,0.3-0.3,0.6-0.4,0.8c-0.2,0.2-0.4,0.5-0.7,0.7
		c-0.3,0.2-0.5,0.4-0.9,0.5l2,3.6c0,0.1,0,0.2,0,0.3c0,0.1-0.1,0.1-0.2,0.1h-1.1c-0.1,0-0.1,0-0.1,0s-0.1-0.1-0.1-0.1l-1.9-3.8h-2.1
		v3.6c0,0.1,0,0.1-0.1,0.2c-0.1,0.1-0.1,0.1-0.2,0.1h-0.9c-0.1,0-0.1,0-0.2-0.1c-0.1-0.1-0.1-0.1-0.1-0.2V162.3z M85.5,166.8
		c0.2,0,0.4,0,0.7-0.1c0.2-0.1,0.4-0.2,0.6-0.4c0.2-0.2,0.3-0.3,0.4-0.6s0.1-0.4,0.1-0.7c0-0.2,0-0.4-0.1-0.7s-0.2-0.4-0.4-0.5
		s-0.3-0.3-0.6-0.4c-0.2-0.1-0.4-0.1-0.7-0.1h-2.5v3.5H85.5z"/>
	<path fill="#232323" d="M90.3,171c-0.1-0.1-0.1-0.1-0.1-0.2c0-0.1,0-0.2,0.1-0.3c0.1-0.1,0.1-0.2,0.2-0.3c0.1-0.1,0.1-0.2,0.2-0.3
		c0.1-0.1,0.1-0.2,0.2-0.2c0.1,0,0.2,0,0.3,0.1c0,0,0.1,0.1,0.2,0.2c0.1,0.1,0.3,0.2,0.5,0.3c0.2,0.1,0.5,0.2,0.7,0.3
		s0.5,0.1,0.8,0.1c0.5,0,0.9-0.1,1.2-0.4c0.3-0.3,0.4-0.6,0.4-0.9c0-0.4-0.2-0.8-0.5-1.1c-0.4-0.3-0.9-0.6-1.6-0.9
		c-0.4-0.2-0.7-0.3-1-0.5s-0.6-0.4-0.8-0.6c-0.2-0.2-0.4-0.5-0.5-0.8c-0.1-0.3-0.2-0.7-0.2-1.1c0-0.3,0.1-0.6,0.2-0.9
		c0.1-0.3,0.3-0.6,0.5-0.9c0.2-0.3,0.6-0.5,1-0.6c0.4-0.2,0.9-0.3,1.4-0.3c0.4,0,0.7,0,1,0.1c0.3,0.1,0.6,0.2,0.8,0.3
		c0.2,0.1,0.4,0.2,0.6,0.3c0.1,0.1,0.2,0.1,0.3,0.2c0.1,0,0.1,0.1,0.1,0.2c0,0.1,0,0.2-0.1,0.3c-0.1,0.1-0.1,0.2-0.2,0.3
		c-0.1,0.1-0.1,0.2-0.2,0.3c-0.1,0.1-0.1,0.2-0.2,0.2c-0.1,0-0.2,0-0.3,0c0,0-0.1-0.1-0.2-0.1c-0.1-0.1-0.3-0.2-0.5-0.2
		s-0.4-0.2-0.6-0.2s-0.4-0.1-0.6-0.1c-0.3,0-0.6,0-0.8,0.1c-0.2,0.1-0.4,0.2-0.5,0.3c-0.1,0.1-0.2,0.3-0.3,0.4
		c-0.1,0.1-0.1,0.3-0.1,0.4c0,0.4,0.2,0.7,0.5,1c0.3,0.3,0.8,0.5,1.4,0.8c0.4,0.2,0.8,0.4,1.2,0.5c0.4,0.2,0.7,0.4,1,0.7
		c0.3,0.2,0.5,0.5,0.7,0.9c0.2,0.3,0.2,0.7,0.2,1.1c0,0.4-0.1,0.7-0.2,1c-0.2,0.3-0.4,0.6-0.7,0.9c-0.3,0.2-0.6,0.4-1,0.6
		s-0.8,0.2-1.3,0.2c-0.4,0-0.8,0-1.2-0.1c-0.4-0.1-0.7-0.2-0.9-0.3c-0.3-0.1-0.5-0.3-0.6-0.4C90.5,171.1,90.4,171.1,90.3,171z"/>
	<path fill="#232323" d="M33.7,180.5h-2.3c-0.1,0-0.1,0-0.2-0.1c-0.1-0.1-0.1-0.1-0.1-0.2v-0.8c0-0.1,0-0.1,0.1-0.2
		c0.1-0.1,0.1-0.1,0.2-0.1h6.1c0.1,0,0.1,0,0.2,0.1c0.1,0.1,0.1,0.1,0.1,0.2v0.8c0,0.1,0,0.1-0.1,0.2c-0.1,0.1-0.1,0.1-0.2,0.1h-2.3
		v8.4c0,0.1,0,0.1-0.1,0.2c-0.1,0.1-0.1,0.1-0.2,0.1H34c-0.1,0-0.1,0-0.2-0.1c-0.1-0.1-0.1-0.1-0.1-0.2V180.5z"/>
	<path fill="#232323" d="M37.7,189.1c-0.1,0-0.2,0-0.2-0.1c-0.1-0.1-0.1-0.2,0-0.3l4.4-9.6c0,0,0.1-0.1,0.1-0.1c0.1,0,0.1,0,0.1,0
		h0.1c0,0,0.1,0,0.1,0c0.1,0,0.1,0.1,0.1,0.1l4.3,9.6c0,0.1,0,0.2,0,0.3c-0.1,0.1-0.1,0.1-0.2,0.1h-0.9c-0.2,0-0.3-0.1-0.3-0.2
		l-0.9-2h-4.7c-0.1,0.3-0.3,0.7-0.4,1s-0.3,0.6-0.4,1c0,0-0.1,0.1-0.1,0.1c-0.1,0-0.1,0.1-0.2,0.1H37.7z M43.9,185.7l-1.8-3.9h-0.1
		l-1.7,3.9H43.9z"/>
	<path fill="#232323" d="M47.4,184.1c0-0.7,0.1-1.4,0.4-2c0.3-0.6,0.6-1.2,1.1-1.6s1-0.8,1.6-1.1c0.6-0.3,1.3-0.4,2-0.4
		c0.7,0,1.3,0.1,1.9,0.3c0.6,0.2,1.1,0.6,1.6,1c0.1,0.1,0.1,0.1,0.1,0.2s0,0.1-0.1,0.2c-0.1,0.1-0.2,0.2-0.3,0.3s-0.2,0.2-0.3,0.3
		c-0.1,0.1-0.2,0.1-0.4,0c-0.3-0.3-0.7-0.5-1.1-0.7s-0.9-0.3-1.3-0.3c-0.5,0-1,0.1-1.4,0.3c-0.4,0.2-0.8,0.5-1.1,0.8
		c-0.3,0.3-0.6,0.7-0.8,1.2c-0.2,0.5-0.3,0.9-0.3,1.4c0,0.5,0.1,1,0.3,1.4c0.2,0.4,0.4,0.8,0.8,1.2c0.3,0.3,0.7,0.6,1.1,0.8
		c0.4,0.2,0.9,0.3,1.4,0.3c0.3,0,0.6,0,0.8-0.1c0.2,0,0.5-0.1,0.6-0.1c0.2-0.1,0.3-0.1,0.4-0.2c0.1-0.1,0.2-0.1,0.2-0.1v-1.6h-1.4
		c-0.1,0-0.1,0-0.2-0.1s-0.1-0.1-0.1-0.2v-0.8c0-0.2,0.1-0.3,0.3-0.3h2.6c0.1,0,0.1,0,0.2,0.1c0,0.1,0.1,0.1,0.1,0.2
		c0,0.6,0,1.1,0,1.7s0,1.2,0,1.7c0,0.1,0,0.2-0.1,0.2c-0.3,0.2-0.6,0.3-1,0.5c-0.3,0.1-0.7,0.2-1.1,0.3s-0.9,0.1-1.4,0.1
		c-0.7,0-1.4-0.1-2-0.4c-0.6-0.3-1.2-0.6-1.6-1.1c-0.5-0.5-0.8-1-1.1-1.6C47.6,185.5,47.4,184.8,47.4,184.1z"/>
	<path fill="#232323" d="M57.9,188.1c-0.1-0.1-0.1-0.1-0.1-0.2c0-0.1,0-0.2,0.1-0.3c0.1-0.1,0.1-0.2,0.2-0.3
		c0.1-0.1,0.1-0.2,0.2-0.3c0.1-0.1,0.1-0.2,0.2-0.2c0.1,0,0.2,0,0.3,0.1c0,0,0.1,0.1,0.2,0.2c0.1,0.1,0.3,0.2,0.5,0.3
		s0.5,0.2,0.7,0.3c0.3,0.1,0.5,0.1,0.8,0.1c0.5,0,0.9-0.1,1.2-0.4s0.4-0.6,0.4-0.9c0-0.4-0.2-0.8-0.5-1.1c-0.4-0.3-0.9-0.6-1.6-0.9
		c-0.4-0.2-0.7-0.3-1-0.5c-0.3-0.2-0.6-0.4-0.8-0.6c-0.2-0.2-0.4-0.5-0.5-0.8c-0.1-0.3-0.2-0.7-0.2-1.1c0-0.3,0.1-0.6,0.2-0.9
		c0.1-0.3,0.3-0.6,0.5-0.9c0.2-0.3,0.6-0.5,1-0.6s0.9-0.3,1.4-0.3c0.4,0,0.7,0,1,0.1c0.3,0.1,0.6,0.2,0.8,0.3
		c0.2,0.1,0.4,0.2,0.6,0.3c0.1,0.1,0.2,0.1,0.3,0.2c0.1,0,0.1,0.1,0.1,0.2c0,0.1,0,0.2-0.1,0.3c-0.1,0.1-0.1,0.2-0.2,0.3
		c-0.1,0.1-0.1,0.2-0.2,0.3c-0.1,0.1-0.1,0.2-0.2,0.2c-0.1,0-0.2,0-0.3,0c0,0-0.1-0.1-0.2-0.1c-0.1-0.1-0.3-0.2-0.5-0.2
		c-0.2-0.1-0.4-0.2-0.6-0.2c-0.2-0.1-0.4-0.1-0.6-0.1c-0.3,0-0.6,0-0.8,0.1c-0.2,0.1-0.4,0.2-0.5,0.3c-0.1,0.1-0.2,0.3-0.3,0.4
		c-0.1,0.1-0.1,0.3-0.1,0.4c0,0.4,0.2,0.7,0.5,1c0.3,0.3,0.8,0.5,1.4,0.8c0.4,0.2,0.8,0.4,1.2,0.5c0.4,0.2,0.7,0.4,1,0.7
		c0.3,0.2,0.5,0.5,0.7,0.9c0.2,0.3,0.2,0.7,0.2,1.1c0,0.4-0.1,0.7-0.2,1c-0.2,0.3-0.4,0.6-0.7,0.9s-0.6,0.4-1,0.6s-0.8,0.2-1.3,0.2
		c-0.4,0-0.8,0-1.2-0.1c-0.4-0.1-0.7-0.2-0.9-0.3c-0.3-0.1-0.5-0.3-0.6-0.4C58.1,188.3,57.9,188.2,57.9,188.1z"/>
	<path fill="#232323" d="M32.3,196.5c0-0.1,0-0.1,0.1-0.2c0.1-0.1,0.1-0.1,0.2-0.1h0.9c0.1,0,0.1,0,0.2,0.1c0.1,0.1,0.1,0.1,0.1,0.2
		v8.4h3.9c0.1,0,0.1,0,0.2,0.1c0.1,0.1,0.1,0.1,0.1,0.2v0.8c0,0.1,0,0.1-0.1,0.2c-0.1,0.1-0.1,0.1-0.2,0.1h-5.1
		c-0.1,0-0.1,0-0.2-0.1c-0.1-0.1-0.1-0.1-0.1-0.2V196.5z"/>
	<path fill="#232323" d="M39.4,196.5c0-0.1,0-0.1,0.1-0.2c0.1-0.1,0.1-0.1,0.2-0.1h0.9c0.1,0,0.1,0,0.2,0.1c0.1,0.1,0.1,0.1,0.1,0.2
		v9.4c0,0.1,0,0.1-0.1,0.2c-0.1,0.1-0.1,0.1-0.2,0.1h-0.9c-0.1,0-0.1,0-0.2-0.1c-0.1-0.1-0.1-0.1-0.1-0.2V196.5z"/>
	<path fill="#232323" d="M43.7,196.3c0-0.1,0-0.1,0.1-0.2c0.1,0,0.1-0.1,0.2-0.1h0.4l6.2,7.2h0v-6.7c0-0.1,0-0.1,0.1-0.2
		c0.1-0.1,0.1-0.1,0.2-0.1h0.9c0.1,0,0.1,0,0.2,0.1c0.1,0.1,0.1,0.1,0.1,0.2v9.6c0,0.1,0,0.1-0.1,0.2c-0.1,0-0.1,0.1-0.2,0.1h-0.4
		l-6.2-7.4h0v6.9c0,0.1,0,0.1-0.1,0.2c-0.1,0.1-0.1,0.1-0.2,0.1H44c-0.1,0-0.1,0-0.2-0.1c-0.1-0.1-0.1-0.1-0.1-0.2V196.3z"/>
	<path fill="#232323" d="M54.7,196.6c0-0.1,0-0.2,0.1-0.2c0.1-0.1,0.1-0.1,0.3-0.1h0.8c0.1,0,0.2,0,0.2,0.1c0.1,0.1,0.1,0.1,0.1,0.2
		v4l4-4.2c0,0,0.1-0.1,0.1-0.1s0.1,0,0.2,0h1.1c0.1,0,0.2,0.1,0.3,0.2c0.1,0.1,0,0.2-0.1,0.3l-4.1,4.2l4.4,4.8
		c0.1,0.1,0.1,0.2,0,0.3s-0.1,0.2-0.3,0.2h-1.1c-0.1,0-0.1,0-0.2,0c0,0-0.1,0-0.1-0.1l-4.2-4.7v4.4c0,0.1,0,0.2-0.1,0.2
		s-0.1,0.1-0.2,0.1h-0.8c-0.1,0-0.2,0-0.3-0.1c-0.1-0.1-0.1-0.1-0.1-0.2V196.6z"/>
	<path fill="#232323" d="M63.3,205.2c-0.1-0.1-0.1-0.1-0.1-0.2c0-0.1,0-0.2,0.1-0.3c0.1-0.1,0.1-0.2,0.2-0.3
		c0.1-0.1,0.1-0.2,0.2-0.3c0.1-0.1,0.1-0.2,0.2-0.2c0.1,0,0.2,0,0.3,0.1c0,0,0.1,0.1,0.2,0.2c0.1,0.1,0.3,0.2,0.5,0.3
		s0.5,0.2,0.7,0.3c0.3,0.1,0.5,0.1,0.8,0.1c0.5,0,0.9-0.1,1.2-0.4s0.4-0.6,0.4-0.9c0-0.4-0.2-0.8-0.5-1.1c-0.4-0.3-0.9-0.6-1.6-0.9
		c-0.4-0.2-0.7-0.3-1-0.5c-0.3-0.2-0.6-0.4-0.8-0.6c-0.2-0.2-0.4-0.5-0.5-0.8c-0.1-0.3-0.2-0.7-0.2-1.1c0-0.3,0.1-0.6,0.2-0.9
		c0.1-0.3,0.3-0.6,0.5-0.9c0.2-0.3,0.6-0.5,1-0.6s0.9-0.3,1.4-0.3c0.4,0,0.7,0,1,0.1c0.3,0.1,0.6,0.2,0.8,0.3
		c0.2,0.1,0.4,0.2,0.6,0.3c0.1,0.1,0.2,0.1,0.3,0.2c0.1,0,0.1,0.1,0.1,0.2c0,0.1,0,0.2-0.1,0.3c-0.1,0.1-0.1,0.2-0.2,0.3
		c-0.1,0.1-0.1,0.2-0.2,0.3c-0.1,0.1-0.1,0.2-0.2,0.2c-0.1,0-0.2,0-0.3,0c0,0-0.1-0.1-0.2-0.1c-0.1-0.1-0.3-0.2-0.5-0.2
		c-0.2-0.1-0.4-0.2-0.6-0.2c-0.2-0.1-0.4-0.1-0.6-0.1c-0.3,0-0.6,0-0.8,0.1c-0.2,0.1-0.4,0.2-0.5,0.3c-0.1,0.1-0.2,0.3-0.3,0.4
		c-0.1,0.1-0.1,0.3-0.1,0.4c0,0.4,0.2,0.7,0.5,1c0.3,0.3,0.8,0.5,1.4,0.8c0.4,0.2,0.8,0.4,1.2,0.5c0.4,0.2,0.7,0.4,1,0.7
		c0.3,0.2,0.5,0.5,0.7,0.9c0.2,0.3,0.2,0.7,0.2,1.1c0,0.4-0.1,0.7-0.2,1c-0.2,0.3-0.4,0.6-0.7,0.9s-0.6,0.4-1,0.6s-0.8,0.2-1.3,0.2
		c-0.4,0-0.8,0-1.2-0.1c-0.4-0.1-0.7-0.2-0.9-0.3c-0.3-0.1-0.5-0.3-0.6-0.4C63.4,205.4,63.3,205.3,63.3,205.2z"/>
	<path fill="#232323" d="M31.2,223.3c-0.1,0-0.2,0-0.2-0.1c-0.1-0.1-0.1-0.2,0-0.3l4.4-9.6c0,0,0.1-0.1,0.1-0.1c0.1,0,0.1,0,0.1,0
		h0.1c0,0,0.1,0,0.1,0c0.1,0,0.1,0.1,0.1,0.1l4.3,9.6c0,0.1,0,0.2,0,0.3c-0.1,0.1-0.1,0.1-0.2,0.1h-0.9c-0.2,0-0.3-0.1-0.3-0.2
		l-0.9-2h-4.7c-0.1,0.3-0.3,0.7-0.4,1c-0.1,0.3-0.3,0.6-0.4,1c0,0-0.1,0.1-0.1,0.1c-0.1,0-0.1,0.1-0.2,0.1H31.2z M37.4,219.9
		l-1.8-3.9h-0.1l-1.7,3.9H37.4z"/>
	<path fill="#232323" d="M41,218.3c0-0.7,0.1-1.4,0.4-2c0.3-0.6,0.6-1.2,1.1-1.6c0.5-0.5,1-0.8,1.6-1.1c0.6-0.3,1.3-0.4,2-0.4
		c0.7,0,1.4,0.1,1.9,0.3s1.1,0.6,1.5,1c0.1,0.1,0.1,0.3,0,0.4l-0.6,0.6c-0.1,0.1-0.2,0.1-0.4,0c-0.3-0.3-0.7-0.5-1.1-0.7
		s-0.9-0.3-1.3-0.3c-0.5,0-1,0.1-1.4,0.3s-0.8,0.5-1.1,0.8c-0.3,0.3-0.6,0.7-0.8,1.2c-0.2,0.5-0.3,0.9-0.3,1.4c0,0.5,0.1,1,0.3,1.4
		c0.2,0.4,0.4,0.8,0.8,1.2s0.7,0.6,1.1,0.8c0.4,0.2,0.9,0.3,1.4,0.3c0.5,0,1-0.1,1.4-0.3c0.4-0.2,0.7-0.4,1.1-0.7
		c0.1-0.1,0.2-0.1,0.3,0l0.7,0.6c0.1,0,0.1,0.1,0.1,0.2c0,0.1,0,0.1-0.1,0.2c-0.5,0.5-1,0.8-1.6,1c-0.6,0.2-1.2,0.3-1.8,0.3
		c-0.7,0-1.4-0.1-2-0.4c-0.6-0.3-1.2-0.6-1.6-1.1s-0.8-1-1.1-1.6C41.1,219.7,41,219.1,41,218.3z"/>
	<path fill="#232323" d="M51.6,213.7c0-0.1,0-0.2,0.1-0.2c0.1-0.1,0.1-0.1,0.3-0.1h0.8c0.1,0,0.2,0,0.2,0.1s0.1,0.1,0.1,0.2v4l4-4.1
		c0,0,0.1-0.1,0.1-0.1c0,0,0.1,0,0.2,0h1.1c0.1,0,0.2,0.1,0.3,0.2c0.1,0.1,0,0.2-0.1,0.3l-4.1,4.2l4.4,4.8c0.1,0.1,0.1,0.2,0,0.3
		c0,0.1-0.1,0.2-0.3,0.2h-1.1c-0.1,0-0.1,0-0.2,0c0,0-0.1,0-0.1-0.1l-4.2-4.7v4.4c0,0.1,0,0.2-0.1,0.2s-0.1,0.1-0.2,0.1H52
		c-0.1,0-0.2,0-0.3-0.1c-0.1-0.1-0.1-0.1-0.1-0.2V213.7z"/>
	<path fill="#232323" d="M60.6,213.5c0-0.1,0-0.1,0.1-0.2c0.1,0,0.1-0.1,0.2-0.1h0.4l6.2,7.2h0v-6.7c0-0.1,0-0.1,0.1-0.2
		c0.1-0.1,0.1-0.1,0.2-0.1h0.9c0.1,0,0.1,0,0.2,0.1c0.1,0.1,0.1,0.1,0.1,0.2v9.6c0,0.1,0,0.1-0.1,0.2c-0.1,0-0.1,0.1-0.2,0.1h-0.4
		l-6.2-7.4h0v6.9c0,0.1,0,0.1-0.1,0.2c-0.1,0.1-0.1,0.1-0.2,0.1h-0.9c-0.1,0-0.1,0-0.2-0.1c-0.1-0.1-0.1-0.1-0.1-0.2V213.5z"/>
	<path fill="#232323" d="M71,218.3c0-0.7,0.1-1.4,0.4-2c0.3-0.6,0.6-1.2,1.1-1.6c0.5-0.5,1-0.8,1.6-1.1c0.6-0.3,1.3-0.4,2-0.4
		s1.4,0.1,2,0.4c0.6,0.3,1.2,0.6,1.6,1.1c0.5,0.5,0.8,1,1.1,1.6c0.3,0.6,0.4,1.3,0.4,2s-0.1,1.4-0.4,2c-0.3,0.6-0.6,1.2-1.1,1.6
		s-1,0.8-1.6,1.1c-0.6,0.3-1.3,0.4-2,0.4s-1.4-0.1-2-0.4c-0.6-0.3-1.2-0.6-1.6-1.1c-0.5-0.5-0.8-1-1.1-1.6
		C71.1,219.7,71,219.1,71,218.3z M72.4,218.3c0,0.5,0.1,1,0.3,1.4c0.2,0.4,0.5,0.8,0.8,1.2s0.7,0.6,1.2,0.8c0.5,0.2,0.9,0.3,1.4,0.3
		c0.5,0,1-0.1,1.4-0.3c0.4-0.2,0.8-0.5,1.2-0.8c0.3-0.3,0.6-0.7,0.8-1.2c0.2-0.4,0.3-0.9,0.3-1.4c0-0.5-0.1-1-0.3-1.4
		c-0.2-0.5-0.5-0.8-0.8-1.2c-0.3-0.3-0.7-0.6-1.2-0.8c-0.4-0.2-0.9-0.3-1.4-0.3c-0.5,0-1,0.1-1.4,0.3c-0.5,0.2-0.8,0.5-1.2,0.8
		c-0.3,0.3-0.6,0.7-0.8,1.2C72.5,217.4,72.4,217.8,72.4,218.3z"/>
	<path fill="#232323" d="M82.3,213.7c0-0.1,0-0.2,0-0.2c0-0.1,0.1-0.1,0.2-0.1h1c0.1,0,0.1,0,0.2,0.1c0,0,0.1,0.1,0.1,0.1l1.7,6.5
		h0.1l2.3-6.7c0-0.1,0.1-0.2,0.2-0.2h0.3c0.1,0,0.2,0.1,0.2,0.2l2.4,6.7H91l1.7-6.5c0,0,0.1-0.1,0.1-0.1c0,0,0.1-0.1,0.2-0.1h1
		c0.1,0,0.2,0,0.2,0.1c0,0.1,0.1,0.1,0,0.2l-2.7,9.6c0,0.1-0.1,0.2-0.3,0.2H91c-0.1,0-0.2-0.1-0.2-0.2l-2.5-7.1h-0.1l-2.5,7.1
		c0,0.1-0.1,0.2-0.2,0.2h-0.2c-0.1,0-0.1,0-0.2-0.1s-0.1-0.1-0.1-0.1L82.3,213.7z"/>
	<path fill="#232323" d="M96,213.6c0-0.1,0-0.1,0.1-0.2c0.1-0.1,0.1-0.1,0.2-0.1h0.9c0.1,0,0.1,0,0.2,0.1c0.1,0.1,0.1,0.1,0.1,0.2
		v8.4h3.9c0.1,0,0.1,0,0.2,0.1c0.1,0.1,0.1,0.1,0.1,0.2v0.8c0,0.1,0,0.1-0.1,0.2c-0.1,0.1-0.1,0.1-0.2,0.1h-5.1
		c-0.1,0-0.1,0-0.2-0.1c-0.1-0.1-0.1-0.1-0.1-0.2V213.6z"/>
	<path fill="#232323" d="M103.1,213.6c0-0.1,0-0.1,0.1-0.2c0.1-0.1,0.1-0.1,0.2-0.1h5.7c0.1,0,0.1,0,0.2,0.1
		c0.1,0.1,0.1,0.1,0.1,0.2v0.8c0,0.1,0,0.1-0.1,0.2c-0.1,0.1-0.1,0.1-0.2,0.1h-4.5v2.9h3.8c0.1,0,0.1,0,0.2,0.1
		c0.1,0.1,0.1,0.1,0.1,0.2v0.8c0,0.1,0,0.1-0.1,0.2c-0.1,0.1-0.1,0.1-0.2,0.1h-3.8v3.1h4.5c0.1,0,0.1,0,0.2,0.1
		c0.1,0.1,0.1,0.1,0.1,0.2v0.8c0,0.1,0,0.1-0.1,0.2c-0.1,0.1-0.1,0.1-0.2,0.1h-5.7c-0.1,0-0.1,0-0.2-0.1c-0.1-0.1-0.1-0.1-0.1-0.2
		V213.6z"/>
	<path fill="#232323" d="M111.5,213.6c0-0.1,0-0.1,0.1-0.2c0-0.1,0.1-0.1,0.2-0.1h3.3c0.7,0,1.3,0.1,1.9,0.4
		c0.6,0.3,1.1,0.6,1.6,1.1c0.5,0.5,0.8,1,1.1,1.6c0.3,0.6,0.4,1.2,0.4,1.9c0,0.7-0.1,1.3-0.4,2s-0.6,1.1-1.1,1.6
		c-0.5,0.5-1,0.8-1.6,1.1c-0.6,0.3-1.3,0.4-1.9,0.4h-3.3c-0.1,0-0.1,0-0.2-0.1c0-0.1-0.1-0.1-0.1-0.2V213.6z M114.8,222
		c0.5,0,1-0.1,1.4-0.3s0.8-0.4,1.1-0.8s0.6-0.7,0.8-1.2s0.3-0.9,0.3-1.5c0-0.5-0.1-1-0.3-1.4s-0.4-0.8-0.8-1.1s-0.7-0.6-1.1-0.8
		c-0.4-0.2-0.9-0.3-1.4-0.3H113v7.3H114.8z"/>
	<path fill="#232323" d="M122.1,213.6c0-0.1,0-0.1,0.1-0.2c0.1-0.1,0.1-0.1,0.2-0.1h5.7c0.1,0,0.1,0,0.2,0.1
		c0.1,0.1,0.1,0.1,0.1,0.2v0.8c0,0.1,0,0.1-0.1,0.2c-0.1,0.1-0.1,0.1-0.2,0.1h-4.5v2.9h3.8c0.1,0,0.1,0,0.2,0.1
		c0.1,0.1,0.1,0.1,0.1,0.2v0.8c0,0.1,0,0.1-0.1,0.2c-0.1,0.1-0.1,0.1-0.2,0.1h-3.8v3.1h4.5c0.1,0,0.1,0,0.2,0.1
		c0.1,0.1,0.1,0.1,0.1,0.2v0.8c0,0.1,0,0.1-0.1,0.2c-0.1,0.1-0.1,0.1-0.2,0.1h-5.7c-0.1,0-0.1,0-0.2-0.1c-0.1-0.1-0.1-0.1-0.1-0.2
		V213.6z"/>
	<path fill="#232323" d="M131.6,213.4c0-0.1,0.1-0.1,0.1-0.2c0,0,0.1-0.1,0.2-0.1h0.2c0,0,0.1,0,0.1,0c0,0,0.1,0.1,0.1,0.1l3,7.3
		h0.1l3-7.3c0-0.1,0.1-0.2,0.2-0.2h0.2c0.1,0,0.1,0,0.2,0.1c0,0,0.1,0.1,0.1,0.2l1.8,9.6c0,0.2,0,0.3-0.3,0.3h-0.9
		c-0.1,0-0.1,0-0.2-0.1c0,0-0.1-0.1-0.1-0.1l-1.1-6.4h0l-2.6,6.6c0,0.1-0.1,0.2-0.2,0.2h-0.3c-0.1,0-0.2-0.1-0.2-0.2l-2.6-6.6h-0.1
		l-1,6.4c0,0,0,0.1-0.1,0.1c-0.1,0-0.1,0.1-0.2,0.1h-0.9c-0.2,0-0.3-0.1-0.3-0.3L131.6,213.4z"/>
	<path fill="#232323" d="M142.9,213.6c0-0.1,0-0.1,0.1-0.2c0.1-0.1,0.1-0.1,0.2-0.1h5.7c0.1,0,0.1,0,0.2,0.1
		c0.1,0.1,0.1,0.1,0.1,0.2v0.8c0,0.1,0,0.1-0.1,0.2c-0.1,0.1-0.1,0.1-0.2,0.1h-4.5v2.9h3.8c0.1,0,0.1,0,0.2,0.1
		c0.1,0.1,0.1,0.1,0.1,0.2v0.8c0,0.1,0,0.1-0.1,0.2c-0.1,0.1-0.1,0.1-0.2,0.1h-3.8v3.1h4.5c0.1,0,0.1,0,0.2,0.1
		c0.1,0.1,0.1,0.1,0.1,0.2v0.8c0,0.1,0,0.1-0.1,0.2c-0.1,0.1-0.1,0.1-0.2,0.1h-5.7c-0.1,0-0.1,0-0.2-0.1c-0.1-0.1-0.1-0.1-0.1-0.2
		V213.6z"/>
	<path fill="#232323" d="M151.3,213.5c0-0.1,0-0.1,0.1-0.2c0.1,0,0.1-0.1,0.2-0.1h0.4l6.2,7.2h0v-6.7c0-0.1,0-0.1,0.1-0.2
		c0.1-0.1,0.1-0.1,0.2-0.1h0.9c0.1,0,0.1,0,0.2,0.1c0.1,0.1,0.1,0.1,0.1,0.2v9.6c0,0.1,0,0.1-0.1,0.2c-0.1,0-0.1,0.1-0.2,0.1h-0.4
		l-6.2-7.4h0v6.9c0,0.1,0,0.1-0.1,0.2c-0.1,0.1-0.1,0.1-0.2,0.1h-0.9c-0.1,0-0.1,0-0.2-0.1c-0.1-0.1-0.1-0.1-0.1-0.2V213.5z"/>
	<path fill="#232323" d="M163.7,214.7h-2.3c-0.1,0-0.1,0-0.2-0.1c-0.1-0.1-0.1-0.1-0.1-0.2v-0.8c0-0.1,0-0.1,0.1-0.2
		c0.1-0.1,0.1-0.1,0.2-0.1h6.1c0.1,0,0.1,0,0.2,0.1c0.1,0.1,0.1,0.1,0.1,0.2v0.8c0,0.1,0,0.1-0.1,0.2c-0.1,0.1-0.1,0.1-0.2,0.1h-2.3
		v8.4c0,0.1,0,0.1-0.1,0.2c-0.1,0.1-0.1,0.1-0.2,0.1H164c-0.1,0-0.1,0-0.2-0.1c-0.1-0.1-0.1-0.1-0.1-0.2V214.7z"/>
	<path fill="#232323" d="M168.8,222.3c-0.1-0.1-0.1-0.1-0.1-0.2c0-0.1,0-0.2,0.1-0.3c0.1-0.1,0.1-0.2,0.2-0.3
		c0.1-0.1,0.1-0.2,0.2-0.3c0.1-0.1,0.1-0.2,0.2-0.2c0.1,0,0.2,0,0.3,0.1c0,0,0.1,0.1,0.2,0.2c0.1,0.1,0.3,0.2,0.5,0.3
		c0.2,0.1,0.5,0.2,0.7,0.3s0.5,0.1,0.8,0.1c0.5,0,0.9-0.1,1.2-0.4c0.3-0.3,0.4-0.6,0.4-0.9c0-0.4-0.2-0.8-0.5-1.1
		c-0.4-0.3-0.9-0.6-1.6-0.9c-0.4-0.2-0.7-0.3-1-0.5s-0.6-0.4-0.8-0.6c-0.2-0.2-0.4-0.5-0.5-0.8c-0.1-0.3-0.2-0.7-0.2-1.1
		c0-0.3,0.1-0.6,0.2-0.9c0.1-0.3,0.3-0.6,0.5-0.9c0.2-0.3,0.6-0.5,1-0.6c0.4-0.2,0.9-0.3,1.4-0.3c0.4,0,0.7,0,1,0.1
		c0.3,0.1,0.6,0.2,0.8,0.3c0.2,0.1,0.4,0.2,0.6,0.3c0.1,0.1,0.2,0.1,0.3,0.2c0.1,0,0.1,0.1,0.1,0.2c0,0.1,0,0.2-0.1,0.3
		c-0.1,0.1-0.1,0.2-0.2,0.3c-0.1,0.1-0.1,0.2-0.2,0.3c-0.1,0.1-0.1,0.2-0.2,0.2c-0.1,0-0.2,0-0.3,0c0,0-0.1-0.1-0.2-0.1
		c-0.1-0.1-0.3-0.2-0.5-0.2s-0.4-0.2-0.6-0.2s-0.4-0.1-0.6-0.1c-0.3,0-0.6,0-0.8,0.1c-0.2,0.1-0.4,0.2-0.5,0.3
		c-0.1,0.1-0.2,0.3-0.3,0.4c-0.1,0.1-0.1,0.3-0.1,0.4c0,0.4,0.2,0.7,0.5,1c0.3,0.3,0.8,0.5,1.4,0.8c0.4,0.2,0.8,0.4,1.2,0.5
		c0.4,0.2,0.7,0.4,1,0.7c0.3,0.2,0.5,0.5,0.7,0.9c0.2,0.3,0.2,0.7,0.2,1.1c0,0.4-0.1,0.7-0.2,1c-0.2,0.3-0.4,0.6-0.7,0.9
		c-0.3,0.2-0.6,0.4-1,0.6s-0.8,0.2-1.3,0.2c-0.4,0-0.8,0-1.2-0.1c-0.4-0.1-0.7-0.2-0.9-0.3c-0.3-0.1-0.5-0.3-0.6-0.4
		C168.9,222.5,168.8,222.4,168.8,222.3z"/>
	<path fill="#232323" d="M33.7,231.8h-2.3c-0.1,0-0.1,0-0.2-0.1c-0.1-0.1-0.1-0.1-0.1-0.2v-0.8c0-0.1,0-0.1,0.1-0.2
		c0.1-0.1,0.1-0.1,0.2-0.1h6.1c0.1,0,0.1,0,0.2,0.1c0.1,0.1,0.1,0.1,0.1,0.2v0.8c0,0.1,0,0.1-0.1,0.2c-0.1,0.1-0.1,0.1-0.2,0.1h-2.3
		v8.4c0,0.1,0,0.1-0.1,0.2c-0.1,0.1-0.1,0.1-0.2,0.1H34c-0.1,0-0.1,0-0.2-0.1c-0.1-0.1-0.1-0.1-0.1-0.2V231.8z"/>
	<path fill="#232323" d="M37.7,240.4c-0.1,0-0.2,0-0.2-0.1c-0.1-0.1-0.1-0.2,0-0.3l4.4-9.6c0,0,0.1-0.1,0.1-0.1c0.1,0,0.1,0,0.1,0
		h0.1c0,0,0.1,0,0.1,0c0.1,0,0.1,0.1,0.1,0.1l4.3,9.6c0,0.1,0,0.2,0,0.3c-0.1,0.1-0.1,0.1-0.2,0.1h-0.9c-0.2,0-0.3-0.1-0.3-0.2
		l-0.9-2h-4.7c-0.1,0.3-0.3,0.7-0.4,1s-0.3,0.6-0.4,1c0,0-0.1,0.1-0.1,0.1c-0.1,0-0.1,0.1-0.2,0.1H37.7z M43.9,237l-1.8-3.9h-0.1
		l-1.7,3.9H43.9z"/>
	<path fill="#232323" d="M47.4,235.5c0-0.7,0.1-1.4,0.4-2c0.3-0.6,0.6-1.2,1.1-1.6s1-0.8,1.6-1.1c0.6-0.3,1.3-0.4,2-0.4
		c0.7,0,1.3,0.1,1.9,0.3c0.6,0.2,1.1,0.6,1.6,1c0.1,0.1,0.1,0.1,0.1,0.2s0,0.1-0.1,0.2c-0.1,0.1-0.2,0.2-0.3,0.3s-0.2,0.2-0.3,0.3
		c-0.1,0.1-0.2,0.1-0.4,0c-0.3-0.3-0.7-0.5-1.1-0.7s-0.9-0.3-1.3-0.3c-0.5,0-1,0.1-1.4,0.3c-0.4,0.2-0.8,0.5-1.1,0.8
		c-0.3,0.3-0.6,0.7-0.8,1.2c-0.2,0.5-0.3,0.9-0.3,1.4c0,0.5,0.1,1,0.3,1.4c0.2,0.4,0.4,0.8,0.8,1.2c0.3,0.3,0.7,0.6,1.1,0.8
		c0.4,0.2,0.9,0.3,1.4,0.3c0.3,0,0.6,0,0.8-0.1c0.2,0,0.5-0.1,0.6-0.1c0.2-0.1,0.3-0.1,0.4-0.2c0.1-0.1,0.2-0.1,0.2-0.1V237h-1.4
		c-0.1,0-0.1,0-0.2-0.1s-0.1-0.1-0.1-0.2V236c0-0.2,0.1-0.3,0.3-0.3h2.6c0.1,0,0.1,0,0.2,0.1c0,0.1,0.1,0.1,0.1,0.2
		c0,0.6,0,1.1,0,1.7s0,1.2,0,1.7c0,0.1,0,0.2-0.1,0.2c-0.3,0.2-0.6,0.3-1,0.5c-0.3,0.1-0.7,0.2-1.1,0.3s-0.9,0.1-1.4,0.1
		c-0.7,0-1.4-0.1-2-0.4c-0.6-0.3-1.2-0.6-1.6-1.1c-0.5-0.5-0.8-1-1.1-1.6C47.6,236.8,47.4,236.2,47.4,235.5z"/>
	<path fill="#232323" d="M57.9,239.4c-0.1-0.1-0.1-0.1-0.1-0.2c0-0.1,0-0.2,0.1-0.3c0.1-0.1,0.1-0.2,0.2-0.3
		c0.1-0.1,0.1-0.2,0.2-0.3c0.1-0.1,0.1-0.2,0.2-0.2c0.1,0,0.2,0,0.3,0.1c0,0,0.1,0.1,0.2,0.2c0.1,0.1,0.3,0.2,0.5,0.3
		s0.5,0.2,0.7,0.3c0.3,0.1,0.5,0.1,0.8,0.1c0.5,0,0.9-0.1,1.2-0.4s0.4-0.6,0.4-0.9c0-0.4-0.2-0.8-0.5-1.1c-0.4-0.3-0.9-0.6-1.6-0.9
		c-0.4-0.2-0.7-0.3-1-0.5c-0.3-0.2-0.6-0.4-0.8-0.6c-0.2-0.2-0.4-0.5-0.5-0.8c-0.1-0.3-0.2-0.7-0.2-1.1c0-0.3,0.1-0.6,0.2-0.9
		c0.1-0.3,0.3-0.6,0.5-0.9c0.2-0.3,0.6-0.5,1-0.6s0.9-0.3,1.4-0.3c0.4,0,0.7,0,1,0.1c0.3,0.1,0.6,0.2,0.8,0.3
		c0.2,0.1,0.4,0.2,0.6,0.3c0.1,0.1,0.2,0.1,0.3,0.2c0.1,0,0.1,0.1,0.1,0.2c0,0.1,0,0.2-0.1,0.3c-0.1,0.1-0.1,0.2-0.2,0.3
		c-0.1,0.1-0.1,0.2-0.2,0.3c-0.1,0.1-0.1,0.2-0.2,0.2c-0.1,0-0.2,0-0.3,0c0,0-0.1-0.1-0.2-0.1c-0.1-0.1-0.3-0.2-0.5-0.2
		c-0.2-0.1-0.4-0.2-0.6-0.2c-0.2-0.1-0.4-0.1-0.6-0.1c-0.3,0-0.6,0-0.8,0.1c-0.2,0.1-0.4,0.2-0.5,0.3c-0.1,0.1-0.2,0.3-0.3,0.4
		c-0.1,0.1-0.1,0.3-0.1,0.4c0,0.4,0.2,0.7,0.5,1c0.3,0.3,0.8,0.5,1.4,0.8c0.4,0.2,0.8,0.4,1.2,0.5c0.4,0.2,0.7,0.4,1,0.7
		c0.3,0.2,0.5,0.5,0.7,0.9c0.2,0.3,0.2,0.7,0.2,1.1c0,0.4-0.1,0.7-0.2,1c-0.2,0.3-0.4,0.6-0.7,0.9s-0.6,0.4-1,0.6s-0.8,0.2-1.3,0.2
		c-0.4,0-0.8,0-1.2-0.1c-0.4-0.1-0.7-0.2-0.9-0.3c-0.3-0.1-0.5-0.3-0.6-0.4C58.1,239.6,57.9,239.5,57.9,239.4z"/>
</g>
<rect x="223.3" y="58.3" fill="#4C4C4C" width="161.5" height="88.9"/>
<g>
	<path fill="#232323" d="M273.1,71.2c0-0.1,0-0.2,0-0.3c0.1-0.1,0.1-0.1,0.2-0.1h1.5c0.1,0,0.1,0,0.2,0S275,71,275,71l2.7,6.1h0.1
		l2.7-6.1c0,0,0-0.1,0.1-0.1s0.1,0,0.2,0h1.5c0.1,0,0.2,0,0.2,0.1c0.1,0.1,0.1,0.2,0,0.3l-4.4,9.6c-0.1,0.1-0.1,0.2-0.2,0.2h-0.1
		c-0.1,0-0.2-0.1-0.2-0.2L273.1,71.2z"/>
	<path fill="#232323" d="M283.8,71.1c0-0.1,0-0.1,0.1-0.2c0.1-0.1,0.1-0.1,0.2-0.1h5.8c0.1,0,0.1,0,0.2,0.1c0.1,0.1,0.1,0.1,0.1,0.2
		v1.2c0,0.1,0,0.1-0.1,0.2c-0.1,0.1-0.1,0.1-0.2,0.1h-4.2v2.3h3.5c0.1,0,0.1,0,0.2,0.1c0.1,0.1,0.1,0.1,0.1,0.2v1.2
		c0,0.1,0,0.1-0.1,0.2c-0.1,0.1-0.1,0.1-0.2,0.1h-3.5v2.5h4.2c0.1,0,0.1,0,0.2,0.1c0.1,0.1,0.1,0.1,0.1,0.2v1.2c0,0.1,0,0.1-0.1,0.2
		c-0.1,0.1-0.1,0.1-0.2,0.1h-5.8c-0.1,0-0.1,0-0.2-0.1c-0.1-0.1-0.1-0.1-0.1-0.2V71.1z"/>
	<path fill="#232323" d="M292.2,71.1c0-0.1,0-0.1,0.1-0.2c0.1-0.1,0.1-0.1,0.2-0.1h4.1c0.4,0,0.8,0.1,1.2,0.2c0.4,0.2,0.7,0.4,1,0.7
		s0.5,0.6,0.7,1c0.2,0.4,0.2,0.8,0.2,1.2c0,0.3-0.1,0.6-0.2,0.9c-0.1,0.3-0.3,0.6-0.4,0.8c-0.2,0.2-0.4,0.5-0.7,0.7
		c-0.3,0.2-0.5,0.4-0.9,0.5l2,3.6c0,0.1,0,0.2,0,0.3s-0.1,0.1-0.3,0.1h-1.5c-0.1,0-0.1,0-0.1,0c0,0-0.1-0.1-0.1-0.1l-1.9-3.8H294
		v3.6c0,0.1,0,0.1-0.1,0.2c-0.1,0.1-0.1,0.1-0.2,0.1h-1.3c-0.1,0-0.1,0-0.2-0.1c-0.1-0.1-0.1-0.1-0.1-0.2V71.1z M296.4,75.4
		c0.2,0,0.4,0,0.5-0.1s0.3-0.2,0.4-0.3c0.1-0.1,0.2-0.3,0.3-0.5c0.1-0.2,0.1-0.4,0.1-0.6c0-0.2,0-0.4-0.1-0.5s-0.2-0.3-0.3-0.4
		c-0.1-0.1-0.3-0.2-0.4-0.3c-0.2-0.1-0.4-0.1-0.5-0.1h-2.3v2.8H296.4z"/>
	<path fill="#232323" d="M301.2,79.9c-0.1-0.1-0.1-0.1-0.1-0.2c0-0.1,0-0.1,0.1-0.2l0.5-0.9c0.1-0.1,0.1-0.2,0.2-0.2
		c0.1,0,0.2,0,0.2,0.1c0,0,0.1,0.1,0.2,0.2s0.3,0.2,0.5,0.3c0.2,0.1,0.4,0.2,0.7,0.3s0.5,0.1,0.7,0.1c0.4,0,0.7-0.1,0.9-0.3
		c0.2-0.2,0.4-0.5,0.4-0.8c0-0.4-0.2-0.7-0.5-0.9c-0.3-0.3-0.8-0.5-1.4-0.8c-0.3-0.1-0.7-0.3-1-0.5s-0.6-0.4-0.9-0.6
		c-0.3-0.2-0.5-0.5-0.6-0.9c-0.2-0.3-0.2-0.7-0.2-1.1c0-0.3,0.1-0.6,0.2-1c0.1-0.3,0.3-0.6,0.6-0.9c0.3-0.3,0.6-0.5,1-0.6
		s0.9-0.2,1.5-0.2c0.4,0,0.7,0,1,0.1c0.3,0.1,0.6,0.2,0.8,0.3c0.2,0.1,0.5,0.2,0.6,0.3c0.2,0.1,0.3,0.2,0.4,0.2
		c0.1,0,0.1,0.1,0.1,0.2c0,0.1,0,0.2,0,0.3l-0.5,0.8c-0.1,0.1-0.1,0.1-0.2,0.2c-0.1,0-0.2,0-0.3,0c0,0-0.1-0.1-0.3-0.2
		s-0.3-0.2-0.5-0.3s-0.4-0.2-0.6-0.2s-0.4-0.1-0.6-0.1c-0.4,0-0.7,0.1-0.9,0.3s-0.3,0.4-0.3,0.7c0,0.3,0.1,0.6,0.4,0.9
		c0.3,0.2,0.7,0.5,1.3,0.7c0.3,0.1,0.7,0.3,1.1,0.5c0.4,0.2,0.7,0.4,1,0.6s0.5,0.5,0.7,0.9c0.2,0.3,0.3,0.7,0.3,1.2
		c0,0.4-0.1,0.7-0.2,1.1c-0.2,0.3-0.4,0.6-0.7,0.9c-0.3,0.3-0.6,0.5-1,0.6c-0.4,0.2-0.9,0.2-1.4,0.2c-0.4,0-0.8,0-1.2-0.1
		c-0.4-0.1-0.7-0.2-0.9-0.3c-0.3-0.1-0.5-0.2-0.6-0.4S301.2,80,301.2,79.9z"/>
	<path fill="#232323" d="M309.4,71.1c0-0.1,0-0.1,0.1-0.2c0.1-0.1,0.1-0.1,0.2-0.1h1.3c0.1,0,0.1,0,0.2,0.1c0.1,0.1,0.1,0.1,0.1,0.2
		v9.4c0,0.1,0,0.1-0.1,0.2c-0.1,0.1-0.1,0.1-0.2,0.1h-1.3c-0.1,0-0.1,0-0.2-0.1c-0.1-0.1-0.1-0.1-0.1-0.2V71.1z"/>
	<path fill="#232323" d="M313.2,75.9c0-0.7,0.1-1.4,0.4-2c0.3-0.6,0.6-1.2,1.1-1.6c0.5-0.5,1-0.8,1.6-1.1c0.6-0.3,1.3-0.4,2-0.4
		s1.4,0.1,2,0.4c0.6,0.3,1.2,0.6,1.6,1.1c0.5,0.5,0.8,1,1.1,1.6c0.3,0.6,0.4,1.3,0.4,2s-0.1,1.4-0.4,2c-0.3,0.6-0.6,1.2-1.1,1.6
		c-0.5,0.5-1,0.8-1.6,1.1c-0.6,0.3-1.3,0.4-2,0.4s-1.4-0.1-2-0.4c-0.6-0.3-1.2-0.6-1.6-1.1c-0.5-0.5-0.8-1-1.1-1.6
		C313.3,77.3,313.2,76.6,313.2,75.9z M315,75.9c0,0.4,0.1,0.9,0.3,1.3c0.2,0.4,0.4,0.7,0.7,1c0.3,0.3,0.6,0.5,1,0.7
		c0.4,0.2,0.8,0.3,1.3,0.3c0.4,0,0.9-0.1,1.3-0.3c0.4-0.2,0.7-0.4,1-0.7c0.3-0.3,0.5-0.6,0.7-1c0.2-0.4,0.3-0.8,0.3-1.3
		c0-0.4-0.1-0.9-0.3-1.3s-0.4-0.7-0.7-1c-0.3-0.3-0.6-0.5-1-0.7s-0.8-0.3-1.3-0.3c-0.4,0-0.9,0.1-1.3,0.3c-0.4,0.2-0.7,0.4-1,0.7
		c-0.3,0.3-0.5,0.6-0.7,1S315,75.4,315,75.9z"/>
	<path fill="#232323" d="M325.3,71c0-0.1,0-0.1,0.1-0.2c0.1,0,0.1-0.1,0.2-0.1h0.4l5.9,6.3h0v-5.9c0-0.1,0-0.1,0.1-0.2
		c0.1-0.1,0.1-0.1,0.2-0.1h1.3c0.1,0,0.1,0,0.2,0.1c0.1,0.1,0.1,0.1,0.1,0.2v9.6c0,0.1,0,0.1-0.1,0.2c-0.1,0-0.1,0.1-0.2,0.1h-0.3
		l-5.9-6.5h0v6.1c0,0.1,0,0.1-0.1,0.2c-0.1,0.1-0.1,0.1-0.2,0.1h-1.3c-0.1,0-0.1,0-0.2-0.1c-0.1-0.1-0.1-0.1-0.1-0.2V71z"/>
</g>
<g>
	<path fill="#232323" d="M231.5,93.9c0-0.1,0-0.2,0-0.3c0.1-0.1,0.1-0.1,0.2-0.1h1c0.1,0,0.1,0,0.2,0s0.1,0.1,0.1,0.1l3.1,7.1h0.1
		l3.1-7.1c0,0,0-0.1,0.1-0.1s0.1,0,0.2,0h1c0.1,0,0.2,0,0.2,0.1c0.1,0.1,0.1,0.2,0,0.3l-4.4,9.6c-0.1,0.1-0.1,0.2-0.2,0.2h-0.1
		c-0.1,0-0.2-0.1-0.2-0.2L231.5,93.9z"/>
	<path fill="#232323" d="M242.3,93.8c0-0.1,0-0.1,0.1-0.2c0.1-0.1,0.1-0.1,0.2-0.1h5.7c0.1,0,0.1,0,0.2,0.1c0.1,0.1,0.1,0.1,0.1,0.2
		v0.8c0,0.1,0,0.1-0.1,0.2c-0.1,0.1-0.1,0.1-0.2,0.1h-4.5v2.9h3.8c0.1,0,0.1,0,0.2,0.1c0.1,0.1,0.1,0.1,0.1,0.2v0.8
		c0,0.1,0,0.1-0.1,0.2c-0.1,0.1-0.1,0.1-0.2,0.1h-3.8v3.1h4.5c0.1,0,0.1,0,0.2,0.1c0.1,0.1,0.1,0.1,0.1,0.2v0.8c0,0.1,0,0.1-0.1,0.2
		c-0.1,0.1-0.1,0.1-0.2,0.1h-5.7c-0.1,0-0.1,0-0.2-0.1c-0.1-0.1-0.1-0.1-0.1-0.2V93.8z"/>
	<path fill="#232323" d="M250.7,93.8c0-0.1,0-0.1,0.1-0.2c0.1-0.1,0.1-0.1,0.2-0.1h3.9c0.4,0,0.8,0.1,1.2,0.2c0.4,0.2,0.7,0.4,1,0.6
		c0.3,0.3,0.5,0.6,0.7,1c0.2,0.4,0.2,0.8,0.2,1.2c0,0.3-0.1,0.6-0.2,0.9c-0.1,0.3-0.3,0.6-0.4,0.8c-0.2,0.2-0.4,0.5-0.7,0.7
		c-0.3,0.2-0.5,0.4-0.9,0.5l2,3.6c0,0.1,0,0.2,0,0.3s-0.1,0.1-0.2,0.1h-1.1c-0.1,0-0.1,0-0.1,0c0,0-0.1-0.1-0.1-0.1l-1.9-3.8h-2.1
		v3.6c0,0.1,0,0.1-0.1,0.2c-0.1,0.1-0.1,0.1-0.2,0.1H251c-0.1,0-0.1,0-0.2-0.1c-0.1-0.1-0.1-0.1-0.1-0.2V93.8z M254.8,98.4
		c0.2,0,0.4,0,0.7-0.1c0.2-0.1,0.4-0.2,0.6-0.4c0.2-0.2,0.3-0.3,0.4-0.6c0.1-0.2,0.1-0.4,0.1-0.7c0-0.2,0-0.4-0.1-0.7
		c-0.1-0.2-0.2-0.4-0.4-0.5s-0.3-0.3-0.6-0.4c-0.2-0.1-0.4-0.1-0.7-0.1h-2.5v3.5H254.8z"/>
	<path fill="#232323" d="M259.7,102.5c-0.1-0.1-0.1-0.1-0.1-0.2c0-0.1,0-0.2,0.1-0.3c0.1-0.1,0.1-0.2,0.2-0.3
		c0.1-0.1,0.1-0.2,0.2-0.3s0.1-0.2,0.2-0.2c0.1,0,0.2,0,0.3,0.1c0,0,0.1,0.1,0.2,0.2c0.1,0.1,0.3,0.2,0.5,0.3
		c0.2,0.1,0.5,0.2,0.7,0.3c0.3,0.1,0.5,0.1,0.8,0.1c0.5,0,0.9-0.1,1.2-0.4c0.3-0.3,0.4-0.6,0.4-0.9c0-0.4-0.2-0.8-0.5-1.1
		s-0.9-0.6-1.6-0.9c-0.4-0.2-0.7-0.3-1-0.5c-0.3-0.2-0.6-0.4-0.8-0.6c-0.2-0.2-0.4-0.5-0.5-0.8c-0.1-0.3-0.2-0.7-0.2-1.1
		c0-0.3,0.1-0.6,0.2-0.9c0.1-0.3,0.3-0.6,0.5-0.9c0.2-0.3,0.6-0.5,1-0.6c0.4-0.2,0.9-0.3,1.4-0.3c0.4,0,0.7,0,1,0.1
		c0.3,0.1,0.6,0.2,0.8,0.3c0.2,0.1,0.4,0.2,0.6,0.3c0.1,0.1,0.2,0.1,0.3,0.2c0.1,0,0.1,0.1,0.1,0.2s0,0.2-0.1,0.3
		c-0.1,0.1-0.1,0.2-0.2,0.3s-0.1,0.2-0.2,0.3c-0.1,0.1-0.1,0.2-0.2,0.2c-0.1,0-0.2,0-0.3,0c0,0-0.1-0.1-0.2-0.1
		c-0.1-0.1-0.3-0.2-0.5-0.2c-0.2-0.1-0.4-0.2-0.6-0.2c-0.2-0.1-0.4-0.1-0.6-0.1c-0.3,0-0.6,0-0.8,0.1c-0.2,0.1-0.4,0.2-0.5,0.3
		c-0.1,0.1-0.2,0.3-0.3,0.4c-0.1,0.1-0.1,0.3-0.1,0.4c0,0.4,0.2,0.7,0.5,1s0.8,0.5,1.4,0.8c0.4,0.2,0.8,0.4,1.2,0.5
		c0.4,0.2,0.7,0.4,1,0.7c0.3,0.2,0.5,0.5,0.7,0.9c0.2,0.3,0.2,0.7,0.2,1.1c0,0.4-0.1,0.7-0.2,1c-0.2,0.3-0.4,0.6-0.7,0.9
		c-0.3,0.2-0.6,0.4-1,0.6s-0.8,0.2-1.3,0.2c-0.4,0-0.8,0-1.2-0.1c-0.4-0.1-0.7-0.2-0.9-0.3c-0.3-0.1-0.5-0.3-0.6-0.4
		C259.8,102.7,259.7,102.6,259.7,102.5z"/>
	<path fill="#232323" d="M267.9,93.8c0-0.1,0-0.1,0.1-0.2c0.1-0.1,0.1-0.1,0.2-0.1h0.9c0.1,0,0.1,0,0.2,0.1c0.1,0.1,0.1,0.1,0.1,0.2
		v9.4c0,0.1,0,0.1-0.1,0.2c-0.1,0.1-0.1,0.1-0.2,0.1h-0.9c-0.1,0-0.1,0-0.2-0.1c-0.1-0.1-0.1-0.1-0.1-0.2V93.8z"/>
	<path fill="#232323" d="M271.4,98.6c0-0.7,0.1-1.4,0.4-2c0.3-0.6,0.6-1.2,1.1-1.6c0.5-0.5,1-0.8,1.6-1.1c0.6-0.3,1.3-0.4,2-0.4
		s1.4,0.1,2,0.4c0.6,0.3,1.2,0.6,1.6,1.1c0.5,0.5,0.8,1,1.1,1.6c0.3,0.6,0.4,1.3,0.4,2s-0.1,1.4-0.4,2c-0.3,0.6-0.6,1.2-1.1,1.6
		c-0.5,0.5-1,0.8-1.6,1.1c-0.6,0.3-1.3,0.4-2,0.4s-1.4-0.1-2-0.4c-0.6-0.3-1.2-0.6-1.6-1.1c-0.5-0.5-0.8-1-1.1-1.6
		C271.5,99.9,271.4,99.3,271.4,98.6z M272.8,98.6c0,0.5,0.1,1,0.3,1.4c0.2,0.4,0.5,0.8,0.8,1.2s0.7,0.6,1.2,0.8
		c0.5,0.2,0.9,0.3,1.4,0.3c0.5,0,1-0.1,1.4-0.3s0.8-0.5,1.2-0.8c0.3-0.3,0.6-0.7,0.8-1.2c0.2-0.4,0.3-0.9,0.3-1.4
		c0-0.5-0.1-1-0.3-1.4c-0.2-0.5-0.5-0.8-0.8-1.2c-0.3-0.3-0.7-0.6-1.2-0.8s-0.9-0.3-1.4-0.3c-0.5,0-1,0.1-1.4,0.3
		c-0.5,0.2-0.8,0.5-1.2,0.8s-0.6,0.7-0.8,1.2C272.9,97.6,272.8,98,272.8,98.6z"/>
	<path fill="#232323" d="M283.7,93.7c0-0.1,0-0.1,0.1-0.2c0.1,0,0.1-0.1,0.2-0.1h0.4l6.2,7.2h0v-6.7c0-0.1,0-0.1,0.1-0.2
		c0.1-0.1,0.1-0.1,0.2-0.1h0.9c0.1,0,0.1,0,0.2,0.1c0.1,0.1,0.1,0.1,0.1,0.2v9.6c0,0.1,0,0.1-0.1,0.2c-0.1,0-0.1,0.1-0.2,0.1h-0.4
		l-6.2-7.4h0v6.9c0,0.1,0,0.1-0.1,0.2c-0.1,0.1-0.1,0.1-0.2,0.1H284c-0.1,0-0.1,0-0.2-0.1c-0.1-0.1-0.1-0.1-0.1-0.2V93.7z"/>
	<path fill="#232323" d="M232.1,115.7c0-0.7,0.1-1.4,0.4-2c0.3-0.6,0.6-1.2,1.1-1.6c0.5-0.5,1-0.8,1.6-1.1c0.6-0.3,1.3-0.4,2-0.4
		c0.7,0,1.4,0.1,1.9,0.3c0.5,0.2,1.1,0.6,1.5,1c0.1,0.1,0.1,0.3,0,0.4l-0.6,0.6c-0.1,0.1-0.2,0.1-0.4,0c-0.3-0.3-0.7-0.5-1.1-0.7
		c-0.4-0.2-0.9-0.3-1.3-0.3c-0.5,0-1,0.1-1.4,0.3c-0.4,0.2-0.8,0.5-1.1,0.8s-0.6,0.7-0.8,1.2s-0.3,0.9-0.3,1.4c0,0.5,0.1,1,0.3,1.4
		c0.2,0.4,0.4,0.8,0.8,1.2c0.3,0.3,0.7,0.6,1.1,0.8s0.9,0.3,1.4,0.3c0.5,0,1-0.1,1.4-0.3c0.4-0.2,0.7-0.4,1.1-0.7
		c0.1-0.1,0.2-0.1,0.3,0l0.7,0.6c0.1,0,0.1,0.1,0.1,0.2c0,0.1,0,0.1-0.1,0.2c-0.5,0.5-1,0.8-1.6,1c-0.6,0.2-1.2,0.3-1.8,0.3
		c-0.7,0-1.4-0.1-2-0.4c-0.6-0.3-1.2-0.6-1.6-1.1c-0.5-0.5-0.8-1-1.1-1.6C232.3,117,232.1,116.4,232.1,115.7z"/>
	<path fill="#232323" d="M242.8,110.9c0-0.1,0-0.1,0.1-0.2c0.1-0.1,0.1-0.1,0.2-0.1h0.9c0.1,0,0.1,0,0.2,0.1
		c0.1,0.1,0.1,0.1,0.1,0.2v4h5.2v-4c0-0.1,0-0.1,0.1-0.2c0.1-0.1,0.1-0.1,0.2-0.1h0.9c0.1,0,0.1,0,0.2,0.1c0.1,0.1,0.1,0.1,0.1,0.2
		v9.4c0,0.1,0,0.1-0.1,0.2c-0.1,0.1-0.1,0.1-0.2,0.1h-0.9c-0.1,0-0.1,0-0.2-0.1c-0.1-0.1-0.1-0.1-0.1-0.2v-4.1h-5.2v4.1
		c0,0.1,0,0.1-0.1,0.2c-0.1,0.1-0.1,0.1-0.2,0.1h-0.9c-0.1,0-0.1,0-0.2-0.1c-0.1-0.1-0.1-0.1-0.1-0.2V110.9z"/>
	<path fill="#232323" d="M252.6,120.6c-0.1,0-0.2,0-0.2-0.1c-0.1-0.1-0.1-0.2,0-0.3l4.4-9.6c0,0,0.1-0.1,0.1-0.1c0.1,0,0.1,0,0.1,0
		h0.1c0,0,0.1,0,0.1,0c0.1,0,0.1,0.1,0.1,0.1l4.3,9.6c0,0.1,0,0.2,0,0.3c-0.1,0.1-0.1,0.1-0.2,0.1h-0.9c-0.2,0-0.3-0.1-0.3-0.2
		l-0.9-2h-4.7c-0.1,0.3-0.3,0.7-0.4,1c-0.1,0.3-0.3,0.6-0.4,1c0,0-0.1,0.1-0.1,0.1c-0.1,0-0.1,0.1-0.2,0.1H252.6z M258.9,117.2
		l-1.8-3.9H257l-1.7,3.9H258.9z"/>
	<path fill="#232323" d="M263.2,110.8c0-0.1,0-0.1,0.1-0.2c0.1,0,0.1-0.1,0.2-0.1h0.4l6.2,7.2h0v-6.7c0-0.1,0-0.1,0.1-0.2
		c0.1-0.1,0.1-0.1,0.2-0.1h0.9c0.1,0,0.1,0,0.2,0.1c0.1,0.1,0.1,0.1,0.1,0.2v9.6c0,0.1,0,0.1-0.1,0.2c-0.1,0-0.1,0.1-0.2,0.1h-0.4
		l-6.2-7.4h0v6.9c0,0.1,0,0.1-0.1,0.2c-0.1,0.1-0.1,0.1-0.2,0.1h-0.9c-0.1,0-0.1,0-0.2-0.1c-0.1-0.1-0.1-0.1-0.1-0.2V110.8z"/>
	<path fill="#232323" d="M273.5,115.7c0-0.7,0.1-1.4,0.4-2c0.3-0.6,0.6-1.2,1.1-1.6c0.5-0.5,1-0.8,1.6-1.1s1.3-0.4,2-0.4
		c0.7,0,1.3,0.1,1.9,0.3c0.6,0.2,1.1,0.6,1.6,1c0.1,0.1,0.1,0.1,0.1,0.2s0,0.1-0.1,0.2c-0.1,0.1-0.2,0.2-0.3,0.3s-0.2,0.2-0.3,0.3
		c-0.1,0.1-0.2,0.1-0.4,0c-0.3-0.3-0.7-0.5-1.1-0.7c-0.4-0.2-0.9-0.3-1.3-0.3c-0.5,0-1,0.1-1.4,0.3c-0.4,0.2-0.8,0.5-1.1,0.8
		s-0.6,0.7-0.8,1.2s-0.3,0.9-0.3,1.4c0,0.5,0.1,1,0.3,1.4c0.2,0.4,0.4,0.8,0.8,1.2s0.7,0.6,1.1,0.8s0.9,0.3,1.4,0.3
		c0.3,0,0.6,0,0.8-0.1c0.2,0,0.5-0.1,0.6-0.1c0.2-0.1,0.3-0.1,0.4-0.2c0.1-0.1,0.2-0.1,0.2-0.1v-1.6h-1.4c-0.1,0-0.1,0-0.2-0.1
		c-0.1,0-0.1-0.1-0.1-0.2v-0.8c0-0.2,0.1-0.3,0.3-0.3h2.6c0.1,0,0.1,0,0.2,0.1c0,0.1,0.1,0.1,0.1,0.2c0,0.6,0,1.1,0,1.7
		c0,0.6,0,1.2,0,1.7c0,0.1,0,0.2-0.1,0.2c-0.3,0.2-0.6,0.3-1,0.5c-0.3,0.1-0.7,0.2-1.1,0.3s-0.9,0.1-1.4,0.1c-0.7,0-1.4-0.1-2-0.4
		s-1.2-0.6-1.6-1.1c-0.5-0.5-0.8-1-1.1-1.6C273.6,117,273.5,116.4,273.5,115.7z"/>
	<path fill="#232323" d="M284.5,110.9c0-0.1,0-0.1,0.1-0.2c0.1-0.1,0.1-0.1,0.2-0.1h5.7c0.1,0,0.1,0,0.2,0.1
		c0.1,0.1,0.1,0.1,0.1,0.2v0.8c0,0.1,0,0.1-0.1,0.2c-0.1,0.1-0.1,0.1-0.2,0.1H286v2.9h3.8c0.1,0,0.1,0,0.2,0.1
		c0.1,0.1,0.1,0.1,0.1,0.2v0.8c0,0.1,0,0.1-0.1,0.2c-0.1,0.1-0.1,0.1-0.2,0.1H286v3.1h4.5c0.1,0,0.1,0,0.2,0.1
		c0.1,0.1,0.1,0.1,0.1,0.2v0.8c0,0.1,0,0.1-0.1,0.2c-0.1,0.1-0.1,0.1-0.2,0.1h-5.7c-0.1,0-0.1,0-0.2-0.1c-0.1-0.1-0.1-0.1-0.1-0.2
		V110.9z"/>
	<path fill="#232323" d="M292.4,119.7c-0.1-0.1-0.1-0.1-0.1-0.2c0-0.1,0-0.2,0.1-0.3c0.1-0.1,0.1-0.2,0.2-0.3
		c0.1-0.1,0.1-0.2,0.2-0.3s0.1-0.2,0.2-0.2c0.1,0,0.2,0,0.3,0.1c0,0,0.1,0.1,0.2,0.2c0.1,0.1,0.3,0.2,0.5,0.3
		c0.2,0.1,0.5,0.2,0.7,0.3c0.3,0.1,0.5,0.1,0.8,0.1c0.5,0,0.9-0.1,1.2-0.4c0.3-0.3,0.4-0.6,0.4-0.9c0-0.4-0.2-0.8-0.5-1.1
		s-0.9-0.6-1.6-0.9c-0.4-0.2-0.7-0.3-1-0.5c-0.3-0.2-0.6-0.4-0.8-0.6c-0.2-0.2-0.4-0.5-0.5-0.8c-0.1-0.3-0.2-0.7-0.2-1.1
		c0-0.3,0.1-0.6,0.2-0.9c0.1-0.3,0.3-0.6,0.5-0.9c0.2-0.3,0.6-0.5,1-0.6c0.4-0.2,0.9-0.3,1.4-0.3c0.4,0,0.7,0,1,0.1
		c0.3,0.1,0.6,0.2,0.8,0.3c0.2,0.1,0.4,0.2,0.6,0.3s0.2,0.1,0.3,0.2c0.1,0,0.1,0.1,0.1,0.2c0,0.1,0,0.2-0.1,0.3
		c-0.1,0.1-0.1,0.2-0.2,0.3c-0.1,0.1-0.1,0.2-0.2,0.3c-0.1,0.1-0.1,0.2-0.2,0.2c-0.1,0-0.2,0-0.3,0c0,0-0.1-0.1-0.2-0.1
		c-0.1-0.1-0.3-0.2-0.5-0.2c-0.2-0.1-0.4-0.2-0.6-0.2c-0.2-0.1-0.4-0.1-0.6-0.1c-0.3,0-0.6,0-0.8,0.1c-0.2,0.1-0.4,0.2-0.5,0.3
		c-0.1,0.1-0.2,0.3-0.3,0.4c-0.1,0.1-0.1,0.3-0.1,0.4c0,0.4,0.2,0.7,0.5,1c0.3,0.3,0.8,0.5,1.4,0.8c0.4,0.2,0.8,0.4,1.2,0.5
		c0.4,0.2,0.7,0.4,1,0.7c0.3,0.2,0.5,0.5,0.7,0.9s0.3,0.7,0.3,1.1c0,0.4-0.1,0.7-0.2,1c-0.2,0.3-0.4,0.6-0.7,0.9
		c-0.3,0.2-0.6,0.4-1,0.6c-0.4,0.1-0.8,0.2-1.3,0.2c-0.4,0-0.8,0-1.2-0.1c-0.4-0.1-0.7-0.2-0.9-0.3c-0.3-0.1-0.5-0.3-0.6-0.4
		C292.5,119.8,292.4,119.7,292.4,119.7z"/>
	<path fill="#232323" d="M232.8,128c0-0.1,0-0.1,0.1-0.2c0.1-0.1,0.1-0.1,0.2-0.1h5.8c0.1,0,0.1,0,0.2,0.1c0.1,0.1,0.1,0.1,0.1,0.2
		v1.2c0,0.1,0,0.1-0.1,0.2c-0.1,0.1-0.1,0.1-0.2,0.1h-4.2v2.7h3.5c0.1,0,0.1,0,0.2,0.1c0.1,0.1,0.1,0.1,0.1,0.2v1.2
		c0,0.1,0,0.1-0.1,0.2c-0.1,0.1-0.1,0.1-0.2,0.1h-3.5v3.6c0,0.1,0,0.1-0.1,0.2c-0.1,0.1-0.1,0.1-0.2,0.1H233c-0.1,0-0.1,0-0.2-0.1
		c-0.1-0.1-0.1-0.1-0.1-0.2V128z"/>
	<path fill="#232323" d="M240.8,128c0-0.1,0-0.1,0.1-0.2c0.1-0.1,0.1-0.1,0.2-0.1h1.3c0.1,0,0.1,0,0.2,0.1c0.1,0.1,0.1,0.1,0.1,0.2
		v9.4c0,0.1,0,0.1-0.1,0.2c-0.1,0.1-0.1,0.1-0.2,0.1h-1.3c-0.1,0-0.1,0-0.2-0.1c-0.1-0.1-0.1-0.1-0.1-0.2V128z"/>
	<path fill="#232323" d="M245.3,128c0-0.1,0-0.1,0.1-0.2c0.1-0.1,0.1-0.1,0.2-0.1h1.3c0.1,0,0.1,0,0.2,0.1c0.1,0.1,0.1,0.1,0.1,0.2
		v8h3.6c0.1,0,0.1,0,0.2,0.1c0.1,0.1,0.1,0.1,0.1,0.2v1.2c0,0.1,0,0.1-0.1,0.2c-0.1,0.1-0.1,0.1-0.2,0.1h-5.2c-0.1,0-0.1,0-0.2-0.1
		c-0.1-0.1-0.1-0.1-0.1-0.2V128z"/>
	<path fill="#232323" d="M252.5,128c0-0.1,0-0.1,0.1-0.2c0.1-0.1,0.1-0.1,0.2-0.1h5.8c0.1,0,0.1,0,0.2,0.1c0.1,0.1,0.1,0.1,0.1,0.2
		v1.2c0,0.1,0,0.1-0.1,0.2c-0.1,0.1-0.1,0.1-0.2,0.1h-4.2v2.3h3.5c0.1,0,0.1,0,0.2,0.1c0.1,0.1,0.1,0.1,0.1,0.2v1.2
		c0,0.1,0,0.1-0.1,0.2c-0.1,0.1-0.1,0.1-0.2,0.1h-3.5v2.5h4.2c0.1,0,0.1,0,0.2,0.1c0.1,0.1,0.1,0.1,0.1,0.2v1.2c0,0.1,0,0.1-0.1,0.2
		c-0.1,0.1-0.1,0.1-0.2,0.1h-5.8c-0.1,0-0.1,0-0.2-0.1c-0.1-0.1-0.1-0.1-0.1-0.2V128z"/>
	<path fill="#232323" d="M260.4,136.8c-0.1-0.1-0.1-0.1-0.1-0.2c0-0.1,0-0.1,0.1-0.2l0.5-0.9c0.1-0.1,0.1-0.2,0.2-0.2
		c0.1,0,0.2,0,0.2,0.1c0,0,0.1,0.1,0.2,0.2c0.1,0.1,0.3,0.2,0.5,0.3c0.2,0.1,0.4,0.2,0.7,0.3c0.2,0.1,0.5,0.1,0.7,0.1
		c0.4,0,0.7-0.1,0.9-0.3c0.2-0.2,0.4-0.5,0.4-0.8c0-0.4-0.2-0.7-0.5-0.9c-0.3-0.3-0.8-0.5-1.4-0.8c-0.3-0.1-0.7-0.3-1-0.5
		s-0.6-0.4-0.9-0.6c-0.3-0.2-0.5-0.5-0.6-0.9c-0.2-0.3-0.2-0.7-0.2-1.1c0-0.3,0.1-0.6,0.2-1c0.1-0.3,0.3-0.6,0.6-0.9
		c0.3-0.3,0.6-0.5,1-0.6c0.4-0.2,0.9-0.2,1.5-0.2c0.4,0,0.7,0,1,0.1c0.3,0.1,0.6,0.2,0.8,0.3c0.2,0.1,0.5,0.2,0.6,0.3
		c0.2,0.1,0.3,0.2,0.4,0.2c0.1,0,0.1,0.1,0.1,0.2c0,0.1,0,0.2,0,0.3l-0.5,0.8c-0.1,0.1-0.1,0.2-0.2,0.2c-0.1,0-0.2,0-0.3,0
		c0,0-0.1-0.1-0.3-0.2c-0.1-0.1-0.3-0.2-0.5-0.3c-0.2-0.1-0.4-0.2-0.6-0.3s-0.4-0.1-0.6-0.1c-0.4,0-0.7,0.1-0.9,0.3
		s-0.3,0.4-0.3,0.7c0,0.3,0.1,0.6,0.4,0.9c0.3,0.2,0.7,0.5,1.3,0.7c0.3,0.1,0.7,0.3,1.1,0.5c0.4,0.2,0.7,0.4,1,0.6s0.5,0.5,0.7,0.9
		c0.2,0.3,0.3,0.7,0.3,1.2c0,0.4-0.1,0.7-0.2,1.1c-0.2,0.3-0.4,0.6-0.7,0.9c-0.3,0.3-0.6,0.5-1,0.6c-0.4,0.2-0.9,0.2-1.4,0.2
		c-0.4,0-0.8,0-1.2-0.1s-0.7-0.2-0.9-0.3c-0.3-0.1-0.5-0.2-0.6-0.4C260.5,136.9,260.4,136.9,260.4,136.8z"/>
</g>
<rect x="424.3" y="58.3" fill="#4C4C4C" width="161.5" height="106.1"/>
<g>
	<path fill="#232323" d="M492.3,71.1c0-0.1,0-0.1,0.1-0.2c0.1-0.1,0.1-0.1,0.2-0.1h5.8c0.1,0,0.1,0,0.2,0.1c0.1,0.1,0.1,0.1,0.1,0.2
		v1.2c0,0.1,0,0.1-0.1,0.2c-0.1,0.1-0.1,0.1-0.2,0.1h-4.2v2.7h3.5c0.1,0,0.1,0,0.2,0.1c0.1,0.1,0.1,0.1,0.1,0.2v1.2
		c0,0.1,0,0.1-0.1,0.2c-0.1,0.1-0.1,0.1-0.2,0.1h-3.5v3.6c0,0.1,0,0.1-0.1,0.2c-0.1,0.1-0.1,0.1-0.2,0.1h-1.3c-0.1,0-0.1,0-0.2-0.1
		c-0.1-0.1-0.1-0.1-0.1-0.2V71.1z"/>
	<path fill="#232323" d="M500.3,71.1c0-0.1,0-0.1,0.1-0.2c0.1-0.1,0.1-0.1,0.2-0.1h1.3c0.1,0,0.1,0,0.2,0.1c0.1,0.1,0.1,0.1,0.1,0.2
		v9.4c0,0.1,0,0.1-0.1,0.2c-0.1,0.1-0.1,0.1-0.2,0.1h-1.3c-0.1,0-0.1,0-0.2-0.1c-0.1-0.1-0.1-0.1-0.1-0.2V71.1z"/>
	<path fill="#232323" d="M504.8,71.1c0-0.1,0-0.1,0.1-0.2c0.1-0.1,0.1-0.1,0.2-0.1h1.3c0.1,0,0.1,0,0.2,0.1c0.1,0.1,0.1,0.1,0.1,0.2
		v8h3.6c0.1,0,0.1,0,0.2,0.1c0.1,0.1,0.1,0.1,0.1,0.2v1.2c0,0.1,0,0.1-0.1,0.2c-0.1,0.1-0.1,0.1-0.2,0.1h-5.2c-0.1,0-0.1,0-0.2-0.1
		c-0.1-0.1-0.1-0.1-0.1-0.2V71.1z"/>
	<path fill="#232323" d="M512,71.1c0-0.1,0-0.1,0.1-0.2c0.1-0.1,0.1-0.1,0.2-0.1h5.8c0.1,0,0.1,0,0.2,0.1c0.1,0.1,0.1,0.1,0.1,0.2
		v1.2c0,0.1,0,0.1-0.1,0.2c-0.1,0.1-0.1,0.1-0.2,0.1h-4.2v2.3h3.5c0.1,0,0.1,0,0.2,0.1c0.1,0.1,0.1,0.1,0.1,0.2v1.2
		c0,0.1,0,0.1-0.1,0.2c-0.1,0.1-0.1,0.1-0.2,0.1h-3.5v2.5h4.2c0.1,0,0.1,0,0.2,0.1c0.1,0.1,0.1,0.1,0.1,0.2v1.2c0,0.1,0,0.1-0.1,0.2
		c-0.1,0.1-0.1,0.1-0.2,0.1h-5.8c-0.1,0-0.1,0-0.2-0.1c-0.1-0.1-0.1-0.1-0.1-0.2V71.1z"/>
</g>
<g>
	<path fill="#232323" d="M433.9,93.8c0-0.1,0-0.1,0.1-0.2c0.1-0.1,0.1-0.1,0.2-0.1h5.7c0.1,0,0.1,0,0.2,0.1c0.1,0.1,0.1,0.1,0.1,0.2
		v0.8c0,0.1,0,0.1-0.1,0.2c-0.1,0.1-0.1,0.1-0.2,0.1h-4.5v3.3h3.8c0.1,0,0.1,0,0.2,0.1c0.1,0.1,0.1,0.1,0.1,0.2v0.8
		c0,0.1,0,0.1-0.1,0.2c-0.1,0.1-0.1,0.1-0.2,0.1h-3.8v3.8c0,0.1,0,0.1-0.1,0.2c-0.1,0.1-0.1,0.1-0.2,0.1h-0.9c-0.1,0-0.1,0-0.2-0.1
		c-0.1-0.1-0.1-0.1-0.1-0.2V93.8z"/>
	<path fill="#232323" d="M441.9,93.8c0-0.1,0-0.1,0.1-0.2c0.1-0.1,0.1-0.1,0.2-0.1h0.9c0.1,0,0.1,0,0.2,0.1c0.1,0.1,0.1,0.1,0.1,0.2
		v9.4c0,0.1,0,0.1-0.1,0.2c-0.1,0.1-0.1,0.1-0.2,0.1h-0.9c-0.1,0-0.1,0-0.2-0.1c-0.1-0.1-0.1-0.1-0.1-0.2V93.8z"/>
	<path fill="#232323" d="M446.2,93.8c0-0.1,0-0.1,0.1-0.2c0.1-0.1,0.1-0.1,0.2-0.1h0.9c0.1,0,0.1,0,0.2,0.1c0.1,0.1,0.1,0.1,0.1,0.2
		v8.4h3.9c0.1,0,0.1,0,0.2,0.1c0.1,0.1,0.1,0.1,0.1,0.2v0.8c0,0.1,0,0.1-0.1,0.2c-0.1,0.1-0.1,0.1-0.2,0.1h-5.1
		c-0.1,0-0.1,0-0.2-0.1c-0.1-0.1-0.1-0.1-0.1-0.2V93.8z"/>
	<path fill="#232323" d="M453.3,93.8c0-0.1,0-0.1,0.1-0.2c0.1-0.1,0.1-0.1,0.2-0.1h5.7c0.1,0,0.1,0,0.2,0.1c0.1,0.1,0.1,0.1,0.1,0.2
		v0.8c0,0.1,0,0.1-0.1,0.2c-0.1,0.1-0.1,0.1-0.2,0.1h-4.5v2.9h3.8c0.1,0,0.1,0,0.2,0.1c0.1,0.1,0.1,0.1,0.1,0.2v0.8
		c0,0.1,0,0.1-0.1,0.2c-0.1,0.1-0.1,0.1-0.2,0.1h-3.8v3.1h4.5c0.1,0,0.1,0,0.2,0.1c0.1,0.1,0.1,0.1,0.1,0.2v0.8c0,0.1,0,0.1-0.1,0.2
		c-0.1,0.1-0.1,0.1-0.2,0.1h-5.7c-0.1,0-0.1,0-0.2-0.1c-0.1-0.1-0.1-0.1-0.1-0.2V93.8z"/>
	<path fill="#232323" d="M433.9,110.9c0-0.1,0-0.1,0.1-0.2c0.1-0.1,0.1-0.1,0.2-0.1h5.7c0.1,0,0.1,0,0.2,0.1
		c0.1,0.1,0.1,0.1,0.1,0.2v0.8c0,0.1,0,0.1-0.1,0.2c-0.1,0.1-0.1,0.1-0.2,0.1h-4.5v3.3h3.8c0.1,0,0.1,0,0.2,0.1
		c0.1,0.1,0.1,0.1,0.1,0.2v0.8c0,0.1,0,0.1-0.1,0.2c-0.1,0.1-0.1,0.1-0.2,0.1h-3.8v3.8c0,0.1,0,0.1-0.1,0.2
		c-0.1,0.1-0.1,0.1-0.2,0.1h-0.9c-0.1,0-0.1,0-0.2-0.1c-0.1-0.1-0.1-0.1-0.1-0.2V110.9z"/>
	<path fill="#232323" d="M441.9,110.9c0-0.1,0-0.1,0.1-0.2c0.1-0.1,0.1-0.1,0.2-0.1h0.9c0.1,0,0.1,0,0.2,0.1
		c0.1,0.1,0.1,0.1,0.1,0.2v8.4h3.9c0.1,0,0.1,0,0.2,0.1c0.1,0.1,0.1,0.1,0.1,0.2v0.8c0,0.1,0,0.1-0.1,0.2c-0.1,0.1-0.1,0.1-0.2,0.1
		h-5.1c-0.1,0-0.1,0-0.2-0.1c-0.1-0.1-0.1-0.1-0.1-0.2V110.9z"/>
	<path fill="#232323" d="M448.4,120.6c-0.1,0-0.2,0-0.2-0.1c-0.1-0.1-0.1-0.2,0-0.3l4.4-9.6c0,0,0.1-0.1,0.1-0.1c0.1,0,0.1,0,0.1,0
		h0.1c0,0,0.1,0,0.1,0c0.1,0,0.1,0.1,0.1,0.1l4.3,9.6c0,0.1,0,0.2,0,0.3c-0.1,0.1-0.1,0.1-0.2,0.1h-0.9c-0.2,0-0.3-0.1-0.3-0.2
		l-0.9-2h-4.7c-0.1,0.3-0.3,0.7-0.4,1c-0.1,0.3-0.3,0.6-0.4,1c0,0-0.1,0.1-0.1,0.1c-0.1,0-0.1,0.1-0.2,0.1H448.4z M454.6,117.2
		l-1.8-3.9h-0.1l-1.7,3.9H454.6z"/>
	<path fill="#232323" d="M457,111c0-0.1,0-0.2,0-0.3c0.1-0.1,0.1-0.1,0.2-0.1h1c0.1,0,0.1,0,0.2,0s0.1,0.1,0.1,0.1l3.1,7.1h0.1
		l3.1-7.1c0,0,0-0.1,0.1-0.1s0.1,0,0.2,0h1c0.1,0,0.2,0,0.2,0.1c0.1,0.1,0.1,0.2,0,0.3l-4.4,9.6c-0.1,0.1-0.1,0.2-0.2,0.2h-0.1
		c-0.1,0-0.2-0.1-0.2-0.2L457,111z"/>
	<path fill="#232323" d="M467,115.7c0-0.7,0.1-1.4,0.4-2c0.3-0.6,0.6-1.2,1.1-1.6c0.5-0.5,1-0.8,1.6-1.1c0.6-0.3,1.3-0.4,2-0.4
		s1.4,0.1,2,0.4c0.6,0.3,1.2,0.6,1.6,1.1c0.5,0.5,0.8,1,1.1,1.6c0.3,0.6,0.4,1.3,0.4,2s-0.1,1.4-0.4,2c-0.3,0.6-0.6,1.2-1.1,1.6
		c-0.5,0.5-1,0.8-1.6,1.1c-0.6,0.3-1.3,0.4-2,0.4s-1.4-0.1-2-0.4c-0.6-0.3-1.2-0.6-1.6-1.1c-0.5-0.5-0.8-1-1.1-1.6
		C467.1,117,467,116.4,467,115.7z M468.4,115.7c0,0.5,0.1,1,0.3,1.4c0.2,0.4,0.5,0.8,0.8,1.2s0.7,0.6,1.2,0.8
		c0.5,0.2,0.9,0.3,1.4,0.3c0.5,0,1-0.1,1.4-0.3s0.8-0.5,1.2-0.8c0.3-0.3,0.6-0.7,0.8-1.2c0.2-0.4,0.3-0.9,0.3-1.4
		c0-0.5-0.1-1-0.3-1.4c-0.2-0.5-0.5-0.8-0.8-1.2c-0.3-0.3-0.7-0.6-1.2-0.8s-0.9-0.3-1.4-0.3c-0.5,0-1,0.1-1.4,0.3
		c-0.5,0.2-0.8,0.5-1.2,0.8s-0.6,0.7-0.8,1.2C468.5,114.7,468.4,115.2,468.4,115.7z"/>
	<path fill="#232323" d="M479.3,110.9c0-0.1,0-0.1,0.1-0.2c0.1-0.1,0.1-0.1,0.2-0.1h3.9c0.4,0,0.8,0.1,1.2,0.2
		c0.4,0.2,0.7,0.4,1,0.6c0.3,0.3,0.5,0.6,0.7,1c0.2,0.4,0.2,0.8,0.2,1.2c0,0.3-0.1,0.6-0.2,0.9c-0.1,0.3-0.3,0.6-0.4,0.8
		c-0.2,0.2-0.4,0.5-0.7,0.7c-0.3,0.2-0.5,0.4-0.9,0.5l2,3.6c0,0.1,0,0.2,0,0.3s-0.1,0.1-0.2,0.1H485c-0.1,0-0.1,0-0.1,0
		c0,0-0.1-0.1-0.1-0.1l-1.9-3.8h-2.1v3.6c0,0.1,0,0.1-0.1,0.2c-0.1,0.1-0.1,0.1-0.2,0.1h-0.9c-0.1,0-0.1,0-0.2-0.1
		c-0.1-0.1-0.1-0.1-0.1-0.2V110.9z M483.3,115.5c0.2,0,0.4,0,0.7-0.1c0.2-0.1,0.4-0.2,0.6-0.4c0.2-0.2,0.3-0.3,0.4-0.6
		c0.1-0.2,0.1-0.4,0.1-0.7c0-0.2,0-0.4-0.1-0.7c-0.1-0.2-0.2-0.4-0.4-0.5s-0.3-0.3-0.6-0.4c-0.2-0.1-0.4-0.1-0.7-0.1h-2.5v3.5H483.3
		z"/>
	<path fill="#232323" d="M433.1,132.8c0-0.7,0.1-1.4,0.4-2c0.3-0.6,0.6-1.2,1.1-1.6c0.5-0.5,1-0.8,1.6-1.1c0.6-0.3,1.3-0.4,2-0.4
		c0.7,0,1.4,0.1,1.9,0.3s1.1,0.6,1.5,1c0.1,0.1,0.1,0.3,0,0.4l-0.6,0.6c-0.1,0.1-0.2,0.1-0.4,0c-0.3-0.3-0.7-0.5-1.1-0.7
		s-0.9-0.3-1.3-0.3c-0.5,0-1,0.1-1.4,0.3s-0.8,0.5-1.1,0.8c-0.3,0.3-0.6,0.7-0.8,1.2c-0.2,0.5-0.3,0.9-0.3,1.4c0,0.5,0.1,1,0.3,1.4
		c0.2,0.4,0.4,0.8,0.8,1.2s0.7,0.6,1.1,0.8c0.4,0.2,0.9,0.3,1.4,0.3c0.5,0,1-0.1,1.4-0.3c0.4-0.2,0.7-0.4,1.1-0.7
		c0.1-0.1,0.2-0.1,0.3,0l0.7,0.6c0.1,0,0.1,0.1,0.1,0.2c0,0.1,0,0.1-0.1,0.2c-0.5,0.5-1,0.8-1.6,1c-0.6,0.2-1.2,0.3-1.8,0.3
		c-0.7,0-1.4-0.1-2-0.4c-0.6-0.3-1.2-0.6-1.6-1.1s-0.8-1-1.1-1.6C433.3,134.2,433.1,133.5,433.1,132.8z"/>
	<path fill="#232323" d="M443,132.8c0-0.7,0.1-1.4,0.4-2c0.3-0.6,0.6-1.2,1.1-1.6c0.5-0.5,1-0.8,1.6-1.1c0.6-0.3,1.3-0.4,2-0.4
		s1.4,0.1,2,0.4c0.6,0.3,1.2,0.6,1.6,1.1c0.5,0.5,0.8,1,1.1,1.6c0.3,0.6,0.4,1.3,0.4,2s-0.1,1.4-0.4,2c-0.3,0.6-0.6,1.2-1.1,1.6
		s-1,0.8-1.6,1.1c-0.6,0.3-1.3,0.4-2,0.4s-1.4-0.1-2-0.4c-0.6-0.3-1.2-0.6-1.6-1.1c-0.5-0.5-0.8-1-1.1-1.6
		C443.2,134.2,443,133.5,443,132.8z M444.4,132.8c0,0.5,0.1,1,0.3,1.4c0.2,0.4,0.5,0.8,0.8,1.2s0.7,0.6,1.2,0.8
		c0.5,0.2,0.9,0.3,1.4,0.3c0.5,0,1-0.1,1.4-0.3c0.4-0.2,0.8-0.5,1.2-0.8c0.3-0.3,0.6-0.7,0.8-1.2c0.2-0.4,0.3-0.9,0.3-1.4
		c0-0.5-0.1-1-0.3-1.4c-0.2-0.5-0.5-0.8-0.8-1.2c-0.3-0.3-0.7-0.6-1.2-0.8c-0.4-0.2-0.9-0.3-1.4-0.3c-0.5,0-1,0.1-1.4,0.3
		c-0.5,0.2-0.8,0.5-1.2,0.8c-0.3,0.3-0.6,0.7-0.8,1.2C444.5,131.8,444.4,132.3,444.4,132.8z"/>
	<path fill="#232323" d="M456.4,127.8c0-0.1,0.1-0.1,0.1-0.2c0,0,0.1-0.1,0.2-0.1h0.2c0,0,0.1,0,0.1,0c0,0,0.1,0.1,0.1,0.1l3,7.3
		h0.1l3-7.3c0-0.1,0.1-0.2,0.2-0.2h0.2c0.1,0,0.1,0,0.2,0.1c0,0,0.1,0.1,0.1,0.2l1.8,9.6c0,0.2,0,0.3-0.3,0.3h-0.9
		c-0.1,0-0.1,0-0.2-0.1c0,0-0.1-0.1-0.1-0.1l-1.1-6.4h0l-2.6,6.6c0,0.1-0.1,0.2-0.2,0.2H460c-0.1,0-0.2-0.1-0.2-0.2l-2.6-6.6h-0.1
		l-1,6.4c0,0,0,0.1-0.1,0.1c-0.1,0-0.1,0.1-0.2,0.1h-0.9c-0.2,0-0.3-0.1-0.3-0.3L456.4,127.8z"/>
	<path fill="#232323" d="M467.7,128c0-0.1,0-0.1,0.1-0.2c0.1-0.1,0.1-0.1,0.2-0.1h3.3c0.4,0,0.9,0.1,1.2,0.2c0.4,0.2,0.7,0.4,1,0.7
		s0.5,0.6,0.7,1c0.2,0.4,0.3,0.8,0.3,1.2c0,0.4-0.1,0.9-0.2,1.2c-0.2,0.4-0.4,0.7-0.7,1c-0.3,0.3-0.6,0.5-1,0.7
		c-0.4,0.2-0.8,0.3-1.2,0.3h-2.1v3.4c0,0.1,0,0.1-0.1,0.2c-0.1,0.1-0.1,0.1-0.2,0.1H468c-0.1,0-0.1,0-0.2-0.1
		c-0.1-0.1-0.1-0.1-0.1-0.2V128z M471.1,132.7c0.2,0,0.5,0,0.7-0.1c0.2-0.1,0.4-0.2,0.6-0.4c0.2-0.2,0.3-0.4,0.4-0.6
		c0.1-0.2,0.1-0.5,0.1-0.7c0-0.2,0-0.5-0.1-0.7c-0.1-0.2-0.2-0.4-0.4-0.5c-0.2-0.2-0.4-0.3-0.6-0.4c-0.2-0.1-0.4-0.1-0.7-0.1h-2v3.5
		H471.1z"/>
	<path fill="#232323" d="M474.6,137.8c-0.1,0-0.2,0-0.2-0.1c-0.1-0.1-0.1-0.2,0-0.3l4.4-9.6c0,0,0.1-0.1,0.1-0.1c0.1,0,0.1,0,0.1,0
		h0.1c0,0,0.1,0,0.1,0c0.1,0,0.1,0.1,0.1,0.1l4.3,9.6c0,0.1,0,0.2,0,0.3c-0.1,0.1-0.1,0.1-0.2,0.1h-0.9c-0.2,0-0.3-0.1-0.3-0.2
		l-0.9-2h-4.7c-0.1,0.3-0.3,0.7-0.4,1c-0.1,0.3-0.3,0.6-0.4,1c0,0-0.1,0.1-0.1,0.1c-0.1,0-0.1,0.1-0.2,0.1H474.6z M480.8,134.3
		l-1.8-3.9H479l-1.7,3.9H480.8z"/>
	<path fill="#232323" d="M486,129.1h-2.3c-0.1,0-0.1,0-0.2-0.1c-0.1-0.1-0.1-0.1-0.1-0.2V128c0-0.1,0-0.1,0.1-0.2
		c0.1-0.1,0.1-0.1,0.2-0.1h6.1c0.1,0,0.1,0,0.2,0.1c0.1,0.1,0.1,0.1,0.1,0.2v0.8c0,0.1,0,0.1-0.1,0.2c-0.1,0.1-0.1,0.1-0.2,0.1h-2.3
		v8.4c0,0.1,0,0.1-0.1,0.2c-0.1,0.1-0.1,0.1-0.2,0.1h-0.9c-0.1,0-0.1,0-0.2-0.1c-0.1-0.1-0.1-0.1-0.1-0.2V129.1z"/>
	<path fill="#232323" d="M491.6,128c0-0.1,0-0.1,0.1-0.2c0.1-0.1,0.1-0.1,0.2-0.1h0.9c0.1,0,0.1,0,0.2,0.1c0.1,0.1,0.1,0.1,0.1,0.2
		v9.4c0,0.1,0,0.1-0.1,0.2c-0.1,0.1-0.1,0.1-0.2,0.1h-0.9c-0.1,0-0.1,0-0.2-0.1c-0.1-0.1-0.1-0.1-0.1-0.2V128z"/>
	<path fill="#232323" d="M495.8,128c0-0.1,0-0.1,0.1-0.2c0.1-0.1,0.1-0.1,0.2-0.1h3.2c0.4,0,0.8,0.1,1.2,0.2
		c0.4,0.1,0.7,0.3,0.9,0.6c0.3,0.2,0.5,0.5,0.6,0.8s0.2,0.7,0.2,1c0,0.3,0,0.5-0.1,0.8c-0.1,0.2-0.2,0.4-0.3,0.6
		c-0.1,0.2-0.3,0.4-0.5,0.5s-0.3,0.3-0.5,0.4c0.2,0.1,0.4,0.2,0.6,0.3s0.4,0.3,0.6,0.5c0.2,0.2,0.3,0.4,0.4,0.7
		c0.1,0.3,0.2,0.5,0.2,0.9c0,0.4-0.1,0.8-0.2,1.1c-0.2,0.3-0.4,0.6-0.6,0.9c-0.3,0.2-0.6,0.4-1,0.6s-0.8,0.2-1.2,0.2h-3.4
		c-0.1,0-0.1,0-0.2-0.1c-0.1-0.1-0.1-0.1-0.1-0.2V128z M499.4,136.4c0.4,0,0.8-0.1,1.1-0.4c0.3-0.3,0.4-0.7,0.4-1.1
		c0-0.2,0-0.4-0.1-0.6s-0.2-0.3-0.4-0.5c-0.2-0.1-0.3-0.2-0.6-0.3s-0.4-0.1-0.7-0.1h-2v3.1H499.4z M499.2,132.1
		c0.5,0,0.8-0.1,1.1-0.4c0.3-0.3,0.4-0.7,0.4-1.1c0-0.4-0.1-0.8-0.4-1.1s-0.6-0.4-1.1-0.4h-1.9v3H499.2z"/>
	<path fill="#232323" d="M504.7,128c0-0.1,0-0.1,0.1-0.2c0.1-0.1,0.1-0.1,0.2-0.1h0.9c0.1,0,0.1,0,0.2,0.1c0.1,0.1,0.1,0.1,0.1,0.2
		v9.4c0,0.1,0,0.1-0.1,0.2c-0.1,0.1-0.1,0.1-0.2,0.1H505c-0.1,0-0.1,0-0.2-0.1c-0.1-0.1-0.1-0.1-0.1-0.2V128z"/>
	<path fill="#232323" d="M509,128c0-0.1,0-0.1,0.1-0.2c0.1-0.1,0.1-0.1,0.2-0.1h0.9c0.1,0,0.1,0,0.2,0.1c0.1,0.1,0.1,0.1,0.1,0.2
		v8.4h3.9c0.1,0,0.1,0,0.2,0.1c0.1,0.1,0.1,0.1,0.1,0.2v0.8c0,0.1,0,0.1-0.1,0.2c-0.1,0.1-0.1,0.1-0.2,0.1h-5.1
		c-0.1,0-0.1,0-0.2-0.1c-0.1-0.1-0.1-0.1-0.1-0.2V128z"/>
	<path fill="#232323" d="M516.1,128c0-0.1,0-0.1,0.1-0.2c0.1-0.1,0.1-0.1,0.2-0.1h0.9c0.1,0,0.1,0,0.2,0.1c0.1,0.1,0.1,0.1,0.1,0.2
		v9.4c0,0.1,0,0.1-0.1,0.2c-0.1,0.1-0.1,0.1-0.2,0.1h-0.9c-0.1,0-0.1,0-0.2-0.1c-0.1-0.1-0.1-0.1-0.1-0.2V128z"/>
	<path fill="#232323" d="M521.7,129.1h-2.3c-0.1,0-0.1,0-0.2-0.1c-0.1-0.1-0.1-0.1-0.1-0.2V128c0-0.1,0-0.1,0.1-0.2
		c0.1-0.1,0.1-0.1,0.2-0.1h6.1c0.1,0,0.1,0,0.2,0.1c0.1,0.1,0.1,0.1,0.1,0.2v0.8c0,0.1,0,0.1-0.1,0.2c-0.1,0.1-0.1,0.1-0.2,0.1h-2.3
		v8.4c0,0.1,0,0.1-0.1,0.2c-0.1,0.1-0.1,0.1-0.2,0.1H522c-0.1,0-0.1,0-0.2-0.1c-0.1-0.1-0.1-0.1-0.1-0.2V129.1z"/>
	<path fill="#232323" d="M529.7,132.9l-3.3-4.8c-0.1-0.1-0.1-0.2,0-0.3c0-0.1,0.1-0.1,0.2-0.1h1.1c0.1,0,0.1,0,0.1,0
		c0,0,0.1,0.1,0.1,0.1l2.6,3.6l2.6-3.6c0,0,0-0.1,0.1-0.1c0,0,0.1,0,0.1,0h1.1c0.1,0,0.2,0,0.2,0.1c0,0.1,0,0.2,0,0.3l-3.4,4.7v4.5
		c0,0.1,0,0.1-0.1,0.2c-0.1,0.1-0.1,0.1-0.2,0.1H530c-0.1,0-0.1,0-0.2-0.1c-0.1-0.1-0.1-0.1-0.1-0.2V132.9z"/>
	<path fill="#232323" d="M434.9,145c0-0.1,0.1-0.1,0.1-0.1c0,0,0.1-0.1,0.2-0.1h0.2c0,0,0.1,0,0.1,0c0,0,0.1,0.1,0.1,0.1l3,7.3h0.1
		l3-7.3c0-0.1,0.1-0.2,0.2-0.2h0.2c0.1,0,0.1,0,0.2,0.1c0,0,0.1,0.1,0.1,0.1l1.8,9.6c0,0.2,0,0.3-0.3,0.3H443c-0.1,0-0.1,0-0.2-0.1
		c0,0-0.1-0.1-0.1-0.1l-1.1-6.4h0l-2.6,6.6c0,0.1-0.1,0.2-0.2,0.2h-0.3c-0.1,0-0.2-0.1-0.2-0.2l-2.6-6.6h-0.1l-1,6.4
		c0,0,0,0.1-0.1,0.1c-0.1,0-0.1,0.1-0.2,0.1h-0.9c-0.2,0-0.3-0.1-0.3-0.3L434.9,145z"/>
	<path fill="#232323" d="M446.3,145.2c0-0.1,0-0.1,0.1-0.2c0.1-0.1,0.1-0.1,0.2-0.1h5.7c0.1,0,0.1,0,0.2,0.1
		c0.1,0.1,0.1,0.1,0.1,0.2v0.8c0,0.1,0,0.1-0.1,0.2c-0.1,0.1-0.1,0.1-0.2,0.1h-4.5v2.9h3.8c0.1,0,0.1,0,0.2,0.1
		c0.1,0.1,0.1,0.1,0.1,0.2v0.8c0,0.1,0,0.1-0.1,0.2c-0.1,0.1-0.1,0.1-0.2,0.1h-3.8v3.1h4.5c0.1,0,0.1,0,0.2,0.1
		c0.1,0.1,0.1,0.1,0.1,0.2v0.8c0,0.1,0,0.1-0.1,0.2c-0.1,0.1-0.1,0.1-0.2,0.1h-5.7c-0.1,0-0.1,0-0.2-0.1c-0.1-0.1-0.1-0.1-0.1-0.2
		V145.2z"/>
	<path fill="#232323" d="M454.7,145.2c0-0.1,0-0.1,0.1-0.2c0-0.1,0.1-0.1,0.2-0.1h3.3c0.7,0,1.3,0.1,1.9,0.4s1.1,0.6,1.6,1.1
		c0.5,0.5,0.8,1,1.1,1.6s0.4,1.2,0.4,1.9c0,0.7-0.1,1.3-0.4,2s-0.6,1.1-1.1,1.6c-0.5,0.5-1,0.8-1.6,1.1s-1.3,0.4-1.9,0.4h-3.3
		c-0.1,0-0.1,0-0.2-0.1c0-0.1-0.1-0.1-0.1-0.2V145.2z M458,153.5c0.5,0,1-0.1,1.4-0.3s0.8-0.4,1.1-0.8s0.6-0.7,0.8-1.2
		c0.2-0.4,0.3-0.9,0.3-1.5c0-0.5-0.1-1-0.3-1.4c-0.2-0.4-0.4-0.8-0.8-1.1s-0.7-0.6-1.1-0.8s-0.9-0.3-1.4-0.3h-1.9v7.3H458z"/>
	<path fill="#232323" d="M465.3,145.2c0-0.1,0-0.1,0.1-0.2c0.1-0.1,0.1-0.1,0.2-0.1h0.9c0.1,0,0.1,0,0.2,0.1
		c0.1,0.1,0.1,0.1,0.1,0.2v9.4c0,0.1,0,0.1-0.1,0.2c-0.1,0.1-0.1,0.1-0.2,0.1h-0.9c-0.1,0-0.1,0-0.2-0.1c-0.1-0.1-0.1-0.1-0.1-0.2
		V145.2z"/>
	<path fill="#232323" d="M468.4,154.9c-0.1,0-0.2,0-0.2-0.1c-0.1-0.1-0.1-0.2,0-0.3l4.4-9.6c0,0,0.1-0.1,0.1-0.1c0.1,0,0.1,0,0.1,0
		h0.1c0,0,0.1,0,0.1,0c0.1,0,0.1,0.1,0.1,0.1l4.3,9.6c0,0.1,0,0.2,0,0.3c-0.1,0.1-0.1,0.1-0.2,0.1h-0.9c-0.2,0-0.3-0.1-0.3-0.2
		l-0.9-2h-4.7c-0.1,0.3-0.3,0.7-0.4,1s-0.3,0.6-0.4,1c0,0-0.1,0.1-0.1,0.1c-0.1,0-0.1,0.1-0.2,0.1H468.4z M474.6,151.5l-1.8-3.9
		h-0.1l-1.7,3.9H474.6z"/>
</g>
<g>
	<g>
		<polygon fill="#4C4C4C" points="209,132.6 195,132.6 195,129.6 206,129.6 206,69.6 226,69.6 226,72.6 209,72.6 		"/>
	</g>
	<g>
		<g>
			<polygon fill="#4C4C4C" points="197,138.6 184,131.1 197,123.6 			"/>
		</g>
	</g>
</g>
<g>
	<g>
		<polygon fill="#4C4C4C" points="410,136.6 396,136.6 396,133.6 407,133.6 407,73.6 428,73.6 428,76.6 410,76.6 		"/>
	</g>
	<g>
		<g>
			<polygon fill="#4C4C4C" points="398,142.6 385,135.1 398,127.6 			"/>
		</g>
	</g>
</g>
<g>
	<g>
		<polygon fill="#4C4C4C" points="24,111.6 0,111.6 0,15.6 12,15.6 12,18.6 3,18.6 3,108.6 24,108.6 		"/>
	</g>
	<g>
		<g>
			<polygon fill="#4C4C4C" points="10,24.6 23,17.1 10,9.6 			"/>
		</g>
	</g>
</g>
<g>
</g>
<g>
</g>
<g>
</g>
<g>
</g>
<g>
</g>
<g>
</g>
<g>
</g>
<g>
</g>
<g>
</g>
<g>
</g>
<g>
</g>
<g>
</g>
<g>
</g>
<g>
</g>
<g>
</g>
</svg>
