<?xml version="1.0" encoding="utf-8"?>
<!-- Generator: Adobe Illustrator 18.0.0, SVG Export Plug-In . SVG Version: 6.00 Build 0)  -->
<!DOCTYPE svg PUBLIC "-//W3C//DTD SVG 1.1//EN" "http://www.w3.org/Graphics/SVG/1.1/DTD/svg11.dtd">
<svg version="1.1" id="tag" xmlns="http://www.w3.org/2000/svg" xmlns:xlink="http://www.w3.org/1999/xlink" x="0px" y="0px"
	 viewBox="0 0 198.4 281.6" enable-background="new 0 0 198.4 281.6" xml:space="preserve">
<style type="text/css">
	<![CDATA[
  		.gray{fill:#b5b4b2;}
	]]>
	</style>
<path class="gray" d="M198.4,0h-35.8c-10.6,0-22.1,2.9-34.6,8.1c-12.6,5.2-22.6,11.6-30,18.9l-87.1,87.1C3.6,121.4,0,130.3,0,140.9
	c0,10.6,3.6,19.5,10.9,26.8L98,254.8c7.4,7.4,17.4,13.7,30,18.9c12.6,5.2,24.2,8,34.6,7.9v0h35.8V0z M144.9,167.7
	c-7.4,7.4-16.3,11.1-26.8,11.1c-10.5,0-19.4-3.7-26.8-11.1c-7.4-7.4-11.1-16.3-11.1-26.8c0-10.5,3.7-19.4,11.1-26.8
	c7.4-7.4,16.3-11.1,26.8-11.1c10.5,0,19.4,3.7,26.8,11.1c7.4,7.4,11.1,16.3,11.1,26.8C156,151.4,152.3,160.3,144.9,167.7z"/>
</svg>
