<?xml version="1.0" encoding="utf-8"?>
<!-- Generator: Adobe Illustrator 17.1.0, SVG Export Plug-In . SVG Version: 6.00 Build 0)  -->
<!DOCTYPE svg PUBLIC "-//W3C//DTD SVG 1.1//EN" "http://www.w3.org/Graphics/SVG/1.1/DTD/svg11.dtd">
<svg version="1.1" id="Layer_1" xmlns="http://www.w3.org/2000/svg" xmlns:xlink="http://www.w3.org/1999/xlink" x="0px" y="0px"
	 viewBox="0 304.9 595.3 303" enable-background="new 0 304.9 595.3 303" xml:space="preserve">
<path d="M389.4,436.7c-7.5,11-17,22.6-28.6,34.8c1.7-12.4,4.4-24,8.1-34.8c3-8.6,6.5-17.1,10.4-25.5c2.2-4.9,6.1-12.3,11.5-22.4
	c5.4-10.1,12.7-20.3,21.7-30.7c9.1-10.4,15.3-15.6,18.7-15.6c1.5,0,2.2,1.1,2.2,3.4c0,5.4-3.8,16.3-11.5,32.5
	c-6.7,14.2-13.9,27.9-21.6,41L389.4,436.7z M461.9,436.5c-3.9,6.5-8.5,12.7-13.8,18.5c-5.2,5.8-11.3,11.5-18.2,17.1
	c1.3-7.9,2.7-14.3,4.2-19.4c1.5-5,3.6-10.5,6.2-16.3l8.4-17.1c6.2-10.5,12.4-19.8,18.8-28.1c7.3-9.3,12.4-14,15.4-14
	c2.1,0,3.1,1.4,3.1,4.2c0,3.6-2.2,10.4-6.7,20.5c-3.6,7.9-7.5,15.9-11.8,24.1L461.9,436.5z M572.3,436.7l7.4-14.9
	c0.7-1.3,0-2.3-2.2-2.9c-2.2-0.7-5.2-1-9-1c-2.6,0-5.1,0.1-7.3,0.4c-2.2,0.3-3.7,1-4.5,2.1l-7.9,16.3c-3.4,6.5-6.9,13.1-10.7,19.8
	c-3.7,6.6-7.9,13.3-12.4,20.1c-6.4,9.5-11.6,16-15.7,19.4c-4.1,3.4-8.4,5-12.9,5c-3,0-4.5-1.8-4.5-5.3c0-4.3,2-10.7,5.9-19.1
	c2.4-5.4,5.9-12.3,10.4-20.5c3.7-6.9,7.4-13.4,10.9-19.4c2.8-4.9,5.2-9.2,7.3-12.9c1.1-2.1,1.8-3.4,2-3.9c0.7-1.7,0.1-2.9-2-3.5
	c-2.1-0.6-4.9-1-8.4-1c-2.2,0-4.6,0.3-7.2,0.8c-2.5,0.6-4,1.1-4.4,1.7l-11.5,18.8c-3.7,6-7.1,11.6-10.1,16.8
	c-3.7,6.5-7.2,13.1-10.4,19.6l-1.7,3.4c-5.1,9.7-10,16.7-14.9,21c-4.9,4.3-9.5,6.4-14,6.4c-5.1,0-8.6-1.2-10.5-3.6
	c-2-2.4-2.9-5.4-2.9-9c0-1.5,0.1-2.6,0.3-3.4c5.6-3.6,10.7-7.4,15.2-11.5c5.6-5,11.5-11.5,17.7-19.4c4.9-6.4,9.6-13.2,14.3-20.5
	c6.5-10.7,12.1-21.7,16.7-33.3c4.6-11.5,6.9-21.3,6.9-29.3c0-5.2-1-9.2-2.9-11.8c-2-2.6-5.3-3.9-10-3.9c-7.1,0-17.4,7-30.9,21
	c-13.5,14-24.6,29.3-33.4,45.7l-5.9,11.5c-6.4,13.3-10.6,26.6-12.6,39.9l-2,17.4c-3.2,3.4-7.1,6.6-11.8,9.5
	c-5.8,3.7-10.6,5.6-14.3,5.6c-5.6,0-9.9-1.9-12.9-5.8c-3-3.8-4.5-8.1-4.5-12.8l15.1-14c6.9-6.9,13-13.5,18.1-19.8
	c5.1-6.3,10.2-13,15-20.1c3-4.5,5.5-8.3,7.4-11.4c2-3.1,4-6.4,6-10c7.3-12.3,13.2-23.9,17.7-34.8c6.2-15,9.3-27.2,9.3-36.8
	c0-5.6-1.2-10-3.5-13.1c-2.3-3.1-6.2-4.6-11.6-4.6c-11.2,0-25,9.4-41.3,28.2c-14.8,17.1-27.5,36.9-38.2,59.5
	c-1.9,4.1-3.6,8.1-5.2,12c-1.6,3.9-3.1,7.7-4.6,11.4c-2.8,7.9-5,14.9-6.5,21c-1.5,6.1-2.2,12.5-2.2,19c-0.4,3-0.6,5.8-0.6,8.3
	c0,2.5,0,5.2,0,8c-1.5,1.9-5.2,5-11.2,9.2c-6,4.2-10.4,6.2-13.2,6.2c-2.6,0-4.7-0.4-6.3-1.3c-1.6-0.8-2.4-2.2-2.4-4.1
	c0-0.6,0.2-1.6,0.6-3.1c1.5-4.9,2.9-8.9,4.2-12.1c0.7-2.1,2.4-6.1,5.1-12.1l11.2-25.6c0.4-1.3-0.7-2.3-3.1-2.9c-2.4-0.7-5.5-1-9.2-1
	c-6,0-9.4,0.7-10.4,2c-1.7,3.2-4,7.5-7,12.8c-3,5.3-5.9,10.3-8.7,14.8c-5.8,9.4-11.1,16.8-16,22.2c-6.2,6.9-11.3,10.4-15.4,10.4
	c-3.4,0-5.5-1.1-6.3-3.4c-0.8-2.2-1.3-4.8-1.3-7.8c0-6.7,1.6-13.9,4.9-21.7c3.3-7.7,7.6-15,12.9-21.9c5.3-6.9,11-12.7,17-17.3
	c6.9-5.4,12.6-8.1,17.1-8.1c0.9,0,1.7,0.1,2.4,0.3c0.7,0.2,1.2,1.2,1.5,3c0.4,1.8,1.1,3.2,2.2,4.2c1.1,1,2.6,1.8,4.3,2.3
	c1.8,0.5,4.2,0.8,7.4,0.8c2.4-0.2,4.6-1.1,6.4-2.8c3.4-3,4.9-6.2,4.5-9.8c0-9.3-5.8-14-17.4-14c-9.5,0-18.7,2.1-27.6,6.4
	c-8.9,4.3-17.3,10.1-25.4,17.4c-6.5,6-12.2,12.3-17,18.9c-4.8,6.6-8.8,13.6-12.2,20.9c-3.7,9-5.6,16.5-5.6,22.7
	c0,6.7,1.1,12.5,3.4,17.4c3.2,7.7,9.1,11.5,17.9,11.5c5,0,9.6-0.9,13.7-2.6c4.1-1.8,8.4-4.7,12.8-8.8l5-5l2.5,4.8
	c2.6,4.5,5.8,8,9.5,10.7c3.7,2.6,8.1,3.9,13.2,3.9c10.9,0,21.8-4.9,32.9-14.6l5.3-4.8l2.8,4.8c2.8,4.5,6.1,8,9.8,10.5
	c3.7,2.5,8.1,3.8,13.2,3.8c5,0,10.7-1.4,17-4.1c6.3-2.7,12-6,17.3-10c1.5-0.9,3-2.2,4.5-3.7c1.5-1.5,2.8-2.9,3.9-4
	c1.7,3.2,3.4,5.8,5.1,7.9c5.3,6.6,11.7,9.8,19.4,9.8c3.9,0,8-0.9,12.2-2.7c4.2-1.8,8.4-4.2,12.5-7.2c5-3.9,9.1-7.8,12.1-11.6
	c1.5,4.9,3.4,8.7,5.6,11.3c3,3.5,7.1,5.2,12.4,5.2c5.1,0,11-1.7,17.7-5.3c4.9-2.6,9.1-5.6,12.6-9.1l-5.1,9.2l-30.1,56.8
	c-2.1,3.8-3.2,7.2-3.2,10.1c0,3.6,1.9,6.6,5.6,8.7c1.3,0.7,2.6,1.1,3.9,1.1c3,0,5.9-1.6,8.7-4.6c2.2-2.4,4.9-6.6,7.9-12.6l28.6-59.6
	l19.6-40.1L572.3,436.7z"/>
<path d="M211.8,453.4c-5.4-5.9-12.6-11.5-21.4-16.7v-2.2c21.9-7.3,43.8-14.6,65.8-21.9c20.3-11.2,30.4-27.3,30.4-48.3
	c0-17-6.5-29.7-19.4-38.2c-12.9-8.4-31-12.6-54.2-12.6c-33.9,0-68.7,11.2-104.5,33.7c-37.8,23.8-65.6,53.7-83.2,89.8
	c-3.2,6.4-6,12.9-8.3,19.6c-2.3,6.7-4.3,13.5-5.8,20.2l-2,11.2c0,3,0,5.3,0,7c0,7.7,1.6,15,4.8,21.9c4.3,9.5,10.8,17.2,19.5,22.9
	c8.7,5.7,18.2,8.6,28.5,8.6c7.1,0,14.1-1.5,20.9-4.4c6.8-2.9,13.6-7.5,20.3-13.7c4.3-3.9,8.2-8.4,11.8-13.5
	c5.6-7.5,10.7-15.6,15.2-24.2c1.1-2.4,3.6-7.8,7.6-16l12.1-26.9l6.2-12.9c13.9-31,24.9-51.6,33-61.8c4.6-5.8,9.6-10.4,15-13.7
	c7.8-4.7,11.5-7.7,11.4-9.2c-0.2-1.9-2-2.8-5.3-2.8c-3.5,0-7.7,0.8-12.4,2.5c-4.7,1.7-9.5,3.8-14.1,6.4
	c-8.6,4.8-18.1,15.2-28.5,31.1c-4.3,6.5-11.3,18.8-21,36.9l-5,10.4l-17.5,40.1c-7.3,16.7-14.8,30.1-22.5,40.3
	c-4.7,6-9.5,10.6-14.5,13.7c-5,3.1-10.3,4.6-15.9,4.6c-11.8,0-19.6-6.1-23.3-18.2c-1.5-5.4-2.2-11.8-2.2-19c0-6.2,1-13.2,3.1-21
	c3.4-12,9.3-25,17.7-39.2c8.4-14.2,18.4-28,30-41.5c11.6-13.4,23.7-25.2,36.2-35.3c15.5-12.5,30.6-21.7,45.3-27.5
	c14.7-5.8,29.5-8.7,44.5-8.7c31.6,0,47.4,11.2,47.4,33.5c0,16.4-7.2,29.6-21.5,39.8c-4.7,3.4-18,9.9-39.9,19.5
	c-14.3,6.2-21.5,12.7-21.5,19.5c5.2,7,10.4,13.8,15.6,20.6c4.6,6.2,6.9,12.1,6.9,17.8v1.7c0,9.6-4,18-11.9,25.1
	c-7.9,7.1-17.6,11.7-29.1,13.8c1.3-2.1,2-5.1,2-9.3c-0.4-3.6-1.5-6.5-3.2-8.8c-1.8-2.3-4.3-3.7-7.7-4.1c-3.9-0.6-7.3,0.7-10.2,3.7
	c-2.9,3.1-4.3,6.6-4.3,10.7c0,3.2,0.8,6.3,2.4,9.3c1.6,3.1,4.5,5.6,8.9,7.7c4.3,2,10.5,3.1,18.6,3.1c4.5,0,9.8-1,16-2.9
	c6.2-2,12.1-4.7,17.7-8.3c7.3-4.5,12.9-9.5,16.9-15.1c4.7-6.5,7-13.4,7-20.5v-4.5C220,467.1,217.2,459.3,211.8,453.4z"/>
</svg>
