<?xml version="1.0" encoding="utf-8"?>
<!-- Generator: Adobe Illustrator 17.1.0, SVG Export Plug-In . SVG Version: 6.00 Build 0)  -->
<!DOCTYPE svg PUBLIC "-//W3C//DTD SVG 1.1//EN" "http://www.w3.org/Graphics/SVG/1.1/DTD/svg11.dtd">
<svg version="1.1" id="Layer_1" xmlns="http://www.w3.org/2000/svg" xmlns:xlink="http://www.w3.org/1999/xlink" x="0px" y="0px"
	 viewBox="0 574.9 595.3 112" enable-background="new 0 574.9 595.3 112" xml:space="preserve">
<g>
	<path d="M488.4,588.2h33l10.4,34.1l11.8-34.1h33.5v6.3c-3,0-4.5,2.9-4.1,4.9c0,0,9.5,65,10.1,67.1s3.3,2.9,3.3,2.9v6.4h-32.2v-6.4
		c3.8-0.6,5.6-2,5.3-4.6l-7.5-48.5l-14.3,39.5h-16.3l-13.6-39.5c0,0-7.6,47.3-7.6,50.3c0,3,4,2.9,4,2.9v6.4h-26.1v-6.4
		c3.2,0.6,4.9-5,4.9-5s9.9-59.9,10.2-64.9c0.3-5-4.8-4.6-4.8-4.6L488.4,588.2L488.4,588.2z"/>
	<path d="M401.4,631.5c0,18,11.7,32.5,26,32.5c14.4,0,26-14.6,26-32.5c0-18-11.7-32.5-26-32.5S401.4,613.5,401.4,631.5L401.4,631.5z
		 M377.9,631.5c0-25.8,22.2-46.7,49.5-46.7s49.5,20.9,49.5,46.7c0,25.8-22.2,46.7-49.5,46.7S377.9,657.3,377.9,631.5L377.9,631.5z"
		/>
	<path d="M356.3,621.4l-4.6-3.9c5.8-11.1-6.7-17.1-10.4-18.1c-3.8-1-27.7-3.5-26.7,28.9c1,29.8,27.7,34.8,36.1,34.1
		c9.7-0.9,12.3-9,12.3-9h6.1v22.5c-50.1,6.4-79.3-18-79-43.4c0.3-24,10.3-39.4,35.9-45.7c30.7-7.6,47.1,17.2,47.1,17.2L356.3,621.4
		L356.3,621.4z"/>
	<path d="M233.3,601.5v35.2c0,0,24.6-4.8,24.6-24.1C257.9,598.1,235,601.8,233.3,601.5L233.3,601.5z M205.2,587.3l47.5-0.1
		c9.7,0,27.9,6,28.1,25.9c0.3,28.7-47.6,37.4-47.6,37.4v14.3c0,3.7,4.7,4.5,4.7,4.5v5.8l-31.8,0.1v-5.9c2,0,4.4-2.3,4.4-3.5v-68.7
		c-0.3-2.9-5.4-4.1-5.4-4.1v-5.7H205.2z"/>
	<path d="M145.5,609.1l-8.5,23.3h16.6L145.5,609.1L145.5,609.1z M159.2,646.4h-26.8c0,0-5.6,16.3-5.9,18c-0.8,4.2,3.9,5,3.9,5v6.1
		h-26.6v-6.1c3.5-0.9,5.1-1.8,5.9-4.8l28.2-76.5h22.5c0,0,28.8,75.2,30,77.8c1.4,3.2,4.6,3.5,4.6,3.5v6.1h-32.9v-6.1
		c1.2,0.3,4.9-1.8,3.1-6.6L159.2,646.4L159.2,646.4z"/>
	<path d="M75.3,621.4l-4.6-3.9c5.8-11.1-6.7-17.1-10.4-18.1c-3.7-1-27.7-3.5-26.7,28.9c1,29.8,27.7,34.8,36.2,34.1
		c9.7-0.9,12.2-9,12.2-9h6.2v22.5c-50.1,6.4-79.3-18-79-43.4c0.3-24,10.3-39.4,35.9-45.7c30.7-7.6,47.1,17.2,47.1,17.2L75.3,621.4
		L75.3,621.4z"/>
</g>
</svg>
