<?xml version="1.0" encoding="utf-8"?>
<!-- Generator: Adobe Illustrator 17.1.0, SVG Export Plug-In . SVG Version: 6.00 Build 0)  -->
<!DOCTYPE svg PUBLIC "-//W3C//DTD SVG 1.1//EN" "http://www.w3.org/Graphics/SVG/1.1/DTD/svg11.dtd">
<svg version="1.1" id="Layer_1" xmlns="http://www.w3.org/2000/svg" xmlns:xlink="http://www.w3.org/1999/xlink" x="0px" y="0px"
	 viewBox="0 479.9 595.3 206" enable-background="new 0 479.9 595.3 206" xml:space="preserve">
<g>
	<path d="M507,596.8h74.2V615h-24.9v55.5h-24.4V615H507V596.8z"/>
	<path d="M428.4,646.1l23.3-1.3c0.5,3.5,1.5,6.2,3.1,8c2.5,3,6.1,4.5,10.8,4.5c3.5,0,6.2-0.8,8.1-2.3c1.9-1.5,2.8-3.3,2.8-5.3
		c0-1.9-0.9-3.6-2.7-5.1c-1.8-1.5-6-2.9-12.5-4.3c-10.7-2.2-18.4-5.2-22.9-8.9c-4.6-3.7-6.9-8.4-6.9-14.2c0-3.8,1.2-7.3,3.5-10.7
		c2.4-3.4,5.9-6,10.6-7.9c4.7-1.9,11.2-2.9,19.5-2.9c10.1,0,17.8,1.8,23.1,5.2c5.3,3.5,8.5,9.1,9.5,16.7l-23,1.3
		c-0.6-3.3-1.9-5.7-3.9-7.3c-2-1.5-4.7-2.2-8.2-2.2c-2.9,0-5,0.5-6.5,1.7c-1.4,1.1-2.2,2.5-2.2,4.1c0,1.2,0.6,2.2,1.8,3.2
		c1.2,1,3.9,1.9,8.2,2.7c10.7,2.1,18.3,4.3,23,6.5c4.6,2.2,8,4.9,10.1,8.2c2.1,3.2,3.2,6.9,3.2,10.9c0,4.7-1.4,9.1-4.2,13.1
		s-6.7,7-11.8,9.1c-5,2.1-11.4,3.1-19.1,3.1c-13.5,0-22.8-2.4-28-7.2C432,659.7,429.1,653.6,428.4,646.1z"/>
	<path d="M395.5,658.3h-27.6l-4,12.2H339l29.6-73.7h26.8l29.7,73.7h-25.6L395.5,658.3z M390.4,642.4l-8.6-26.5l-8.6,26.5H390.4z"/>
	<path d="M267.2,596.8h65.5v15.7h-41.1v11.8h38.1v15h-38.1v14.5h42.2v16.8h-66.7L267.2,596.8L267.2,596.8z"/>
	<path d="M547.4,555.3h-27.7l-4,12.2h-24.9l29.6-73.7h26.8l29.7,73.7h-25.6L547.4,555.3z M542.2,539.4l-8.6-26.5l-8.6,26.5H542.2z"
		/>
	<path d="M421.1,493.8h74.2V512h-24.9v55.5H446V512h-24.9V493.8z"/>
	<path d="M396.9,555.3h-27.6l-4,12.2h-24.9l29.6-73.7h26.8l29.7,73.7h-25.6L396.9,555.3z M391.8,539.4l-8.6-26.5l-8.6,26.5H391.8z"
		/>
	<path d="M267.6,493.8h36.2c7.1,0,12.9,0.9,17.3,2.7c4.4,1.8,8,4.4,10.9,7.8c2.9,3.4,4.9,7.3,6.2,11.8c1.3,4.5,1.9,9.3,1.9,14.3
		c0,7.9-1,14-2.9,18.3c-1.9,4.3-4.6,8-8,10.9c-3.4,2.9-7.1,4.9-11,5.9c-5.3,1.3-10.2,2-14.5,2h-36.2v-73.7H267.6z M292,510.6v40.2
		h5.9c5.1,0,8.7-0.5,10.8-1.6c2.1-1,3.8-2.9,5-5.5c1.2-2.6,1.8-6.9,1.8-12.8c0-7.8-1.4-13.1-4.1-16c-2.7-2.9-7.2-4.3-13.5-4.3
		L292,510.6L292,510.6z"/>
	<path d="M24.5,487.6c-0.3,0-0.5,0-0.8,0H9.1l0.1,26.1l0,0l0,0c0,0,10.9,0,11.1,0c37.9,0,68.6,30.7,68.6,68.6
		c0,37.8-30.6,68.4-68.3,68.6H9.2l0,0l0,0L9.1,677h15.7l0,0c52.1-0.2,94.3-42.5,94.3-94.7C119.2,530,76.8,487.6,24.5,487.6z"/>
	<path d="M77.7,582.3c0-32.6-26.4-58.9-58.9-58.9c-0.2,0-9.5,0-9.5,0v117.9H19C51.4,641.1,77.7,614.8,77.7,582.3z"/>
	<path d="M159.1,586.4c2.1,30.6,27.4,54.7,58.5,54.9h9.8v-54.9H159.1z"/>
	<path d="M227.4,578.2v-54.8c0,0-9.4,0-9.5,0c-31.2,0-56.6,24.2-58.8,54.8H227.4z"/>
	<path d="M227.3,513.7c0,0-10.9,0-11.1,0c-37.9,0-68.6,30.7-68.6,68.6c0,37.8,30.6,68.4,68.3,68.6h11.4l0,0l0.1,1.1v25h-15.7l0,0
		c-52.1-0.2-94.3-42.5-94.3-94.7c0-52.3,42.4-94.7,94.7-94.7c0.3,0,0.5,0,0.8,0h14.5"/>
</g>
</svg>
