<?xml version="1.0" encoding="utf-8"?>
<!-- Generator: Adobe Illustrator 17.1.0, SVG Export Plug-In . SVG Version: 6.00 Build 0)  -->
<!DOCTYPE svg PUBLIC "-//W3C//DTD SVG 1.1//EN" "http://www.w3.org/Graphics/SVG/1.1/DTD/svg11.dtd">
<svg version="1.1" id="Layer_1" xmlns="http://www.w3.org/2000/svg" xmlns:xlink="http://www.w3.org/1999/xlink" x="0px" y="0px"
	 viewBox="0 0 20 20" enable-background="new 0 0 20 20" xml:space="preserve">
<path d="M13.197,18.557v-0.741c-0.359,0.507-0.819,0.827-1.513,0.827c-1.147,0-2.122-0.913-2.122-2.153
	c0-1.217,1.014-2.153,2.098-2.153c0.639,0,1.146,0.289,1.537,0.835V13.69h-0.609v-0.702h1.365v4.867h0.6v0.702H13.197z
	 M11.778,15.086c-0.803,0-1.451,0.616-1.451,1.404c0,0.78,0.624,1.404,1.443,1.404c0.795,0,1.443-0.624,1.443-1.42
	C13.213,15.687,12.573,15.086,11.778,15.086z"/>
<path d="M17.626,18.643c-0.679,0-1.146-0.304-1.513-0.827v0.741h-1.357v-0.702h0.601V13.69h-0.601v-0.702h1.357v2.176
	c0.351-0.53,0.803-0.827,1.459-0.827c1.139,0,2.122,0.959,2.122,2.161C19.693,17.715,18.711,18.643,17.626,18.643z M17.517,15.094
	c-0.803,0-1.443,0.601-1.443,1.373c0,0.788,0.648,1.427,1.435,1.427c0.835,0,1.42-0.624,1.42-1.412
	C18.929,15.71,18.344,15.094,17.517,15.094z"/>
</svg>
