<?xml version="1.0" encoding="utf-8"?>
<!-- Generator: Adobe Illustrator 17.1.0, SVG Export Plug-In . SVG Version: 6.00 Build 0)  -->
<!DOCTYPE svg PUBLIC "-//W3C//DTD SVG 1.1//EN" "http://www.w3.org/Graphics/SVG/1.1/DTD/svg11.dtd">
<svg version="1.1" id="Layer_1" xmlns="http://www.w3.org/2000/svg" xmlns:xlink="http://www.w3.org/1999/xlink" x="0px" y="0px"
	 viewBox="0 550.9 595.3 134" enable-background="new 0 550.9 595.3 134" xml:space="preserve">
<rect x="331.9" y="576.1" width="30.6" height="101.7"/>
<g>
	<rect x="371.3" y="595.1" width="29" height="82.7"/>
	<rect x="371.3" y="576.8" width="29" height="12.6"/>
</g>
<path d="M181.9,591.4c-24.6,0-44.6,19.4-44.6,43.3s20,43.2,44.6,43.2s44.6-19.4,44.6-43.2S206.5,591.4,181.9,591.4z M181.9,653.7
	c-8.8,0-15.9-8.6-15.9-19.1c0-10.6,7.1-19.1,15.9-19.1s15.9,8.6,15.9,19.1C197.8,645.2,190.7,653.7,181.9,653.7z"/>
<path d="M535.2,591.4c-2.8,0-5.5,0.3-8.2,0.7v-16.6h-31.2v102.4H527v-0.1c2.9,0,5.8,0.1,8.2,0.1c24.6,0,44.6-19.4,44.6-43.2
	S559.8,591.4,535.2,591.4z M535.2,653.7c-2.6,0-5.6-0.3-8.2-1.2V617c2.5-1.1,5.5-1.5,8.2-1.5c8.8,0,15.9,8.6,15.9,19.1
	C551.1,645.2,544,653.7,535.2,653.7z"/>
<path d="M448.8,656.1c-10,0-12.9-4.3-14.3-12.4h11.6h18.3h26c0.5-2.5,0.7-5.1,0.7-7.7c0-23.1-19-41.9-42.4-41.9
	c-23.4,0-42.3,18.8-42.3,41.9c0,23.1,19,41.9,42.3,41.9c0.5,0,40.9,0,40.9,0v-21.7C489.7,656.1,450.1,656.1,448.8,656.1z
	 M448.8,615.5c7,0,12.9,5.1,15.5,12.4h-31C435.2,619.9,441.8,615.5,448.8,615.5z"/>
<path d="M260.4,637.1V616h15.1v-21.6h-15.1v-17.7h-30.6v71.8c0,0-3.4,29.2,18,29.2s28.6,0,28.6,0V655
	C270.1,655,260.4,658.4,260.4,637.1z"/>
<path d="M311.7,637.1V616h15.1v-21.6h-15.1v-17.7h-30.6v71.8c0,0-3.4,29.2,18,29.2c21.4,0,28.6,0,28.6,0V655
	C321.4,655,311.7,658.4,311.7,637.1z"/>
<path d="M19.6,621.8l19.1-10.3L26.5,580l29.7,6.9l3.6-28.2l19.6,22.6l20-16.8l1.1,18.5h30.3v-26H62.5c-29.8,2.4-53.3,28.6-53.3,60.2
	c0,33.2,25.9,59.5,57.8,59.5c3.9,0,63.7,0,63.7,0v-47.9v-21.3v-0.3h-28l12.7-16.7l-20.9,4.7L93.7,578l-5.2,4.9l0,0l-10.1,9.6
	l-2.7-3.7l0,0l-11.2-15.6l-2.3,23l-25.5-7.6l12.4,25.6l-15.7,7.7L53,632.1l-9.4,18.7l25.6-13.4l3.3,16.7l12.3-16.2l21.7,12.1
	l-8-21.3h7.9l10.9,33.6l-30.1-15.2l-17.9,22L64,648.2l-31.6,14.7l10.3-27.8L19.6,621.8z"/>
</svg>
