<?xml version="1.0" encoding="utf-8"?>
<!-- Generator: Adobe Illustrator 17.1.0, SVG Export Plug-In . SVG Version: 6.00 Build 0)  -->
<!DOCTYPE svg PUBLIC "-//W3C//DTD SVG 1.1//EN" "http://www.w3.org/Graphics/SVG/1.1/DTD/svg11.dtd">
<svg version="1.1" id="Layer_1" xmlns="http://www.w3.org/2000/svg" xmlns:xlink="http://www.w3.org/1999/xlink" x="0px" y="0px"
	 viewBox="0 556.9 595.3 166" enable-background="new 0 556.9 595.3 166" xml:space="preserve">
<g>
	<path d="M167.5,602.1l10.5-39.2l-29.1,35.7c-11.3-1.5-23.5-2.1-36.2-1.5C55.3,599.5,8.5,623.7,8.5,651
		c-0.1,14.8,13.3,27.5,35.4,35.7l39.3-40l-19.5,70.8l73.4-85.1l-17.7,63.2c54.3-4,97.5-27.4,97.5-53.6
		C217,624.3,197.1,609.5,167.5,602.1z M100.7,657.7l13.6-53.9L47,666.3c-11.5-5.8-18.4-13.5-18.4-22.3c0-20.7,38.2-39.8,85.1-42.4
		c11.3-0.6,22-0.3,31.9,1L100.7,657.7z M148.8,671.6l17.4-64.8c19.8,5.8,32.6,15.8,32.6,27.7C198.8,649.7,178.2,664,148.8,671.6z"/>
	<polygon points="261.7,611.3 237.7,611.3 218.3,677.8 236.7,677.8 244.3,651.7 247.4,636.5 245.5,677.8 259.8,677.8 281.9,637.3 
		276.2,651.7 268.6,677.8 286.9,677.8 306.3,611.3 282.4,611.3 260.1,651.7 	"/>
	<polygon points="314,611.3 294.7,677.8 314.5,677.8 333.9,611.3 	"/>
	<path d="M342.1,611.3l-19.4,66.6h25.9c4.7,0,9.1-0.6,13.3-1.9c4.2-1.2,8.1-3.2,11.7-6c3.6-2.8,6.7-6.4,9.5-10.8
		c2.8-4.4,5-9.8,6.6-16.1c1.7-6.4,1.9-11.6,0.7-15.7s-3.1-7.4-5.7-9.8c-2.6-2.4-5.6-4.1-8.9-5c-3.3-0.9-6.3-1.4-9-1.4h-24.7V611.3z
		 M357,627.1c5-0.1,8.9,1,11.4,3.3c2.6,2.4,2.9,6.8,1.2,13.3c-1.1,3.8-2.5,6.9-4,9.4c-1.6,2.4-3.3,4.3-5.3,5.7
		c-1.9,1.4-4,2.3-6.3,2.7c-2.2,0.4-4.6,0.6-7.1,0.5L357,627.1L357,627.1z"/>
	<polygon points="398,611.3 394,677.8 413.3,677.8 431,639.5 426.9,677.8 446.3,677.8 480,611.3 461.4,611.3 443,651.7 448.3,611.3 
		430.2,611.3 412.7,651.7 417.8,611.3 	"/>
	<path d="M495,611.3l-40.8,66.6h20.1l4.4-8.6H498l-0.6,8.6h20.1l-1.9-66.6H495L495,611.3z M486.4,655.3l12.1-21.7l-0.5,21.7H486.4
		L486.4,655.3z"/>
	<polygon points="520.2,611.3 529.8,653.8 522.8,677.8 542.1,677.8 549.1,653.8 584.2,611.3 561.5,611.3 545.6,632.8 542.2,611.3 	
		"/>
</g>
</svg>
