<?xml version="1.0" encoding="utf-8"?>
<!-- Generator: Adobe Illustrator 17.1.0, SVG Export Plug-In . SVG Version: 6.00 Build 0)  -->
<!DOCTYPE svg PUBLIC "-//W3C//DTD SVG 1.1//EN" "http://www.w3.org/Graphics/SVG/1.1/DTD/svg11.dtd">
<svg version="1.1" id="Layer_1" xmlns="http://www.w3.org/2000/svg" xmlns:xlink="http://www.w3.org/1999/xlink" x="0px" y="0px"
	 viewBox="0 0 595.3 841.9" enable-background="new 0 0 595.3 841.9" xml:space="preserve">
<path fill="#231F20" d="M300.7,256.8c-83.5,0-151.2,25.1-151.2,56.1l0,20.1c0,21.7,33.3,40.5,81.9,49.8l0,30
	c-59.7,12-101.4,38.9-101.4,70.3v13.6c0,40,67.7,72.8,154.2,76.5l0,36.4c5.3,1.6,10.8,2.6,16.6,2.6c5.7,0,11.3-1,16.6-2.6l0-36.4
	c86.3-3.8,153.7-36.6,153.7-76.5v-13.6c0-31.3-41.5-58.2-101-70.2v-30.1c48.6-9.3,81.9-28.1,81.9-49.8v-20.1
	C451.9,281.9,384.2,256.8,300.7,256.8z"/>
</svg>
