<?xml version="1.0" encoding="utf-8"?>
<!-- Generator: Adobe Illustrator 17.1.0, SVG Export Plug-In . SVG Version: 6.00 Build 0)  -->
<!DOCTYPE svg PUBLIC "-//W3C//DTD SVG 1.1//EN" "http://www.w3.org/Graphics/SVG/1.1/DTD/svg11.dtd">
<svg version="1.1" id="Layer_1" xmlns="http://www.w3.org/2000/svg" xmlns:xlink="http://www.w3.org/1999/xlink" x="0px" y="0px"
	 viewBox="0 0 595.3 841.9" enable-background="new 0 0 595.3 841.9" xml:space="preserve">
<path fill="#231F20" d="M169.7,602.5c-68.6-73.2-103.9-148.7-79.4-173.2l20.5-20.5c19.2-19.2,69.9-1.5,126.1,40.1l127-127
	c-31.8-42.3-46.9-77.5-35.3-89.1l25.9-25.9c16.9-16.8,83.8,22.7,149.5,88.4c65.7,65.7,105.3,132.7,88.5,149.5l-25.9,25.9
	c-11.6,11.6-46.8-3.5-89.1-35.3l-127,127c41.6,56.3,59.3,106.9,40.1,126.1L370.1,709c-24.5,24.5-100-10.8-173.3-79.4l-73.3,73.3
	L7.4,801l-9.1-9l98.1-116.2L169.7,602.5z"/>
</svg>
