<?xml version="1.0" encoding="utf-8"?>
<!-- Generator: Adobe Illustrator 17.1.0, SVG Export Plug-In . SVG Version: 6.00 Build 0)  -->
<!DOCTYPE svg PUBLIC "-//W3C//DTD SVG 1.1//EN" "http://www.w3.org/Graphics/SVG/1.1/DTD/svg11.dtd">
<svg version="1.1" id="Layer_1" xmlns="http://www.w3.org/2000/svg" xmlns:xlink="http://www.w3.org/1999/xlink" x="0px" y="0px"
	 viewBox="0 0 595.3 841.9" enable-background="new 0 0 595.3 841.9" xml:space="preserve">
<path fill="#231F20" d="M187.2,507.7c-59.2-63.2-89.7-128.4-68.6-149.5l17.7-17.7c16.6-16.5,60.3-1.3,108.9,34.6l109.6-109.6
	c-27.5-36.5-40.5-66.8-30.5-76.8l22.4-22.4c14.6-14.5,72.3,19.6,129,76.3c56.7,56.7,90.9,114.5,76.3,129L529.7,394
	c-10.1,10-40.4-3-76.9-30.5L343.3,473.1c35.9,48.6,51.1,92.3,34.6,108.9l-17.7,17.7c-21.1,21.1-86.3-9.3-149.5-68.5l-63.3,63.3
	L47.1,679l-7.8-7.8L124,570.9L187.2,507.7z"/>
</svg>
