<?xml version="1.0" encoding="utf-8"?>
<!-- Generator: Adobe Illustrator 17.1.0, SVG Export Plug-In . SVG Version: 6.00 Build 0)  -->
<!DOCTYPE svg PUBLIC "-//W3C//DTD SVG 1.1//EN" "http://www.w3.org/Graphics/SVG/1.1/DTD/svg11.dtd">
<svg version="1.1" id="Layer_1" xmlns="http://www.w3.org/2000/svg" xmlns:xlink="http://www.w3.org/1999/xlink" x="0px" y="0px"
	 viewBox="0 0 595.3 841.9" enable-background="new 0 0 595.3 841.9" xml:space="preserve">
<path fill="#231F20" d="M297.8,295.4c-96.8,0-175.2,29.1-175.2,65l0,23.3c0,25.2,38.6,46.9,94.9,57.8l0,34.8
	c-69.2,13.9-117.5,45.1-117.5,81.4v15.8c0,46.3,78.4,84.4,178.7,88.7l0,42.2c6.1,1.9,12.5,3,19.2,3c6.6,0,13-1.1,19.2-3l0-42.2
	c100-4.4,178.1-42.4,178.1-88.7v-15.8c0-36.3-48.1-67.4-117-81.3v-34.9c56.3-10.8,94.9-32.6,94.9-57.8v-23.3
	C473,324.6,394.5,295.4,297.8,295.4z"/>
</svg>
