<?xml version="1.0" encoding="utf-8"?>
<!-- Generator: Adobe Illustrator 17.1.0, SVG Export Plug-In . SVG Version: 6.00 Build 0)  -->
<!DOCTYPE svg PUBLIC "-//W3C//DTD SVG 1.1//EN" "http://www.w3.org/Graphics/SVG/1.1/DTD/svg11.dtd">
<svg version="1.1" id="Layer_1" xmlns="http://www.w3.org/2000/svg" xmlns:xlink="http://www.w3.org/1999/xlink" x="0px" y="0px"
	 viewBox="0 516.5 595.3 167.4" enable-background="new 0 516.5 595.3 167.4" xml:space="preserve">
<g>
	<path d="M11.1,549.2c3.4-1.5,6.7-2.3,10.1-3.2c-0.8,3.4-1.7,6.7-3.2,10.1C13.8,556.8,10.5,553.4,11.1,549.2L11.1,549.2z"/>
	<circle cx="35.9" cy="530.8" r="7.5"/>
	<circle cx="55.6" cy="530.8" r="7.5"/>
	<circle cx="75.3" cy="530.8" r="7.5"/>
	<circle cx="95.1" cy="530.8" r="7.5"/>
	<circle cx="36" cy="550.5" r="7.5"/>
	<circle cx="55.7" cy="550.5" r="7.5"/>
	<circle cx="75.4" cy="550.5" r="7.5"/>
	<circle cx="95.2" cy="550.5" r="7.5"/>
	<circle cx="16.2" cy="550.5" r="7.5"/>
	<circle cx="16.2" cy="570.2" r="7.5"/>
	<circle cx="35.9" cy="570.2" r="7.5"/>
	<circle cx="16.2" cy="589.9" r="7.5"/>
	<circle cx="35.9" cy="589.9" r="7.5"/>
	<circle cx="55.6" cy="589.9" r="7.5"/>
	<circle cx="75.2" cy="589.7" r="7.5"/>
	<circle cx="35.9" cy="609.7" r="7.5"/>
	<circle cx="55.6" cy="609.7" r="7.5"/>
	<circle cx="75.3" cy="609.7" r="7.5"/>
	<circle cx="95" cy="609.7" r="7.5"/>
	<circle cx="75.3" cy="629.4" r="7.5"/>
	<circle cx="95.1" cy="629.4" r="7.5"/>
	<path d="M87.6,649.1c0-4.1,3.3-7.5,7.5-7.5c4.1,0,7.5,3.3,7.5,7.5c0,4.1-3.3,7.5-7.5,7.5C90.9,656.6,87.6,653.2,87.6,649.1z"/>
	<path d="M67.8,649.1c0-4.1,3.3-7.5,7.5-7.5c4.1,0,7.5,3.3,7.5,7.5c0,4.1-3.3,7.5-7.5,7.5C71.2,656.6,67.8,653.2,67.8,649.1z"/>
	<path d="M28.4,649.1c0-4.1,3.3-7.5,7.5-7.5c4.1,0,7.5,3.3,7.5,7.5c0,4.1-3.3,7.5-7.5,7.5C31.8,656.6,28.4,653.2,28.4,649.1z"/>
	<path d="M48.2,649.1c0-4.1,3.3-7.5,7.5-7.5c4.1,0,7.5,3.3,7.5,7.5c0,4.1-3.3,7.5-7.5,7.5S48.2,653.2,48.2,649.1z"/>
	<path d="M8.7,649.1c0-4.1,3.3-7.5,7.5-7.5c4.1,0,7.5,3.3,7.5,7.5c0,4.1-3.3,7.5-7.5,7.5C12.1,656.6,8.7,653.2,8.7,649.1z"/>
	<path d="M8.7,668.8c0-4.1,3.3-7.5,7.5-7.5c4.1,0,7.5,3.3,7.5,7.5c0,4.1-3.3,7.5-7.5,7.5C12.1,676.3,8.7,672.9,8.7,668.8z"/>
	<circle cx="35.9" cy="668.8" r="7.5"/>
	<circle cx="55.4" cy="668.8" r="7.5"/>
	<circle cx="75.3" cy="668.8" r="7.5"/>
	<circle cx="120.8" cy="530.8" r="7.5"/>
	<circle cx="140.5" cy="530.8" r="7.5"/>
	<circle cx="158" cy="530.8" r="7.5"/>
	<circle cx="176.2" cy="530.7" r="7.5"/>
	<circle cx="195" cy="530.8" r="7.5"/>
	<circle cx="214.3" cy="530.7" r="7.5"/>
	<circle cx="120.8" cy="550.5" r="7.5"/>
	<circle cx="140.5" cy="550.5" r="7.5"/>
	<circle cx="158" cy="550.5" r="7.5"/>
	<circle cx="176.2" cy="550.5" r="7.5"/>
	<circle cx="195" cy="550.5" r="7.5"/>
	<circle cx="214.3" cy="550.5" r="7.5"/>
	<circle cx="158" cy="570.2" r="7.5"/>
	<circle cx="176.2" cy="570.2" r="7.5"/>
	<circle cx="158" cy="589.9" r="7.5"/>
	<circle cx="176.2" cy="589.9" r="7.5"/>
	<circle cx="158" cy="609.7" r="7.5"/>
	<circle cx="176.2" cy="609.7" r="7.5"/>
	<path d="M150.6,629.5c0-4.1,3.3-7.5,7.5-7.5c4.1,0,7.5,3.3,7.5,7.5c0,4.1-3.3,7.5-7.5,7.5C153.9,637,150.6,633.6,150.6,629.5z"/>
	<circle cx="176.2" cy="629.4" r="7.5"/>
	<path d="M150.6,649.2c0-4.1,3.3-7.5,7.5-7.5c4.1,0,7.5,3.3,7.5,7.5c0,4.1-3.3,7.5-7.5,7.5C153.9,656.6,150.6,653.3,150.6,649.2z"/>
	<path d="M168.7,649.2c0-4.1,3.3-7.5,7.5-7.5c4.1,0,7.5,3.3,7.5,7.5c0,4.1-3.3,7.5-7.5,7.5C172,656.6,168.7,653.3,168.7,649.2z"/>
	<circle cx="158" cy="668.9" r="7.5"/>
	<circle cx="176.2" cy="668.9" r="7.5"/>
	<circle cx="239.8" cy="530.8" r="7.5"/>
	<circle cx="257.9" cy="530.7" r="7.5"/>
	<circle cx="239.8" cy="550.5" r="7.5"/>
	<circle cx="257.9" cy="550.5" r="7.5"/>
	<circle cx="239.8" cy="570.2" r="7.5"/>
	<circle cx="257.9" cy="570.2" r="7.5"/>
	<path d="M232.3,589.9c0-4.1,3.3-7.5,7.5-7.5c4.1,0,7.5,3.3,7.5,7.5c0,4.1-3.3,7.5-7.5,7.5C235.7,597.4,232.3,594.1,232.3,589.9z"/>
	<path d="M250.5,589.9c0-4.1,3.3-7.5,7.5-7.5c4.1,0,7.5,3.3,7.5,7.5c0,4.1-3.3,7.5-7.5,7.5S250.5,594.1,250.5,589.9z"/>
	<path d="M232.3,609.7c0-4.1,3.3-7.5,7.5-7.5c4.1,0,7.5,3.3,7.5,7.5c0,4.1-3.3,7.5-7.5,7.5C235.7,617.2,232.3,613.9,232.3,609.7z"/>
	<circle cx="257.9" cy="609.7" r="7.5"/>
	<path d="M232.3,629.5c0-4.1,3.3-7.5,7.5-7.5c4.1,0,7.5,3.3,7.5,7.5c0,4.1-3.3,7.5-7.5,7.5C235.7,637,232.3,633.6,232.3,629.5z"/>
	<circle cx="257.9" cy="629.4" r="7.5"/>
	<path d="M232.3,649.2c0-4.1,3.3-7.5,7.5-7.5c4.1,0,7.5,3.3,7.5,7.5c0,4.1-3.3,7.5-7.5,7.5C235.7,656.6,232.3,653.3,232.3,649.2z"/>
	<path d="M250.5,649.2c0-4.1,3.3-7.5,7.5-7.5c4.1,0,7.5,3.3,7.5,7.5c0,4.1-3.3,7.5-7.5,7.5C253.8,656.6,250.5,653.3,250.5,649.2z"/>
	<circle cx="239.8" cy="668.9" r="7.5"/>
	<circle cx="257.9" cy="668.9" r="7.5"/>
	<circle cx="277.9" cy="530.8" r="7.5"/>
	<circle cx="296" cy="530.7" r="7.5"/>
	<circle cx="277.9" cy="550.5" r="7.5"/>
	<path d="M288.5,550.5c0-4.1,3.3-7.5,7.5-7.5c4.1,0,7.5,3.3,7.5,7.5c0,4.1-3.3,7.5-7.5,7.5C291.9,557.9,288.5,554.6,288.5,550.5z"/>
	<circle cx="315.1" cy="530.8" r="7.5"/>
	<path d="M307.6,550.6c0-4.1,3.3-7.5,7.5-7.5c4.1,0,7.5,3.3,7.5,7.5c0,4.1-3.3,7.5-7.5,7.5C310.9,558.1,307.6,554.7,307.6,550.6z"/>
	<circle cx="277.9" cy="590" r="7.5"/>
	<circle cx="296" cy="589.9" r="7.5"/>
	<circle cx="277.9" cy="609.8" r="7.5"/>
	<path d="M288.5,609.7c0-4.1,3.3-7.5,7.5-7.5c4.1,0,7.5,3.3,7.5,7.5c0,4.1-3.3,7.5-7.5,7.5C291.9,617.2,288.5,613.8,288.5,609.7z"/>
	<circle cx="278" cy="649.2" r="7.5"/>
	<path d="M288.6,649.2c0-4.1,3.3-7.5,7.5-7.5c4.1,0,7.5,3.3,7.5,7.5c0,4.1-3.3,7.5-7.5,7.5C292,656.6,288.6,653.3,288.6,649.2z"/>
	<path d="M270.5,669c0-4.1,3.3-7.5,7.5-7.5c4.1,0,7.5,3.3,7.5,7.5c0,4.1-3.3,7.5-7.5,7.5C273.8,676.5,270.5,673.1,270.5,669z"/>
	<circle cx="296.1" cy="668.9" r="7.5"/>
	<path d="M307.7,649.3c0-4.1,3.3-7.5,7.5-7.5c4.1,0,7.5,3.3,7.5,7.5c0,4.1-3.3,7.5-7.5,7.5S307.7,653.4,307.7,649.3z"/>
	<path d="M307.7,669.1c0-4.1,3.3-7.5,7.5-7.5c4.1,0,7.5,3.3,7.5,7.5c0,4.1-3.3,7.5-7.5,7.5C311,676.5,307.7,673.2,307.7,669.1z"/>
	<circle cx="343" cy="530.9" r="7.5"/>
	<path d="M353.6,530.8c0-4.1,3.3-7.5,7.5-7.5c4.1,0,7.5,3.3,7.5,7.5c0,4.1-3.3,7.5-7.5,7.5C356.9,538.3,353.6,535,353.6,530.8z"/>
	<path d="M335.5,550.7c0-4.1,3.3-7.5,7.5-7.5c4.1,0,7.5,3.3,7.5,7.5c0,4.1-3.3,7.5-7.5,7.5C338.8,558.1,335.5,554.8,335.5,550.7z"/>
	<path d="M353.6,550.6c0-4.1,3.3-7.5,7.5-7.5c4.1,0,7.5,3.3,7.5,7.5c0,4.1-3.3,7.5-7.5,7.5C356.9,558.1,353.6,554.7,353.6,550.6z"/>
	<path d="M335.5,570.4c0-4.1,3.3-7.5,7.5-7.5c4.1,0,7.5,3.3,7.5,7.5c0,4.2-3.3,7.5-7.5,7.5C338.8,577.8,335.5,574.5,335.5,570.4z"/>
	<path d="M353.6,570.4c0-4.1,3.3-7.5,7.5-7.5c4.1,0,7.5,3.3,7.5,7.5c0,4.2-3.3,7.5-7.5,7.5C356.9,577.8,353.6,574.5,353.6,570.4z"/>
	<path d="M335.5,590.1c0-4.1,3.3-7.5,7.5-7.5c4.1,0,7.5,3.3,7.5,7.5c0,4.1-3.3,7.5-7.5,7.5C338.8,597.5,335.5,594.2,335.5,590.1z"/>
	<path d="M353.6,590.1c0-4.1,3.3-7.5,7.5-7.5c4.1,0,7.5,3.3,7.5,7.5c0,4.1-3.3,7.5-7.5,7.5C356.9,597.5,353.6,594.2,353.6,590.1z"/>
	<path d="M335.5,609.9c0-4.1,3.3-7.5,7.5-7.5c4.1,0,7.5,3.3,7.5,7.5c0,4.1-3.3,7.5-7.5,7.5C338.8,617.3,335.5,614,335.5,609.9z"/>
	<path d="M353.6,609.8c0-4.1,3.3-7.5,7.5-7.5c4.1,0,7.5,3.3,7.5,7.5c0,4.2-3.3,7.5-7.5,7.5C356.9,617.3,353.6,613.9,353.6,609.8z"/>
	<path d="M335.5,629.6c0-4.1,3.3-7.5,7.5-7.5c4.1,0,7.5,3.3,7.5,7.5c0,4.1-3.3,7.5-7.5,7.5C338.8,637.1,335.5,633.7,335.5,629.6z"/>
	<path d="M353.6,629.6c0-4.1,3.3-7.5,7.5-7.5c4.1,0,7.5,3.3,7.5,7.5c0,4.1-3.3,7.5-7.5,7.5C356.9,637,353.6,633.7,353.6,629.6z"/>
	<path d="M335.5,649.3c0-4.1,3.3-7.5,7.5-7.5c4.1,0,7.5,3.3,7.5,7.5c0,4.1-3.3,7.5-7.5,7.5C338.8,656.8,335.5,653.4,335.5,649.3z"/>
	<path d="M353.6,649.3c0-4.1,3.3-7.5,7.5-7.5c4.1,0,7.5,3.3,7.5,7.5c0,4.1-3.3,7.5-7.5,7.5C356.9,656.8,353.6,653.4,353.6,649.3z"/>
	<path d="M335.5,669c0-4.1,3.3-7.5,7.5-7.5c4.1,0,7.5,3.3,7.5,7.5c0,4.2-3.3,7.5-7.5,7.5C338.8,676.5,335.5,673.1,335.5,669z"/>
	<path d="M353.6,669c0-4.1,3.3-7.5,7.5-7.5c4.1,0,7.5,3.3,7.5,7.5c0,4.2-3.3,7.5-7.5,7.5C356.9,676.5,353.6,673.1,353.6,669z"/>
	<circle cx="380.1" cy="530.8" r="7.5"/>
	<path d="M390.8,530.7c0-4.1,3.3-7.5,7.5-7.5c4.1,0,7.5,3.3,7.5,7.5c0,4.1-3.3,7.5-7.5,7.5S390.8,534.8,390.8,530.7z"/>
	<path d="M372.6,550.5c0-4.1,3.3-7.5,7.5-7.5c4.1,0,7.5,3.3,7.5,7.5c0,4.1-3.3,7.5-7.5,7.5C376,558,372.6,554.7,372.6,550.5z"/>
	<path d="M390.8,550.5c0-4.1,3.3-7.5,7.5-7.5c4.1,0,7.5,3.3,7.5,7.5c0,4.1-3.3,7.5-7.5,7.5C394.1,557.9,390.8,554.6,390.8,550.5z"/>
	<path d="M409.7,570.4c0-4.1,3.3-7.5,7.5-7.5c4.1,0,7.5,3.3,7.5,7.5c0,4.1-3.3,7.5-7.5,7.5C413.1,577.9,409.7,574.5,409.7,570.4z"/>
	<path d="M428.3,570.4c0-4.1,3.3-7.5,7.5-7.5c4.1,0,7.5,3.3,7.5,7.5c0,4.1-3.3,7.5-7.5,7.5S428.3,574.5,428.3,570.4z"/>
	<path d="M372.6,589.9c0-4.1,3.3-7.5,7.5-7.5c4.1,0,7.5,3.3,7.5,7.5c0,4.1-3.3,7.5-7.5,7.5C376,597.4,372.6,594.1,372.6,589.9z"/>
	<path d="M390.8,589.9c0-4.1,3.3-7.5,7.5-7.5c4.1,0,7.5,3.3,7.5,7.5c0,4.1-3.3,7.5-7.5,7.5S390.8,594.1,390.8,589.9z"/>
	<path d="M372.6,609.7c0-4.1,3.3-7.5,7.5-7.5c4.1,0,7.5,3.3,7.5,7.5c0,4.1-3.3,7.5-7.5,7.5C376,617.2,372.6,613.8,372.6,609.7z"/>
	<path d="M390.8,609.7c0-4.1,3.3-7.5,7.5-7.5c4.1,0,7.5,3.3,7.5,7.5c0,4.1-3.3,7.5-7.5,7.5C394.1,617.1,390.8,613.8,390.8,609.7z"/>
	<path d="M409.7,629.7c0-4.1,3.3-7.5,7.5-7.5c4.1,0,7.5,3.3,7.5,7.5c0,4.1-3.3,7.5-7.5,7.5C413.1,637.2,409.7,633.8,409.7,629.7z"/>
	<path d="M427.8,629.4c0-4.1,3.3-7.5,7.5-7.5c4.1,0,7.5,3.3,7.5,7.5c0,4.1-3.3,7.5-7.5,7.5C431.2,636.8,427.8,633.5,427.8,629.4z"/>
	<path d="M409.7,649.1c0-4.1,3.3-7.5,7.5-7.5c4.1,0,7.5,3.3,7.5,7.5c0,4.1-3.3,7.5-7.5,7.5C413.1,656.6,409.7,653.2,409.7,649.1z"/>
	<path d="M427.8,649.1c0-4.1,3.3-7.5,7.5-7.5c4.1,0,7.5,3.3,7.5,7.5c0,4.1-3.3,7.5-7.5,7.5C431.2,656.6,427.8,653.2,427.8,649.1z"/>
	<path d="M409.7,668.8c0-4.1,3.3-7.5,7.5-7.5c4.1,0,7.5,3.3,7.5,7.5c0,4.1-3.3,7.5-7.5,7.5C413.1,676.3,409.7,673,409.7,668.8z"/>
	<path d="M427.8,668.8c0-4.1,3.3-7.5,7.5-7.5c4.1,0,7.5,3.3,7.5,7.5c0,4.1-3.3,7.5-7.5,7.5C431.2,676.3,427.8,673,427.8,668.8z"/>
	<path d="M428.3,550.5c0-4.1,3.3-7.5,7.5-7.5c4.1,0,7.5,3.3,7.5,7.5c0,4.1-3.3,7.5-7.5,7.5C431.6,557.9,428.3,554.6,428.3,550.5z"/>
	<path d="M409.7,550.7c0-4.1,3.3-7.5,7.5-7.5c4.1,0,7.5,3.3,7.5,7.5c0,4.1-3.3,7.5-7.5,7.5C413.1,558.1,409.7,554.8,409.7,550.7z"/>
	<path d="M409.7,530.7c0-4.1,3.3-7.5,7.5-7.5c4.1,0,7.5,3.3,7.5,7.5c0,4.1-3.3,7.5-7.5,7.5C413.1,538.2,409.7,534.8,409.7,530.7z"/>
	<path d="M428,589.7c0-4.1,3.3-7.5,7.5-7.5c4.1,0,7.5,3.3,7.5,7.5c0,4.1-3.3,7.5-7.5,7.5C431.4,597.2,428,593.8,428,589.7z"/>
	<path d="M409.7,590.1c0-4.1,3.3-7.5,7.5-7.5c4.1,0,7.5,3.3,7.5,7.5c0,4.1-3.3,7.5-7.5,7.5C413.1,597.5,409.7,594.2,409.7,590.1z"/>
	<path d="M409.7,609.6c0-4.1,3.3-7.5,7.5-7.5c4.1,0,7.5,3.3,7.5,7.5c0,4.1-3.3,7.5-7.5,7.5C413.1,617,409.7,613.7,409.7,609.6z"/>
	<circle cx="463.4" cy="530.8" r="7.5"/>
	<path d="M474,530.7c0-4.1,3.3-7.5,7.5-7.5c4.1,0,7.5,3.3,7.5,7.5c0,4.1-3.3,7.5-7.5,7.5C477.4,538.2,474,534.8,474,530.7z"/>
	<path d="M455.9,550.5c0-4.1,3.3-7.5,7.5-7.5c4.1,0,7.5,3.3,7.5,7.5c0,4.2-3.3,7.5-7.5,7.5C459.2,558,455.9,554.7,455.9,550.5z"/>
	<path d="M474,550.5c0-4.1,3.3-7.5,7.5-7.5c4.1,0,7.5,3.3,7.5,7.5c0,4.1-3.3,7.5-7.5,7.5C477.4,557.9,474,554.6,474,550.5z"/>
	<path d="M455.9,570.2c0-4.1,3.3-7.5,7.5-7.5c4.1,0,7.5,3.3,7.5,7.5c0,4.1-3.3,7.5-7.5,7.5C459.2,577.7,455.9,574.3,455.9,570.2z"/>
	<path d="M474,570.2c0-4.1,3.3-7.5,7.5-7.5c4.1,0,7.5,3.3,7.5,7.5c0,4.1-3.3,7.5-7.5,7.5C477.4,577.7,474,574.3,474,570.2z"/>
	<path d="M455.9,589.9c0-4.1,3.3-7.5,7.5-7.5c4.1,0,7.5,3.3,7.5,7.5c0,4.1-3.3,7.5-7.5,7.5C459.2,597.4,455.9,594.1,455.9,589.9z"/>
	<path d="M474,589.9c0-4.1,3.3-7.5,7.5-7.5c4.1,0,7.5,3.3,7.5,7.5c0,4.1-3.3,7.5-7.5,7.5C477.4,597.4,474,594.1,474,589.9z"/>
	<path d="M455.9,609.7c0-4.1,3.3-7.5,7.5-7.5c4.1,0,7.5,3.3,7.5,7.5c0,4.1-3.3,7.5-7.5,7.5C459.2,617.2,455.9,613.9,455.9,609.7z"/>
	<path d="M474,609.7c0-4.1,3.3-7.5,7.5-7.5c4.1,0,7.5,3.3,7.5,7.5c0,4.1-3.3,7.5-7.5,7.5C477.4,617.1,474,613.8,474,609.7z"/>
	<path d="M455.9,629.5c0-4.1,3.3-7.5,7.5-7.5c4.1,0,7.5,3.3,7.5,7.5c0,4.1-3.3,7.5-7.5,7.5C459.2,637,455.9,633.6,455.9,629.5z"/>
	<path d="M474,629.4c0-4.1,3.3-7.5,7.5-7.5c4.1,0,7.5,3.3,7.5,7.5c0,4.1-3.3,7.5-7.5,7.5C477.4,636.9,474,633.5,474,629.4z"/>
	<path d="M455.9,649.2c0-4.1,3.3-7.5,7.5-7.5c4.1,0,7.5,3.3,7.5,7.5c0,4.1-3.3,7.5-7.5,7.5C459.2,656.6,455.9,653.3,455.9,649.2z"/>
	<path d="M474,649.2c0-4.1,3.3-7.5,7.5-7.5c4.1,0,7.5,3.3,7.5,7.5c0,4.1-3.3,7.5-7.5,7.5C477.4,656.6,474,653.3,474,649.2z"/>
	<path d="M455.9,668.9c0-4.1,3.3-7.5,7.5-7.5c4.1,0,7.5,3.3,7.5,7.5c0,4.1-3.3,7.5-7.5,7.5C459.2,676.4,455.9,673,455.9,668.9z"/>
	<path d="M474,668.9c0-4.1,3.3-7.5,7.5-7.5c4.1,0,7.5,3.3,7.5,7.5c0,4.1-3.3,7.5-7.5,7.5C477.4,676.4,474,673,474,668.9z"/>
	<circle cx="559.9" cy="530.8" r="7.5"/>
	<path d="M570.5,530.8c0-4.1,3.3-7.5,7.5-7.5c4.1,0,7.5,3.3,7.5,7.5c0,4.1-3.3,7.5-7.5,7.5C573.9,538.2,570.5,534.9,570.5,530.8z"/>
	<path d="M552.4,550.6c0-4.1,3.3-7.5,7.5-7.5c4.1,0,7.5,3.3,7.5,7.5c0,4.2-3.3,7.5-7.5,7.5C555.8,558.1,552.4,554.7,552.4,550.6z"/>
	<path d="M570.5,550.5c0-4.1,3.3-7.5,7.5-7.5c4.1,0,7.5,3.3,7.5,7.5c0,4.1-3.3,7.5-7.5,7.5C573.9,558,570.5,554.7,570.5,550.5z"/>
	<path d="M552.4,570.3c0-4.1,3.3-7.5,7.5-7.5c4.1,0,7.5,3.3,7.5,7.5c0,4.2-3.3,7.5-7.5,7.5C555.8,577.8,552.4,574.4,552.4,570.3z"/>
	<path d="M570.5,570.3c0-4.1,3.3-7.5,7.5-7.5c4.1,0,7.5,3.3,7.5,7.5c0,4.2-3.3,7.5-7.5,7.5C573.9,577.8,570.5,574.4,570.5,570.3z"/>
	<path d="M552.4,590c0-4.1,3.3-7.5,7.5-7.5c4.1,0,7.5,3.3,7.5,7.5c0,4.1-3.3,7.5-7.5,7.5C555.8,597.5,552.4,594.1,552.4,590z"/>
	<path d="M570.5,590c0-4.1,3.3-7.5,7.5-7.5c4.1,0,7.5,3.3,7.5,7.5c0,4.1-3.3,7.5-7.5,7.5C573.9,597.5,570.5,594.1,570.5,590z"/>
	<path d="M552.4,609.8c0-4.1,3.3-7.5,7.5-7.5c4.1,0,7.5,3.3,7.5,7.5c0,4.1-3.3,7.5-7.5,7.5C555.8,617.3,552.4,613.9,552.4,609.8z"/>
	<path d="M570.5,609.7c0-4.1,3.3-7.5,7.5-7.5c4.1,0,7.5,3.3,7.5,7.5c0,4.2-3.3,7.5-7.5,7.5C573.9,617.2,570.5,613.9,570.5,609.7z"/>
	<path d="M552.4,629.5c0-4.1,3.3-7.5,7.5-7.5c4.1,0,7.5,3.3,7.5,7.5c0,4.1-3.3,7.5-7.5,7.5C555.8,637,552.4,633.7,552.4,629.5z"/>
	<path d="M570.5,629.5c0-4.1,3.3-7.5,7.5-7.5c4.1,0,7.5,3.3,7.5,7.5c0,4.1-3.3,7.5-7.5,7.5C573.9,636.9,570.5,633.6,570.5,629.5z"/>
	<path d="M552.4,649.2c0-4.1,3.3-7.5,7.5-7.5c4.1,0,7.5,3.3,7.5,7.5c0,4.1-3.3,7.5-7.5,7.5C555.8,656.7,552.4,653.4,552.4,649.2z"/>
	<path d="M570.5,649.2c0-4.1,3.3-7.5,7.5-7.5c4.1,0,7.5,3.3,7.5,7.5c0,4.1-3.3,7.5-7.5,7.5C573.9,656.7,570.5,653.4,570.5,649.2z"/>
	<path d="M552.4,669c0-4.1,3.3-7.5,7.5-7.5c4.1,0,7.5,3.3,7.5,7.5c0,4.2-3.3,7.5-7.5,7.5C555.8,676.4,552.4,673.1,552.4,669z"/>
	<path d="M570.5,669c0-4.1,3.3-7.5,7.5-7.5c4.1,0,7.5,3.3,7.5,7.5c0,4.2-3.3,7.5-7.5,7.5C573.9,676.4,570.5,673.1,570.5,669z"/>
	<circle cx="502.2" cy="550.3" r="7.5"/>
	<circle cx="502.2" cy="570.3" r="7.5"/>
	<circle cx="521.6" cy="570" r="7.5"/>
	<circle cx="502.2" cy="590.6" r="7.5"/>
	<circle cx="521.6" cy="589.9" r="7.5"/>
	<circle cx="541.5" cy="589.5" r="7.5"/>
	<path d="M533.5,609.3c0-4.1,3.3-7.5,7.5-7.5c4.1,0,7.5,3.3,7.5,7.5c0,4.1-3.3,7.5-7.5,7.5S533.5,613.5,533.5,609.3z"/>
	<circle cx="540.9" cy="629.2" r="7.5"/>
	<circle cx="521.6" cy="609.6" r="7.5"/>
</g>
</svg>
