<?xml version="1.0" encoding="utf-8"?>
<!-- Generator: Adobe Illustrator 17.1.0, SVG Export Plug-In . SVG Version: 6.00 Build 0)  -->
<!DOCTYPE svg PUBLIC "-//W3C//DTD SVG 1.1//EN" "http://www.w3.org/Graphics/SVG/1.1/DTD/svg11.dtd">
<svg version="1.1" id="Layer_1" xmlns="http://www.w3.org/2000/svg" xmlns:xlink="http://www.w3.org/1999/xlink" x="0px" y="0px"
	 viewBox="0 517.9 595.3 194" enable-background="new 0 517.9 595.3 194" xml:space="preserve">
<g>
	<g>
		<path fill="#010103" d="M305.2,605.6C305.2,605.6,305.2,605.6,305.2,605.6C305.2,605.6,305.2,605.6,305.2,605.6z"/>
		<path fill="#010103" d="M305.2,605.6C305.2,605.6,305.2,605.6,305.2,605.6C305.2,605.6,305.2,605.6,305.2,605.6z"/>
		<path fill="#010103" d="M305.2,605.6C305.2,605.6,305.2,605.6,305.2,605.6L305.2,605.6z"/>
		<path fill="#010103" d="M305.3,605.6C305.2,605.6,305.2,605.6,305.3,605.6c0.1-0.2,0.3-0.8,1-2.7c2.1-5.7-2-7.1-3.8-7.1
			c-1.6-0.1-6.8-0.1-8.9,5.5c-2.1,5.7-2.9,7.9-2.9,7.9l14-1.7C305,606.2,305.2,605.7,305.3,605.6z M305.3,605.5
			C305.3,605.4,305.3,605.5,305.3,605.5L305.3,605.5z"/>
		<path fill="#010103" d="M284.6,625.3C284.6,625.3,284.6,625.3,284.6,625.3C284.6,625.3,284.6,625.3,284.6,625.3
			C284.6,625.3,284.6,625.3,284.6,625.3z"/>
		<path fill="#010103" d="M577.7,580.1L577.7,580.1l-13.8-23.2c-8.9-15.9-26.1-26.6-45.9-26.6l-440.4,6.8
			c-40.6,0-73.4,32.3-73.4,72.2c0,15.7,5.1,30.2,13.8,42.1l0,0.1l14.9,20.8l0,0C46.1,691.4,68.4,704,93.7,704c2.7,0,5.4-0.2,8-0.4
			l0,0l435.8-46.8l0,0c26.4-2.7,47-24.6,47-51.3C584.5,596.2,582,587.6,577.7,580.1z M191.1,657.6c-3.5,0.4-17.3-2.5-10.4-21.2
			s11-29.5,11-29.5l-16.7,1.4l4.1-11.1l16.7-1.4l8-21.5l39.1-4.5l-8.4,22.7l15.9-1.4l-4.1,11.1l-15.9,1.4c0,0-10.6,28.6-11.6,31.2
			c-1,2.6-2,7.8,3.2,7.3c5.1-0.4,12.2-1,16.6-1.4c2.5,5.9,8.5,8.3,16.5,10.2C252.1,651.1,194.6,657.2,191.1,657.6z M324.8,643.3
			c0,0-18.7,2-40.1,4.3c-21.3,2.3-39.4-9.8-37.7-25.1c1.9-16.3,16.4-36.9,57.2-39s34.6,27.3,32.9,34.2c-20.5,1.5-51.4,4.3-51.4,4.3
			c-0.6,1.7-1,2.6-1.1,2.9c0,0,0,0,0,0c0,0,0,0.1,0,0.1c0,0,0,0,0,0.1c0,0,0,0.1,0,0.1c0,0,0,0,0,0c0,0,0,0,0,0
			c-0.1,0.2-0.2,0.5-0.4,1.1c-1.4,3.7-3.1,9.4,5.3,8.7c8.4-0.7,40.5-5.4,40.5-5.4L324.8,643.3z M393.9,594.7
			c-0.5,0.6-3.2,3.4-4.9,7.8c-1.6,4.4-13.2,35.4-13.2,35.4l-39.4,4.2l22.5-60.4l33.9-3c0,0,0.3,1.6,0.4,4.2
			c6.8-11,15.9-9.8,19.1-9.8c3.2,0,13.3,2.2,12.1,13.9c-1.2,11.7-8.8,18.6-16.4,19.6C400.6,607.6,395.2,600.4,393.9,594.7z
			 M525.1,621.9L525.1,621.9c-0.1,0-0.2,0-0.2,0c-0.8,0.1-1.6,0.2-2.5,0.3c-13.4,1.6-39.9,3.2-46.9,3.4c-10.5,0.4-9.3-9.5-8.2-12.4
			c1.1-2.9,6.6-17.9,8-21.4c2-5.2-1.2-7.1-2.3-7.5c-1.6-0.5-7.1-0.5-9.8,6.5c-3.3,8.8-14.6,39.2-14.6,39.2l-40.3,4.3
			c0,0,8.8-23.6,10.9-29.2c0.1-0.3,9.6-2.1,12.9-11.9c3.5-10.4-1.8-17.9-1.8-17.9l34.4-3c0,0,0,0,0.5,4.2c4-3.7,6.8-6.7,29.5-7.6
			c22.7-0.8,20.5,18,19.5,20.6c-1,2.6-3.2,8.5-5.9,14.4c-2.7,5.9,0.2,7,3.5,7c1.2,0,8.5-0.3,9.8-0.4c14.2-1.6,25.2-13.6,25.2-28.2
			c0-15.6-12.7-28.4-28.4-28.4l-441.4,7c-26.9,0-48.7,21.8-48.7,48.6c0,26.8,21.8,48.6,48.6,48.6c17.5-1.3,35.7-0.7,40.6-15.8
			c6-18.6-14.5-11.4-23.6-11.2c-9.1,0.2-26.5,1.2-26-17.6c0.9-41.7,73.8-37,82.5-37c15-0.1,20.3,9.7,20.2,16.5
			c-0.1,6.7-3.6,16.9-19.2,17c-15.6,0.1-17.5-11.8-17.5-22c-12-1.4-16.2,4.5-21.3,18.5c-5.5,15.3,2.9,10.5,20,9.5
			c18.5-1,32.9-1,33.2,18.2c0.3,19.2-22.2,27.4-33.8,29.4c-10.9,1.9-36.5,6-55.1,6c-33.2,0-60.2-27-60.2-60.2
			c0-33.2,27-60.2,60.2-60.2l441.4-7c22.1,0,40.1,17.9,40.1,40C558.4,602.2,544,618.7,525.1,621.9z"/>
	</g>
</g>
</svg>
