<?xml version="1.0" encoding="utf-8"?>
<!-- Generator: Adobe Illustrator 17.1.0, SVG Export Plug-In . SVG Version: 6.00 Build 0)  -->
<!DOCTYPE svg PUBLIC "-//W3C//DTD SVG 1.1//EN" "http://www.w3.org/Graphics/SVG/1.1/DTD/svg11.dtd">
<svg version="1.1" id="Layer_1" xmlns="http://www.w3.org/2000/svg" xmlns:xlink="http://www.w3.org/1999/xlink" x="0px" y="0px"
	 viewBox="0 0 20 20" enable-background="new 0 0 20 20" xml:space="preserve">
<g>
	<path d="M18.928,14.727H1.072c-0.297,0-0.551,0.104-0.759,0.313S0,15.501,0,15.798v2.143c0,0.298,0.104,0.551,0.313,0.759
		c0.208,0.208,0.461,0.313,0.759,0.313h17.857c0.298,0,0.551-0.104,0.759-0.313C19.895,18.492,20,18.239,20,17.942v-2.143
		c0-0.297-0.104-0.551-0.313-0.759C19.479,14.832,19.226,14.727,18.928,14.727z"/>
	<path d="M19.687,3.611c-0.208-0.208-0.461-0.313-0.759-0.313H1.072c-0.297,0-0.551,0.104-0.759,0.313C0.105,3.819,0,4.072,0,4.37
		v2.143C0,6.81,0.104,7.064,0.312,7.272s0.461,0.313,0.759,0.313h17.857c0.298,0,0.551-0.104,0.759-0.313
		C19.895,7.063,20,6.81,20,6.513V4.37C20,4.072,19.895,3.819,19.687,3.611z"/>
	<path d="M18.928,9.013H1.072c-0.297,0-0.551,0.104-0.759,0.313S0,9.787,0,10.084v2.143c0,0.297,0.104,0.551,0.313,0.759
		s0.461,0.313,0.759,0.313h17.857c0.298,0,0.551-0.104,0.759-0.313C19.895,12.778,20,12.525,20,12.227v-2.143
		c0-0.298-0.104-0.551-0.313-0.759C19.479,9.117,19.226,9.013,18.928,9.013z"/>
</g>
</svg>
