<?xml version="1.0" encoding="utf-8"?>
<!-- Generator: Adobe Illustrator 17.1.0, SVG Export Plug-In . SVG Version: 6.00 Build 0)  -->
<!DOCTYPE svg PUBLIC "-//W3C//DTD SVG 1.1//EN" "http://www.w3.org/Graphics/SVG/1.1/DTD/svg11.dtd">
<svg version="1.1" id="Layer_1" xmlns="http://www.w3.org/2000/svg" xmlns:xlink="http://www.w3.org/1999/xlink" x="0px" y="0px"
	 viewBox="0 0 20 20" enable-background="new 0 0 20 20" xml:space="preserve">
<path d="M7.372,14.267c-0.499,0-0.897,0.195-1.17,0.577v-0.491H2.74v1.139h0.257l-0.507,1.505l-0.437-1.505H2.28v-1.139H0.307v1.139
	h0.382l1.154,3.065H3.13l1.186-3.065h0.646v3.37H4.518V20h2.129v-1.139H6.202v-0.702c0.234,0.187,0.585,0.484,1.248,0.484
	c1.1,0,2.051-0.991,2.051-2.168C9.502,15.266,8.535,14.267,7.372,14.267z M7.201,17.473c-0.569,0-1.037-0.445-1.037-1.014
	c0-0.569,0.468-1.022,1.037-1.022c0.569,0,1.037,0.445,1.037,1.014C8.238,17.013,7.77,17.473,7.201,17.473z"/>
</svg>
