<?xml version="1.0" encoding="utf-8"?>
<!-- Generator: Adobe Illustrator 17.1.0, SVG Export Plug-In . SVG Version: 6.00 Build 0)  -->
<!DOCTYPE svg PUBLIC "-//W3C//DTD SVG 1.1//EN" "http://www.w3.org/Graphics/SVG/1.1/DTD/svg11.dtd">
<svg version="1.1" id="Layer_1" xmlns="http://www.w3.org/2000/svg" xmlns:xlink="http://www.w3.org/1999/xlink" x="0px" y="0px"
	 viewBox="0 542.9 595.3 141" enable-background="new 0 542.9 595.3 141" xml:space="preserve">
<path d="M198.7,576.9c-9.8-3.8-20.6,13.9-9.6,18.6C202.1,601,208.1,580.6,198.7,576.9z"/>
<path d="M330.5,576.9c-9.8-3.8-20.6,13.9-9.6,18.6C333.9,601,339.8,580.6,330.5,576.9z"/>
<path d="M375.4,622.8c0.7,1,1.9,0.5,3.4-1.7c1.5-2.2,2.8-4,5-4c2.2,0,10.5,0.5,12.2,0.5s3.1,0.7,0,6.2c-3.1,5.5-24.9,42.1-23.4,47.5
	c1.6,5.3,26.7-23.6,31.3-30.4c4.6-6.9,19.4-28.2,30.1-23.9c10.7,4.3,0.9,30.4,0.9,30.4s22.9-34,33.4-31.8
	c16.5,3.4,6.4,29.9,6.4,29.9s24.4-32.8,34.6-29.4c23.7,7.9-8.5,47.5-9.1,54c-2.2,22,63.1-68.2,63.1-68.2c2.2-1,3.8,0.5,1.9,3.4
	c-1.9,2.9-4.1,4.5-4.5,6.2c-0.3,1.7,10.7,25.1,11.5,31.3c0.9,6.2,1,7.6,0.7,9.3c-0.3,1.7-1.2,3.8-0.7,4.6c0.5,0.8-0.2,2.1,1.5,0
	c1.7-2.1,6.5-7.7,7.4-8.8c0.9-1,2.8,1.7,0.7,4.1c-2.1,2.4-16.5,25.6-34,24.9c-17.5-0.7-19.8-12.5-18.9-17.2s4.6-7.6,8.4-7.4
	c3.8,0.2,7.2,5.5,5.8,8.3c-1.4,2.8-0.8,4-3.4,5.3c-2.6,1.4-2.6,1.4-2.6,1.4s0.7,4.1,3.4,4.3c2.8,0.2,16.3-17.9,17.5-34.4
	c1.2-16.5-0.9-20.5-0.9-20.5s-34.9,43.7-42.6,53c-7.7,9.3-23.1,11.1-25.1-1.9c-2.9-18.8,16.8-42.8,17.4-44.7c0.5-1.9-1-4.5-6.4-0.7
	c-5.3,3.8-37.5,49.3-38.9,51.4c-1.4,2.1-3.4,2.8-5.7,2.9c-2.2,0.2-11.9-0.3-13.2-0.3c-1.4,0-2.2-1.9-0.5-5.2
	c1.7-3.3,21.1-40.8,22.3-45.7c1.2-5-3.3-3.4-7.2,0.7c-4,4.1-33,41.4-35.6,46.9s-6,3.3-7.2,3.3s-8.8,0-10.3,0c-1.6,0-5.8,1.5-2.6-4.3
	c3.3-5.8,24.1-43.1,24.7-46.1c0.7-2.9,0.7-5.8-4.3-1.4c-5,4.5-30.9,39.2-37,44.4c-6,5.2-12.4,10-19.3,7.9
	c-6.9-2.1-6.5-14.3-6.5-14.3s-1.2-1.4-1.9-0.3c-0.7,1-11.3,15.3-23.4,15.1c-12-0.2-14.8-14.8-14.1-18.9c0.7-4.1,1.6-6.1,0.7-7.2
	s-14.6,24.8-30.9,25.5c-16.3,0.7-7.6-26.3-4.5-32c3.1-5.7,4.3-6.5,4.6-7.9c0.3-1.4,0.3-1.7-1.2-0.3c-1.6,1.4-26.6,37-36.8,39.4
	c-10.1,2.4-17.4-2.6-16.3-11.7c1-9.1,8.1-25.5,9.5-27.7c1.4-2.2,0-1.4-0.9-0.7s-26,33.7-33.2,38.2c-7.2,4.5-22,4.5-19.9-10
	c2.1-14.4,9.8-26.3,10-27.2c0.2-0.9-0.3-2.2-1.4-0.9c-1,1.4-26.3,36.1-34.6,39.2c-8.3,3.1-15,1-16.5-7.9c-1.6-9,7.2-26.3,7.9-27.5
	c0.7-1.2,1.7-3.1,1.7-3.1l-11.5,13.9c-1,0.2-3.1-0.2-3.1-1.4c0-1.2,21.5-28,23.4-29.6c1.9-1.5,4-1.9,5.2-1.9
	c1.2,0,10.3-0.3,12.2-0.2c1.9,0.2,4.6-0.3,0.3,5.7c-4.3,6-21,36.5-22.4,40.2c-1.4,3.8-2.4,7.2-0.7,8.1c1.7,0.8,13.1-7,43.3-47.6
	c30.3-40.6,37.2-61.7,41.6-65c4.5-3.3,13.8-2.2,15.6-2.2c1.9,0,1.5,0.9,0.2,4.5c-1.4,3.6-59.3,103.3-57.8,110.2
	c1.5,6.9,20.6-18.2,26.3-25.3c5.7-7,26.5-33.2,31.8-41.3c5.3-8.1,25.4-43,27.2-45.2c1.7-2.2,3.1-2.2,5-2.2s10.3,0,11.7,0
	c1.4,0,1.6,1.7-0.5,5c-2.1,3.3-58.1,98.7-56.7,109.2c1.4,10.5,47.3-50.2,48.8-52.1c1.6-1.9,2.2-1.7,5.5-2.1c3.3-0.3,9.1,0,11.7-0.2
	s3.6,0.5,1.2,4.8c-2.4,4.3-27.2,45.6-24.4,49.7c2.8,4.1,22.7-19.6,26.3-24.1c3.6-4.5,24.6-32,42-31.8
	C373.5,616.1,375,622.2,375.4,622.8 M367.6,620.3c-9.4-3-44.8,51.2-32.2,53.5C347.1,676,384.8,625.8,367.6,620.3z"/>
<path d="M59.4,569.4c1.2-0.3,7.2,23-0.5,40.7c-8.8,20.2-42.3,31.9-48.5,12c-10.7-34.2,49-87.2,79.8-64.7
	c44.8,32.8-40.7,104.4-40.7,104.4s38.3-21,99.2-109c0,0,3.1-0.9,3.1,1.7c0,2.6-32.8,88.4-33.7,100.2c0,0,28.9-60.2,59.5-77.5
	c0,0,2.6,0.2,1.4,2.1c-1.2,1.9-26.1,16-46.3,56.7c-20.1,40.8-20.8,42.1-23.9,42.1c-3.1,0-10.8-14.8-7.4-32.1
	c5.8-30.3,28.7-59.8,28.7-59.8s-23.5,32-70.2,72.7c-25.8,22.5-30.6,18.2-31.5,16.3s29.7-27.3,50.2-78.2c10.4-25.8,4.1-36.6-2.4-39.2
	c-6.5-2.6-38.7-1.9-60,40.9c-8,16-2.2,26.6,2.9,28.7c10.7,4.3,32.3-14.6,37.1-43.5c1.5-9.2,0.7-13.6,0.7-13.6L59.4,569.4z"/>
</svg>
