<?xml version="1.0" encoding="utf-8"?>
<!-- Generator: Adobe Illustrator 22.1.0, SVG Export Plug-In . SVG Version: 6.00 Build 0)  -->
<svg version="1.1" id="Layer_1" xmlns="http://www.w3.org/2000/svg" xmlns:xlink="http://www.w3.org/1999/xlink" x="0px" y="0px"
	 viewBox="0 0 195 49" style="enable-background:new 0 0 195 49;" xml:space="preserve">
<g>
	<path d="M23.5,0.3C10.5,0.3,0,10.8,0,23.8s10.5,23.5,23.5,23.5S47,36.8,47,23.8S36.4,0.3,23.5,0.3z M23.5,45.8
		c-12.1,0-22-9.9-22-22c0-12.1,9.9-22,22-22c12.1,0,22,9.9,22,22C45.5,35.9,35.6,45.8,23.5,45.8z"/>
	<path d="M23.5,3.6c-11.2,0-20.2,9-20.2,20.2S12.3,44,23.5,44s20.2-9,20.2-20.2S34.6,3.6,23.5,3.6z M34,30.7c0,2.3-4.7,4.1-10.5,4.1
		S12.9,33,12.9,30.7v-3.5c1.9,1.8,6.3,2.7,10.5,2.7S32,28.9,34,27.2V30.7z M34,24.9c-0.2,1.7-4.5,3.4-10.5,3.4
		c-6,0-10.3-1.8-10.5-3.4v-4.4c1.9,1.8,6.3,2.7,10.5,2.7S32,22.2,34,20.5V24.9z M34,18.2c-0.2,1.7-4.5,3.4-10.5,3.4
		c-6,0-10.3-1.8-10.5-3.4v-0.1c0-2.3,4.7-4.1,10.5-4.1S34,15.8,34,18.1V18.2z"/>
</g>
<g>
	<path d="M109,9.3c-3.5,0-6.3,1.4-8.2,4V9.9H90.3H89H76.6v8h1.8l-3.6,10.6l-3.1-10.6h1.6v-8H59.5v8h2.7l8.1,21.5h9l8.3-21.5H89h1.3
		h1.9v23.6H89v8H104v-8h-3.1v-4.9c1.6,1.3,4.1,3.4,8.7,3.4c7.7,0,14.4-6.9,14.4-15.2C124,16.3,117.2,9.3,109,9.3z M107.8,31.8
		c-4,0-7.3-3.1-7.3-7.1s3.3-7.2,7.3-7.2c4,0,7.3,3.1,7.3,7.1C115.1,28.5,111.8,31.8,107.8,31.8z"/>
	<path d="M154.8,0.3h-9.6v4.9h4.3v10.4c-2.7-3.8-6.3-5.9-10.8-5.9c-7.6,0-14.7,6.6-14.7,15.1c0,8.7,6.8,15.1,14.9,15.1
		c4.9,0,8.1-2.2,10.6-5.8v5.2h9.5v-4.9h-4.2V0.3z M139.4,34.7c-5.7,0-10.1-4.4-10.1-9.8c0-5.5,4.5-9.8,10.2-9.8
		c5.6,0,10.1,4.2,10.1,9.7C149.6,30.3,145,34.7,139.4,34.7z"/>
	<path d="M180.1,9.8c-4.6,0-7.8,2.1-10.2,5.8V0.3h-9.5v4.9h4.2v29.2h-4.2v4.9h9.5v-5.2c2.6,3.7,5.9,5.8,10.6,5.8
		c7.6,0,14.5-6.5,14.5-15C195,16.5,188.1,9.8,180.1,9.8z M179.7,34.7c-5.5,0-10.1-4.5-10.1-10c0-5.4,4.5-9.6,10.1-9.6
		c5.8,0,9.9,4.3,9.9,9.7C189.6,30.3,185.5,34.7,179.7,34.7z"/>
</g>
</svg>
