<?xml version="1.0" encoding="utf-8"?>
<!-- Generator: Adobe Illustrator 18.1.0, SVG Export Plug-In . SVG Version: 6.00 Build 0)  -->
<!DOCTYPE svg PUBLIC "-//W3C//DTD SVG 1.1//EN" "http://www.w3.org/Graphics/SVG/1.1/DTD/svg11.dtd">
<svg version="1.1" xmlns="http://www.w3.org/2000/svg" xmlns:xlink="http://www.w3.org/1999/xlink" x="0px" y="0px"
	 viewBox="0 0 90 90" enable-background="new 0 0 90 90" xml:space="preserve">
<g id="icons">
	<g>
		<path d="M45,9.9C25.5,9.9,9.9,25.5,9.9,45c0,19.5,15.6,35.1,35.1,35.1c3.1,0,5.9-2.7,5.9-5.9c0-1.6-0.4-2.7-1.6-3.9
			c-0.8-1.2-1.5-2.3-1.5-3.9c0-3.1,2.7-5.9,5.9-5.9h7c10.9,0,19.5-8.6,19.5-19.5C80.1,23.9,64.5,9.9,45,9.9L45,9.9z M23.5,45
			c-3.1,0-5.9-2.7-5.9-5.9s2.7-5.9,5.9-5.9c3.1,0,5.9,2.7,5.9,5.9S26.7,45,23.5,45L23.5,45z M35.2,29.4c-3.1,0-5.9-2.7-5.9-5.9
			c0-3.1,2.7-5.9,5.9-5.9c3.1,0,5.9,2.7,5.9,5.9C41.1,26.7,38.4,29.4,35.2,29.4L35.2,29.4z M54.8,29.4c-3.1,0-5.9-2.7-5.9-5.9
			c0-3.1,2.7-5.9,5.9-5.9c3.1,0,5.9,2.7,5.9,5.9C60.6,26.7,57.9,29.4,54.8,29.4L54.8,29.4z M66.5,45c-3.1,0-5.9-2.7-5.9-5.9
			s2.7-5.9,5.9-5.9c3.1,0,5.9,2.7,5.9,5.9S69.6,45,66.5,45L66.5,45z M66.5,45"/>
	</g>
</g>
<g id="Painter_Palette">
</g>
</svg>
