<?xml version="1.0" encoding="utf-8"?>
<!-- Generator: Adobe Illustrator 18.1.0, SVG Export Plug-In . SVG Version: 6.00 Build 0)  -->
<!DOCTYPE svg PUBLIC "-//W3C//DTD SVG 1.1//EN" "http://www.w3.org/Graphics/SVG/1.1/DTD/svg11.dtd">
<svg version="1.1" id="icons" xmlns="http://www.w3.org/2000/svg" xmlns:xlink="http://www.w3.org/1999/xlink" x="0px" y="0px"
	 viewBox="0 0 90 90" enable-background="new 0 0 90 90" xml:space="preserve">
<path d="M76.4,27c3.2,5.5,4.8,11.6,4.8,18.1c0,6.5-1.6,12.6-4.8,18.1s-7.6,9.9-13.1,13.1c-5.5,3.2-11.6,4.8-18.1,4.8
	c-6.5,0-12.6-1.6-18.1-4.8c-5.5-3.2-9.9-7.6-13.1-13.1S9.1,51.6,9.1,45.1c0-6.5,1.6-12.6,4.8-18.1s7.6-9.9,13.1-13.1
	C32.6,10.6,38.6,9,45.1,9c6.5,0,12.6,1.6,18.1,4.8C68.8,17.1,73.1,21.5,76.4,27z M63.2,36.1c0-2.8-0.9-5.3-2.6-7.7s-3.9-4.2-6.5-5.4
	c-2.6-1.3-5.3-1.9-8-1.9c-7.6,0-13.4,3.3-17.4,10c-0.5,0.8-0.3,1.4,0.4,2l6.2,4.7c0.2,0.2,0.5,0.3,0.9,0.3c0.5,0,0.9-0.2,1.2-0.6
	c1.7-2.1,3-3.6,4-4.3c1.1-0.8,2.4-1.1,4-1.1c1.5,0,2.8,0.4,4,1.2c1.2,0.8,1.8,1.7,1.8,2.8c0,1.2-0.3,2.1-0.9,2.9
	c-0.6,0.7-1.7,1.4-3.2,2.1c-2,0.9-3.8,2.2-5.4,4.1c-1.6,1.8-2.5,3.8-2.5,5.9v1.7c0,0.4,0.1,0.8,0.4,1.1c0.3,0.3,0.6,0.4,1.1,0.4h9
	c0.4,0,0.8-0.1,1.1-0.4c0.3-0.3,0.4-0.6,0.4-1.1c0-0.6,0.3-1.4,1-2.3c0.7-1,1.5-1.7,2.6-2.3c1-0.6,1.8-1,2.3-1.3s1.3-0.9,2.2-1.6
	c0.9-0.8,1.6-1.5,2.1-2.3c0.5-0.7,0.9-1.7,1.3-2.8C63,38.7,63.2,37.5,63.2,36.1z M51.2,67.6v-9c0-0.4-0.1-0.8-0.4-1.1
	c-0.3-0.3-0.6-0.4-1.1-0.4h-9c-0.4,0-0.8,0.1-1.1,0.4c-0.3,0.3-0.4,0.6-0.4,1.1v9c0,0.4,0.1,0.8,0.4,1.1c0.3,0.3,0.6,0.4,1.1,0.4h9
	c0.4,0,0.8-0.1,1.1-0.4C51,68.4,51.2,68.1,51.2,67.6z"/>
</svg>
