<?xml version="1.0" encoding="utf-8"?>
<!-- Generator: Adobe Illustrator 18.1.0, SVG Export Plug-In . SVG Version: 6.00 Build 0)  -->
<!DOCTYPE svg PUBLIC "-//W3C//DTD SVG 1.1//EN" "http://www.w3.org/Graphics/SVG/1.1/DTD/svg11.dtd">
<svg version="1.1" id="icons" xmlns="http://www.w3.org/2000/svg" xmlns:xlink="http://www.w3.org/1999/xlink" x="0px" y="0px"
	 viewBox="0 0 90 90" enable-background="new 0 0 90 90" xml:space="preserve">
<g>
	<path d="M76.1,27c3.2,5.5,4.8,11.5,4.8,18c0,6.5-1.6,12.5-4.8,18c-3.2,5.5-7.6,9.9-13.1,13.1c-5.5,3.2-11.5,4.8-18,4.8
		c-6.5,0-12.5-1.6-18-4.8c-5.5-3.2-9.9-7.6-13.1-13.1S9.1,51.5,9.1,45c0-6.5,1.6-12.5,4.8-18s7.6-9.9,13.1-13.1
		c5.5-3.2,11.5-4.8,18-4.8c6.5,0,12.5,1.6,18,4.8C68.5,17.1,72.9,21.5,76.1,27z M45,70.4V19.6c-4.6,0-8.9,1.1-12.8,3.4
		c-3.9,2.3-7,5.4-9.2,9.2c-2.3,3.9-3.4,8.2-3.4,12.8c0,4.6,1.1,8.9,3.4,12.8c2.3,3.9,5.4,7,9.2,9.3C36.1,69.3,40.4,70.4,45,70.4z"/>
</g>
</svg>
