<?xml version="1.0" encoding="utf-8"?>
<!-- Generator: Adobe Illustrator 18.1.0, SVG Export Plug-In . SVG Version: 6.00 Build 0)  -->
<!DOCTYPE svg PUBLIC "-//W3C//DTD SVG 1.1//EN" "http://www.w3.org/Graphics/SVG/1.1/DTD/svg11.dtd">
<svg version="1.1" id="icons" xmlns="http://www.w3.org/2000/svg" xmlns:xlink="http://www.w3.org/1999/xlink" x="0px" y="0px"
	 viewBox="0 0 90 90" enable-background="new 0 0 90 90" xml:space="preserve">
<g>
	<path d="M75.7,26.9c3.2,5.5,4.8,11.5,4.8,18.1c0,6.5-1.6,12.6-4.8,18.1c-3.2,5.5-7.6,9.9-13.1,13.1C57.1,79.3,51.1,81,44.5,81
		S32,79.3,26.5,76.1c-5.5-3.2-9.9-7.6-13.1-13.1S8.5,51.5,8.5,44.9c0-6.5,1.6-12.6,4.8-18.1s7.6-9.9,13.1-13.1S38,8.9,44.5,8.9
		s12.6,1.6,18.1,4.8C68.1,17,72.5,21.4,75.7,26.9z M68.7,37.4c0-0.9-0.3-1.6-0.8-2.2L63.6,31c-0.6-0.6-1.3-0.9-2.1-0.9
		c-0.8,0-1.5,0.3-2.1,0.9L40.3,50.1L29.7,39.5c-0.6-0.6-1.3-0.9-2.1-0.9c-0.8,0-1.5,0.3-2.1,0.9l-4.3,4.2c-0.6,0.6-0.8,1.3-0.8,2.2
		c0,0.8,0.3,1.5,0.8,2.1l17,17c0.6,0.6,1.3,0.9,2.1,0.9c0.8,0,1.6-0.3,2.2-0.9l25.5-25.5C68.4,38.9,68.7,38.2,68.7,37.4z"/>
</g>
</svg>
