<?xml version="1.0" encoding="utf-8"?>
<!-- Generator: Adobe Illustrator 19.2.1, SVG Export Plug-In . SVG Version: 6.00 Build 0)  -->
<!DOCTYPE svg PUBLIC "-//W3C//DTD SVG 1.1//EN" "http://www.w3.org/Graphics/SVG/1.1/DTD/svg11.dtd">
<svg version="1.1" id="icons" xmlns="http://www.w3.org/2000/svg" xmlns:xlink="http://www.w3.org/1999/xlink" x="0px" y="0px"
	 viewBox="0 0 90 90" enable-background="new 0 0 90 90" xml:space="preserve">
<path d="M81.1,62c0,3.5-1.2,6.5-3.7,8.9l-6.5,6.4c-2.4,2.4-5.4,3.7-8.9,3.7c-3.6,0-6.6-1.2-9-3.7l-9.1-9.1c-2.4-2.4-3.7-5.4-3.7-8.9
	c0-3.6,1.3-6.7,3.9-9.2l-3.9-3.9C37.7,48.7,34.6,50,31,50c-3.5,0-6.5-1.2-9-3.7l-9.2-9.2c-2.5-2.5-3.7-5.5-3.7-9s1.2-6.5,3.7-8.9
	l6.5-6.4c2.4-2.4,5.4-3.7,8.9-3.7c3.6,0,6.6,1.2,9,3.7l9.1,9.1c2.4,2.4,3.7,5.4,3.7,8.9c0,3.6-1.3,6.7-3.9,9.2l3.9,3.9
	c2.5-2.6,5.6-3.9,9.2-3.9c3.5,0,6.5,1.2,9,3.7l9.2,9.2C79.9,55.5,81.1,58.5,81.1,62z M41.6,30.9c0-1.2-0.4-2.2-1.2-3l-9.1-9.1
	c-0.8-0.8-1.8-1.2-3-1.2c-1.1,0-2.1,0.4-3,1.2l-6.5,6.4c-0.8,0.8-1.2,1.8-1.2,3c0,1.2,0.4,2.2,1.2,3l9.2,9.2c0.8,0.8,1.8,1.2,3,1.2
	c1.2,0,2.3-0.5,3.2-1.4c-0.1-0.1-0.4-0.4-0.8-0.8c-0.5-0.5-0.8-0.8-0.9-0.9c-0.2-0.2-0.4-0.5-0.7-0.8c-0.3-0.4-0.5-0.8-0.6-1.1
	C31.1,36,31,35.6,31,35.2c0-1.2,0.4-2.2,1.2-3c0.8-0.8,1.8-1.2,3-1.2c0.4,0,0.8,0.1,1.2,0.2c0.4,0.1,0.7,0.3,1.1,0.6
	c0.4,0.3,0.7,0.5,0.8,0.7c0.2,0.2,0.5,0.5,0.9,0.9c0.5,0.5,0.7,0.7,0.8,0.8C41.2,33.2,41.6,32.2,41.6,30.9z M72.6,62
	c0-1.2-0.4-2.2-1.2-3l-9.2-9.2c-0.8-0.8-1.8-1.2-3-1.2c-1.2,0-2.3,0.5-3.2,1.4c0.1,0.1,0.4,0.4,0.8,0.8c0.5,0.5,0.8,0.8,0.9,0.9
	c0.2,0.2,0.4,0.5,0.7,0.8c0.3,0.4,0.5,0.8,0.6,1.1c0.1,0.4,0.2,0.8,0.2,1.2c0,1.2-0.4,2.2-1.2,3c-0.8,0.8-1.8,1.2-3,1.2
	c-0.4,0-0.8-0.1-1.2-0.2c-0.4-0.1-0.7-0.3-1.1-0.6c-0.4-0.3-0.7-0.5-0.8-0.7c-0.2-0.2-0.5-0.5-0.9-0.9c-0.5-0.5-0.7-0.7-0.8-0.8
	c-1,0.9-1.5,2-1.5,3.2c0,1.2,0.4,2.2,1.2,3l9.1,9.1c0.8,0.8,1.8,1.2,3,1.2c1.2,0,2.2-0.4,3-1.1l6.5-6.4C72.2,64.1,72.6,63.1,72.6,62
	z"/>
</svg>
