<?xml version="1.0" encoding="utf-8"?>
<!-- Generator: Adobe Illustrator 18.1.0, SVG Export Plug-In . SVG Version: 6.00 Build 0)  -->
<!DOCTYPE svg PUBLIC "-//W3C//DTD SVG 1.1//EN" "http://www.w3.org/Graphics/SVG/1.1/DTD/svg11.dtd">
<svg version="1.1" xmlns="http://www.w3.org/2000/svg" xmlns:xlink="http://www.w3.org/1999/xlink" x="0px" y="0px"
	 viewBox="0 0 90 90" enable-background="new 0 0 90 90" xml:space="preserve">
<g id="icons">
	<g>
		<path d="M63.1,76.3c-5.5,3.2-11.5,4.8-18.1,4.8c-6.5,0-12.6-1.6-18.1-4.8s-9.9-7.6-13.1-13.1C10.6,57.7,9,51.7,9,45.1
			c0-6.5,1.6-12.5,4.8-18.1c3.2-5.5,7.6-9.9,13.1-13.1S38.5,9.2,45,9.2c6.5,0,12.5,1.6,18.1,4.8s9.9,7.6,13.1,13.1
			c3.2,5.5,4.8,11.5,4.8,18.1c0,6.5-1.6,12.6-4.8,18.1C72.9,68.7,68.6,73.1,63.1,76.3z M42,69.1h6c0.8,0,1.5-0.3,2.1-0.9
			c0.6-0.6,0.9-1.3,0.9-2.1V42.6l8.9,8.9c0.6,0.6,1.3,0.9,2.1,0.9c0.8,0,1.5-0.3,2.1-0.9l4.3-4.3c0.6-0.6,0.8-1.3,0.8-2.1
			c0-0.8-0.3-1.5-0.8-2.1l-17-17l-4.3-4.3c-0.6-0.6-1.3-0.8-2.1-0.8c-0.8,0-1.6,0.3-2.1,0.8L38.6,26l-17,17
			c-0.6,0.6-0.8,1.3-0.8,2.1c0,0.8,0.3,1.6,0.8,2.1l4.3,4.3c0.6,0.6,1.3,0.8,2.1,0.8c0.8,0,1.6-0.3,2.1-0.8l8.9-8.9v23.5
			c0,0.8,0.3,1.5,0.9,2.1C40.5,68.8,41.2,69.1,42,69.1z"/>
	</g>
</g>
<g id="Painter_Palette">
</g>
</svg>
