<?xml version="1.0" encoding="utf-8"?>
<!-- Generator: Adobe Illustrator 18.1.0, SVG Export Plug-In . SVG Version: 6.00 Build 0)  -->
<!DOCTYPE svg PUBLIC "-//W3C//DTD SVG 1.1//EN" "http://www.w3.org/Graphics/SVG/1.1/DTD/svg11.dtd">
<svg version="1.1" id="Layer_1" xmlns="http://www.w3.org/2000/svg" xmlns:xlink="http://www.w3.org/1999/xlink" x="0px" y="0px"
	 viewBox="0 0 90 90" enable-background="new 0 0 90 90" xml:space="preserve">
<g>
	<path d="M48.5,21.7l19.8,19.8L28.8,81H9V61.2L48.5,21.7z M26.2,74.9l4.3-4.3L19.4,59.4l-4.3,4.3v5.1h6.1v6.1H26.2z M51.1,30.8
		c0-0.7-0.3-1-1-1c-0.3,0-0.6,0.1-0.8,0.3L23.5,55.8c-0.2,0.2-0.3,0.5-0.3,0.8c0,0.7,0.4,1,1,1c0.3,0,0.6-0.1,0.8-0.3l25.7-25.7
		C51,31.4,51.1,31.1,51.1,30.8z M81,26.2c0,1.7-0.6,3.1-1.8,4.3l-7.9,7.9L51.6,18.6l7.9-7.8C60.6,9.6,62,9,63.7,9
		c1.7,0,3.1,0.6,4.3,1.8l11.2,11.1C80.4,23.2,81,24.6,81,26.2z"/>
</g>
</svg>
