<?xml version="1.0" encoding="utf-8"?>
<!-- Generator: Adobe Illustrator 18.1.0, SVG Export Plug-In . SVG Version: 6.00 Build 0)  -->
<!DOCTYPE svg PUBLIC "-//W3C//DTD SVG 1.1//EN" "http://www.w3.org/Graphics/SVG/1.1/DTD/svg11.dtd">
<svg version="1.1" id="icons" xmlns="http://www.w3.org/2000/svg" xmlns:xlink="http://www.w3.org/1999/xlink" x="0px" y="0px"
	 viewBox="0 0 90 90" enable-background="new 0 0 90 90" xml:space="preserve">
<path d="M76.1,26.9c3.2,5.5,4.8,11.5,4.8,18c0,6.5-1.6,12.5-4.8,18.1c-3.2,5.5-7.6,9.9-13.1,13.1c-5.5,3.2-11.5,4.8-18.1,4.8
	c-6.5,0-12.5-1.6-18-4.8C21.4,72.9,17,68.5,13.8,63S9,51.5,9,45c0-6.5,1.6-12.5,4.8-18s7.6-9.9,13.1-13.1C32.4,10.6,38.4,9,45,9
	c6.5,0,12.5,1.6,18.1,4.8C68.5,17.1,72.9,21.4,76.1,26.9z M56.9,67.5V60c0-0.4-0.1-0.8-0.4-1.1s-0.6-0.4-1.1-0.4h-4.5v-24
	c0-0.4-0.1-0.8-0.4-1.1S49.9,33,49.5,33h-15c-0.4,0-0.8,0.1-1.1,0.4c-0.3,0.3-0.4,0.6-0.4,1.1V42c0,0.4,0.1,0.8,0.4,1.1
	c0.3,0.3,0.6,0.4,1.1,0.4H39v15h-4.5c-0.4,0-0.8,0.1-1.1,0.4C33.1,59.2,33,59.5,33,60v7.5c0,0.4,0.1,0.8,0.4,1.1
	c0.3,0.3,0.6,0.4,1.1,0.4h21c0.4,0,0.8-0.1,1.1-0.4C56.8,68.2,56.9,67.9,56.9,67.5z M50.9,25.5V18c0-0.4-0.1-0.8-0.4-1.1
	c-0.3-0.3-0.6-0.4-1.1-0.4h-9c-0.4,0-0.8,0.1-1.1,0.4C39.1,17.2,39,17.6,39,18v7.5c0,0.4,0.1,0.8,0.4,1.1c0.3,0.3,0.6,0.4,1.1,0.4h9
	c0.4,0,0.8-0.1,1.1-0.4C50.8,26.3,50.9,25.9,50.9,25.5z"/>
</svg>
