<?xml version="1.0" encoding="utf-8"?>
<!-- Generator: Adobe Illustrator 20.1.0, SVG Export Plug-In . SVG Version: 6.00 Build 0)  -->
<svg version="1.1" id="icons" xmlns="http://www.w3.org/2000/svg" xmlns:xlink="http://www.w3.org/1999/xlink" x="0px" y="0px"
	 viewBox="0 0 90 90" style="enable-background:new 0 0 90 90;" xml:space="preserve">
<path d="M15,39.4c-3.1,0-5.6,2.5-5.6,5.6s2.5,5.6,5.6,5.6s5.6-2.5,5.6-5.6S18.1,39.4,15,39.4z M15,16.9c-3.1,0-5.6,2.5-5.6,5.6
	s2.5,5.6,5.6,5.6s5.6-2.5,5.6-5.6S18.1,16.9,15,16.9z M15,61.9c-3.1,0-5.6,2.6-5.6,5.6s2.6,5.6,5.6,5.6s5.6-2.6,5.6-5.6
	S18.1,61.9,15,61.9z M26.3,71.3h52.5v-7.5H26.3V71.3z M26.3,48.8h52.5v-7.5H26.3V48.8z M26.3,18.8v7.5h52.5v-7.5H26.3z"/>
</svg>
