<?xml version="1.0" encoding="utf-8"?>
<!-- Generator: Adobe Illustrator 18.1.1, SVG Export Plug-In . SVG Version: 6.00 Build 0)  -->
<!DOCTYPE svg PUBLIC "-//W3C//DTD SVG 1.1//EN" "http://www.w3.org/Graphics/SVG/1.1/DTD/svg11.dtd">
<svg version="1.1" id="icons" xmlns="http://www.w3.org/2000/svg" xmlns:xlink="http://www.w3.org/1999/xlink" x="0px" y="0px"
	 viewBox="0 0 79.5 90" enable-background="new 0 0 79.5 90" xml:space="preserve">
<g>
	<path d="M41.7,49.9h-2.3v7.2h0.9c2.8,0,3.6-0.3,3.6-3.8C43.8,51.4,43.4,49.9,41.7,49.9z"/>
	<path d="M48.8,34.7c-1.1,0-2-0.4-2.7-1.1c-0.7-0.7-1.1-1.7-1.1-2.7V9H12.9c-1.1,0-2,0.4-2.7,1.1C9.4,10.9,9,11.8,9,12.9v64.2
		c0,1.1,0.4,2,1.1,2.7c0.7,0.7,1.7,1.1,2.7,1.1h53.9c1.1,0,2-0.4,2.7-1.1s1.1-1.7,1.1-2.7V34.7H48.8z M27.2,70.3h-4.5l-5.3-23.9H22
		l3,17.7h0.1l3.1-17.7h4.5L27.2,70.3z M41.7,60.7c-0.3,0-2,0-2.3,0v9.6h-4.2V46.4h6.7c4.1,0,6,3,6,6.8
		C47.9,58.2,44.9,60.7,41.7,60.7z M62.3,49.8h-4.4v20.5h-4.3V49.8h-4.4v-3.4h13L62.3,49.8L62.3,49.8z"/>
	<path d="M67.9,28.1L51.5,11.8c-0.4-0.4-0.9-0.7-1.5-1.1v18.9H69C68.7,29,68.3,28.5,67.9,28.1z"/>
</g>
</svg>
