<?xml version="1.0" encoding="utf-8"?>
<!-- Generator: Adobe Illustrator 18.1.1, SVG Export Plug-In . SVG Version: 6.00 Build 0)  -->
<!DOCTYPE svg PUBLIC "-//W3C//DTD SVG 1.1//EN" "http://www.w3.org/Graphics/SVG/1.1/DTD/svg11.dtd">
<svg version="1.1" id="icons" xmlns="http://www.w3.org/2000/svg" xmlns:xlink="http://www.w3.org/1999/xlink" x="0px" y="0px"
	 viewBox="0 0 120.8 90" enable-background="new 0 0 120.8 90" xml:space="preserve">
<path d="M83.8,44.8c7.1,0,12.9-5.8,12.9-12.9S91,19,83.8,19c-7.1,0-12.9,5.8-12.9,12.9S76.7,44.8,83.8,44.8z M45.1,39.7
	c8.6,0,15.5-7,15.5-15.5S53.6,8.7,45.1,8.7s-15.5,7-15.5,15.5S36.5,39.7,45.1,39.7z M83.8,55.2c-9.5,0-28.4,4.8-28.4,14.2V81h56.8
	V69.4C112.3,59.9,93.3,55.2,83.8,55.2z M45.1,50C33,50,8.9,56,8.9,68.1V81h36.2V69.4c0-4.4,1.7-12.1,12.2-17.9
	C52.8,50.5,48.5,50,45.1,50z"/>
</svg>
