<?xml version="1.0" encoding="utf-8"?>
<!-- Generator: Adobe Illustrator 19.2.1, SVG Export Plug-In . SVG Version: 6.00 Build 0)  -->
<!DOCTYPE svg PUBLIC "-//W3C//DTD SVG 1.1//EN" "http://www.w3.org/Graphics/SVG/1.1/DTD/svg11.dtd">
<svg version="1.1" id="icons" xmlns="http://www.w3.org/2000/svg" xmlns:xlink="http://www.w3.org/1999/xlink" x="0px" y="0px"
	 viewBox="0 0 90 90" enable-background="new 0 0 90 90" xml:space="preserve">
<path d="M54.8,15.2H25.4c-2.7,0-5,1.6-6,4l-9.9,23c-0.3,0.8-0.5,1.5-0.5,2.4v6.2l0,0l0,0.3c0,3.6,2.9,6.5,6.5,6.5h20.6l-3.1,14.9
	l-0.1,1c0,1.3,0.6,2.6,1.4,3.5l3.5,3.4L59.4,59c1.2-1.2,1.9-2.8,1.9-4.6V21.7C61.3,18.1,58.4,15.2,54.8,15.2z M67.9,15.2v39.2h13.1
	V15.2H67.9z"/>
</svg>
