<?xml version="1.0" encoding="utf-8"?>
<!-- Generator: Adobe Illustrator 19.2.1, SVG Export Plug-In . SVG Version: 6.00 Build 0)  -->
<!DOCTYPE svg PUBLIC "-//W3C//DTD SVG 1.1//EN" "http://www.w3.org/Graphics/SVG/1.1/DTD/svg11.dtd">
<svg version="1.1" id="icons" xmlns="http://www.w3.org/2000/svg" xmlns:xlink="http://www.w3.org/1999/xlink" x="0px" y="0px"
	 viewBox="0 0 90 90" enable-background="new 0 0 90 90" xml:space="preserve">
<path d="M45,9.2C25.2,9.2,9.2,25.2,9.2,45s16,35.8,35.8,35.8s35.8-16,35.8-35.8S64.8,9.2,45,9.2z M41.4,73.4
	C27.3,71.6,16.4,59.6,16.4,45c0-2.2,0.3-4.4,0.8-6.4l17.2,17.2v3.6c0,4,3.2,7.2,7.2,7.2V73.4z M66.1,64.3c-0.9-2.9-3.6-5-6.8-5h-3.6
	V48.6c0-2-1.6-3.6-3.6-3.6H30.7v-7.2h7.2c2,0,3.6-1.6,3.6-3.6v-7.2h7.2c4,0,7.2-3.2,7.2-7.2v-1.5C66.2,22.7,73.6,33,73.6,45
	C73.6,52.4,70.8,59.2,66.1,64.3z"/>
</svg>
