<?xml version="1.0" encoding="utf-8"?>
<!-- Generator: Adobe Illustrator 19.2.1, SVG Export Plug-In . SVG Version: 6.00 Build 0)  -->
<!DOCTYPE svg PUBLIC "-//W3C//DTD SVG 1.1//EN" "http://www.w3.org/Graphics/SVG/1.1/DTD/svg11.dtd">
<svg version="1.1" id="icons" xmlns="http://www.w3.org/2000/svg" xmlns:xlink="http://www.w3.org/1999/xlink" x="0px" y="0px"
	 viewBox="0 0 90 90" enable-background="new 0 0 90 90" xml:space="preserve">
<path d="M45,8.7C24.9,8.7,8.7,24.9,8.7,45c0,20,16.2,36.3,36.3,36.3C65,81.3,81.3,65,81.3,45C81.3,24.9,65,8.7,45,8.7z M33.3,64.8
	h-7.8V57l23.1-23.1l7.8,7.8L33.3,64.8z M62.4,35.7l-3.8,3.8l-7.8-7.8l3.8-3.8c0.8-0.8,2.1-0.8,3,0l4.9,4.9
	C63.2,33.5,63.2,34.9,62.4,35.7z"/>
</svg>
