<?xml version="1.0" encoding="utf-8"?>
<!-- Generator: Adobe Illustrator 18.1.0, SVG Export Plug-In . SVG Version: 6.00 Build 0)  -->
<!DOCTYPE svg PUBLIC "-//W3C//DTD SVG 1.1//EN" "http://www.w3.org/Graphics/SVG/1.1/DTD/svg11.dtd">
<svg version="1.1" id="icons" xmlns="http://www.w3.org/2000/svg" xmlns:xlink="http://www.w3.org/1999/xlink" x="0px" y="0px"
	 viewBox="0 0 90 90" enable-background="new 0 0 90 90" xml:space="preserve">
<path d="M81.4,28.2c0,1.2-0.4,2.3-1.3,3.2L46.3,65.1L40,71.5c-0.9,0.9-1.9,1.3-3.2,1.3c-1.2,0-2.3-0.4-3.2-1.3l-6.3-6.3L10.5,48.3
	c-0.9-0.9-1.3-1.9-1.3-3.2c0-1.2,0.4-2.3,1.3-3.2l6.3-6.3c0.9-0.9,1.9-1.3,3.2-1.3c1.2,0,2.3,0.4,3.2,1.3l13.7,13.7l30.6-30.6
	c0.9-0.9,1.9-1.3,3.2-1.3c1.2,0,2.3,0.4,3.2,1.3l6.3,6.3C80.9,25.9,81.4,27,81.4,28.2z"/>
</svg>
