<?xml version="1.0" encoding="utf-8"?>
<!-- Generator: Adobe Illustrator 18.1.0, SVG Export Plug-In . SVG Version: 6.00 Build 0)  -->
<!DOCTYPE svg PUBLIC "-//W3C//DTD SVG 1.1//EN" "http://www.w3.org/Graphics/SVG/1.1/DTD/svg11.dtd">
<svg version="1.1" xmlns="http://www.w3.org/2000/svg" xmlns:xlink="http://www.w3.org/1999/xlink" x="0px" y="0px"
	 viewBox="0 0 107.8 90" enable-background="new 0 0 107.8 90" xml:space="preserve">
<g id="icons">
	<g>
		<path d="M98.8,16.4v56.7c0,2-0.7,3.8-2.2,5.3c-1.5,1.5-3.2,2.2-5.3,2.2H16.7c-2.1,0-3.8-0.7-5.3-2.2s-2.2-3.2-2.2-5.3V16.4
			c0-2,0.7-3.8,2.2-5.3C12.9,9.7,14.6,9,16.7,9h74.7c2,0,3.8,0.7,5.3,2.2C98.1,12.6,98.8,14.4,98.8,16.4z M91.3,15H16.7
			c-0.4,0-0.8,0.1-1,0.4c-0.3,0.3-0.4,0.6-0.4,1v56.7c0,0.4,0.1,0.7,0.4,1c0.3,0.3,0.6,0.4,1,0.4h74.7c0.4,0,0.7-0.1,1-0.4
			c0.3-0.3,0.4-0.6,0.4-1V16.4c0-0.4-0.1-0.7-0.4-1C92.1,15.1,91.7,15,91.3,15z M36.5,23.5c1.7,1.7,2.6,3.9,2.6,6.3
			s-0.9,4.6-2.6,6.3c-1.7,1.7-3.9,2.6-6.3,2.6s-4.6-0.9-6.3-2.6s-2.6-3.9-2.6-6.3s0.9-4.6,2.6-6.3s3.9-2.6,6.3-2.6
			S34.7,21.8,36.5,23.5z M86.8,47.8v20.9H21.1v-9l14.9-14.9l7.5,7.5l23.9-23.9L86.8,47.8z"/>
	</g>
</g>
<g id="Painter_Palette">
</g>
</svg>
