<?xml version="1.0" encoding="utf-8"?>
<!-- Generator: Adobe Illustrator 18.1.1, SVG Export Plug-In . SVG Version: 6.00 Build 0)  -->
<!DOCTYPE svg PUBLIC "-//W3C//DTD SVG 1.1//EN" "http://www.w3.org/Graphics/SVG/1.1/DTD/svg11.dtd">
<svg version="1.1" id="icons" xmlns="http://www.w3.org/2000/svg" xmlns:xlink="http://www.w3.org/1999/xlink" x="0px" y="0px"
	 viewBox="0 0 90 90" enable-background="new 0 0 90 90" xml:space="preserve">
<g>
	<path d="M80.9,45c0,7.8-2.3,14.9-6.9,21.1c-4.6,6.3-10.5,10.6-17.7,13c-0.8,0.2-1.5,0-1.9-0.3c-0.4-0.4-0.6-0.8-0.6-1.4v-9.9
		c0-3-0.8-5.2-2.4-6.7c1.8-0.2,3.4-0.5,4.8-0.8c1.4-0.4,2.9-1,4.4-1.8c1.5-0.8,2.8-1.9,3.8-3.1c1-1.2,1.8-2.9,2.5-4.9
		c0.6-2,1-4.4,1-7c0-3.8-1.2-7-3.7-9.6c1.2-2.8,1-6-0.4-9.6c-0.9-0.3-2.1-0.1-3.8,0.5c-1.7,0.6-3.1,1.3-4.3,2.1L54,27.6
		c-2.9-0.8-5.9-1.2-9-1.2c-3.1,0-6.1,0.4-9,1.2c-0.5-0.3-1.2-0.8-2-1.3c-0.8-0.5-2.1-1.1-3.9-1.8c-1.8-0.7-3.1-0.9-4-0.6
		c-1.4,3.5-1.5,6.7-0.3,9.6c-2.5,2.6-3.7,5.9-3.7,9.6c0,2.7,0.3,5,1,7c0.6,2,1.5,3.7,2.5,4.9c1,1.2,2.3,2.3,3.8,3.1
		c1.5,0.8,3,1.5,4.4,1.8c1.4,0.4,3,0.7,4.8,0.8c-1.2,1.1-2,2.7-2.3,4.8c-0.7,0.3-1.4,0.5-2.1,0.7c-0.8,0.2-1.6,0.2-2.7,0.2
		s-2.1-0.3-3.1-1c-1-0.7-1.9-1.6-2.6-2.9c-0.6-1-1.4-1.8-2.3-2.4c-0.9-0.6-1.7-1-2.3-1.1L20.1,59c-0.7,0-1.1,0.1-1.4,0.2
		c-0.3,0.1-0.3,0.3-0.2,0.5c0.1,0.2,0.2,0.4,0.4,0.7c0.2,0.2,0.4,0.4,0.6,0.6l0.3,0.2c0.7,0.3,1.4,0.9,2,1.8
		c0.7,0.9,1.2,1.7,1.5,2.4l0.5,1.1c0.4,1.2,1.1,2.1,2.1,2.9c1,0.7,2,1.2,3.1,1.4c1.1,0.2,2.2,0.3,3.3,0.3c1,0,1.9,0,2.6-0.2l1.1-0.2
		c0,1.2,0,2.6,0,4.2s0,2.4,0,2.5c0,0.6-0.2,1-0.6,1.4c-0.4,0.4-1,0.5-1.9,0.3c-7.2-2.4-13.2-6.7-17.7-13C11.3,59.8,9,52.8,9,45
		c0-6.5,1.6-12.5,4.8-18s7.6-9.9,13.1-13.1C32.4,10.6,38.4,9,45,9c6.5,0,12.5,1.6,18.1,4.8c5.5,3.2,9.9,7.6,13.1,13.1
		C79.3,32.4,80.9,38.4,80.9,45z"/>
</g>
</svg>
