<?xml version="1.0" encoding="utf-8"?>
<!-- Generator: Adobe Illustrator 18.1.0, SVG Export Plug-In . SVG Version: 6.00 Build 0)  -->
<!DOCTYPE svg PUBLIC "-//W3C//DTD SVG 1.1//EN" "http://www.w3.org/Graphics/SVG/1.1/DTD/svg11.dtd">
<svg version="1.1" id="icons" xmlns="http://www.w3.org/2000/svg" xmlns:xlink="http://www.w3.org/1999/xlink" x="0px" y="0px"
	 viewBox="0 0 99 90" enable-background="new 0 0 99 90" xml:space="preserve">
<path d="M32.2,17.5v8.7c0,1.2-0.4,2.2-1.3,3.1c-0.8,0.8-1.9,1.3-3.1,1.3H13.4c-1.2,0-2.2-0.4-3.1-1.3C9.4,28.4,9,27.4,9,26.2v-8.7
	c0-1.2,0.4-2.2,1.3-3.1c0.8-0.8,1.9-1.3,3.1-1.3h14.5c1.2,0,2.2,0.4,3.1,1.3C31.7,15.3,32.2,16.3,32.2,17.5z M32.2,40.6v8.7
	c0,1.2-0.4,2.2-1.3,3.1c-0.8,0.8-1.9,1.3-3.1,1.3H13.4c-1.2,0-2.2-0.4-3.1-1.3C9.4,51.5,9,50.5,9,49.3v-8.7c0-1.2,0.4-2.2,1.3-3.1
	c0.8-0.8,1.9-1.3,3.1-1.3h14.5c1.2,0,2.2,0.4,3.1,1.3C31.7,38.4,32.2,39.4,32.2,40.6z M32.2,63.8v8.7c0,1.2-0.4,2.2-1.3,3.1
	c-0.8,0.8-1.9,1.3-3.1,1.3H13.4c-1.2,0-2.2-0.4-3.1-1.3C9.4,74.7,9,73.7,9,72.5v-8.7c0-1.2,0.4-2.2,1.3-3.1c0.8-0.8,1.9-1.3,3.1-1.3
	h14.5c1.2,0,2.2,0.4,3.1,1.3C31.7,61.5,32.2,62.6,32.2,63.8z M90,17.5v8.7c0,1.2-0.4,2.2-1.3,3.1c-0.8,0.8-1.9,1.3-3.1,1.3H42.3
	c-1.2,0-2.2-0.4-3.1-1.3c-0.8-0.8-1.3-1.9-1.3-3.1v-8.7c0-1.2,0.4-2.2,1.3-3.1c0.8-0.8,1.9-1.3,3.1-1.3h43.4c1.2,0,2.2,0.4,3.1,1.3
	C89.6,15.3,90,16.3,90,17.5z M90,40.6v8.7c0,1.2-0.4,2.2-1.3,3.1c-0.8,0.8-1.9,1.3-3.1,1.3H42.3c-1.2,0-2.2-0.4-3.1-1.3
	c-0.8-0.8-1.3-1.9-1.3-3.1v-8.7c0-1.2,0.4-2.2,1.3-3.1c0.8-0.8,1.9-1.3,3.1-1.3h43.4c1.2,0,2.2,0.4,3.1,1.3
	C89.6,38.4,90,39.4,90,40.6z M90,63.8v8.7c0,1.2-0.4,2.2-1.3,3.1c-0.8,0.8-1.9,1.3-3.1,1.3H42.3c-1.2,0-2.2-0.4-3.1-1.3
	c-0.8-0.8-1.3-1.9-1.3-3.1v-8.7c0-1.2,0.4-2.2,1.3-3.1c0.8-0.8,1.9-1.3,3.1-1.3h43.4c1.2,0,2.2,0.4,3.1,1.3
	C89.6,61.5,90,62.6,90,63.8z"/>
</svg>
