<?xml version="1.0" encoding="utf-8"?>
<!-- Generator: Adobe Illustrator 18.1.0, SVG Export Plug-In . SVG Version: 6.00 Build 0)  -->
<!DOCTYPE svg PUBLIC "-//W3C//DTD SVG 1.1//EN" "http://www.w3.org/Graphics/SVG/1.1/DTD/svg11.dtd">
<svg version="1.1" id="icons" xmlns="http://www.w3.org/2000/svg" xmlns:xlink="http://www.w3.org/1999/xlink" x="0px" y="0px"
	 viewBox="0 0 90 90" enable-background="new 0 0 90 90" xml:space="preserve">
<g>
	<path d="M81,75.5c0,1.5-0.5,2.8-1.6,3.9c-1.1,1.1-2.4,1.6-3.9,1.6c-1.6,0-2.9-0.5-3.9-1.6L56.7,64.6c-5.2,3.6-10.9,5.4-17.3,5.4
		c-4.1,0-8.1-0.8-11.8-2.4c-3.8-1.6-7-3.8-9.7-6.5c-2.7-2.7-4.9-6-6.5-9.7C9.8,47.5,9,43.6,9,39.5c0-4.1,0.8-8.1,2.4-11.8
		c1.6-3.8,3.8-7,6.5-9.7c2.7-2.7,6-4.9,9.7-6.5C31.4,9.8,35.3,9,39.5,9c4.1,0,8.1,0.8,11.8,2.4c3.8,1.6,7,3.8,9.7,6.5
		c2.7,2.7,4.9,6,6.5,9.7c1.6,3.8,2.4,7.7,2.4,11.8c0,6.3-1.8,12.1-5.4,17.3l14.8,14.8C80.4,72.6,81,73.9,81,75.5z M53.1,53.2
		c3.8-3.8,5.7-8.4,5.7-13.7c0-5.3-1.9-9.9-5.7-13.7c-3.8-3.8-8.4-5.7-13.7-5.7c-5.3,0-9.9,1.9-13.7,5.7c-3.8,3.8-5.7,8.4-5.7,13.7
		c0,5.3,1.9,9.9,5.7,13.7c3.8,3.8,8.4,5.7,13.7,5.7C44.8,58.9,49.3,57,53.1,53.2z"/>
</g>
</svg>
