<?xml version="1.0" encoding="utf-8"?>
<!-- Generator: Adobe Illustrator 20.1.0, SVG Export Plug-In . SVG Version: 6.00 Build 0)  -->
<svg version="1.1" id="icons" xmlns="http://www.w3.org/2000/svg" xmlns:xlink="http://www.w3.org/1999/xlink" x="0px" y="0px"
	 viewBox="0 0 49.4 90" style="enable-background:new 0 0 49.4 90;" xml:space="preserve">
<g>
	<path d="M20.4,65.7c0,0-3.4-12.8,20.6-19.8C33.6,68.9,20.4,65.7,20.4,65.7z"/>
	<path d="M0.8,78.7c0,0,2.4-11.4,24.2-7.2C10,86.5,0.8,78.7,0.8,78.7z"/>
	<path d="M10.1,67c0,0-7.4-8.3,7.3-19.5C21.4,68.5,10.1,67,10.1,67z"/>
	<path d="M28.5,44.9c0,0-6.5-9.5,10.5-22C39.9,43.7,28.5,44.9,28.5,44.9z"/>
	<path d="M22.1,46.6c0,0-9.8-3.4-3.9-21.8C29.9,39.6,22.1,46.6,22.1,46.6z"/>
	<path d="M26.8,29.6c0,0-8.1-4.8,1.8-21C35.7,24.3,26.8,29.6,26.8,29.6z"/>
	<path d="M20.9,19.2c0,0-9.9,0.8-11.6-18.4C25.1,9.6,20.9,19.2,20.9,19.2z"/>
</g>
</svg>
