<?xml version="1.0" encoding="utf-8"?>
<!-- Generator: Adobe Illustrator 18.1.0, SVG Export Plug-In . SVG Version: 6.00 Build 0)  -->
<!DOCTYPE svg PUBLIC "-//W3C//DTD SVG 1.1//EN" "http://www.w3.org/Graphics/SVG/1.1/DTD/svg11.dtd">
<svg version="1.1" xmlns="http://www.w3.org/2000/svg" xmlns:xlink="http://www.w3.org/1999/xlink" x="0px" y="0px"
	 viewBox="0 0 96 90" enable-background="new 0 0 96 90" xml:space="preserve">
<g id="icons">
	<g>
		<path d="M52.7,11.9l33.2,60.9c1,1.8,1,3.6-0.1,5.5c-0.5,0.8-1.2,1.5-2,2c-0.9,0.5-1.8,0.7-2.8,0.7H14.6c-1,0-1.9-0.2-2.8-0.7
			s-1.5-1.2-2-2c-1.1-1.8-1.1-3.6-0.1-5.5L43,11.9c0.5-0.9,1.2-1.6,2-2.1C45.9,9.2,46.8,9,47.8,9c1,0,1.9,0.3,2.8,0.8
			C51.5,10.3,52.2,11,52.7,11.9z M53.3,52.3L54,32.4c0-0.3-0.1-0.6-0.4-0.8c-0.4-0.3-0.7-0.5-1-0.5h-9.5c-0.3,0-0.7,0.2-1,0.5
			c-0.3,0.2-0.4,0.5-0.4,0.9l0.7,19.8c0,0.3,0.1,0.5,0.4,0.7c0.3,0.2,0.6,0.3,1,0.3h8c0.4,0,0.7-0.1,1-0.3
			C53.1,52.8,53.2,52.5,53.3,52.3z M53.4,68.4v-8.2c0-0.4-0.1-0.7-0.4-1c-0.3-0.3-0.6-0.4-1-0.4h-8.3c-0.4,0-0.7,0.1-1,0.4
			c-0.3,0.3-0.4,0.6-0.4,1v8.2c0,0.4,0.1,0.7,0.4,1c0.3,0.3,0.6,0.4,1,0.4H52c0.4,0,0.7-0.1,1-0.4C53.2,69.2,53.4,68.8,53.4,68.4z"
			/>
	</g>
</g>
<g id="Painter_Palette">
</g>
</svg>
