<?xml version="1.0" encoding="utf-8"?>
<!-- Generator: Adobe Illustrator 19.1.0, SVG Export Plug-In . SVG Version: 6.00 Build 0)  -->
<!DOCTYPE svg PUBLIC "-//W3C//DTD SVG 1.1//EN" "http://www.w3.org/Graphics/SVG/1.1/DTD/svg11.dtd">
<svg version="1.1" id="icons" xmlns="http://www.w3.org/2000/svg" xmlns:xlink="http://www.w3.org/1999/xlink" x="0px" y="0px"
	 viewBox="0 0 90 90" enable-background="new 0 0 90 90" xml:space="preserve">
<g>
	<path d="M47.2,24.6c-1.3-1.4-2.7-2.1-4.4-2.1c-1.9,0-3.3,0.7-4.3,2c-1,1.3-1.5,3-1.5,4.9c0,1.6,0.3,3.3,0.8,5
		c0.5,1.7,1.4,3.2,2.7,4.5c1.2,1.3,2.7,2,4.4,2c1.8,0,3.3-0.6,4.3-1.8c1-1.2,1.5-2.8,1.5-4.7c0-1.6-0.3-3.3-0.8-5
		C49.3,27.6,48.4,26,47.2,24.6z"/>
	<path d="M47.3,51.4c-0.3-0.1-0.8-0.1-1.5-0.1c-1.3,0-2.7,0.1-4,0.3c-1.3,0.2-2.6,0.6-3.8,1.2c-1.3,0.5-2.3,1.3-3.1,2.4
		c-0.8,1.1-1.2,2.3-1.2,3.7c0,1.4,0.3,2.6,1,3.7c0.7,1.1,1.6,1.9,2.7,2.5c1.1,0.6,2.3,1,3.5,1.3c1.2,0.3,2.5,0.4,3.8,0.4
		c2.5,0,4.7-0.6,6.5-1.7c1.8-1.1,2.7-2.9,2.7-5.3c0-0.5-0.1-1-0.2-1.5c-0.1-0.5-0.3-0.9-0.4-1.2c-0.1-0.3-0.4-0.8-0.8-1.2
		c-0.4-0.5-0.7-0.8-0.9-1.1c-0.2-0.2-0.6-0.6-1.1-1c-0.6-0.5-0.9-0.7-1.1-0.8c-0.2-0.1-0.6-0.4-1.2-0.9
		C47.7,51.7,47.4,51.4,47.3,51.4z"/>
	<path d="M77,12.8c-2.6-2.6-5.8-4-9.5-4h-45c-3.7,0-6.9,1.3-9.5,4c-2.6,2.6-4,5.8-4,9.5v45c0,3.7,1.3,6.9,4,9.5c2.6,2.6,5.8,4,9.5,4
		h45c3.7,0,6.9-1.3,9.5-4c2.6-2.6,4-5.8,4-9.5v-45C81,18.6,79.7,15.4,77,12.8z M55.2,26.6c0.7,1.2,1.1,2.8,1.1,4.7
		c0,1.4-0.2,2.7-0.7,3.9c-0.5,1.1-1.1,2.1-1.8,2.8c-0.7,0.7-1.4,1.4-2.1,2c-0.7,0.6-1.3,1.2-1.8,1.8c-0.5,0.6-0.7,1.3-0.7,2
		c0,0.7,0.3,1.4,0.9,2.1c0.6,0.7,1.4,1.4,2.3,2.1c0.9,0.7,1.8,1.4,2.7,2.2c0.9,0.8,1.7,1.9,2.3,3.1c0.6,1.3,0.9,2.7,0.9,4.2
		c0,2-0.5,3.9-1.5,5.5c-1,1.6-2.4,2.9-4,3.9c-1.7,1-3.4,1.7-5.3,2.2c-1.9,0.5-3.8,0.7-5.6,0.7c-1.2,0-2.4-0.1-3.6-0.3
		c-1.2-0.2-2.4-0.5-3.6-1c-1.2-0.5-2.3-1-3.2-1.7c-0.9-0.7-1.7-1.6-2.3-2.6c-0.6-1.1-0.9-2.3-0.9-3.6c0-1.6,0.4-3.1,1.3-4.4
		c0.9-1.4,2.1-2.5,3.5-3.4c2.6-1.6,6.6-2.6,12-3c-1.3-1.6-1.9-3-1.9-4.4c0-0.8,0.2-1.6,0.6-2.5c-0.7,0.1-1.3,0.1-2,0.1
		c-2.9,0-5.4-1-7.4-2.9c-2-1.9-3-4.3-3-7.2c0-2.7,0.8-5.1,2.4-7.2c1.6-2.1,3.6-3.6,6-4.6c2.4-1,4.9-1.5,7.5-1.5h12.4l-4.1,3h-3.9
		C53.3,23.9,54.5,25.4,55.2,26.6z"/>
</g>
</svg>
