<?xml version="1.0" encoding="utf-8"?>
<!-- Generator: Adobe Illustrator 18.1.0, SVG Export Plug-In . SVG Version: 6.00 Build 0)  -->
<!DOCTYPE svg PUBLIC "-//W3C//DTD SVG 1.1//EN" "http://www.w3.org/Graphics/SVG/1.1/DTD/svg11.dtd">
<svg version="1.1" id="icons" xmlns="http://www.w3.org/2000/svg" xmlns:xlink="http://www.w3.org/1999/xlink" x="0px" y="0px"
	 viewBox="0 0 90 90" enable-background="new 0 0 90 90" xml:space="preserve">
<path d="M80.5,45c0,0.9-0.3,1.8-0.8,2.8c-3.7,6.1-8.8,11.1-15.1,14.8c-6.3,3.7-13,5.5-20,5.5c-7,0-13.7-1.9-20-5.6
	c-6.3-3.7-11.3-8.6-15.1-14.7C9,46.8,8.7,45.9,8.7,45c0-0.9,0.3-1.8,0.8-2.8c3.7-6.1,8.8-11,15.1-14.7c6.3-3.7,13-5.6,20-5.6
	c7,0,13.7,1.9,20,5.6c6.3,3.7,11.3,8.6,15.1,14.7C80.2,43.2,80.5,44.1,80.5,45z M75.4,45c-4.1-6.3-9.1-11-15.3-14.1
	c1.6,2.8,2.4,5.8,2.4,9c0,4.9-1.8,9.2-5.3,12.7c-3.5,3.5-7.7,5.3-12.7,5.3c-4.9,0-9.2-1.8-12.7-5.3c-3.5-3.5-5.3-7.7-5.3-12.7
	c0-3.2,0.8-6.2,2.4-9C23,34,17.9,38.7,13.8,45c3.6,5.5,8,9.8,13.4,13.1c5.4,3.2,11.2,4.9,17.4,4.9s12.1-1.6,17.4-4.9
	C67.4,54.8,71.8,50.5,75.4,45z M46,31c0.4-0.4,0.6-0.8,0.6-1.4c0-0.5-0.2-1-0.6-1.4c-0.4-0.4-0.8-0.6-1.4-0.6
	c-3.3,0-6.2,1.2-8.6,3.6c-2.4,2.4-3.6,5.3-3.6,8.6c0,0.5,0.2,1,0.6,1.4s0.8,0.6,1.4,0.6c0.5,0,1-0.2,1.4-0.6s0.6-0.8,0.6-1.4
	c0-2.3,0.8-4.3,2.4-5.9c1.6-1.6,3.6-2.4,5.9-2.4C45.1,31.5,45.6,31.4,46,31z"/>
</svg>
