<?xml version="1.0" encoding="utf-8"?>
<!-- Generator: Adobe Illustrator 18.1.1, SVG Export Plug-In . SVG Version: 6.00 Build 0)  -->
<!DOCTYPE svg PUBLIC "-//W3C//DTD SVG 1.1//EN" "http://www.w3.org/Graphics/SVG/1.1/DTD/svg11.dtd">
<svg version="1.1" id="icons" xmlns="http://www.w3.org/2000/svg" xmlns:xlink="http://www.w3.org/1999/xlink" x="0px" y="0px"
	 viewBox="0 0 117.8 90" enable-background="new 0 0 117.8 90" xml:space="preserve">
<path d="M97.8,35.4h-7.1l-7.1-7.1l-6.8,6.8l-6.8-6.8L63,35.4h-8.6C50.7,27,42.3,21.1,32.5,21.1C19.3,21.1,8.6,31.8,8.6,45
	c0,13.2,10.7,23.9,23.9,23.9c9.8,0,18.2-5.9,21.9-14.3h43.4l9.5-9.5v-0.2L97.8,35.4z M26.2,52.2c-4,0-7.2-3.2-7.2-7.2
	c0-4,3.2-7.2,7.2-7.2c4,0,7.2,3.2,7.2,7.2C33.4,48.9,30.2,52.2,26.2,52.2z"/>
</svg>
