<?xml version="1.0" encoding="utf-8"?>
<!-- Generator: Adobe Illustrator 19.1.1, SVG Export Plug-In . SVG Version: 6.00 Build 0)  -->
<!DOCTYPE svg PUBLIC "-//W3C//DTD SVG 1.1//EN" "http://www.w3.org/Graphics/SVG/1.1/DTD/svg11.dtd">
<svg version="1.1" id="icons" xmlns="http://www.w3.org/2000/svg" xmlns:xlink="http://www.w3.org/1999/xlink" x="0px" y="0px"
	 viewBox="0 0 90 90" enable-background="new 0 0 90 90" xml:space="preserve">
<path d="M79.6,38c-11.2,0-22.5,0-33.7,0c0,4.7,0,9.3,0,14c6.5,0,13,0,19.5,0c-0.8,4.5-3.4,8.6-7.2,11.1c-2.4,1.6-5.1,2.6-7.9,3.1
	c-2.8,0.5-5.7,0.5-8.6,0c-2.9-0.6-5.6-1.8-8-3.4c-3.8-2.7-6.7-6.6-8.2-11c-1.5-4.5-1.5-9.5,0-14c1.1-3.2,2.9-6.1,5.2-8.5
	c2.9-3,6.7-5.1,10.7-5.9c3.5-0.7,7.1-0.6,10.5,0.4c2.9,0.9,5.6,2.5,7.7,4.5c2.2-2.2,4.4-4.4,6.6-6.6c1.2-1.2,2.4-2.3,3.5-3.5
	c-3.3-3.1-7.3-5.6-11.5-7.2c-7.7-2.8-16.4-2.9-24.2-0.2c-8.7,3-16.2,9.5-20.3,17.8c-1.4,2.8-2.5,5.9-3.1,9
	c-1.6,7.8-0.5,16.1,3.1,23.2c2.3,4.6,5.7,8.7,9.7,12c3.8,3.1,8.3,5.3,13,6.6c6,1.6,12.3,1.6,18.3,0.2c5.4-1.3,10.6-3.8,14.7-7.6
	c4.3-4,7.4-9.2,9.1-14.9C80.5,50.9,80.7,44.3,79.6,38z"/>
</svg>
