<?xml version="1.0" encoding="utf-8"?>
<!-- Generator: Adobe Illustrator 18.1.1, SVG Export Plug-In . SVG Version: 6.00 Build 0)  -->
<!DOCTYPE svg PUBLIC "-//W3C//DTD SVG 1.1//EN" "http://www.w3.org/Graphics/SVG/1.1/DTD/svg11.dtd">
<svg version="1.1" id="icons" xmlns="http://www.w3.org/2000/svg" xmlns:xlink="http://www.w3.org/1999/xlink" x="0px" y="0px"
	 viewBox="0 0 79.5 90" enable-background="new 0 0 79.5 90" xml:space="preserve">
<g>
	<path d="M9,77.1V12.9c0-1.1,0.4-2,1.1-2.7C10.9,9.4,11.8,9,12.9,9H45v21.8c0,1.1,0.4,2,1.1,2.7c0.8,0.8,1.7,1.1,2.7,1.1h21.8v42.4
		c0,1.1-0.4,2-1.1,2.7c-0.8,0.8-1.7,1.1-2.7,1.1h-54c-1.1,0-2-0.4-2.7-1.1C9.4,79.1,9,78.2,9,77.1z M50.1,29.6V10.6
		c0.6,0.4,1.1,0.8,1.4,1.1L68,28.1c0.4,0.4,0.8,0.9,1.1,1.4L50.1,29.6L50.1,29.6z"/>
</g>
</svg>
