<?xml version="1.0" encoding="utf-8"?>
<!-- Generator: Adobe Illustrator 20.1.0, SVG Export Plug-In . SVG Version: 6.00 Build 0)  -->
<svg version="1.1" id="icons" xmlns="http://www.w3.org/2000/svg" xmlns:xlink="http://www.w3.org/1999/xlink" x="0px" y="0px"
	 viewBox="0 0 61.1 90" style="enable-background:new 0 0 61.1 90;" xml:space="preserve">
<g>
	<g>
		<polygon points="28.5,1.2 26,1.2 12.9,24.7 14.5,26.2 		"/>
		<path d="M35.1,46.4C35.1,46.4,35.1,46.4,35.1,46.4l0.3-1.6c0.2-1-0.3-2-1.2-2.4l0.2-1.1l1.9-0.5L32.9,1.2h-2.6l0.2,2L16.6,28
			L28,37.7l4.7-8.4l0.4,4.8l-3,5.4l1.5,1.2l-0.2,1.1c-1,0-1.9,0.7-2.1,1.7l-0.3,1.6c0,0,0,0,0,0C19.4,44.6,10.6,51,8.5,60.7
			C6.2,71.3,13,81.9,23.7,84.2c10.7,2.3,21.2-4.5,23.5-15.2C49.3,59.4,44,49.9,35.1,46.4z M30.1,45.2l0.3-1.5
			c0.1-0.4,0.4-0.7,0.8-0.8c0,0.6,0.5,1.2,1.1,1.4c0.7,0.1,1.3-0.2,1.6-0.8c0.3,0.2,0.5,0.6,0.4,1L34,46c0,0,0,0,0,0
			c-0.6-0.2-1.3-0.4-1.9-0.5C31.4,45.4,30.7,45.2,30.1,45.2C30.1,45.2,30.1,45.2,30.1,45.2z M26.9,78.2l-3.8-0.8l0.8-3.8l3.8,0.8
			L26.9,78.2z M36.7,60.7c-0.5,1.6-1.4,3-2.7,3.8l-2,1.4c-1.6,1.1-2.7,2-3.4,4.8l-3.8-0.8l0.2-1c0.5-2.1,1.7-3.8,3.4-4.8l2.9-1.9
			c0.8-0.5,1.5-1.4,1.7-2.4c0.5-2.1-0.9-4.1-2.9-4.6c-2.1-0.5-4.1,0.9-4.6,2.9l-3.8-0.8c0.9-4.2,5-6.8,9.1-5.9
			C35,52.4,37.6,56.5,36.7,60.7z"/>
	</g>
	<polygon points="35.6,1.2 38.9,40 53.3,35.9 50.4,1.2 	"/>
	<polygon points="53.1,1.2 56,35.1 58.1,34.5 55.3,1.2 	"/>
</g>
</svg>
