<?xml version="1.0" encoding="utf-8"?>
<!-- Generator: Adobe Illustrator 19.1.0, SVG Export Plug-In . SVG Version: 6.00 Build 0)  -->
<!DOCTYPE svg PUBLIC "-//W3C//DTD SVG 1.1//EN" "http://www.w3.org/Graphics/SVG/1.1/DTD/svg11.dtd">
<svg version="1.1" id="icons" xmlns="http://www.w3.org/2000/svg" xmlns:xlink="http://www.w3.org/1999/xlink" x="0px" y="0px"
	 viewBox="0 0 90 90" enable-background="new 0 0 90 90" xml:space="preserve">
<g>
	<path d="M80.8,40v10.4c0,0.4-0.1,0.7-0.4,1.1c-0.2,0.3-0.6,0.5-0.9,0.6l-8.6,1.3c-0.6,1.7-1.2,3.1-1.8,4.2c1.1,1.6,2.8,3.7,5,6.4
		c0.3,0.4,0.5,0.8,0.5,1.2c0,0.4-0.1,0.8-0.4,1.1c-0.8,1.2-2.4,2.8-4.6,5c-2.2,2.2-3.7,3.3-4.4,3.3c-0.4,0-0.8-0.1-1.2-0.4l-6.4-5
		c-1.4,0.7-2.8,1.3-4.2,1.8c-0.5,4.2-0.9,7.1-1.4,8.7C51.6,80.6,51,81,50.1,81H39.8c-0.4,0-0.8-0.1-1.1-0.4s-0.5-0.6-0.5-1L36.8,71
		c-1.5-0.5-2.9-1.1-4.2-1.7l-6.6,5c-0.3,0.3-0.7,0.4-1.2,0.4c-0.4,0-0.8-0.2-1.2-0.5c-3.9-3.5-6.5-6.2-7.7-7.8
		c-0.2-0.3-0.3-0.7-0.3-1.1c0-0.4,0.1-0.7,0.4-1.1c0.5-0.7,1.3-1.7,2.4-3.1c1.1-1.4,2-2.5,2.5-3.3c-0.8-1.6-1.5-3.1-1.9-4.6
		l-8.5-1.3c-0.4-0.1-0.7-0.3-1-0.6c-0.2-0.3-0.4-0.7-0.4-1.1V39.9c0-0.4,0.1-0.7,0.4-1.1c0.2-0.3,0.5-0.5,0.9-0.6l8.7-1.3
		c0.4-1.4,1-2.9,1.8-4.3c-1.2-1.8-2.9-3.9-5-6.4c-0.3-0.4-0.5-0.7-0.5-1.1c0-0.3,0.1-0.7,0.4-1.1c0.8-1.1,2.3-2.8,4.6-5
		c2.3-2.2,3.7-3.3,4.4-3.3c0.4,0,0.8,0.2,1.2,0.5l6.4,5c1.4-0.7,2.8-1.3,4.2-1.8c0.5-4.2,0.9-7.1,1.4-8.7c0.2-0.9,0.8-1.3,1.7-1.3
		h10.4c0.4,0,0.8,0.1,1.1,0.4s0.5,0.6,0.5,1l1.3,8.6c1.5,0.5,2.9,1.1,4.2,1.7l6.6-5c0.3-0.3,0.7-0.4,1.1-0.4c0.4,0,0.8,0.2,1.2,0.5
		c4,3.7,6.6,6.4,7.7,7.9c0.2,0.2,0.3,0.6,0.3,1c0,0.4-0.1,0.7-0.4,1.1c-0.5,0.7-1.3,1.7-2.4,3.1c-1.1,1.4-2,2.5-2.5,3.3
		c0.8,1.6,1.4,3.1,1.9,4.6l8.5,1.3c0.4,0.1,0.7,0.3,1,0.6C80.7,39.3,80.8,39.6,80.8,40z M53.4,53.6c2.3-2.3,3.5-5.2,3.5-8.5
		s-1.2-6.1-3.5-8.5c-2.3-2.3-5.2-3.5-8.5-3.5c-3.3,0-6.1,1.2-8.5,3.5C34.2,39,33,41.8,33,45.1s1.2,6.1,3.5,8.5
		c2.3,2.3,5.2,3.5,8.5,3.5C48.2,57.1,51.1,55.9,53.4,53.6z"/>
</g>
</svg>
