<?xml version="1.0" encoding="utf-8"?>
<!-- Generator: Adobe Illustrator 19.2.1, SVG Export Plug-In . SVG Version: 6.00 Build 0)  -->
<!DOCTYPE svg PUBLIC "-//W3C//DTD SVG 1.1//EN" "http://www.w3.org/Graphics/SVG/1.1/DTD/svg11.dtd">
<svg version="1.1" id="icons" xmlns="http://www.w3.org/2000/svg" xmlns:xlink="http://www.w3.org/1999/xlink" x="0px" y="0px"
	 viewBox="0 0 90 90" enable-background="new 0 0 90 90" xml:space="preserve">
<path d="M9,74.2h13.1V35H9V74.2z M81,38.2c0-3.6-2.9-6.5-6.5-6.5H53.8l3.1-14.9l0.1-1c0-1.3-0.6-2.6-1.4-3.5l-3.5-3.4L30.6,30.3
	c-1.2,1.2-1.9,2.8-1.9,4.6v32.7c0,3.6,2.9,6.5,6.5,6.5h29.4c2.7,0,5-1.6,6-4l9.9-23c0.3-0.8,0.5-1.5,0.5-2.4v-6.2l0,0L81,38.2z"/>
</svg>
