<?xml version="1.0" encoding="utf-8"?>
<!-- Generator: Adobe Illustrator 18.1.0, SVG Export Plug-In . SVG Version: 6.00 Build 0)  -->
<!DOCTYPE svg PUBLIC "-//W3C//DTD SVG 1.1//EN" "http://www.w3.org/Graphics/SVG/1.1/DTD/svg11.dtd">
<svg version="1.1" id="icons" xmlns="http://www.w3.org/2000/svg" xmlns:xlink="http://www.w3.org/1999/xlink" x="0px" y="0px"
	 viewBox="0 0 90 90" enable-background="new 0 0 90 90" xml:space="preserve">
<g>
	<path d="M44.9,66c-0.6,0-1.2-0.2-1.7-0.7L9.6,31.6c-0.5-0.5-0.7-1-0.7-1.7c0-0.6,0.2-1.2,0.7-1.7l3.6-3.6c0.5-0.5,1-0.7,1.7-0.7
		s1.2,0.2,1.7,0.7l28.4,28.4l28.4-28.4c0.5-0.5,1-0.7,1.7-0.7c0.6,0,1.2,0.2,1.7,0.7l3.6,3.6c0.5,0.5,0.7,1,0.7,1.7
		c0,0.6-0.2,1.2-0.7,1.7L46.6,65.3C46.1,65.7,45.5,66,44.9,66z"/>
</g>
</svg>
