<?xml version="1.0" encoding="utf-8"?>
<!-- Generator: Adobe Illustrator 18.1.0, SVG Export Plug-In . SVG Version: 6.00 Build 0)  -->
<!DOCTYPE svg PUBLIC "-//W3C//DTD SVG 1.1//EN" "http://www.w3.org/Graphics/SVG/1.1/DTD/svg11.dtd">
<svg version="1.1" id="icons" xmlns="http://www.w3.org/2000/svg" xmlns:xlink="http://www.w3.org/1999/xlink" x="0px" y="0px"
	 viewBox="0 0 101.8 90" enable-background="new 0 0 101.8 90" xml:space="preserve">
<path d="M50.5,80.2c-0.8,0-1.5-0.3-2-0.8L19.6,51.5c-0.3-0.2-0.7-0.6-1.3-1.2c-0.5-0.6-1.4-1.6-2.6-3c-1.2-1.5-2.2-3-3.1-4.5
	s-1.8-3.4-2.5-5.6C9.4,35,9,32.8,9,30.8c0-6.8,2-12.1,5.9-15.9c3.9-3.8,9.3-5.7,16.3-5.7c1.9,0,3.9,0.3,5.9,1c2,0.7,3.8,1.6,5.6,2.7
	c1.7,1.1,3.2,2.2,4.4,3.2c1.2,1,2.4,2,3.5,3.1c1.1-1.1,2.3-2.2,3.5-3.1c1.2-1,2.7-2,4.4-3.2c1.7-1.1,3.6-2,5.6-2.7
	c2-0.7,3.9-1,5.9-1c6.9,0,12.3,1.9,16.3,5.7C90,18.7,92,24,92,30.8c0,6.8-3.5,13.8-10.6,20.8L52.5,79.4C52,79.9,51.3,80.2,50.5,80.2
	z"/>
</svg>
