<?xml version="1.0" encoding="utf-8"?>
<!-- Generator: Adobe Illustrator 18.1.0, SVG Export Plug-In . SVG Version: 6.00 Build 0)  -->
<!DOCTYPE svg PUBLIC "-//W3C//DTD SVG 1.1//EN" "http://www.w3.org/Graphics/SVG/1.1/DTD/svg11.dtd">
<svg version="1.1" id="icons" xmlns="http://www.w3.org/2000/svg" xmlns:xlink="http://www.w3.org/1999/xlink" x="0px" y="0px"
	 viewBox="0 0 103 90" enable-background="new 0 0 103 90" xml:space="preserve">
<path d="M80.9,56.5v9.7c0,4-1.4,7.5-4.3,10.4c-2.9,2.9-6.3,4.3-10.4,4.3H23.7c-4,0-7.5-1.4-10.4-4.3S9,70.2,9,66.2V23.7
	c0-4,1.4-7.5,4.3-10.4C16.2,10.5,19.7,9,23.7,9h42.5c2.1,0,4.1,0.4,6,1.3c0.5,0.2,0.8,0.6,0.9,1.2c0.1,0.6-0.1,1.1-0.5,1.5l-2.5,2.5
	c-0.5,0.5-1,0.6-1.6,0.4c-0.8-0.2-1.5-0.3-2.3-0.3H23.7c-2.2,0-4.2,0.8-5.8,2.4c-1.6,1.6-2.4,3.5-2.4,5.8v42.5
	c0,2.2,0.8,4.2,2.4,5.8c1.6,1.6,3.5,2.4,5.8,2.4h42.5c2.2,0,4.2-0.8,5.8-2.4c1.6-1.6,2.4-3.5,2.4-5.8v-6.4c0-0.4,0.2-0.8,0.5-1.1
	l3.3-3.3c0.5-0.5,1.1-0.6,1.8-0.4C80.5,55.3,80.9,55.8,80.9,56.5z M76,18.8l14.7,14.7L56.4,67.8H41.7V53.1L76,18.8z M54.3,62.9
	l5.9-5.9l-7.8-7.8l-5.9,5.9V58h4.9v4.9H54.3z M76.8,26.2c-0.5-0.5-1.1-0.5-1.7,0.1L57.2,44.1c-0.6,0.6-0.6,1.1-0.1,1.7
	s1.1,0.5,1.7-0.1l17.9-17.9C77.3,27.3,77.3,26.7,76.8,26.2z M98.6,25.6l-4.7,4.7L79.2,15.6l4.7-4.7c1-1,2.1-1.4,3.5-1.4
	c1.4,0,2.5,0.5,3.5,1.4l7.8,7.8c1,1,1.4,2.1,1.4,3.5C100.1,23.5,99.6,24.6,98.6,25.6z"/>
</svg>
