<?xml version="1.0" encoding="utf-8"?>
<!-- Generator: Adobe Illustrator 18.1.0, SVG Export Plug-In . SVG Version: 6.00 Build 0)  -->
<!DOCTYPE svg PUBLIC "-//W3C//DTD SVG 1.1//EN" "http://www.w3.org/Graphics/SVG/1.1/DTD/svg11.dtd">
<svg version="1.1" id="icons" xmlns="http://www.w3.org/2000/svg" xmlns:xlink="http://www.w3.org/1999/xlink" x="0px" y="0px"
	 viewBox="0 0 93.2 90" enable-background="new 0 0 93.2 90" xml:space="preserve">
<path d="M43.8,18.9v17.4c0,1.6-0.6,2.9-1.7,4.1c-1.1,1.1-2.5,1.7-4.1,1.7H14.9c-1.6,0-2.9-0.6-4.1-1.7c-1.1-1.1-1.7-2.5-1.7-4.1
	V18.9c0-1.6,0.6-2.9,1.7-4.1c1.1-1.1,2.5-1.7,4.1-1.7H38c1.6,0,2.9,0.6,4.1,1.7C43.2,16,43.8,17.4,43.8,18.9z M43.8,53.7V71
	c0,1.6-0.6,2.9-1.7,4.1c-1.1,1.1-2.5,1.7-4.1,1.7H14.9c-1.6,0-2.9-0.6-4.1-1.7c-1.1-1.1-1.7-2.5-1.7-4.1V53.7c0-1.6,0.6-2.9,1.7-4.1
	c1.1-1.1,2.5-1.7,4.1-1.7H38c1.6,0,2.9,0.6,4.1,1.7C43.2,50.7,43.8,52.1,43.8,53.7z M84.3,18.9v17.4c0,1.6-0.6,2.9-1.7,4.1
	c-1.1,1.1-2.5,1.7-4.1,1.7H55.4c-1.6,0-2.9-0.6-4.1-1.7c-1.1-1.1-1.7-2.5-1.7-4.1V18.9c0-1.6,0.6-2.9,1.7-4.1
	c1.1-1.1,2.5-1.7,4.1-1.7h23.2c1.6,0,2.9,0.6,4.1,1.7C83.7,16,84.3,17.4,84.3,18.9z M84.3,53.7V71c0,1.6-0.6,2.9-1.7,4.1
	c-1.1,1.1-2.5,1.7-4.1,1.7H55.4c-1.6,0-2.9-0.6-4.1-1.7c-1.1-1.1-1.7-2.5-1.7-4.1V53.7c0-1.6,0.6-2.9,1.7-4.1
	c1.1-1.1,2.5-1.7,4.1-1.7h23.2c1.6,0,2.9,0.6,4.1,1.7C83.7,50.7,84.3,52.1,84.3,53.7z"/>
</svg>
