<?xml version="1.0" encoding="utf-8"?>
<!-- Generator: Adobe Illustrator 18.1.0, SVG Export Plug-In . SVG Version: 6.00 Build 0)  -->
<!DOCTYPE svg PUBLIC "-//W3C//DTD SVG 1.1//EN" "http://www.w3.org/Graphics/SVG/1.1/DTD/svg11.dtd">
<svg version="1.1" xmlns="http://www.w3.org/2000/svg" xmlns:xlink="http://www.w3.org/1999/xlink" x="0px" y="0px"
	 viewBox="0 0 90 90" enable-background="new 0 0 90 90" xml:space="preserve">
<g id="icons">
	<path d="M69.6,33.7c-6.1,0.5-10.5-4.9-13-9.8c0-2.1,0.2-4.2-0.3-6.4c-1.5-4.3-5.8-7.8-10.4-7.6c-5-0.5-9.7,3-11.3,7.6
		c-0.5,2.3-0.3,4.7-0.3,7.2c-1.9,3.2-4.2,6.3-7.4,8.1c-1.9,1.4-4.3,0.5-6.4,0.8c-4.1-0.3-7.4,2.6-9.5,5.8
		c-2.6,4.9-1.2,11.6,3.6,14.7c2.6,2.4,6.3,1.4,9.5,1.8c4.2,1.9,7.7,5.1,9.6,9.2c1.3,2.7-0.1,5.9,1.4,8.6c1.5,3,4.2,5.4,7.4,6.1
		c5.4,1.4,11.4-1.7,13.4-6.9c1.1-2.7,0-5.8,0.7-8.6c1.8-3.2,4.5-5.9,7.8-7.7c2.7-0.9,5.6,0.3,8.2-0.8c2.5-0.8,4.4-2.5,5.9-4.6
		c2.1-2.9,2-6.7,1.4-10C78.4,37.1,74.3,33.5,69.6,33.7z M60,46.8c-0.3,7.9-8.1,14.3-15.9,13.1c-7.4-0.9-13.4-8.4-12.4-15.8
		c0.8-5.8,5.4-10.8,11.2-12.1C51.7,29.6,60.9,37.9,60,46.8z"/>
	<path d="M42.2,37.6c-3.4,1.2-5.7,4.7-5.9,8.2c-0.3,5.3,4.7,10.3,10,9.7c6.3,0.1,11.1-7.3,8.3-13C52.8,37.9,46.7,35.7,42.2,37.6z"/>
</g>
<g id="Painter_Palette">
</g>
</svg>
