<?xml version="1.0" encoding="utf-8"?>
<!-- Generator: Adobe Illustrator 19.1.1, SVG Export Plug-In . SVG Version: 6.00 Build 0)  -->
<!DOCTYPE svg PUBLIC "-//W3C//DTD SVG 1.1//EN" "http://www.w3.org/Graphics/SVG/1.1/DTD/svg11.dtd">
<svg version="1.1" id="icons" xmlns="http://www.w3.org/2000/svg" xmlns:xlink="http://www.w3.org/1999/xlink" x="0px" y="0px"
	 viewBox="0 0 73.2 90" enable-background="new 0 0 73.2 90" xml:space="preserve">
<path d="M61.5,43.4h-3.6V31.3c0-6.1-2.3-11.6-6.1-15.7c-3.8-4.1-9.2-6.7-15.1-6.7c-6,0-11.3,2.6-15.1,6.7c-3.8,4.1-6.1,9.6-6.1,15.7
	v12.2h-3.7c-1.5,0-2.7,1.2-2.7,2.7v32.1c0,1.5,1.2,2.7,2.7,2.7h49.7c1.5,0,2.7-1.2,2.7-2.7V46.2C64.3,44.6,63.1,43.4,61.5,43.4
	L61.5,43.4z M25.5,31.3c0-3.5,1.3-6.6,3.4-8.8c2.1-2.2,4.8-3.5,7.8-3.5c3,0,5.7,1.3,7.8,3.5c2.1,2.2,3.4,5.3,3.4,8.8v12.2H25.5V31.3
	z M25.5,31.3"/>
</svg>
