<?xml version="1.0" encoding="utf-8"?>
<!-- Generator: Adobe Illustrator 19.1.1, SVG Export Plug-In . SVG Version: 6.00 Build 0)  -->
<!DOCTYPE svg PUBLIC "-//W3C//DTD SVG 1.1//EN" "http://www.w3.org/Graphics/SVG/1.1/DTD/svg11.dtd">
<svg version="1.1" id="icons" xmlns="http://www.w3.org/2000/svg" xmlns:xlink="http://www.w3.org/1999/xlink" x="0px" y="0px"
	 viewBox="0 0 119.9 90" enable-background="new 0 0 119.9 90" xml:space="preserve">
<path d="M39.8,69.9v-8.1c-3.9,5.5-9,9-16.6,9C10.7,70.9,0,60.9,0,47.3C0,34,11.1,23.8,23,23.8c7,0,12.5,3.2,16.8,9.1V16.7h-6.7V9
	h14.9v53.3h6.6v7.7H39.8z M24.2,32c-8.8,0-15.9,6.7-15.9,15.4c0,8.5,6.8,15.4,15.8,15.4c8.7,0,15.8-6.8,15.8-15.5
	C39.9,38.5,32.9,32,24.2,32z"/>
<path d="M88.3,70.9c-7.4,0-12.5-3.3-16.6-9v8.1H56.8v-7.7h6.6V16.7h-6.6V9h14.9v23.8c3.8-5.8,8.8-9,16-9c12.5,0,23.2,10.5,23.2,23.6
	C110.9,60.7,100.1,70.9,88.3,70.9z M87.1,32c-8.8,0-15.8,6.6-15.8,15c0,8.6,7.1,15.6,15.7,15.6c9.1,0,15.5-6.8,15.5-15.4
	C102.5,38.8,96.1,32,87.1,32z"/>
</svg>
