<?xml version="1.0" encoding="utf-8"?>
<!-- Generator: Adobe Illustrator 18.1.0, SVG Export Plug-In . SVG Version: 6.00 Build 0)  -->
<!DOCTYPE svg PUBLIC "-//W3C//DTD SVG 1.1//EN" "http://www.w3.org/Graphics/SVG/1.1/DTD/svg11.dtd">
<svg version="1.1" id="icons" xmlns="http://www.w3.org/2000/svg" xmlns:xlink="http://www.w3.org/1999/xlink" x="0px" y="0px"
	 viewBox="0 0 170.9 90" enable-background="new 0 0 170.9 90" xml:space="preserve">
<g>
	<path d="M130,33.2c-2.7,0-4.9,2.2-4.9,4.9v4.8h9.8v-4.8C134.9,35.4,132.7,33.2,130,33.2L130,33.2z M130,33.2"/>
	<path d="M143.6,10H27.7C17.3,10,8.8,18.5,8.8,28.9v33.3C8.8,72.5,17.3,81,27.7,81h115.9c10.4,0,18.9-8.5,18.9-18.9V28.9
		C162.4,18.5,153.9,10,143.6,10L143.6,10z M49.9,50.6l4.5,4.9l-7.8,5.9l-3.2-5.9c-0.5-0.8-1.2-2.5-2.3-4.9c-1.1,2.7-1.9,4.3-2.3,4.9
		l-3.3,5.9l-8.1-5.9l4.9-4.9c1.4-1.4,2.7-2.5,4-3.5c-1.3-0.1-3.1-0.4-5.3-0.8l-6.7-1.1l3.1-9.2l6.1,2.7c0.6,0.3,2.2,1.2,4.7,2.7
		c-0.5-2.4-0.9-4.3-1-5.4l-0.9-6.6H46l-0.8,6.6c-0.2,1.6-0.5,3.4-1.1,5.4c1.1-0.6,1.8-0.9,2.2-1.1c1.2-0.7,2.2-1.1,2.8-1.4l6.1-2.9
		l3,9.2l-6.7,1.4c-1.2,0.2-3,0.4-5.5,0.5C47.7,48.5,48.9,49.6,49.9,50.6L49.9,50.6z M94.3,50.6l4.5,4.9l-7.9,5.9l-3.2-5.9
		c-0.5-0.8-1.2-2.5-2.2-4.9c-1.2,2.7-1.9,4.3-2.3,4.9l-3.3,5.9l-8-5.9l4.9-4.9c1.4-1.4,2.7-2.5,4-3.5c-1.3-0.1-3.1-0.4-5.3-0.8
		l-6.7-1.1l3.1-9.2l6.1,2.7c0.6,0.3,2.2,1.2,4.7,2.7c-0.6-2.4-0.9-4.3-1-5.4l-0.9-6.6h9.6l-0.8,6.6c-0.2,1.6-0.5,3.4-1.1,5.4
		c1.1-0.6,1.8-0.9,2.2-1.1c1.2-0.7,2.1-1.1,2.8-1.4l6.1-2.9l3,9.2l-6.7,1.4c-1.2,0.2-3,0.4-5.5,0.5C92,48.5,93.3,49.6,94.3,50.6
		L94.3,50.6z M144,59c0,2-1.6,3.7-3.7,3.7h-20.6c-2,0-3.7-1.6-3.7-3.7V46.6c0-2,1.7-3.7,3.7-3.7h0.5v-4.8c0-5.4,4.4-9.8,9.8-9.8
		c5.4,0,9.8,4.4,9.8,9.8v4.8h0.5c2,0,3.7,1.6,3.7,3.7V59z M144,59"/>
</g>
</svg>
