<?xml version="1.0" encoding="utf-8"?>
<!-- Generator: Adobe Illustrator 19.1.1, SVG Export Plug-In . SVG Version: 6.00 Build 0)  -->
<!DOCTYPE svg PUBLIC "-//W3C//DTD SVG 1.1//EN" "http://www.w3.org/Graphics/SVG/1.1/DTD/svg11.dtd">
<svg version="1.1" id="icons" xmlns="http://www.w3.org/2000/svg" xmlns:xlink="http://www.w3.org/1999/xlink" x="0px" y="0px"
	 viewBox="0 0 90 90" enable-background="new 0 0 90 90" xml:space="preserve">
<circle cx="45" cy="45" r="17"/>
<g>
	<path d="M76.1,26.9C79.4,32.5,81,38.5,81,45s-1.6,12.5-4.8,18.1c-3.2,5.5-7.6,9.9-13.1,13.1C57.5,79.4,51.5,81,45,81
		s-12.5-1.6-18.1-4.8c-5.5-3.2-9.9-7.6-13.1-13.1C10.7,57.5,9,51.5,9,45c0-6.5,1.6-12.5,4.8-18.1s7.6-9.9,13.1-13.1
		C32.5,10.6,38.5,9,45,9s12.5,1.6,18.1,4.8C68.6,17.1,72.9,21.4,76.1,26.9z M57.8,22.9c-3.9-2.3-8.2-3.4-12.8-3.4s-8.9,1.1-12.8,3.4
		s-7,5.4-9.3,9.3c-2.3,3.9-3.4,8.2-3.4,12.8s1.1,8.9,3.4,12.8s5.4,7,9.3,9.3s8.2,3.4,12.8,3.4c4.6,0,8.9-1.1,12.8-3.4s7-5.4,9.3-9.3
		c2.3-3.9,3.4-8.2,3.4-12.8c0-4.6-1.1-8.9-3.4-12.8C64.8,28.3,61.7,25.2,57.8,22.9z"/>
</g>
</svg>
