<?xml version="1.0" encoding="utf-8"?>
<!-- Generator: Adobe Illustrator 18.1.0, SVG Export Plug-In . SVG Version: 6.00 Build 0)  -->
<!DOCTYPE svg PUBLIC "-//W3C//DTD SVG 1.1//EN" "http://www.w3.org/Graphics/SVG/1.1/DTD/svg11.dtd">
<svg version="1.1" id="icons" xmlns="http://www.w3.org/2000/svg" xmlns:xlink="http://www.w3.org/1999/xlink" x="0px" y="0px"
	 viewBox="0 0 81 90" enable-background="new 0 0 81 90" xml:space="preserve">
<path d="M11.4,55.3C9.8,56,9,57.4,9,59.3v14.9v2.6c0,1.2,0.4,2.2,1.1,3c0.7,0.8,1.6,1.2,2.7,1.2h56.7c1,0,1.8-0.4,2.5-1.2
	c0.7-0.8,1.1-1.8,1.1-3v-2.6l0-14.9c0-1.9-0.8-3.2-2.3-3.9L55.3,48l-6.5-3.1c1.4-0.9,2.7-2,3.8-3.3c1.1-1.3,2.1-2.9,2.8-4.6
	c0.5-1.3,1-2.7,1.4-4.2c0.4-1.5,0.6-3.1,0.6-4.7c0-0.9-0.1-1.7-0.2-2.5c-0.1-0.8-0.3-1.6-0.5-2.5c-1-4.1-2.9-7.4-5.7-10
	c-2.9-2.6-6.2-3.9-10-3.9c-3.8,0-7.1,1.3-9.9,3.8c-2.8,2.5-4.7,5.7-5.7,9.6c-0.5,1.9-0.8,3.8-0.8,5.5c0,3.2,0.7,6.4,2.1,9.4
	c1.6,3.2,3.8,5.8,6.6,7.6L27.3,48L11.4,55.3z"/>
</svg>
