<?xml version="1.0" encoding="utf-8"?>
<!-- Generator: Adobe Illustrator 18.1.0, SVG Export Plug-In . SVG Version: 6.00 Build 0)  -->
<!DOCTYPE svg PUBLIC "-//W3C//DTD SVG 1.1//EN" "http://www.w3.org/Graphics/SVG/1.1/DTD/svg11.dtd">
<svg version="1.1" id="icons" xmlns="http://www.w3.org/2000/svg" xmlns:xlink="http://www.w3.org/1999/xlink" x="0px" y="0px"
	 viewBox="0 0 90 90" enable-background="new 0 0 90 90" xml:space="preserve">
<path d="M76.4,27c3.2,5.5,4.8,11.6,4.8,18.1c0,6.6-1.6,12.6-4.8,18.1c-3.2,5.5-7.6,9.9-13.2,13.2c-5.5,3.2-11.6,4.8-18.1,4.8
	c-6.6,0-12.6-1.6-18.1-4.8c-5.5-3.2-9.9-7.6-13.2-13.2C10.6,57.8,9,51.7,9,45.2c0-6.6,1.6-12.6,4.8-18.1c3.2-5.5,7.6-9.9,13.2-13.2
	C32.6,10.6,38.6,9,45.2,9c6.6,0,12.6,1.6,18.1,4.8C68.8,17.1,73.2,21.5,76.4,27z M63.1,55.8c0-0.8-0.3-1.5-0.9-2.1l-8.5-8.5l8.5-8.5
	c0.6-0.6,0.9-1.3,0.9-2.1c0-0.8-0.3-1.6-0.9-2.2L58,28.1c-0.6-0.6-1.3-0.9-2.2-0.9c-0.8,0-1.5,0.3-2.1,0.9l-8.5,8.5l-8.5-8.5
	c-0.6-0.6-1.3-0.9-2.1-0.9c-0.8,0-1.6,0.3-2.2,0.9l-4.2,4.2c-0.6,0.6-0.9,1.3-0.9,2.2c0,0.8,0.3,1.5,0.9,2.1l8.5,8.5l-8.5,8.5
	c-0.6,0.6-0.9,1.3-0.9,2.1c0,0.8,0.3,1.6,0.9,2.2l4.2,4.2c0.6,0.6,1.3,0.9,2.2,0.9c0.8,0,1.5-0.3,2.1-0.9l8.5-8.5l8.5,8.5
	c0.6,0.6,1.3,0.9,2.1,0.9c0.8,0,1.6-0.3,2.2-0.9l4.2-4.2C62.8,57.4,63.1,56.6,63.1,55.8z"/>
</svg>
