<?xml version="1.0" encoding="utf-8"?>
<!-- Generator: Adobe Illustrator 19.1.0, SVG Export Plug-In . SVG Version: 6.00 Build 0)  -->
<!DOCTYPE svg PUBLIC "-//W3C//DTD SVG 1.1//EN" "http://www.w3.org/Graphics/SVG/1.1/DTD/svg11.dtd">
<svg version="1.1" id="icons" xmlns="http://www.w3.org/2000/svg" xmlns:xlink="http://www.w3.org/1999/xlink" x="0px" y="0px"
	 viewBox="0 0 90 90" enable-background="new 0 0 90 90" xml:space="preserve">
<path d="M44.7,8.6C24.5,8.6,8.1,25,8.1,45.3s16.5,36.7,36.7,36.7s36.7-16.4,36.7-36.6S65,8.6,44.7,8.6z M44.7,79.6
	c-18.9,0-34.3-15.4-34.3-34.3C10.4,26.4,25.8,11,44.7,11C63.6,11,79,26.4,79,45.3C79,64.2,63.6,79.6,44.7,79.6z"/>
<path d="M45,13.4c-17.4,0-31.6,14.1-31.6,31.6S27.6,76.6,45,76.6S76.6,62.4,76.6,45S62.4,13.4,45,13.4z M61.4,55.8
	c0,3.5-7.4,6.4-16.4,6.4s-16.4-2.9-16.4-6.4v-5.5c3,2.7,9.9,4.2,16.4,4.2s13.4-1.4,16.4-4.2V55.8z M61.4,46.7
	c-0.3,2.6-6.9,5.4-16.4,5.4c-9.4,0-16.1-2.8-16.4-5.4v-6.9c3,2.7,9.9,4.2,16.4,4.2s13.4-1.4,16.4-4.2V46.7z M61.4,36.3
	c-0.3,2.6-6.9,5.4-16.4,5.4c-9.4,0-16.1-2.8-16.4-5.4v-0.2c0-3.5,7.4-6.4,16.4-6.4s16.4,2.9,16.4,6.4V36.3z"/>
</svg>
