<?xml version="1.0" encoding="utf-8"?>
<!-- Generator: Adobe Illustrator 20.1.0, SVG Export Plug-In . SVG Version: 6.00 Build 0)  -->
<svg version="1.1" id="icons" xmlns="http://www.w3.org/2000/svg" xmlns:xlink="http://www.w3.org/1999/xlink" x="0px" y="0px"
	 viewBox="0 0 90.9 90" style="enable-background:new 0 0 90.9 90;" xml:space="preserve">
<path d="M49.2,11.2c-18.6,0-33.8,15.1-33.8,33.8H4.2l14.6,14.6l0.3,0.5L34.2,45H23c0-14.5,11.7-26.3,26.3-26.3S75.5,30.5,75.5,45
	S63.7,71.3,49.2,71.3c-7.2,0-13.8-3-18.5-7.7l-5.3,5.3c6.1,6.1,14.5,9.9,23.9,9.9C67.8,78.8,83,63.6,83,45S67.8,11.2,49.2,11.2z
	 M45.5,30v18.8l16.1,9.5l2.7-4.5l-13.1-7.8V30H45.5z"/>
</svg>
