<?xml version="1.0" encoding="utf-8"?>
<!-- Generator: Adobe Illustrator 19.2.1, SVG Export Plug-In . SVG Version: 6.00 Build 0)  -->
<!DOCTYPE svg PUBLIC "-//W3C//DTD SVG 1.1//EN" "http://www.w3.org/Graphics/SVG/1.1/DTD/svg11.dtd">
<svg version="1.1" id="icons" xmlns="http://www.w3.org/2000/svg" xmlns:xlink="http://www.w3.org/1999/xlink" x="0px" y="0px"
	 viewBox="0 0 90 90" enable-background="new 0 0 90 90" xml:space="preserve">
<g>
	<path d="M57.1,41.2v7c0,0.3-0.1,0.5-0.3,0.7c-0.2,0.2-0.4,0.4-0.6,0.4l-5.8,0.9c-0.3,0.9-0.7,1.8-1.2,2.9c0.9,1.2,2,2.6,3.4,4.3
		c0.2,0.3,0.3,0.5,0.3,0.8c0,0.3-0.1,0.5-0.3,0.7c-0.6,0.8-1.6,1.9-3.1,3.4c-1.5,1.5-2.5,2.2-2.9,2.2c-0.3,0-0.5-0.1-0.8-0.3
		l-4.3-3.4c-0.9,0.5-1.9,0.9-2.9,1.2c-0.3,2.7-0.6,4.6-0.9,5.8c-0.2,0.6-0.6,0.9-1.1,0.9h-7c-0.3,0-0.5-0.1-0.8-0.3
		c-0.2-0.2-0.4-0.4-0.4-0.7L27.6,62c-0.9-0.2-1.8-0.6-2.8-1.2l-4.4,3.3c-0.2,0.2-0.4,0.3-0.8,0.3c-0.3,0-0.5-0.1-0.8-0.3
		c-3.6-3.3-5.4-5.3-5.4-6c0-0.2,0.1-0.5,0.3-0.7c0.2-0.4,0.8-1,1.5-2c0.8-1,1.4-1.7,1.8-2.3c-0.6-1.1-1-2.1-1.3-3.1L10,49.1
		c-0.2,0-0.5-0.1-0.6-0.4c-0.2-0.2-0.3-0.5-0.3-0.7v-6.9c0-0.3,0.1-0.5,0.3-0.7C9.5,40.1,9.7,40,9.9,40l5.8-0.9
		c0.3-0.9,0.7-1.8,1.2-2.9c-0.9-1.2-2-2.6-3.4-4.3c-0.2-0.3-0.3-0.5-0.3-0.8c0-0.3,0.1-0.6,0.3-0.8c0.6-0.8,1.6-1.9,3.1-3.3
		c1.5-1.5,2.5-2.2,3-2.2c0.3,0,0.5,0.1,0.8,0.3l4.3,3.4c0.9-0.4,1.8-0.8,2.9-1.2c0.3-2.7,0.6-4.6,0.9-5.8c0.2-0.6,0.6-0.9,1.1-0.9h7
		c0.3,0,0.5,0.1,0.8,0.3c0.2,0.2,0.4,0.4,0.4,0.7l0.9,5.7c0.9,0.3,1.8,0.6,2.8,1.2l4.4-3.3c0.2-0.2,0.5-0.3,0.8-0.3
		c0.3,0,0.5,0.1,0.8,0.3c3.6,3.3,5.4,5.3,5.4,6c0,0.2-0.1,0.5-0.3,0.7c-0.3,0.4-0.8,1.1-1.6,2c-0.8,1-1.3,1.7-1.7,2.3
		c0.6,1.2,1,2.2,1.3,3.1l5.7,0.9c0.2,0,0.5,0.2,0.6,0.4S57.1,40.9,57.1,41.2z M39.9,51.4c1.9-1.9,2.8-4.1,2.8-6.8
		c0-2.7-0.9-4.9-2.8-6.8C38,36,35.8,35,33.1,35c-2.7,0-4.9,0.9-6.8,2.8c-1.9,1.9-2.8,4.1-2.8,6.8c0,2.7,0.9,4.9,2.8,6.8
		c1.9,1.9,4.1,2.8,6.8,2.8C35.8,54.3,38,53.3,39.9,51.4z M81.2,22.8V28c0,0.4-1.9,0.8-5.6,1.2c-0.3,0.7-0.7,1.3-1.1,2
		c1.3,2.8,1.9,4.6,1.9,5.2c0,0.1,0,0.2-0.2,0.3c-3.1,1.8-4.6,2.7-4.7,2.7c-0.2,0-0.8-0.6-1.7-1.8c-1-1.2-1.6-2-2-2.6
		C67.4,35,67,35,66.8,35s-0.6,0-1.1-0.1c-0.4,0.5-1,1.4-2,2.6c-1,1.2-1.5,1.8-1.7,1.8c-0.1,0-1.6-0.9-4.7-2.7
		c-0.1-0.1-0.2-0.2-0.2-0.3c0-0.6,0.6-2.4,1.9-5.2c-0.5-0.6-0.8-1.3-1.1-2c-3.7-0.4-5.6-0.8-5.6-1.2v-5.3c0-0.4,1.9-0.8,5.6-1.2
		c0.3-0.7,0.7-1.4,1.1-2c-1.3-2.8-1.9-4.6-1.9-5.2c0-0.1,0-0.2,0.2-0.3c0.1,0,0.5-0.3,1.3-0.8c0.8-0.4,1.5-0.9,2.2-1.3
		c0.7-0.4,1.1-0.6,1.1-0.6c0.2,0,0.8,0.6,1.7,1.7c1,1.2,1.6,2,2,2.5c0.5,0,0.9-0.1,1.1-0.1s0.6,0,1.1,0.1c1.3-1.8,2.4-3.2,3.5-4.2
		l0.2-0.1c0.1,0,1.7,0.9,4.7,2.6c0.1,0.1,0.2,0.2,0.2,0.3c0,0.6-0.6,2.4-1.9,5.2c0.4,0.6,0.8,1.2,1.1,2C79.3,22,81.2,22.4,81.2,22.8
		z M81.2,61.2v5.3c0,0.4-1.9,0.8-5.6,1.2c-0.3,0.7-0.7,1.3-1.1,2c1.3,2.8,1.9,4.6,1.9,5.2c0,0.1,0,0.2-0.2,0.3
		c-3.1,1.8-4.6,2.7-4.7,2.7c-0.2,0-0.8-0.6-1.7-1.8c-1-1.2-1.6-2-2-2.6c-0.5,0-0.9,0.1-1.1,0.1s-0.6,0-1.1-0.1c-0.4,0.5-1,1.4-2,2.6
		c-1,1.2-1.5,1.8-1.7,1.8c-0.1,0-1.6-0.9-4.7-2.7c-0.1-0.1-0.2-0.2-0.2-0.3c0-0.6,0.6-2.4,1.9-5.2c-0.5-0.6-0.8-1.3-1.1-2
		c-3.7-0.4-5.6-0.8-5.6-1.2v-5.3c0-0.4,1.9-0.8,5.6-1.2c0.3-0.7,0.7-1.4,1.1-2c-1.3-2.8-1.9-4.6-1.9-5.2c0-0.1,0-0.2,0.2-0.3
		c0.1,0,0.5-0.3,1.3-0.8c0.8-0.5,1.5-0.9,2.2-1.3s1.1-0.6,1.1-0.6c0.2,0,0.8,0.6,1.7,1.7c1,1.2,1.6,2,2,2.5c0.5-0.1,0.9-0.1,1.1-0.1
		s0.6,0,1.1,0.1c1.3-1.8,2.4-3.2,3.5-4.2l0.2-0.1c0.1,0,1.7,0.9,4.7,2.6c0.1,0.1,0.2,0.2,0.2,0.3c0,0.6-0.6,2.4-1.9,5.2
		c0.4,0.6,0.8,1.2,1.1,2C79.3,60.5,81.2,60.8,81.2,61.2z M71.6,25.4c0-1.3-0.5-2.4-1.4-3.4c-1-0.9-2.1-1.4-3.4-1.4s-2.4,0.5-3.4,1.4
		c-1,1-1.4,2.1-1.4,3.4c0,1.3,0.5,2.5,1.4,3.4c0.9,0.9,2.1,1.4,3.4,1.4s2.5-0.5,3.4-1.4C71.1,27.9,71.6,26.7,71.6,25.4z M71.6,63.9
		c0-1.3-0.5-2.4-1.4-3.4c-1-1-2.1-1.4-3.4-1.4s-2.4,0.5-3.4,1.4c-1,1-1.4,2.1-1.4,3.4c0,1.3,0.5,2.5,1.4,3.4
		c0.9,0.9,2.1,1.4,3.4,1.4s2.5-0.5,3.4-1.4C71.1,66.3,71.6,65.2,71.6,63.9z"/>
</g>
</svg>
