<?xml version="1.0" encoding="utf-8"?>
<!-- Generator: Adobe Illustrator 18.1.0, SVG Export Plug-In . SVG Version: 6.00 Build 0)  -->
<!DOCTYPE svg PUBLIC "-//W3C//DTD SVG 1.1//EN" "http://www.w3.org/Graphics/SVG/1.1/DTD/svg11.dtd">
<svg version="1.1" id="icons" xmlns="http://www.w3.org/2000/svg" xmlns:xlink="http://www.w3.org/1999/xlink" x="0px" y="0px"
	 viewBox="0 0 90 90" enable-background="new 0 0 90 90" xml:space="preserve">
<g>
	<path d="M76.2,26.9c3.2,5.5,4.8,11.6,4.8,18.1c0,6.5-1.6,12.6-4.8,18.1C73,68.6,68.6,73,63.1,76.2C57.6,79.4,51.6,81,45,81
		c-6.5,0-12.6-1.6-18.1-4.8c-5.5-3.2-9.9-7.6-13.1-13.1C10.6,57.5,9,51.5,9,45c0-6.5,1.6-12.6,4.8-18.1c3.2-5.5,7.6-9.9,13.1-13.1
		c5.5-3.2,11.6-4.8,18.1-4.8c6.5,0,12.6,1.6,18.1,4.8C68.6,17,73,21.4,76.2,26.9z M66.1,48v-6c0-0.8-0.3-1.5-0.9-2.1
		c-0.6-0.6-1.3-0.9-2.1-0.9H51V27c0-0.8-0.3-1.5-0.9-2.1C49.6,24.3,48.9,24,48,24h-6c-0.8,0-1.5,0.3-2.1,0.9
		C39.3,25.5,39,26.1,39,27v12H27c-0.8,0-1.5,0.3-2.1,0.9C24.3,40.5,24,41.2,24,42v6c0,0.8,0.3,1.5,0.9,2.1c0.6,0.6,1.3,0.9,2.1,0.9
		h12v12c0,0.8,0.3,1.5,0.9,2.1c0.6,0.6,1.3,0.9,2.1,0.9h6c0.8,0,1.5-0.3,2.1-0.9c0.6-0.6,0.9-1.3,0.9-2.1V51h12
		c0.8,0,1.5-0.3,2.1-0.9C65.8,49.5,66.1,48.8,66.1,48z"/>
</g>
</svg>
