<?xml version="1.0" encoding="utf-8"?>
<!-- Generator: Adobe Illustrator 19.2.1, SVG Export Plug-In . SVG Version: 6.00 Build 0)  -->
<!DOCTYPE svg PUBLIC "-//W3C//DTD SVG 1.1//EN" "http://www.w3.org/Graphics/SVG/1.1/DTD/svg11.dtd">
<svg version="1.1" id="icons" xmlns="http://www.w3.org/2000/svg" xmlns:xlink="http://www.w3.org/1999/xlink" x="0px" y="0px"
	 viewBox="0 0 90 90" enable-background="new 0 0 90 90" xml:space="preserve">
<path d="M71.6,48.5c0.1-1.1,0.3-2.3,0.3-3.5s-0.1-2.3-0.3-3.5l7.6-5.9c0.7-0.5,0.9-1.5,0.4-2.3l-7.1-12.4c-0.4-0.8-1.4-1.1-2.2-0.8
	l-8.9,3.6c-1.8-1.4-3.9-2.6-6-3.5l-1.3-9.5c-0.2-0.8-0.9-1.5-1.8-1.5H37.9c-0.9,0-1.6,0.7-1.8,1.5l-1.3,9.5c-2.2,0.9-4.2,2.1-6,3.5
	l-8.9-3.6c-0.8-0.3-1.7,0-2.2,0.8l-7.1,12.4c-0.4,0.8-0.3,1.7,0.4,2.3l7.5,5.9c-0.1,1.1-0.3,2.3-0.3,3.5s0.1,2.3,0.3,3.5l-7.5,5.9
	c-0.7,0.5-0.9,1.5-0.4,2.3l7.1,12.4c0.4,0.8,1.4,1.1,2.2,0.8l8.9-3.6c1.8,1.4,3.9,2.6,6,3.5l1.3,9.5c0.1,0.8,0.9,1.5,1.8,1.5h14.3
	c0.9,0,1.6-0.7,1.8-1.5l1.3-9.5c2.2-0.9,4.2-2.1,6-3.5l8.9,3.6c0.8,0.3,1.7,0,2.2-0.8l7.1-12.4c0.4-0.8,0.3-1.7-0.4-2.3L71.6,48.5z
	 M45,57.5c-6.9,0-12.5-5.6-12.5-12.5S38.1,32.5,45,32.5S57.5,38.1,57.5,45S51.9,57.5,45,57.5z"/>
</svg>
