<?xml version="1.0" encoding="utf-8"?>
<!-- Generator: Adobe Illustrator 18.1.0, SVG Export Plug-In . SVG Version: 6.00 Build 0)  -->
<!DOCTYPE svg PUBLIC "-//W3C//DTD SVG 1.1//EN" "http://www.w3.org/Graphics/SVG/1.1/DTD/svg11.dtd">
<svg version="1.1" id="icons" xmlns="http://www.w3.org/2000/svg" xmlns:xlink="http://www.w3.org/1999/xlink" x="0px" y="0px"
	 viewBox="0 0 90 90" enable-background="new 0 0 90 90" xml:space="preserve">
<g>
	<path d="M26.9,14c5.5-3.2,11.5-4.8,18.1-4.8c6.5,0,12.6,1.6,18.1,4.8s9.9,7.6,13.1,13.1c3.2,5.5,4.8,11.5,4.8,18.1
		c0,6.5-1.6,12.5-4.8,18.1c-3.2,5.5-7.6,9.9-13.1,13.1S51.5,81.1,45,81.1c-6.5,0-12.5-1.6-18.1-4.8s-9.9-7.6-13.1-13.1
		C10.6,57.7,9,51.7,9,45.2c0-6.5,1.6-12.6,4.8-18.1C17.1,21.6,21.4,17.2,26.9,14z M48,21.2h-6c-0.8,0-1.5,0.3-2.1,0.9
		c-0.6,0.6-0.9,1.3-0.9,2.1v23.5l-8.9-8.9c-0.6-0.6-1.3-0.9-2.1-0.9c-0.8,0-1.5,0.3-2.1,0.9l-4.3,4.3c-0.6,0.6-0.8,1.3-0.8,2.1
		c0,0.8,0.3,1.5,0.8,2.1l17,17l4.3,4.3c0.6,0.6,1.3,0.8,2.1,0.8c0.8,0,1.6-0.3,2.1-0.8l4.3-4.3l17-17c0.6-0.6,0.8-1.3,0.8-2.1
		c0-0.8-0.3-1.6-0.8-2.1l-4.3-4.3C63.5,38.3,62.8,38,62,38c-0.8,0-1.6,0.3-2.1,0.8L51,47.7V24.2c0-0.8-0.3-1.5-0.9-2.1
		C49.5,21.5,48.8,21.2,48,21.2z"/>
</g>
</svg>
