<?xml version="1.0" encoding="utf-8"?>
<!-- Generator: Adobe Illustrator 18.1.0, SVG Export Plug-In . SVG Version: 6.00 Build 0)  -->
<!DOCTYPE svg PUBLIC "-//W3C//DTD SVG 1.1//EN" "http://www.w3.org/Graphics/SVG/1.1/DTD/svg11.dtd">
<svg version="1.1" id="icons" xmlns="http://www.w3.org/2000/svg" xmlns:xlink="http://www.w3.org/1999/xlink" x="0px" y="0px"
	 viewBox="0 0 90 90" enable-background="new 0 0 90 90" xml:space="preserve">
<g>
	<path d="M76.2,27.1c3.2,5.5,4.8,11.5,4.8,18.1c0,6.5-1.6,12.6-4.8,18.1s-7.6,9.9-13.1,13.1c-5.5,3.2-11.5,4.8-18.1,4.8
		c-6.5,0-12.5-1.6-18.1-4.8c-5.5-3.2-9.9-7.6-13.1-13.1S9,51.7,9,45.1c0-6.5,1.6-12.5,4.8-18.1s7.6-9.9,13.1-13.1
		c5.5-3.2,11.5-4.8,18.1-4.8c6.5,0,12.6,1.6,18.1,4.8C68.6,17.2,72.9,21.6,76.2,27.1z M69,48.1v-6c0-0.8-0.3-1.5-0.9-2.1
		c-0.6-0.6-1.3-0.9-2.1-0.9H42.5l8.9-8.9c0.6-0.6,0.9-1.3,0.9-2.1c0-0.8-0.3-1.5-0.9-2.1l-4.3-4.3c-0.6-0.6-1.3-0.8-2.1-0.8
		c-0.8,0-1.5,0.3-2.1,0.8l-17,17L21.6,43c-0.6,0.6-0.8,1.3-0.8,2.1c0,0.8,0.3,1.6,0.8,2.1l4.3,4.3l17,17c0.6,0.6,1.3,0.8,2.1,0.8
		c0.8,0,1.6-0.3,2.1-0.8l4.3-4.3c0.6-0.6,0.8-1.3,0.8-2.1c0-0.8-0.3-1.6-0.8-2.1l-8.9-8.9H66c0.8,0,1.5-0.3,2.1-0.9S69,49,69,48.1z"
		/>
</g>
</svg>
