<?xml version="1.0" encoding="utf-8"?>
<!-- Generator: Adobe Illustrator 18.1.0, SVG Export Plug-In . SVG Version: 6.00 Build 0)  -->
<!DOCTYPE svg PUBLIC "-//W3C//DTD SVG 1.1//EN" "http://www.w3.org/Graphics/SVG/1.1/DTD/svg11.dtd">
<svg version="1.1" id="icons" xmlns="http://www.w3.org/2000/svg" xmlns:xlink="http://www.w3.org/1999/xlink" x="0px" y="0px"
	 viewBox="0 0 108.2 90" enable-background="new 0 0 108.2 90" xml:space="preserve">
<path d="M80.1,51.4c0,1.7-0.6,3.1-1.7,4.3L55.1,78.9c-1.2,1.2-2.7,1.7-4.3,1.7c-1.7,0-3.1-0.6-4.3-1.7L12.8,45.1
	c-1.2-1.2-2.2-2.8-3-4.8c-0.8-2-1.3-3.9-1.3-5.5V15.2c0-1.6,0.6-3.1,1.8-4.3c1.2-1.2,2.6-1.8,4.3-1.8h19.6c1.7,0,3.5,0.4,5.5,1.3
	c2,0.8,3.6,1.8,4.8,3l33.8,33.7C79.5,48.3,80.1,49.8,80.1,51.4z M27.9,28.5c1.2-1.2,1.8-2.6,1.8-4.3s-0.6-3.1-1.8-4.3
	c-1.2-1.2-2.6-1.8-4.3-1.8c-1.7,0-3.1,0.6-4.3,1.8s-1.8,2.6-1.8,4.3s0.6,3.1,1.8,4.3c1.2,1.2,2.6,1.8,4.3,1.8
	C25.3,30.3,26.7,29.7,27.9,28.5z M98.2,51.4c0,1.7-0.6,3.1-1.7,4.3L73.3,78.9c-1.2,1.2-2.7,1.7-4.3,1.7c-1.1,0-2.1-0.2-2.8-0.7
	c-0.7-0.4-1.6-1.1-2.5-2.1l22.2-22.2c1.2-1.2,1.7-2.6,1.7-4.3c0-1.6-0.6-3.1-1.7-4.3L52.1,13.4c-1.2-1.2-2.8-2.2-4.8-3
	c-2-0.8-3.9-1.3-5.5-1.3h10.6c1.7,0,3.5,0.4,5.5,1.3c2,0.8,3.6,1.8,4.8,3l33.8,33.7C97.6,48.3,98.2,49.8,98.2,51.4z"/>
</svg>
