<?xml version="1.0" encoding="utf-8"?>
<!-- Generator: Adobe Illustrator 18.1.0, SVG Export Plug-In . SVG Version: 6.00 Build 0)  -->
<!DOCTYPE svg PUBLIC "-//W3C//DTD SVG 1.1//EN" "http://www.w3.org/Graphics/SVG/1.1/DTD/svg11.dtd">
<svg version="1.1" id="Layer_1" xmlns="http://www.w3.org/2000/svg" xmlns:xlink="http://www.w3.org/1999/xlink" x="0px" y="0px"
	 viewBox="0 0 90 90" enable-background="new 0 0 90 90" xml:space="preserve">
<g>
	<path d="M28.7,45.2c0-0.6,0.2-1.2,0.7-1.7L63.1,9.9c0.5-0.5,1-0.7,1.7-0.7c0.6,0,1.2,0.2,1.7,0.7l3.6,3.6c0.5,0.5,0.7,1,0.7,1.7
		c0,0.6-0.2,1.2-0.7,1.7L41.6,45.2L70,73.5c0.5,0.5,0.7,1,0.7,1.7c0,0.6-0.2,1.2-0.7,1.7l-3.6,3.6c-0.5,0.5-1,0.7-1.7,0.7
		c-0.6,0-1.2-0.2-1.7-0.7L29.4,46.8C28.9,46.3,28.7,45.8,28.7,45.2z"/>
</g>
<path d="M18.9,78.4c0,0.7,0.2,1.2,0.7,1.7c0.4,0.4,1,0.7,1.7,0.7h5.1c0.7,0,1.2-0.2,1.7-0.7c0.4-0.4,0.7-1,0.7-1.7V11.1
	c0-0.7-0.2-1.2-0.7-1.7c-0.4-0.4-1-0.7-1.7-0.7h-5.1c-0.7,0-1.2,0.2-1.7,0.7c-0.4,0.4-0.7,1-0.7,1.7L18.9,78.4z"/>
</svg>
