<?xml version="1.0" encoding="utf-8"?>
<!-- Generator: Adobe Illustrator 18.1.1, SVG Export Plug-In . SVG Version: 6.00 Build 0)  -->
<!DOCTYPE svg PUBLIC "-//W3C//DTD SVG 1.1//EN" "http://www.w3.org/Graphics/SVG/1.1/DTD/svg11.dtd">
<svg version="1.1" id="icons" xmlns="http://www.w3.org/2000/svg" xmlns:xlink="http://www.w3.org/1999/xlink" x="0px" y="0px"
	 viewBox="0 0 84.7 90" enable-background="new 0 0 84.7 90" xml:space="preserve">
<g>
	<path d="M61.7,66.5h4.8v9.6c0,1.3-0.5,2.5-1.4,3.4c-0.9,0.9-2,1.4-3.4,1.4H13.8c-1.3,0-2.5-0.5-3.4-1.4c-0.9-0.9-1.4-2-1.4-3.4
		V23.4c0-1.3,0.5-2.5,1.4-3.4c0.9-0.9,2-1.4,3.4-1.4h14.4c0-2.7,1-5,2.8-6.8C32.7,10,35,9.1,37.8,9c2.7,0,5,1,6.8,2.8
		s2.7,4.1,2.8,6.8h14.4c1.3,0,2.5,0.5,3.4,1.4s1.4,2,1.4,3.4v23.9h-4.8V33H13.8v43.1h47.9V66.5z M20,24.7c-0.9,0.8-1.3,2-1.4,3.5
		h38.3c0-1.3-0.6-2.5-1.5-3.4c-1-0.9-2.1-1.4-3.3-1.4h-4.8c-1.2,0-2.3-0.5-3.3-1.4c-0.9-0.9-1.4-2-1.5-3.4s-0.5-2.5-1.4-3.4
		c-0.9-0.9-2-1.3-3.4-1.3c-1.3,0-2.5,0.4-3.4,1.3c-0.9,0.9-1.4,2-1.4,3.4s-0.5,2.5-1.4,3.4c-0.9,0.9-2,1.4-3.4,1.4h-2.5
		c-0.5,0-1.2,0-2.2,0C22,23.4,20.9,23.8,20,24.7z M42.5,42.6H18.6v-4.8h23.9V42.6z M28.2,52.1h-9.6v-4.8h9.6V52.1z M18.6,56.9h9.6
		v4.8h-9.6V56.9z M18.6,66.5H33v4.8H18.6V66.5z M76.1,52.1v9.6H52.1v9.6L33,56.9l19.2-14.4v9.6H76.1z"/>
</g>
</svg>
