<?xml version="1.0" encoding="utf-8"?>
<!-- Generator: Adobe Illustrator 19.2.1, SVG Export Plug-In . SVG Version: 6.00 Build 0)  -->
<!DOCTYPE svg PUBLIC "-//W3C//DTD SVG 1.1//EN" "http://www.w3.org/Graphics/SVG/1.1/DTD/svg11.dtd">
<svg version="1.1" id="icons" xmlns="http://www.w3.org/2000/svg" xmlns:xlink="http://www.w3.org/1999/xlink" x="0px" y="0px"
	 viewBox="0 0 79.5 90" enable-background="new 0 0 79.5 90" xml:space="preserve">
<g>
	<path d="M68,28.1L51.6,11.8c-0.4-0.4-0.9-0.7-1.4-1.1v19h19C68.7,29,68.3,28.5,68,28.1z"/>
	<path d="M48.9,34.7c-1.1,0-2-0.4-2.7-1.1c-0.7-0.7-1.1-1.7-1.1-2.7V9H12.9c-1.1,0-2,0.4-2.7,1.1C9.4,10.9,9,11.8,9,12.9v64.2
		c0,1.1,0.4,2,1.1,2.7s1.7,1.1,2.7,1.1h54c1.1,0,2-0.4,2.7-1.1s1.1-1.7,1.1-2.7V34.7H48.9z M44,61.4c0,1.1-0.4,2.1-1.2,2.9
		c-0.8,0.8-1.8,1.2-2.9,1.2H27.4c-1.1,0-2.1-0.4-2.9-1.2c-0.8-0.8-1.2-1.8-1.2-2.9V49c0-1.1,0.4-2.1,1.2-2.9s1.8-1.2,2.9-1.2h12.4
		c1.1,0,2.1,0.4,2.9,1.2S44,47.9,44,49V61.4z M56.5,64.6c0,0.5-0.2,0.8-0.7,1c-0.2,0-0.3,0.1-0.4,0.1c-0.3,0-0.6-0.1-0.7-0.3
		l-8.6-8.6v-2.9l8.6-8.6c0.2-0.2,0.4-0.3,0.7-0.3c0.1,0,0.2,0,0.4,0.1c0.4,0.2,0.7,0.5,0.7,1L56.5,64.6L56.5,64.6z"/>
</g>
</svg>
