<?xml version="1.0" encoding="utf-8"?>
<!-- Generator: Adobe Illustrator 19.2.1, SVG Export Plug-In . SVG Version: 6.00 Build 0)  -->
<!DOCTYPE svg PUBLIC "-//W3C//DTD SVG 1.1//EN" "http://www.w3.org/Graphics/SVG/1.1/DTD/svg11.dtd">
<svg version="1.1" id="icons" xmlns="http://www.w3.org/2000/svg" xmlns:xlink="http://www.w3.org/1999/xlink" x="0px" y="0px"
	 viewBox="0 0 79.5 90" enable-background="new 0 0 79.5 90" xml:space="preserve">
<g>
	<path d="M67.6,28.1L51.2,11.7c-0.4-0.4-0.9-0.8-1.5-1.1v19h19C68.3,29,67.9,28.5,67.6,28.1z"/>
	<path d="M48.4,34.7c-1.1,0-2-0.4-2.7-1.1s-1.1-1.7-1.1-2.7V9H12.4c-1.1,0-2,0.4-2.7,1.1c-0.8,0.8-1.1,1.7-1.1,2.7v64.3
		c0,1.1,0.4,2,1.1,2.7c0.8,0.8,1.7,1.1,2.7,1.1h54c1.1,0,2-0.4,2.7-1.1c0.8-0.8,1.1-1.7,1.1-2.7V34.7H48.4z M54.8,64.3
		c0,0.4-0.1,0.7-0.4,0.9c-0.2,0.2-0.5,0.4-0.9,0.4H25.3c-0.4,0-0.7-0.1-0.9-0.4C24.1,65,24,64.7,24,64.3v-2.6c0-0.4,0.1-0.7,0.4-0.9
		c0.2-0.2,0.5-0.4,0.9-0.4h28.3c0.4,0,0.7,0.1,0.9,0.4c0.2,0.2,0.4,0.5,0.4,0.9L54.8,64.3L54.8,64.3z M54.8,54
		c0,0.4-0.1,0.7-0.4,0.9c-0.2,0.2-0.5,0.4-0.9,0.4H25.3c-0.4,0-0.7-0.1-0.9-0.4C24.1,54.7,24,54.4,24,54v-2.6c0-0.4,0.1-0.7,0.4-0.9
		c0.2-0.2,0.5-0.4,0.9-0.4h28.3c0.4,0,0.7,0.1,0.9,0.4c0.2,0.2,0.4,0.5,0.4,0.9L54.8,54L54.8,54z M54.8,43.7c0,0.4-0.1,0.7-0.4,0.9
		c-0.2,0.2-0.5,0.4-0.9,0.4H25.3c-0.4,0-0.7-0.1-0.9-0.4c-0.2-0.2-0.4-0.5-0.4-0.9v-2.6c0-0.4,0.1-0.7,0.4-0.9
		c0.2-0.2,0.5-0.4,0.9-0.4h28.3c0.4,0,0.7,0.1,0.9,0.4c0.2,0.2,0.4,0.5,0.4,0.9L54.8,43.7L54.8,43.7z"/>
</g>
</svg>
