<?xml version="1.0" encoding="utf-8"?>
<!-- Generator: Adobe Illustrator 20.1.0, SVG Export Plug-In . SVG Version: 6.00 Build 0)  -->
<svg version="1.1" id="icons" xmlns="http://www.w3.org/2000/svg" xmlns:xlink="http://www.w3.org/1999/xlink" x="0px" y="0px"
	 viewBox="0 0 61.1 90" style="enable-background:new 0 0 61.1 90;" xml:space="preserve">
<g>
	<path d="M32.4,44.3L32.4,44.3c-0.8-0.2-1.3-0.9-1.1-1.7l1-4.5c0.2-0.8,0.9-1.3,1.7-1.1l0,0c0.8,0.2,1.3,0.9,1.1,1.7l-1,4.5
		C33.9,44,33.1,44.5,32.4,44.3z"/>
	<path d="M1.1,79.3l45.3,9.8l-14.2-44L1.1,79.3z M27.1,78.5L23,77.6l0.9-4.1l4.1,0.9L27.1,78.5z M28.9,70.2l-4.1-0.9l1.8-8.2
		l4.1,0.9L28.9,70.2z"/>
	<path d="M29.5,48l0.9-4.3c0.1-0.5,0.7-0.9,1.2-0.8l1.9,0.4c0.5,0.1,0.9,0.7,0.8,1.2l-0.9,4.3l0.7,2.2l1.3-6.2
		c0.3-1.2-0.5-2.3-1.7-2.6l-1.9-0.4c-1.2-0.3-2.3,0.5-2.6,1.7L28,49.7L29.5,48z"/>
	<g>
		<polygon points="26.1,1.2 12.9,24.8 14.6,26.2 28.6,1.2 		"/>
		<polygon points="36.3,40.8 32.9,1.2 30.4,1.2 30.5,3.2 16.7,28 28.1,37.7 32.8,29.3 33.2,34.1 30.2,39.5 32.2,41.2 33.6,38.7 
			33.8,41.5 		"/>
	</g>
	<polygon points="35.6,1.2 39,40 53.4,35.9 50.4,1.2 	"/>
	<polygon points="53.1,1.2 56,35.1 58.1,34.5 55.3,1.2 	"/>
</g>
</svg>
