<?xml version="1.0" encoding="utf-8"?>
<!-- Generator: Adobe Illustrator 19.1.0, SVG Export Plug-In . SVG Version: 6.00 Build 0)  -->
<!DOCTYPE svg PUBLIC "-//W3C//DTD SVG 1.1//EN" "http://www.w3.org/Graphics/SVG/1.1/DTD/svg11.dtd">
<svg version="1.1" id="icons" xmlns="http://www.w3.org/2000/svg" xmlns:xlink="http://www.w3.org/1999/xlink" x="0px" y="0px"
	 viewBox="0 0 90 90" enable-background="new 0 0 90 90" xml:space="preserve">
<path d="M66.5,50.3c0,1.4-0.5,2.5-1.4,3.4L46.3,72.6c-1,0.9-2.2,1.4-3.5,1.4c-1.4,0-2.5-0.5-3.4-1.4L12,45.2c-1-0.9-1.8-2.2-2.5-3.9
	c-0.7-1.6-1-3.1-1-4.5V20.9c0-1.3,0.5-2.5,1.5-3.4c1-1,2.1-1.5,3.4-1.5h15.9c1.4,0,2.8,0.3,4.5,1c1.6,0.7,2.9,1.5,3.9,2.5l27.4,27.3
	C66,47.8,66.5,49,66.5,50.3z M24.2,31.7c1-1,1.4-2.1,1.4-3.5c0-1.4-0.5-2.5-1.4-3.5c-1-1-2.1-1.4-3.5-1.4c-1.4,0-2.5,0.5-3.5,1.4
	c-1,1-1.4,2.1-1.4,3.5c0,1.4,0.5,2.5,1.4,3.5c1,1,2.1,1.4,3.5,1.4C22.1,33.2,23.3,32.7,24.2,31.7z M81.2,50.3c0,1.4-0.5,2.5-1.4,3.4
	L61,72.6c-1,0.9-2.2,1.4-3.5,1.4c-0.9,0-1.7-0.2-2.3-0.5c-0.6-0.4-1.3-0.9-2-1.7l18-18c0.9-0.9,1.4-2.1,1.4-3.4
	c0-1.3-0.5-2.5-1.4-3.5L43.8,19.5c-1-1-2.3-1.8-3.9-2.5c-1.6-0.7-3.1-1-4.5-1H44c1.4,0,2.8,0.3,4.5,1c1.6,0.7,2.9,1.5,3.9,2.5
	l27.4,27.3C80.7,47.8,81.2,49,81.2,50.3z"/>
</svg>
