<?xml version="1.0" encoding="utf-8"?>
<!-- Generator: Adobe Illustrator 18.1.0, SVG Export Plug-In . SVG Version: 6.00 Build 0)  -->
<!DOCTYPE svg PUBLIC "-//W3C//DTD SVG 1.1//EN" "http://www.w3.org/Graphics/SVG/1.1/DTD/svg11.dtd">
<svg version="1.1" id="icons" xmlns="http://www.w3.org/2000/svg" xmlns:xlink="http://www.w3.org/1999/xlink" x="0px" y="0px"
	 viewBox="0 0 90 90" enable-background="new 0 0 90 90" xml:space="preserve">
<path d="M80.8,23v43.6c0,1.1-0.5,1.9-1.6,2.4c-0.4,0.1-0.7,0.2-1,0.2c-0.7,0-1.3-0.3-1.8-0.8L60.3,52.3v6.6c0,3.2-1.1,5.9-3.4,8.2
	c-2.3,2.3-5,3.4-8.2,3.4H20.6c-3.2,0-5.9-1.1-8.2-3.4c-2.3-2.3-3.4-5-3.4-8.2V30.7c0-3.2,1.1-5.9,3.4-8.2c2.3-2.3,5-3.4,8.2-3.4
	h28.2c3.2,0,5.9,1.1,8.2,3.4c2.3,2.3,3.4,5,3.4,8.2v6.6l16.1-16.1c0.5-0.5,1.1-0.8,1.8-0.8c0.3,0,0.7,0.1,1,0.2
	C80.3,21.1,80.8,21.9,80.8,23z"/>
</svg>
