<?xml version="1.0" encoding="utf-8"?>
<!-- Generator: Adobe Illustrator 18.1.1, SVG Export Plug-In . SVG Version: 6.00 Build 0)  -->
<!DOCTYPE svg PUBLIC "-//W3C//DTD SVG 1.1//EN" "http://www.w3.org/Graphics/SVG/1.1/DTD/svg11.dtd">
<svg version="1.1" id="icons" xmlns="http://www.w3.org/2000/svg" xmlns:xlink="http://www.w3.org/1999/xlink" x="0px" y="0px"
	 viewBox="0 0 90 90" enable-background="new 0 0 90 90" xml:space="preserve">
<path d="M26.9,14c-5.5,3.2-9.9,7.6-13.1,13.1C10.6,32.6,9,38.6,9,45.1c0,6.5,1.6,12.6,4.8,18.1c3.2,5.5,7.6,9.9,13.1,13.1
	s11.5,4.8,18.1,4.8c6.5,0,12.5-1.6,18.1-4.8s9.9-7.6,13.1-13.1c3.2-5.5,4.8-11.5,4.8-18.1c0-6.5-1.6-12.5-4.8-18.1
	c-3.2-5.5-7.6-9.9-13.1-13.1C57.5,10.8,51.5,9.2,45,9.2C38.5,9.2,32.5,10.8,26.9,14z M69.1,45.1l-4.3,4.3L48,32.6v36.6h-6V32.6
	L25.2,49.4l-4.3-4.3L45,21.1L69.1,45.1z"/>
</svg>
