<?xml version="1.0" encoding="utf-8"?>
<!-- Generator: Adobe Illustrator 18.1.0, SVG Export Plug-In . SVG Version: 6.00 Build 0)  -->
<!DOCTYPE svg PUBLIC "-//W3C//DTD SVG 1.1//EN" "http://www.w3.org/Graphics/SVG/1.1/DTD/svg11.dtd">
<svg version="1.1" xmlns="http://www.w3.org/2000/svg" xmlns:xlink="http://www.w3.org/1999/xlink" x="0px" y="0px"
	 viewBox="0 0 99 90" enable-background="new 0 0 99 90" xml:space="preserve">
<g id="icons">
	<g>
		<path d="M85.7,59.4H13.3c-1.2,0-2.2,0.4-3.1,1.3C9.4,61.5,9,62.6,9,63.8v8.7c0,1.2,0.4,2.2,1.3,3.1s1.9,1.3,3.1,1.3h72.3
			c1.2,0,2.2-0.4,3.1-1.3s1.3-1.9,1.3-3.1v-8.7c0-1.2-0.4-2.2-1.3-3.1C87.9,59.9,86.8,59.4,85.7,59.4z"/>
		<path d="M88.7,14.4c-0.8-0.8-1.9-1.3-3.1-1.3H13.3c-1.2,0-2.2,0.4-3.1,1.3C9.4,15.3,9,16.3,9,17.5v8.7c0,1.2,0.4,2.2,1.3,3.1
			c0.8,0.8,1.9,1.3,3.1,1.3h72.3c1.2,0,2.2-0.4,3.1-1.3c0.8-0.8,1.3-1.9,1.3-3.1v-8.7C90,16.3,89.6,15.3,88.7,14.4z"/>
		<path d="M85.7,36.3H13.3c-1.2,0-2.2,0.4-3.1,1.3S9,39.4,9,40.6v8.7c0,1.2,0.4,2.2,1.3,3.1c0.8,0.8,1.9,1.3,3.1,1.3h72.3
			c1.2,0,2.2-0.4,3.1-1.3c0.8-0.8,1.3-1.9,1.3-3.1v-8.7c0-1.2-0.4-2.2-1.3-3.1S86.8,36.3,85.7,36.3z"/>
	</g>
</g>
<g id="Painter_Palette">
</g>
</svg>
