<?xml version="1.0" encoding="utf-8"?>
<!-- Generator: Adobe Illustrator 19.2.1, SVG Export Plug-In . SVG Version: 6.00 Build 0)  -->
<!DOCTYPE svg PUBLIC "-//W3C//DTD SVG 1.1//EN" "http://www.w3.org/Graphics/SVG/1.1/DTD/svg11.dtd">
<svg version="1.1" id="icons" xmlns="http://www.w3.org/2000/svg" xmlns:xlink="http://www.w3.org/1999/xlink" x="0px" y="0px"
	 viewBox="0 0 90 90" enable-background="new 0 0 90 90" xml:space="preserve">
<path d="M25.3,35.4c-2.3,3.3-3.6,6.6-4.1,9.9h-8.1c0.8-5.6,2.9-10.8,6.6-15.6L25.3,35.4z M21.2,53.2c0.6,3.6,1.9,6.9,3.9,9.9
	l-5.6,5.6c-3.5-4.6-5.6-9.8-6.4-15.6H21.2z M25.1,74.6l5.8-5.8c2.9,2.1,6.2,3.5,9.9,4.1V81C34.9,80.3,29.6,78.1,25.1,74.6z
	 M48.8,17.6c7.9,1,14.5,4.5,20,10.5s8.2,13.1,8.2,21.2s-2.7,15.2-8.2,21.2S56.6,80,48.8,81v-8.1c5.8-1,10.5-3.7,14.4-8.2
	s5.7-9.6,5.7-15.5s-1.9-11-5.7-15.5s-8.6-7.2-14.4-8.2v15.6L30.5,23.4L48.8,5.2V17.6z"/>
</svg>
