<?xml version="1.0" encoding="utf-8"?>
<!-- Generator: Adobe Illustrator 19.1.1, SVG Export Plug-In . SVG Version: 6.00 Build 0)  -->
<!DOCTYPE svg PUBLIC "-//W3C//DTD SVG 1.1//EN" "http://www.w3.org/Graphics/SVG/1.1/DTD/svg11.dtd">
<svg version="1.1" id="icons" xmlns="http://www.w3.org/2000/svg" xmlns:xlink="http://www.w3.org/1999/xlink" x="0px" y="0px"
	 viewBox="0 0 95.7 90" enable-background="new 0 0 95.7 90" xml:space="preserve">
<path d="M47.9,18.6c-17.6,0-32.6,10.9-38.7,26.4c6.1,15.4,21.1,26.4,38.7,26.4s32.6-10.9,38.7-26.4C80.5,29.5,65.5,18.6,47.9,18.6z
	 M47.9,62.5c-9.7,0-17.6-7.9-17.6-17.6s7.9-17.6,17.6-17.6s17.6,7.9,17.6,17.6S57.6,62.5,47.9,62.5z M47.9,34.4
	c-5.8,0-10.5,4.7-10.5,10.5s4.7,10.5,10.5,10.5s10.5-4.7,10.5-10.5S53.7,34.4,47.9,34.4z"/>
</svg>
