<?xml version="1.0" encoding="utf-8"?>
<!-- Generator: Adobe Illustrator 19.2.1, SVG Export Plug-In . SVG Version: 6.00 Build 0)  -->
<!DOCTYPE svg PUBLIC "-//W3C//DTD SVG 1.1//EN" "http://www.w3.org/Graphics/SVG/1.1/DTD/svg11.dtd">
<svg version="1.1" id="icons" xmlns="http://www.w3.org/2000/svg" xmlns:xlink="http://www.w3.org/1999/xlink" x="0px" y="0px"
	 viewBox="0 0 90 90" enable-background="new 0 0 90 90" xml:space="preserve">
<g>
	<path d="M73.8,26.8c2,0,3.7,0.7,5.1,2.1C80.3,30.3,81,32,81,34v32.4c0,1.9-0.7,3.6-2.1,5c-1.4,1.4-3.1,2.2-5.1,2.2H16.2
		c-1.9,0-3.6-0.7-5-2.2C9.7,70,9,68.3,9,66.4V34c0-2,0.7-3.7,2.2-5.1c1.4-1.4,3.1-2.1,5-2.1h8.6c0.6,0,1.2-0.2,1.7-0.6
		c0.6-0.4,1-0.9,1.1-1.5l2.2-6.6c0.2-0.6,0.6-1.1,1.2-1.4c0.6-0.4,1.1-0.6,1.7-0.6h24.5c0.6,0,1.1,0.2,1.7,0.6
		c0.6,0.4,1,0.9,1.1,1.4l2.2,6.6c0.2,0.6,0.6,1.1,1.1,1.5c0.6,0.4,1.2,0.6,1.7,0.6H73.8z M45,66.4c2.5,0,4.8-0.5,7-1.4
		c2.2-1,4.1-2.3,5.7-3.9s2.9-3.5,3.9-5.7c1-2.2,1.4-4.5,1.4-7s-0.5-4.8-1.4-7c-1-2.2-2.3-4.1-3.9-5.7c-1.6-1.6-3.5-2.9-5.7-3.9
		c-2.2-1-4.5-1.4-7-1.4c-2.5,0-4.8,0.5-7,1.4c-2.2,1-4.1,2.3-5.7,3.9c-1.6,1.6-2.9,3.5-3.9,5.7s-1.4,4.5-1.4,7s0.5,4.8,1.4,7
		c1,2.2,2.3,4.1,3.9,5.7c1.6,1.6,3.5,2.9,5.7,3.9C40.1,65.9,42.5,66.4,45,66.4z M45,37.6c3.1,0,5.6,1,7.7,3.1
		c2.1,2.1,3.1,4.6,3.1,7.7c0,3-1,5.5-3.1,7.6c-2.1,2.1-4.6,3.2-7.7,3.2c-3,0-5.5-1.1-7.6-3.2c-2.1-2.1-3.2-4.7-3.2-7.6
		c0-3.1,1.1-5.6,3.2-7.7C39.4,38.6,42,37.6,45,37.6z M71.3,39.1c0.7,0,1.2-0.2,1.7-0.7c0.5-0.5,0.7-1.1,0.7-1.9
		c0-0.8-0.2-1.4-0.7-1.8C72.5,34.2,72,34,71.3,34c-0.8,0-1.4,0.2-1.9,0.6c-0.5,0.4-0.7,1-0.7,1.8c0,0.8,0.2,1.4,0.7,1.9
		C69.9,38.8,70.5,39.1,71.3,39.1z"/>
</g>
</svg>
