<?xml version="1.0" encoding="utf-8"?>
<!-- Generator: Adobe Illustrator 18.1.1, SVG Export Plug-In . SVG Version: 6.00 Build 0)  -->
<!DOCTYPE svg PUBLIC "-//W3C//DTD SVG 1.1//EN" "http://www.w3.org/Graphics/SVG/1.1/DTD/svg11.dtd">
<svg version="1.1" id="icons" xmlns="http://www.w3.org/2000/svg" xmlns:xlink="http://www.w3.org/1999/xlink" x="0px" y="0px"
	 viewBox="0 0 180 90" enable-background="new 0 0 180 90" xml:space="preserve">
<path d="M118.7,44.5c-2.2,3.2-4.9,6.5-8.2,10c0.5-3.6,1.3-6.9,2.3-10c0.9-2.5,1.9-4.9,3-7.3c0.6-1.4,1.8-3.5,3.3-6.5
	c1.6-2.9,3.7-5.8,6.3-8.8c2.6-3,4.4-4.5,5.4-4.5c0.4,0,0.6,0.3,0.6,1c0,1.6-1.1,4.7-3.3,9.4c-1.9,4.1-4,8-6.2,11.8L118.7,44.5z
	 M139.6,44.4c-1.1,1.9-2.4,3.7-4,5.3c-1.5,1.7-3.3,3.3-5.2,4.9c0.4-2.3,0.8-4.1,1.2-5.6c0.4-1.4,1-3,1.8-4.7l2.4-4.9
	c1.8-3,3.6-5.7,5.4-8.1c2.1-2.7,3.6-4,4.4-4c0.6,0,0.9,0.4,0.9,1.2c0,1-0.6,3-1.9,5.9c-1,2.3-2.2,4.6-3.4,6.9L139.6,44.4z
	 M171.4,44.5l2.1-4.3c0.2-0.4,0-0.7-0.6-0.8c-0.6-0.2-1.5-0.3-2.6-0.3c-0.7,0-1.5,0-2.1,0.1c-0.6,0.1-1.1,0.3-1.3,0.6l-2.3,4.7
	c-1,1.9-2,3.8-3.1,5.7c-1.1,1.9-2.3,3.8-3.6,5.8c-1.8,2.7-3.3,4.6-4.5,5.6S151,63,149.7,63c-0.9,0-1.3-0.5-1.3-1.5
	c0-1.2,0.6-3.1,1.7-5.5c0.7-1.6,1.7-3.5,3-5.9c1.1-2,2.1-3.9,3.1-5.6c0.8-1.4,1.5-2.6,2.1-3.7c0.3-0.6,0.5-1,0.6-1.1
	c0.2-0.5,0-0.8-0.6-1c-0.6-0.2-1.4-0.3-2.4-0.3c-0.6,0-1.3,0.1-2.1,0.2c-0.7,0.2-1.2,0.3-1.3,0.5l-3.3,5.4c-1.1,1.7-2,3.3-2.9,4.8
	c-1.1,1.9-2.1,3.8-3,5.6l-0.5,1c-1.5,2.8-2.9,4.8-4.3,6s-2.7,1.8-4,1.8c-1.5,0-2.5-0.3-3-1c-0.6-0.7-0.8-1.6-0.8-2.6
	c0-0.4,0-0.7,0.1-1c1.6-1,3.1-2.1,4.4-3.3c1.6-1.4,3.3-3.3,5.1-5.6c1.4-1.8,2.8-3.8,4.1-5.9c1.9-3.1,3.5-6.3,4.8-9.6
	c1.3-3.3,2-6.1,2-8.4c0-1.5-0.3-2.6-0.8-3.4c-0.6-0.7-1.5-1.1-2.9-1.1c-2,0-5,2-8.9,6s-7.1,8.4-9.6,13.2l-1.7,3.3
	c-1.8,3.8-3.1,7.7-3.6,11.5l-0.6,5c-0.9,1-2,1.9-3.4,2.7c-1.7,1.1-3.1,1.6-4.1,1.6c-1.6,0-2.9-0.5-3.7-1.7c-0.9-1.1-1.3-2.3-1.3-3.7
	l4.3-4c2-2,3.7-3.9,5.2-5.7c1.5-1.8,2.9-3.7,4.3-5.8c0.9-1.3,1.6-2.4,2.1-3.3c0.6-0.9,1.2-1.8,1.7-2.9c2.1-3.5,3.8-6.9,5.1-10
	c1.8-4.3,2.7-7.8,2.7-10.6c0-1.6-0.3-2.9-1-3.8c-0.7-0.9-1.8-1.3-3.3-1.3c-3.2,0-7.2,2.7-11.9,8.1c-4.3,4.9-7.9,10.6-11,17.1
	c-0.5,1.2-1,2.3-1.5,3.5c-0.5,1.1-0.9,2.2-1.3,3.3c-0.8,2.3-1.4,4.3-1.9,6c-0.4,1.8-0.6,3.6-0.6,5.5c-0.1,0.9-0.2,1.7-0.2,2.4
	c0,0.7,0,1.5,0,2.3c-0.4,0.5-1.5,1.4-3.2,2.6c-1.7,1.2-3,1.8-3.8,1.8c-0.7,0-1.4-0.1-1.8-0.4c-0.5-0.2-0.7-0.6-0.7-1.2
	c0-0.2,0.1-0.5,0.2-0.9c0.4-1.4,0.8-2.6,1.2-3.5c0.2-0.6,0.7-1.8,1.5-3.5l3.2-7.4c0.1-0.4-0.2-0.7-0.9-0.8c-0.7-0.2-1.6-0.3-2.6-0.3
	c-1.7,0-2.7,0.2-3,0.6c-0.5,0.9-1.2,2.2-2,3.7c-0.9,1.5-1.7,3-2.5,4.3c-1.7,2.7-3.2,4.8-4.6,6.4c-1.8,2-3.3,3-4.4,3
	c-1,0-1.6-0.3-1.8-1c-0.2-0.6-0.4-1.4-0.4-2.2c0-1.9,0.5-4,1.4-6.3c1-2.2,2.2-4.3,3.7-6.3c1.5-2,3.2-3.7,4.9-5
	c2-1.6,3.6-2.3,4.9-2.3c0.3,0,0.5,0,0.7,0.1c0.2,0.1,0.3,0.3,0.4,0.9c0.1,0.5,0.3,0.9,0.6,1.2c0.3,0.3,0.7,0.5,1.2,0.7
	c0.5,0.1,1.2,0.2,2.1,0.2c0.7-0.1,1.3-0.3,1.8-0.8c1-0.9,1.4-1.8,1.3-2.8c0-2.7-1.7-4-5-4c-2.7,0-5.4,0.6-7.9,1.8
	c-2.6,1.2-5,2.9-7.3,5c-1.9,1.7-3.5,3.5-4.9,5.4s-2.5,3.9-3.5,6c-1.1,2.6-1.6,4.8-1.6,6.5c0,1.9,0.3,3.6,1,5
	c0.9,2.2,2.6,3.3,5.2,3.3c1.4,0,2.8-0.3,3.9-0.7c1.2-0.5,2.4-1.4,3.7-2.5l1.4-1.4l0.7,1.4c0.7,1.3,1.7,2.3,2.7,3.1
	c1.1,0.7,2.3,1.1,3.8,1.1c3.1,0,6.3-1.4,9.5-4.2l1.5-1.4l0.8,1.4c0.8,1.3,1.8,2.3,2.8,3c1.1,0.7,2.3,1.1,3.8,1.1
	c1.4,0,3.1-0.4,4.9-1.2c1.8-0.8,3.5-1.7,5-2.9c0.4-0.3,0.9-0.6,1.3-1.1s0.8-0.8,1.1-1.2c0.5,0.9,1,1.7,1.5,2.3
	c1.5,1.9,3.4,2.8,5.6,2.8c1.1,0,2.3-0.3,3.5-0.8c1.2-0.5,2.4-1.2,3.6-2.1c1.4-1.1,2.6-2.2,3.5-3.3c0.4,1.4,1,2.5,1.6,3.3
	c0.9,1,2,1.5,3.6,1.5c1.5,0,3.2-0.5,5.1-1.5c1.4-0.7,2.6-1.6,3.6-2.6l-1.5,2.6l-8.7,16.4c-0.6,1.1-0.9,2.1-0.9,2.9
	c0,1,0.5,1.9,1.6,2.5c0.4,0.2,0.7,0.3,1.1,0.3c0.9,0,1.7-0.5,2.5-1.3c0.6-0.7,1.4-1.9,2.3-3.6l8.2-17.2l5.6-11.6L171.4,44.5z"/>
<path d="M67.5,49.3c-1.6-1.7-3.6-3.3-6.2-4.8v-0.6c6.3-2.1,12.6-4.2,19-6.3c5.8-3.2,8.8-7.9,8.8-13.9c0-4.9-1.9-8.6-5.6-11
	C79.8,10.2,74.6,9,67.9,9c-9.8,0-19.8,3.2-30.1,9.7c-10.9,6.9-18.9,15.5-24,25.9c-0.9,1.8-1.7,3.7-2.4,5.6c-0.7,1.9-1.2,3.9-1.7,5.8
	l-0.6,3.2c0,0.9,0,1.5,0,2c0,2.2,0.5,4.3,1.4,6.3c1.2,2.7,3.1,5,5.6,6.6s5.2,2.5,8.2,2.5c2,0,4.1-0.4,6-1.3c2-0.8,3.9-2.2,5.8-3.9
	c1.2-1.1,2.4-2.4,3.4-3.9c1.6-2.2,3.1-4.5,4.4-7c0.3-0.7,1-2.2,2.2-4.6l3.5-7.7l1.8-3.7c4-8.9,7.2-14.9,9.5-17.8
	c1.3-1.7,2.8-3,4.3-3.9c2.2-1.4,3.3-2.2,3.3-2.6c-0.1-0.5-0.6-0.8-1.5-0.8c-1,0-2.2,0.2-3.6,0.7c-1.4,0.5-2.7,1.1-4.1,1.8
	c-2.5,1.4-5.2,4.4-8.2,9c-1.2,1.9-3.3,5.4-6,10.6l-1.4,3l-5,11.6c-2.1,4.8-4.3,8.7-6.5,11.6c-1.4,1.7-2.7,3.1-4.2,3.9
	c-1.4,0.9-3,1.3-4.6,1.3c-3.4,0-5.6-1.8-6.7-5.2c-0.4-1.6-0.6-3.4-0.6-5.5c0-1.8,0.3-3.8,0.9-6c1-3.5,2.7-7.2,5.1-11.3
	s5.3-8.1,8.6-12c3.3-3.9,6.8-7.3,10.4-10.2c4.5-3.6,8.8-6.3,13-7.9s8.5-2.5,12.8-2.5c9.1,0,13.7,3.2,13.7,9.6
	c0,4.7-2.1,8.5-6.2,11.5c-1.4,1-5.2,2.9-11.5,5.6c-4.1,1.8-6.2,3.7-6.2,5.6c1.5,2,3,4,4.5,5.9c1.3,1.8,2,3.5,2,5.1v0.5
	c0,2.8-1.2,5.2-3.4,7.2c-2.3,2-5.1,3.4-8.4,4c0.4-0.6,0.6-1.5,0.6-2.7c-0.1-1-0.4-1.9-0.9-2.5c-0.5-0.7-1.2-1.1-2.2-1.2
	c-1.1-0.2-2.1,0.2-2.9,1.1c-0.8,0.9-1.2,1.9-1.2,3.1c0,0.9,0.2,1.8,0.7,2.7c0.5,0.9,1.3,1.6,2.6,2.2c1.2,0.6,3,0.9,5.4,0.9
	c1.3,0,2.8-0.3,4.6-0.8c1.8-0.6,3.5-1.4,5.1-2.4c2.1-1.3,3.7-2.7,4.9-4.3c1.4-1.9,2-3.9,2-5.9v-1.3C69.9,53.2,69.1,51,67.5,49.3z"/>
</svg>
