<?xml version="1.0" encoding="utf-8"?>
<!-- Generator: Adobe Illustrator 18.1.0, SVG Export Plug-In . SVG Version: 6.00 Build 0)  -->
<!DOCTYPE svg PUBLIC "-//W3C//DTD SVG 1.1//EN" "http://www.w3.org/Graphics/SVG/1.1/DTD/svg11.dtd">
<svg version="1.1" xmlns="http://www.w3.org/2000/svg" xmlns:xlink="http://www.w3.org/1999/xlink" x="0px" y="0px"
	 viewBox="0 0 90.9 90" enable-background="new 0 0 90.9 90" xml:space="preserve">
<g id="icons">
	<g>
		<path d="M81.8,17.8v6c0,0.8-0.3,1.5-0.9,2.1s-1.3,0.9-2.1,0.9H12.2c-0.8,0-1.5-0.3-2.1-0.9c-0.6-0.6-0.9-1.3-0.9-2.1v-6
			c0-0.8,0.3-1.5,0.9-2.1c0.6-0.6,1.3-0.9,2.1-0.9h66.6c0.8,0,1.5,0.3,2.1,0.9S81.8,16.9,81.8,17.8z M81.8,42v6
			c0,0.8-0.3,1.5-0.9,2.1S79.6,51,78.7,51H12.2c-0.8,0-1.5-0.3-2.1-0.9c-0.6-0.6-0.9-1.3-0.9-2.1v-6c0-0.8,0.3-1.5,0.9-2.1
			c0.6-0.6,1.3-0.9,2.1-0.9h66.6c0.8,0,1.5,0.3,2.1,0.9C81.5,40.4,81.8,41.1,81.8,42z M81.8,66.2v6.1c0,0.8-0.3,1.5-0.9,2.1
			c-0.6,0.6-1.3,0.9-2.1,0.9H12.2c-0.8,0-1.5-0.3-2.1-0.9c-0.6-0.6-0.9-1.3-0.9-2.1v-6.1c0-0.8,0.3-1.5,0.9-2.1
			c0.6-0.6,1.3-0.9,2.1-0.9h66.6c0.8,0,1.5,0.3,2.1,0.9C81.5,64.6,81.8,65.3,81.8,66.2z"/>
	</g>
</g>
<g id="Painter_Palette">
</g>
</svg>
