<?xml version="1.0" encoding="utf-8"?>
<!-- Generator: Adobe Illustrator 19.1.0, SVG Export Plug-In . SVG Version: 6.00 Build 0)  -->
<!DOCTYPE svg PUBLIC "-//W3C//DTD SVG 1.1//EN" "http://www.w3.org/Graphics/SVG/1.1/DTD/svg11.dtd">
<svg version="1.1" id="icons" xmlns="http://www.w3.org/2000/svg" xmlns:xlink="http://www.w3.org/1999/xlink" x="0px" y="0px"
	 viewBox="0 0 90 90" enable-background="new 0 0 90 90" xml:space="preserve">
<g>
	<path d="M21,53.4C21,35,35.9,20.1,54.2,20.1c9.3,0,17.7,3.8,23.7,10c-5.7-12.4-18.2-21-32.7-21C25.2,9.1,9.1,25.2,9.1,45.1
		c0,15.7,10.1,29.1,24.1,34C25.7,73,21,63.7,21,53.4z"/>
	<path d="M33,63.7c0-13.9,11.3-25.1,25.1-25.1c9.8,0,18.2,5.6,22.4,13.7c0.2-1,0.4-2,0.5-3c-2-13-13.2-23-26.8-23
		c-14.9,0-27.1,12.2-27.1,27.1c0,7.1,2.8,13.6,7.3,18.5C33.5,69.3,33,66.5,33,63.7z"/>
	<path d="M76.7,61.5c0,10.4-8.5,18.9-18.9,18.9c-10.4,0-18.9-8.5-18.9-18.9c0-10.4,8.5-18.9,18.9-18.9
		C68.3,42.6,76.7,51.1,76.7,61.5z"/>
</g>
</svg>
