<?xml version="1.0" encoding="utf-8"?>
<!-- Generator: Adobe Illustrator 19.1.0, SVG Export Plug-In . SVG Version: 6.00 Build 0)  -->
<!DOCTYPE svg PUBLIC "-//W3C//DTD SVG 1.1//EN" "http://www.w3.org/Graphics/SVG/1.1/DTD/svg11.dtd">
<svg version="1.1" id="icons" xmlns="http://www.w3.org/2000/svg" xmlns:xlink="http://www.w3.org/1999/xlink" x="0px" y="0px"
	 viewBox="0 0 79.5 90" enable-background="new 0 0 79.5 90" xml:space="preserve">
<g>
	<path d="M67.6,28L51.3,11.7c-0.4-0.4-0.9-0.7-1.4-1.1v18.8h18.8C68.4,28.9,68,28.4,67.6,28z"/>
	<path d="M48.6,34.6c-1.1,0-2-0.4-2.7-1.1c-0.7-0.7-1.1-1.7-1.1-2.7V9H12.9c-1.1,0-2,0.4-2.7,1.1C9.4,10.9,9,11.8,9,12.9v63.9
		c0,1.1,0.4,2,1.1,2.7s1.7,1.1,2.7,1.1h53.7c1.1,0,2-0.4,2.7-1.1s1.1-1.7,1.1-2.7V34.6H48.6z M32.2,62.2c0.2,0.3,0.3,0.6,0.3,1
		c0,0.3-0.2,0.6-0.5,0.8l-2,1.5c-0.3,0.2-0.6,0.3-1,0.3c-0.3,0-0.6-0.2-0.8-0.5l-9-12c-0.4-0.5-0.4-1,0-1.5l9-12
		c0.2-0.3,0.5-0.5,0.8-0.5c0.3,0,0.7,0,1,0.3l2,1.5c0.3,0.2,0.5,0.5,0.5,0.8c0,0.3,0,0.7-0.3,1L25,52.5L32.2,62.2z M39.3,69.5
		c0,0.3-0.2,0.6-0.5,0.8c-0.3,0.2-0.6,0.3-0.9,0.2l-2.5-0.4c-0.3,0-0.6-0.2-0.8-0.5c-0.2-0.3-0.3-0.6-0.2-1l5.5-33.1
		c0-0.3,0.2-0.6,0.5-0.8c0.3-0.2,0.6-0.3,0.9-0.2l2.5,0.4c0.3,0,0.6,0.2,0.8,0.5c0.2,0.3,0.3,0.6,0.2,1L39.3,69.5z M60,53.3l-9,12
		c-0.2,0.3-0.5,0.5-0.8,0.5c-0.3,0-0.7,0-1-0.3l-2-1.5c-0.3-0.2-0.5-0.5-0.5-0.8c0-0.3,0-0.7,0.3-1l7.2-9.7L47,42.8
		c-0.2-0.3-0.3-0.6-0.3-1c0-0.3,0.2-0.6,0.5-0.8l2-1.5c0.3-0.2,0.6-0.3,1-0.3c0.3,0,0.6,0.2,0.8,0.5l9,12
		C60.4,52.3,60.4,52.8,60,53.3z"/>
</g>
</svg>
