<?xml version="1.0" encoding="utf-8"?>
<!-- Generator: Adobe Illustrator 19.2.1, SVG Export Plug-In . SVG Version: 6.00 Build 0)  -->
<!DOCTYPE svg PUBLIC "-//W3C//DTD SVG 1.1//EN" "http://www.w3.org/Graphics/SVG/1.1/DTD/svg11.dtd">
<svg version="1.1" id="icons" xmlns="http://www.w3.org/2000/svg" xmlns:xlink="http://www.w3.org/1999/xlink" x="0px" y="0px"
	 viewBox="0 0 90 90" enable-background="new 0 0 90 90" xml:space="preserve">
<path d="M45.2,26.7c0-1.6-1.3-3-3-3H26.8l2-9.5l0.1-0.7c0-0.9-0.4-1.8-1-2.4l-2.4-2.4L10.7,23.6c-0.8,0.8-1.3,1.9-1.3,3.2v19.4
	c0,2.5,2,4.5,4.5,4.5H34c1.9,0,3.4-1.1,4.1-2.7l6.8-15.8c0.2-0.5,0.3-1.1,0.3-1.6V26.7z M76.6,38.7H56.4c-1.9,0-3.4,1.1-4.1,2.7
	l-6.8,15.8c-0.2,0.5-0.3,1.1-0.3,1.6v3.7c0,1.6,1.3,3,3,3h15.5l-2,9.5l-0.1,0.7c0,0.9,0.4,1.8,1,2.4l2.4,2.3l14.8-14.8
	c0.8-0.8,1.3-1.9,1.3-3.2V43.2C81.1,40.7,79.1,38.7,76.6,38.7z"/>
</svg>
