<?xml version="1.0" encoding="utf-8"?>
<!-- Generator: Adobe Illustrator 18.1.1, SVG Export Plug-In . SVG Version: 6.00 Build 0)  -->
<!DOCTYPE svg PUBLIC "-//W3C//DTD SVG 1.1//EN" "http://www.w3.org/Graphics/SVG/1.1/DTD/svg11.dtd">
<svg version="1.1" id="icons" xmlns="http://www.w3.org/2000/svg" xmlns:xlink="http://www.w3.org/1999/xlink" x="0px" y="0px"
	 viewBox="0 0 90 90" enable-background="new 0 0 90 90" xml:space="preserve">
<g>
	<path d="M73.3,62c0,6.1-12.7,11.1-28.3,11.1s-28.3-5-28.3-11.1v-9.5c5.2,4.7,17,7.2,28.3,7.2s23.1-2.5,28.3-7.2V62z"/>
	<path d="M73.3,46.4c-0.6,4.5-12,9.3-28.3,9.3c-16.3,0-27.8-4.8-28.3-9.3V34.5c5.2,4.7,17,7.2,28.3,7.2s23.1-2.5,28.3-7.2V46.4z"/>
	<path d="M73.3,28.4c-0.6,4.5-12,9.3-28.3,9.3c-16.3,0-27.8-4.8-28.3-9.3V28c0-6.1,12.7-11.1,28.3-11.1s28.3,5,28.3,11.1V28.4z"/>
</g>
</svg>
