<?xml version="1.0" encoding="utf-8"?>
<!-- Generator: Adobe Illustrator 18.1.0, SVG Export Plug-In . SVG Version: 6.00 Build 0)  -->
<!DOCTYPE svg PUBLIC "-//W3C//DTD SVG 1.1//EN" "http://www.w3.org/Graphics/SVG/1.1/DTD/svg11.dtd">
<svg version="1.1" id="icons" xmlns="http://www.w3.org/2000/svg" xmlns:xlink="http://www.w3.org/1999/xlink" x="0px" y="0px"
	 viewBox="0 0 90 90" enable-background="new 0 0 90 90" xml:space="preserve">
<path d="M53.2,49.3L23.4,79.1c-1.1,1.1-2.4,1.6-3.9,1.6c-1.5,0-2.8-0.5-4-1.6l-4.6-4.7c-1.1-1-1.7-2.4-1.7-3.9c0-1.5,0.6-2.9,1.7-4
	l29.8-29.8c1.1,2.9,2.8,5.4,5,7.6C47.9,46.5,50.4,48.2,53.2,49.3z M24.3,69.6c0.6-0.6,0.8-1.2,0.8-2c0-0.8-0.3-1.4-0.8-2
	c-0.6-0.6-1.2-0.8-2-0.8c-0.8,0-1.4,0.3-2,0.8c-0.6,0.6-0.8,1.2-0.8,2c0,0.8,0.3,1.4,0.8,2c0.6,0.6,1.2,0.8,2,0.8
	C23,70.4,23.7,70.2,24.3,69.6z M81,30.3c0,1.1-0.3,2.7-1,4.6c-1.4,3.9-3.8,7.1-7.2,9.5c-3.4,2.4-7.2,3.7-11.3,3.7
	c-5.4,0-10-1.9-13.8-5.7c-3.8-3.8-5.7-8.4-5.7-13.8c0-5.4,1.9-10,5.7-13.8c3.8-3.8,8.4-5.7,13.8-5.7c1.7,0,3.5,0.2,5.3,0.7
	c1.9,0.5,3.4,1.2,4.7,2c0.5,0.3,0.7,0.7,0.7,1.2c0,0.5-0.2,0.9-0.7,1.2l-12.8,7.4v9.8l8.4,4.7c0.1-0.1,1.3-0.8,3.5-2.1
	c2.2-1.3,4.1-2.5,5.9-3.5c1.8-1,2.8-1.6,3.1-1.6c0.4,0,0.8,0.1,1,0.4C80.8,29.5,81,29.8,81,30.3z"/>
</svg>
