<?xml version="1.0" encoding="utf-8"?>
<!-- Generator: Adobe Illustrator 19.2.1, SVG Export Plug-In . SVG Version: 6.00 Build 0)  -->
<!DOCTYPE svg PUBLIC "-//W3C//DTD SVG 1.1//EN" "http://www.w3.org/Graphics/SVG/1.1/DTD/svg11.dtd">
<svg version="1.1" id="icons" xmlns="http://www.w3.org/2000/svg" xmlns:xlink="http://www.w3.org/1999/xlink" x="0px" y="0px"
	 viewBox="0 0 89.5 90" enable-background="new 0 0 89.5 90" xml:space="preserve">
<path d="M21.4,81.4l4.8-4.8h9.5v-9h9v-9.5l5.8-5.8c8.1,3.2,17.7,1.5,24.2-5.1c8.8-8.8,8.8-23.1,0-32c-8.8-8.8-23.1-8.8-32,0
	c-6.5,6.5-8.2,16.1-5.1,24.2l-29,29v12.7l0.1,0.1H21.4z M58,22.3c2.7-2.7,7-2.7,9.6,0c2.7,2.7,2.7,7,0,9.6c-2.7,2.7-7,2.7-9.6,0
	C55.3,29.3,55.3,25,58,22.3z"/>
</svg>
