<?xml version="1.0" encoding="utf-8"?>
<!-- Generator: Adobe Illustrator 19.2.1, SVG Export Plug-In . SVG Version: 6.00 Build 0)  -->
<!DOCTYPE svg PUBLIC "-//W3C//DTD SVG 1.1//EN" "http://www.w3.org/Graphics/SVG/1.1/DTD/svg11.dtd">
<svg version="1.1" id="icons" xmlns="http://www.w3.org/2000/svg" xmlns:xlink="http://www.w3.org/1999/xlink" x="0px" y="0px"
	 viewBox="0 0 106.7 90" enable-background="new 0 0 106.7 90" xml:space="preserve">
<path id="_x32_08x128_Solid" d="M91.4,72H15.6c-3.5,0-6.4-2.9-6.4-6.4V23.9c0-3.5,2.9-6.4,6.4-6.4h75.8c3.5,0,6.4,2.9,6.4,6.4v41.7
	C97.8,69.2,94.9,72,91.4,72z M30.5,59.3V42.6L39,53.3l8.5-10.6v16.6h8.5v-29h-8.5L39,40.9l-8.5-10.6H22v29L30.5,59.3L30.5,59.3z
	 M87.6,44.8H79V30.3h-8.5v14.5H62l12.8,14.9L87.6,44.8z"/>
</svg>
