<?xml version="1.0" encoding="utf-8"?>
<!-- Generator: Adobe Illustrator 18.1.0, SVG Export Plug-In . SVG Version: 6.00 Build 0)  -->
<!DOCTYPE svg PUBLIC "-//W3C//DTD SVG 1.1//EN" "http://www.w3.org/Graphics/SVG/1.1/DTD/svg11.dtd">
<svg version="1.1" id="icons" xmlns="http://www.w3.org/2000/svg" xmlns:xlink="http://www.w3.org/1999/xlink" x="0px" y="0px"
	 viewBox="0 0 65.6 90" enable-background="new 0 0 65.6 90" xml:space="preserve">
<path d="M56.8,24.1c0,1.6-0.4,3.1-1.2,4.5c-0.8,1.4-1.9,2.5-3.3,3.2c-0.1,8.9-3.6,15.4-10.5,19.3c-2.1,1.2-5.3,2.4-9.5,3.8
	c-4,1.2-6.6,2.3-7.9,3.3c-1.3,1-1.9,2.5-1.9,4.7v1.2c1.4,0.8,2.5,1.9,3.3,3.2c0.8,1.4,1.2,2.9,1.2,4.5c0,2.5-0.9,4.6-2.6,6.4
	c-1.7,1.7-3.9,2.6-6.3,2.6c-2.5,0-4.6-0.9-6.4-2.6C9.9,76.5,9,74.4,9,71.9c0-1.6,0.4-3.1,1.2-4.5c0.8-1.4,1.9-2.5,3.3-3.2V25.9
	c-1.4-0.8-2.5-1.9-3.3-3.2C9.4,21.2,9,19.7,9,18.1c0-2.5,0.9-4.6,2.6-6.4s3.9-2.6,6.4-2.6c2.5,0,4.6,0.9,6.3,2.6s2.6,3.9,2.6,6.4
	c0,1.6-0.4,3.1-1.2,4.5c-0.8,1.4-1.9,2.5-3.3,3.2v23.2c1.7-0.8,4.1-1.7,7.2-2.7c1.7-0.5,3.1-1,4.1-1.4c1-0.4,2.1-0.9,3.3-1.4
	c1.2-0.6,2.1-1.2,2.8-1.8c0.7-0.7,1.3-1.4,1.9-2.4c0.6-0.9,1-2,1.3-3.2c0.3-1.2,0.4-2.7,0.4-4.3c-1.4-0.8-2.5-1.9-3.3-3.2
	c-0.8-1.4-1.2-2.9-1.2-4.5c0-2.5,0.9-4.6,2.6-6.3c1.7-1.7,3.9-2.6,6.3-2.6c2.5,0,4.6,0.9,6.4,2.6C56,19.5,56.8,21.6,56.8,24.1z
	 M21.2,21.3c0.9-0.9,1.3-1.9,1.3-3.2c0-1.2-0.4-2.3-1.3-3.2c-0.9-0.9-1.9-1.3-3.2-1.3c-1.2,0-2.3,0.4-3.2,1.3
	c-0.9,0.9-1.3,1.9-1.3,3.2c0,1.2,0.4,2.3,1.3,3.2c0.9,0.9,1.9,1.3,3.2,1.3C19.2,22.6,20.3,22.2,21.2,21.3z M21.2,75.1
	c0.9-0.9,1.3-1.9,1.3-3.2c0-1.2-0.4-2.3-1.3-3.2c-0.9-0.9-1.9-1.3-3.2-1.3c-1.2,0-2.3,0.4-3.2,1.3c-0.9,0.9-1.3,1.9-1.3,3.2
	c0,1.2,0.4,2.3,1.3,3.2c0.9,0.9,1.9,1.3,3.2,1.3C19.2,76.4,20.3,75.9,21.2,75.1z M51.1,27.3c0.9-0.9,1.3-1.9,1.3-3.2
	c0-1.2-0.4-2.3-1.3-3.2c-0.9-0.9-1.9-1.3-3.2-1.3c-1.2,0-2.3,0.4-3.2,1.3c-0.9,0.9-1.3,1.9-1.3,3.2c0,1.2,0.4,2.3,1.3,3.2
	c0.9,0.9,1.9,1.3,3.2,1.3C49.1,28.6,50.2,28.1,51.1,27.3z"/>
</svg>
