<?xml version="1.0" encoding="utf-8"?>
<!-- Generator: Adobe Illustrator 18.1.0, SVG Export Plug-In . SVG Version: 6.00 Build 0)  -->
<!DOCTYPE svg PUBLIC "-//W3C//DTD SVG 1.1//EN" "http://www.w3.org/Graphics/SVG/1.1/DTD/svg11.dtd">
<svg version="1.1" id="icons" xmlns="http://www.w3.org/2000/svg" xmlns:xlink="http://www.w3.org/1999/xlink" x="0px" y="0px"
	 viewBox="0 0 102.7 90" enable-background="new 0 0 102.7 90" xml:space="preserve">
<g>
	<path d="M94.4,48.5c0,7.1-1,12.8-3.1,17c-1.3,2.6-3.1,4.9-5.4,6.8c-2.3,1.9-4.7,3.4-7.2,4.4s-5.4,1.8-8.7,2.4
		c-3.3,0.6-6.2,1-8.8,1.1c-2.6,0.1-5.4,0.2-8.6,0.2c-2.7,0-5.1-0.1-7.3-0.2c-2.2-0.1-4.7-0.3-7.6-0.6c-2.9-0.3-5.5-0.8-7.8-1.5
		c-2.4-0.7-4.7-1.6-7-2.6c-2.3-1.1-4.4-2.5-6.2-4.2c-1.8-1.7-3.3-3.7-4.4-5.9c-2.1-4.2-3.2-9.9-3.2-17c0-8.1,2.3-14.9,7-20.4
		c-0.9-2.8-1.4-5.7-1.4-8.7c0-4,0.9-7.7,2.6-11.2c3.7,0,7,0.7,9.8,2c2.8,1.3,6,3.5,9.7,6.3c5-1.2,10.3-1.8,15.9-1.8
		c5.1,0,9.9,0.5,14.4,1.6c3.6-2.8,6.8-4.9,9.6-6.2c2.8-1.3,6-2,9.7-2c1.7,3.5,2.6,7.2,2.6,11.2c0,3-0.5,5.9-1.4,8.6
		C92.1,33.5,94.4,40.3,94.4,48.5z M82.9,57.5c0-4.1-1.2-7.6-3.5-10.5c-2.4-2.9-5.6-4.3-9.6-4.3c-1.4,0-4.7,0.4-10,1.1
		c-2.4,0.4-5.1,0.6-8.1,0.6c-2.9,0-5.6-0.2-8.1-0.6c-5.2-0.7-8.6-1.1-10-1.1c-4,0-7.2,1.4-9.6,4.3c-2.4,2.9-3.5,6.4-3.5,10.5
		c0,3,0.5,5.6,1.6,7.9c1.1,2.2,2.5,4,4.2,5.3c1.7,1.3,3.8,2.3,6.3,3.1c2.5,0.8,4.9,1.3,7.2,1.5c2.3,0.2,4.8,0.4,7.7,0.4H56
		c2.8,0,5.4-0.1,7.7-0.4c2.3-0.2,4.7-0.7,7.2-1.5c2.5-0.8,4.6-1.8,6.3-3.1c1.7-1.3,3.1-3.1,4.2-5.3C82.4,63.2,82.9,60.6,82.9,57.5z
		 M41.2,53.3c0.4,1.4,0.6,2.8,0.6,4.2s-0.2,2.8-0.6,4.2c-0.4,1.4-1.2,2.7-2.2,3.9c-1,1.2-2.3,1.7-3.7,1.7s-2.7-0.6-3.7-1.7
		c-1-1.2-1.8-2.5-2.2-3.9c-0.4-1.4-0.6-2.8-0.6-4.2s0.2-2.8,0.6-4.2c0.4-1.4,1.2-2.7,2.2-3.9c1-1.2,2.3-1.7,3.7-1.7s2.7,0.6,3.7,1.7
		C40,50.6,40.7,51.9,41.2,53.3z M74,53.3c0.4,1.4,0.6,2.8,0.6,4.2s-0.2,2.8-0.6,4.2c-0.4,1.4-1.2,2.7-2.2,3.9
		c-1,1.2-2.3,1.7-3.7,1.7s-2.7-0.6-3.7-1.7c-1-1.2-1.8-2.5-2.2-3.9c-0.4-1.4-0.6-2.8-0.6-4.2s0.2-2.8,0.6-4.2
		c0.4-1.4,1.2-2.7,2.2-3.9c1-1.2,2.3-1.7,3.7-1.7s2.7,0.6,3.7,1.7C72.9,50.6,73.6,51.9,74,53.3z"/>
</g>
</svg>
