<?xml version="1.0" encoding="utf-8"?>
<!-- Generator: Adobe Illustrator 18.1.1, SVG Export Plug-In . SVG Version: 6.00 Build 0)  -->
<!DOCTYPE svg PUBLIC "-//W3C//DTD SVG 1.1//EN" "http://www.w3.org/Graphics/SVG/1.1/DTD/svg11.dtd">
<svg version="1.1" id="icons" xmlns="http://www.w3.org/2000/svg" xmlns:xlink="http://www.w3.org/1999/xlink" x="0px" y="0px"
	 viewBox="0 0 90 90" enable-background="new 0 0 90 90" xml:space="preserve">
<path d="M10.4,35.4h25.3l-9.5-9.5c10.5-10.5,27.5-10.5,38,0c3.2,3.2,5.4,7,6.7,11.1l9.2,0c-1.5-6.4-4.6-12.4-9.6-17.4
	c-14-14-36.6-14-50.6,0l-9.5-9.5V35.4z M64.2,63.9c-10.5,10.5-27.5,10.5-38,0c-3.2-3.2-5.4-7-6.7-11.1l-9.2,0
	c1.5,6.4,4.6,12.4,9.6,17.4c14,14,36.6,14,50.6,0l9.5,9.5V54.4H54.7L64.2,63.9z"/>
</svg>
