<?xml version="1.0" encoding="utf-8"?>
<!-- Generator: Adobe Illustrator 18.1.0, SVG Export Plug-In . SVG Version: 6.00 Build 0)  -->
<!DOCTYPE svg PUBLIC "-//W3C//DTD SVG 1.1//EN" "http://www.w3.org/Graphics/SVG/1.1/DTD/svg11.dtd">
<svg version="1.1" id="icons" xmlns="http://www.w3.org/2000/svg" xmlns:xlink="http://www.w3.org/1999/xlink" x="0px" y="0px"
	 viewBox="0 0 90 90" enable-background="new 0 0 90 90" xml:space="preserve">
<g>
	<path d="M44.5,24c0.6,0,1.2,0.2,1.7,0.7l33.6,33.6c0.5,0.5,0.7,1,0.7,1.7c0,0.6-0.2,1.2-0.7,1.7l-3.6,3.6c-0.5,0.5-1,0.7-1.7,0.7
		s-1.2-0.2-1.7-0.7L44.5,36.9L16.1,65.3c-0.5,0.5-1,0.7-1.7,0.7c-0.6,0-1.2-0.2-1.7-0.7l-3.6-3.6c-0.5-0.5-0.7-1-0.7-1.7
		c0-0.6,0.2-1.2,0.7-1.7l33.6-33.6C43.3,24.2,43.9,24,44.5,24z"/>
</g>
</svg>
