<?xml version="1.0" encoding="utf-8"?>
<!-- Generator: Adobe Illustrator 18.1.0, SVG Export Plug-In . SVG Version: 6.00 Build 0)  -->
<!DOCTYPE svg PUBLIC "-//W3C//DTD SVG 1.1//EN" "http://www.w3.org/Graphics/SVG/1.1/DTD/svg11.dtd">
<svg version="1.1" id="icons" xmlns="http://www.w3.org/2000/svg" xmlns:xlink="http://www.w3.org/1999/xlink" x="0px" y="0px"
	 viewBox="0 0 90 90" enable-background="new 0 0 90 90" xml:space="preserve">
<g>
	<polygon points="29.6,54.6 29.6,57.3 32.7,57.3 32.7,60.4 35.3,60.4 37.5,58.2 31.8,52.4 	"/>
	<path d="M45,8.7C24.9,8.7,8.7,24.9,8.7,45c0,20,16.2,36.3,36.3,36.3C65,81.3,81.3,65,81.3,45C81.3,24.9,65,8.7,45,8.7z M36.6,63.5
		H26.4V53.3L46.8,33L57,43.2L36.6,63.5z M62.6,37.5l-4.1,4.1L48.4,31.4l4.1-4c0.6-0.6,1.3-0.9,2.2-0.9c0.9,0,1.6,0.3,2.2,0.9
		l5.8,5.7c0.6,0.6,0.9,1.4,0.9,2.2C63.5,36.2,63.2,36.9,62.6,37.5z"/>
	<path d="M33.7,51c0,0.4,0.2,0.5,0.5,0.5c0.2,0,0.3-0.1,0.4-0.2L48,38.1c0.1-0.1,0.2-0.3,0.2-0.4c0-0.4-0.2-0.5-0.5-0.5
		c-0.2,0-0.3,0.1-0.4,0.2L33.9,50.6C33.8,50.7,33.7,50.8,33.7,51z"/>
</g>
</svg>
