<?xml version="1.0" encoding="utf-8"?>
<!-- Generator: Adobe Illustrator 19.2.1, SVG Export Plug-In . SVG Version: 6.00 Build 0)  -->
<!DOCTYPE svg PUBLIC "-//W3C//DTD SVG 1.1//EN" "http://www.w3.org/Graphics/SVG/1.1/DTD/svg11.dtd">
<svg version="1.1" id="icons" xmlns="http://www.w3.org/2000/svg" xmlns:xlink="http://www.w3.org/1999/xlink" x="0px" y="0px"
	 viewBox="0 0 90 90" enable-background="new 0 0 90 90" xml:space="preserve">
<path d="M76.3,38.6c-10.2,0-20.3,0-30.5,0c0,4.2,0,8.4,0,12.7c5.9,0,11.8,0,17.7,0c-0.7,4-3.1,7.7-6.5,10c-2.1,1.4-4.6,2.4-7.1,2.8
	c-2.6,0.4-5.2,0.5-7.7,0c-2.6-0.5-5.1-1.6-7.2-3.1c-3.4-2.4-6.1-6-7.4-10c-1.4-4.1-1.4-8.6,0-12.6c1-2.9,2.6-5.5,4.7-7.6
	c2.6-2.7,6-4.6,9.7-5.4c3.1-0.7,6.4-0.5,9.5,0.4c2.6,0.8,5,2.2,7,4.1c2-2,4-4,6-6c1-1.1,2.1-2.1,3.2-3.2c-3-2.8-6.6-5-10.4-6.5
	c-7-2.6-14.8-2.6-21.8-0.2c-7.9,2.7-14.6,8.6-18.4,16.1c-1.3,2.6-2.2,5.3-2.8,8.2c-1.4,7-0.4,14.6,2.8,21c2.1,4.2,5.1,7.9,8.8,10.8
	c3.5,2.8,7.5,4.8,11.8,5.9c5.4,1.4,11.2,1.4,16.6,0.2c4.9-1.1,9.6-3.5,13.3-6.9c3.9-3.6,6.7-8.4,8.2-13.5
	C77.1,50.3,77.3,44.3,76.3,38.6z"/>
</svg>
