<?xml version="1.0" encoding="utf-8"?>
<!-- Generator: Adobe Illustrator 19.1.0, SVG Export Plug-In . SVG Version: 6.00 Build 0)  -->
<!DOCTYPE svg PUBLIC "-//W3C//DTD SVG 1.1//EN" "http://www.w3.org/Graphics/SVG/1.1/DTD/svg11.dtd">
<svg version="1.1" id="icons" xmlns="http://www.w3.org/2000/svg" xmlns:xlink="http://www.w3.org/1999/xlink" x="0px" y="0px"
	 viewBox="0 0 90 90" enable-background="new 0 0 90 90" xml:space="preserve">
<path d="M76.4,27c-3.2-5.5-7.6-9.9-13.1-13.1C57.7,10.6,51.7,9,45.1,9c-6.5,0-12.6,1.6-18.1,4.8c-5.5,3.2-9.9,7.6-13.1,13.1
	c-3.2,5.5-4.8,11.6-4.8,18.1c0,6.5,1.6,12.6,4.8,18.1c3.2,5.5,7.6,9.9,13.1,13.1c5.5,3.2,11.6,4.8,18.1,4.8c6.5,0,12.6-1.6,18.1-4.8
	c5.5-3.2,9.9-7.6,13.1-13.1c3.2-5.5,4.8-11.6,4.8-18.1C81.2,38.5,79.6,32.5,76.4,27z M48.5,69.2h-7v-7h7V69.2z M55.8,42.1l-3.1,3.2
	c-2.5,2.5-4.1,4.7-4.1,9.9h-7v-1.8c0-3.9,1.6-7.4,4.1-9.9l4.4-4.4c1.3-1.3,2.1-3,2.1-4.9c0-3.9-3.1-7-7-7s-7,3.1-7,7h-7
	c0-7.8,6.3-14,14-14c7.8,0,14,6.3,14,14C59,37.2,57.8,40,55.8,42.1z"/>
</svg>
