<?xml version="1.0" encoding="utf-8"?>
<!-- Generator: Adobe Illustrator 18.1.0, SVG Export Plug-In . SVG Version: 6.00 Build 0)  -->
<!DOCTYPE svg PUBLIC "-//W3C//DTD SVG 1.1//EN" "http://www.w3.org/Graphics/SVG/1.1/DTD/svg11.dtd">
<svg version="1.1" id="Layer_1" xmlns="http://www.w3.org/2000/svg" xmlns:xlink="http://www.w3.org/1999/xlink" x="0px" y="0px"
	 viewBox="0 0 90 90" enable-background="new 0 0 90 90" xml:space="preserve">
<g>
	<path d="M76.3,26.9c3.2,5.5,4.8,11.5,4.8,18.1s-1.6,12.5-4.8,18.1c-3.2,5.5-7.6,9.9-13.1,13.1C57.7,79.4,51.6,81,45.1,81
		s-12.5-1.6-18.1-4.8S17.2,68.6,14,63.1S9.2,51.5,9.2,45s1.6-12.5,4.8-18.1s7.6-9.9,13.1-13.1C32.6,10.6,38.6,9,45.1,9
		s12.5,1.6,18.1,4.8S73,21.4,76.3,26.9z M57.9,22.9c-3.9-2.3-8.2-3.4-12.8-3.4s-8.9,1.1-12.8,3.4s-7,5.4-9.3,9.3s-3.4,8.2-3.4,12.8
		s1.1,8.9,3.4,12.8s5.4,7,9.3,9.3s8.2,3.4,12.8,3.4c4.6,0,8.9-1.1,12.8-3.4s7-5.4,9.3-9.3c2.3-3.9,3.4-8.2,3.4-12.8
		c0-4.6-1.1-8.9-3.4-12.8C64.9,28.3,61.8,25.2,57.9,22.9z"/>
</g>
</svg>
