<?xml version="1.0" encoding="utf-8"?>
<!-- Generator: Adobe Illustrator 18.1.1, SVG Export Plug-In . SVG Version: 6.00 Build 0)  -->
<!DOCTYPE svg PUBLIC "-//W3C//DTD SVG 1.1//EN" "http://www.w3.org/Graphics/SVG/1.1/DTD/svg11.dtd">
<svg version="1.1" id="icons" xmlns="http://www.w3.org/2000/svg" xmlns:xlink="http://www.w3.org/1999/xlink" x="0px" y="0px"
	 viewBox="0 0 90 90" enable-background="new 0 0 90 90" xml:space="preserve">
<g>
	<path d="M53.8,36.2c-1.1-1.1-2.4-2-3.9-2.6c-1.5-0.6-3.1-1-4.8-1s-3.3,0.3-4.8,1c-1.5,0.6-2.8,1.5-3.9,2.6s-2,2.4-2.6,3.9
		c-0.6,1.5-1,3.1-1,4.8c0,1.7,0.3,3.3,1,4.8c0.6,1.5,1.5,2.8,2.6,3.9c1.1,1.1,2.4,2,3.9,2.6c1.5,0.6,3.1,1,4.8,1s3.3-0.3,4.8-1
		c1.5-0.6,2.8-1.5,3.9-2.6c1.1-1.1,2-2.4,2.6-3.9c0.6-1.5,1-3.1,1-4.8c0-1.7-0.3-3.3-1-4.8C55.8,38.7,54.9,37.4,53.8,36.2z
		 M51.8,47.9c-0.4,0.9-0.9,1.7-1.6,2.3c-0.7,0.7-1.4,1.2-2.3,1.6C47,52.2,46,52.4,45,52.4s-2-0.2-2.9-0.6c-0.9-0.4-1.7-0.9-2.3-1.6
		c-0.7-0.7-1.2-1.4-1.6-2.3C37.8,47,37.6,46,37.6,45s0.2-2,0.6-2.9c0.4-0.9,0.9-1.7,1.6-2.3c0.7-0.7,1.4-1.2,2.3-1.6
		c0.9-0.4,1.9-0.6,2.9-0.6s2,0.2,2.9,0.6c0.9,0.4,1.7,0.9,2.3,1.6c0.7,0.7,1.2,1.4,1.6,2.3c0.4,0.9,0.6,1.9,0.6,2.9
		S52.2,47,51.8,47.9z"/>
	<path d="M45,9C25.1,9,9,25.1,9,45s16.1,36,36,36s36-16.1,36-36S64.9,9,45,9z M67.9,52.5c-1.8,2.3-3.9,4.2-6.3,5.9
		c-2.4,1.7-5,2.9-7.8,3.9c-2.8,0.9-5.8,1.4-8.9,1.4s-6.1-0.5-8.9-1.4c-2.8-0.9-5.4-2.2-7.8-3.9c-2.4-1.6-4.4-3.6-6.3-5.9
		c-1.8-2.3-3.2-4.8-4.3-7.5c1-2.7,2.5-5.2,4.3-7.5c1.8-2.3,3.9-4.2,6.3-5.9c2.4-1.7,5-2.9,7.8-3.9c2.8-0.9,5.8-1.4,8.9-1.4
		s6.1,0.5,8.9,1.4c2.8,0.9,5.4,2.2,7.8,3.9c2.4,1.6,4.4,3.6,6.3,5.9c1.8,2.3,3.2,4.8,4.3,7.5C71.2,47.7,69.7,50.2,67.9,52.5z"/>
</g>
</svg>
