<?xml version="1.0" encoding="utf-8"?>
<!-- Generator: Adobe Illustrator 19.2.1, SVG Export Plug-In . SVG Version: 6.00 Build 0)  -->
<!DOCTYPE svg PUBLIC "-//W3C//DTD SVG 1.1//EN" "http://www.w3.org/Graphics/SVG/1.1/DTD/svg11.dtd">
<svg version="1.1" id="icons" xmlns="http://www.w3.org/2000/svg" xmlns:xlink="http://www.w3.org/1999/xlink" x="0px" y="0px"
	 viewBox="0 0 90 90" enable-background="new 0 0 90 90" xml:space="preserve">
<path d="M44.9,8.5C24.6,8.5,8.2,24.9,8.2,45.1s16.5,36.7,36.7,36.7s36.7-16.4,36.7-36.6S65.1,8.5,44.9,8.5z M44.9,79.5
	c-18.9,0-34.3-15.4-34.3-34.3c0-18.9,15.4-34.3,34.3-34.3c18.9,0,34.3,15.4,34.3,34.3C79.2,64.1,63.8,79.5,44.9,79.5z"/>
<path d="M44.9,13.6c-17.4,0-31.6,14.1-31.6,31.6s14.1,31.6,31.6,31.6s31.6-14.1,31.6-31.6S62.3,13.6,44.9,13.6z M61.2,55.9
	c0,3.5-7.4,6.4-16.4,6.4s-16.4-2.9-16.4-6.4v-5.5c3,2.7,9.9,4.2,16.4,4.2s13.4-1.4,16.4-4.2V55.9z M61.2,46.9
	c-0.3,2.6-6.9,5.4-16.4,5.4c-9.4,0-16.1-2.8-16.4-5.4V40c3,2.7,9.9,4.2,16.4,4.2s13.4-1.4,16.4-4.2V46.9z M61.2,36.5
	c-0.3,2.6-6.9,5.4-16.4,5.4c-9.4,0-16.1-2.8-16.4-5.4v-0.2c0-3.5,7.4-6.4,16.4-6.4s16.4,2.9,16.4,6.4V36.5z"/>
</svg>
