<?xml version="1.0" encoding="utf-8"?>
<!-- Generator: Adobe Illustrator 19.1.0, SVG Export Plug-In . SVG Version: 6.00 Build 0)  -->
<!DOCTYPE svg PUBLIC "-//W3C//DTD SVG 1.1//EN" "http://www.w3.org/Graphics/SVG/1.1/DTD/svg11.dtd">
<svg version="1.1" id="icons" xmlns="http://www.w3.org/2000/svg" xmlns:xlink="http://www.w3.org/1999/xlink" x="0px" y="0px"
	 viewBox="0 0 90 90" enable-background="new 0 0 90 90" xml:space="preserve">
<path d="M13.8,63.2c3.2,5.5,7.6,9.9,13.1,13.1c5.5,3.2,11.5,4.8,18.1,4.8c6.5,0,12.6-1.6,18.1-4.8c5.5-3.2,9.9-7.6,13.1-13.1
	S81,51.7,81,45.1c0-6.5-1.6-12.5-4.8-18.1S68.6,17.2,63.1,14C57.5,10.8,51.5,9.2,45,9.2c-6.5,0-12.5,1.6-18.1,4.8
	c-5.5,3.2-9.9,7.6-13.1,13.1C10.6,32.6,9,38.6,9,45.1C9,51.7,10.6,57.7,13.8,63.2z M45,21.1l4.3,4.3L32.4,42.1H69v6H32.4L49.2,65
	L45,69.2L20.9,45.2L45,21.1z"/>
</svg>
