<?xml version="1.0" encoding="utf-8"?>
<!-- Generator: Adobe Illustrator 18.1.0, SVG Export Plug-In . SVG Version: 6.00 Build 0)  -->
<!DOCTYPE svg PUBLIC "-//W3C//DTD SVG 1.1//EN" "http://www.w3.org/Graphics/SVG/1.1/DTD/svg11.dtd">
<svg version="1.1" id="icons" xmlns="http://www.w3.org/2000/svg" xmlns:xlink="http://www.w3.org/1999/xlink" x="0px" y="0px"
	 viewBox="0 0 122 90" enable-background="new 0 0 122 90" xml:space="preserve">
<g>
	<path d="M110.7,74.2c0.9,0,1.6-0.4,2.1-1.1c0.5-0.7,0.8-1.5,0.8-2.5l0-14.1c0-1.5-0.6-2.6-1.8-3.2l-17.6-8.4
		c2.1-1.3,3.7-3.1,4.9-5.5c1.2-2.4,1.9-5.1,1.9-8.1c0-4.2-1.3-7.8-3.8-10.8c-2.5-3-5.6-4.5-9.3-4.5c-1.3,0-2.5,0.2-3.6,0.6
		c-1.1,0.4-2.2,1-3.2,1.6c1.2,3.2,1.8,6.5,1.8,9.9c0,5.3-1.4,10.1-4.2,14.4c0.5,0.5,1.1,1,1.5,1.5c0.5,0.4,1,0.8,1.5,1.1l11.5,5.3
		c1.6,0.9,2.9,2.1,3.9,3.6c1,1.6,1.5,3.3,1.5,5.3v14.9H110.7z"/>
	<path d="M31.5,55.3c-1.6,0.8-2.4,2.1-2.4,4v14.9v2.6c0,1.2,0.4,2.2,1.1,3c0.7,0.8,1.6,1.2,2.7,1.2h56.7c1,0,1.8-0.4,2.5-1.2
		c0.7-0.8,1.1-1.8,1.1-3v-2.6l0-14.9c0-1.9-0.8-3.2-2.3-3.9L75.4,48l-6.5-3.1c1.4-0.9,2.7-2,3.8-3.3c1.1-1.3,2.1-2.9,2.8-4.6
		c0.5-1.3,1-2.7,1.4-4.2c0.4-1.5,0.6-3.1,0.6-4.7c0-0.9-0.1-1.7-0.2-2.5c-0.1-0.8-0.3-1.6-0.5-2.5c-1-4.1-2.9-7.4-5.7-10
		c-2.9-2.6-6.2-3.9-10-3.9c-3.8,0-7.1,1.3-9.9,3.8c-2.8,2.5-4.7,5.7-5.7,9.6c-0.5,1.9-0.8,3.8-0.8,5.5c0,3.2,0.7,6.4,2.1,9.4
		c1.6,3.2,3.8,5.8,6.6,7.6L47.4,48L31.5,55.3z"/>
	<path d="M11.9,74.2h11.8V59.3c0-1.9,0.5-3.7,1.5-5.3c1-1.6,2.3-2.8,3.9-3.6l12-5.5c1.1-0.6,1.9-1.4,2.6-2.3
		c-1.4-2.1-2.5-4.3-3.2-6.8c-0.8-2.5-1.1-5.1-1.1-7.8c0-1.8,0.2-3.6,0.6-5.3c0.4-1.7,0.8-3.3,1.4-4.8c-1.9-1.4-4.1-2.1-6.5-2.1
		c-3.7,0-6.8,1.5-9.3,4.5c-2.5,3-3.8,6.6-3.8,10.8c0,3,0.6,5.7,1.9,8.2c1.3,2.4,3,4.3,5.2,5.6l-18,8.3C9.6,53.9,9,54.9,9,56.6v14.1
		c0,1,0.3,1.8,0.8,2.5C10.3,73.8,11.1,74.2,11.9,74.2z"/>
</g>
</svg>
