<?xml version="1.0" encoding="utf-8"?>
<!-- Generator: Adobe Illustrator 20.1.0, SVG Export Plug-In . SVG Version: 6.00 Build 0)  -->
<svg version="1.1" id="icons" xmlns="http://www.w3.org/2000/svg" xmlns:xlink="http://www.w3.org/1999/xlink" x="0px" y="0px"
	 viewBox="0 0 61.1 90" style="enable-background:new 0 0 61.1 90;" xml:space="preserve">
<g>
	<polygon points="52.5,34.3 54.4,33.3 44.6,1.2 42.3,1.2 	"/>
	<polygon points="50.1,35.6 39.5,1.2 33.7,1.2 45.1,38.3 	"/>
	<polygon points="42.3,39.8 30.4,1.2 24.2,1.2 36.9,42.7 	"/>
	<path d="M34.5,49.7C34.5,49.7,34.5,49.7,34.5,49.7l0-1.6c0-1-0.7-1.9-1.7-2.1v-1.1l1.7-0.9L21.3,1.2h-2.5h-0.2H18L8.2,33.3l1.9,1
		l9.3-30.4v0l1.4,4.6l-8.3,27.1l5.4,2.9L24,18.7h0l1.6,5.3h0l-4.9,16l5,2.7l2.8-9.2l1.4,4.6v0L28.2,44l1.7,0.9V46
		c-1,0.2-1.7,1.1-1.7,2.1v1.6c-9.4,1.5-16.6,9.7-16.6,19.5c0,10.9,8.8,19.8,19.8,19.8s19.8-8.8,19.8-19.8
		C51.1,59.4,43.9,51.2,34.5,49.7z M29.3,48.1c0-0.4,0.3-0.8,0.6-0.9c0.2,0.6,0.7,1.1,1.4,1.1c0.7,0,1.2-0.5,1.4-1.1
		c0.4,0.2,0.6,0.5,0.6,0.9v1.5c-0.7-0.1-1.3-0.1-2-0.1c-0.7,0-1.3,0-2,0.1V48.1z M27,78.4l-7.5-7.5l1.9-1.9l5.6,5.6l14.2-14.2
		l1.9,1.9L27,78.4z"/>
</g>
</svg>
