<?xml version="1.0" encoding="utf-8"?>
<!-- Generator: Adobe Illustrator 19.1.0, SVG Export Plug-In . SVG Version: 6.00 Build 0)  -->
<!DOCTYPE svg PUBLIC "-//W3C//DTD SVG 1.1//EN" "http://www.w3.org/Graphics/SVG/1.1/DTD/svg11.dtd">
<svg version="1.1" id="icons" xmlns="http://www.w3.org/2000/svg" xmlns:xlink="http://www.w3.org/1999/xlink" x="0px" y="0px"
	 viewBox="0 0 90 90" enable-background="new 0 0 90 90" xml:space="preserve">
<g>
	<path d="M45,9C25.1,9,9,25.1,9,45s16.1,36,36,36s36-16.1,36-36S64.9,9,45,9z M63.4,51c-1.5,1.8-3.1,3.4-5,4.7
		c-1.9,1.3-4,2.4-6.3,3.1c-2.3,0.7-4.7,1.1-7.1,1.1s-4.9-0.4-7.1-1.1c-2.3-0.7-4.4-1.8-6.3-3.1c-1.9-1.3-3.6-2.9-5-4.7
		c-1.5-1.8-2.6-3.8-3.5-6c0.8-2.2,2-4.2,3.5-6c1.5-1.8,3.1-3.4,5-4.7c1.9-1.3,4-2.4,6.3-3.1c2.3-0.7,4.7-1.1,7.1-1.1
		s4.9,0.4,7.1,1.1c2.3,0.7,4.4,1.8,6.3,3.1c1.9,1.3,3.6,2.9,5,4.7c1.5,1.8,2.6,3.8,3.5,6C66.1,47.2,64.9,49.2,63.4,51z"/>
	<path d="M52,37.9c-0.9-0.9-2-1.6-3.2-2.1c-1.2-0.5-2.5-0.8-3.9-0.8s-2.7,0.3-3.9,0.8c-1.2,0.5-2.3,1.2-3.2,2.1
		c-0.9,0.9-1.6,2-2.1,3.2c-0.5,1.2-0.8,2.5-0.8,3.9c0,1.4,0.3,2.7,0.8,3.9c0.5,1.2,1.2,2.3,2.1,3.2s2,1.6,3.2,2.1
		c1.2,0.5,2.5,0.8,3.9,0.8s2.7-0.3,3.9-0.8c1.2-0.5,2.3-1.2,3.2-2.1s1.6-2,2.1-3.2c0.5-1.2,0.8-2.5,0.8-3.9c0-1.4-0.3-2.7-0.8-3.9
		C53.7,39.9,53,38.9,52,37.9z M50.5,47.3c-0.3,0.7-0.7,1.4-1.3,1.9c-0.5,0.6-1.2,1-1.9,1.3S45.8,51,45,51s-1.6-0.2-2.3-0.5
		s-1.4-0.7-1.9-1.3c-0.6-0.5-1-1.2-1.3-1.9C39.2,46.6,39,45.8,39,45s0.2-1.6,0.5-2.3c0.3-0.7,0.7-1.4,1.3-1.9c0.5-0.6,1.2-1,1.9-1.3
		S44.2,39,45,39s1.6,0.2,2.3,0.5s1.4,0.7,1.9,1.3c0.6,0.5,1,1.2,1.3,1.9c0.3,0.7,0.5,1.5,0.5,2.3S50.8,46.6,50.5,47.3z"/>
</g>
</svg>
