<?xml version="1.0" encoding="utf-8"?>
<!-- Generator: Adobe Illustrator 19.1.1, SVG Export Plug-In . SVG Version: 6.00 Build 0)  -->
<!DOCTYPE svg PUBLIC "-//W3C//DTD SVG 1.1//EN" "http://www.w3.org/Graphics/SVG/1.1/DTD/svg11.dtd">
<svg version="1.1" id="icons" xmlns="http://www.w3.org/2000/svg" xmlns:xlink="http://www.w3.org/1999/xlink" x="0px" y="0px"
	 viewBox="0 0 79.5 90" enable-background="new 0 0 79.5 90" xml:space="preserve">
<g>
	<path d="M67.6,28.1L51.3,11.7c-0.4-0.4-0.9-0.7-1.4-1.1v18.9h18.9C68.4,28.9,68,28.4,67.6,28.1z"/>
	<path d="M48.6,34.6c-1.1,0-2-0.4-2.7-1.1c-0.7-0.7-1.1-1.7-1.1-2.7V9h-32c-1.1,0-2,0.4-2.7,1.1c-0.7,0.7-1.1,1.7-1.1,2.7v64
		c0,1.1,0.4,2,1.1,2.7c0.7,0.7,1.7,1.1,2.7,1.1h53.8c1.1,0,2-0.4,2.7-1.1c0.7-0.7,1.1-1.7,1.1-2.7V34.6H48.6z M34.5,66
		c0,0.6-0.3,1-0.8,1.2c-0.2,0.1-0.4,0.1-0.5,0.1c-0.3,0-0.6-0.1-0.9-0.4l-6.6-6.7h-5.2c-0.4,0-0.7-0.1-0.9-0.4s-0.4-0.5-0.4-0.9
		v-7.7c0-0.4,0.1-0.7,0.4-0.9c0.2-0.2,0.5-0.4,0.9-0.4h5.2l6.6-6.7c0.4-0.4,0.9-0.5,1.4-0.3c0.5,0.2,0.8,0.6,0.8,1.2L34.5,66
		L34.5,66z M43.8,63.9c-0.5,0.5-1.2,0.8-1.9,0.8c-0.6,0-1.2-0.2-1.8-0.7c-0.5-0.5-0.8-1.1-0.8-1.8c0-0.7,0.2-1.3,0.7-1.9
		c1.4-1.5,2.1-3.3,2.1-5.2c0-2-0.7-3.7-2.1-5.2c-0.5-0.5-0.7-1.2-0.7-1.9c0-0.7,0.3-1.3,0.8-1.8c0.5-0.5,1.1-0.7,1.8-0.7
		s1.3,0.3,1.8,0.8c2.3,2.5,3.5,5.4,3.5,8.8C47.3,58.5,46.1,61.4,43.8,63.9z M52.4,69.6c-0.5,0.6-1.2,1-2,1c-0.6,0-1.1-0.2-1.6-0.6
		c-0.6-0.4-0.9-1-0.9-1.7c-0.1-0.7,0.1-1.3,0.6-1.9c2.7-3.3,4-7,4-11.3s-1.3-8-4-11.3c-0.5-0.6-0.6-1.2-0.6-1.9
		c0.1-0.7,0.4-1.3,0.9-1.7c0.5-0.4,1.2-0.6,1.9-0.6s1.3,0.4,1.7,1c3.4,4.2,5.2,9.1,5.2,14.5S55.8,65.4,52.4,69.6z"/>
</g>
</svg>
