<?xml version="1.0" encoding="utf-8"?>
<!-- Generator: Adobe Illustrator 18.1.1, SVG Export Plug-In . SVG Version: 6.00 Build 0)  -->
<!DOCTYPE svg PUBLIC "-//W3C//DTD SVG 1.1//EN" "http://www.w3.org/Graphics/SVG/1.1/DTD/svg11.dtd">
<svg version="1.1" id="icons" xmlns="http://www.w3.org/2000/svg" xmlns:xlink="http://www.w3.org/1999/xlink" x="0px" y="0px"
	 viewBox="0 0 90 90" enable-background="new 0 0 90 90" xml:space="preserve">
<path d="M76.2,26.9c-3.2-5.5-7.6-9.9-13.1-13.1C57.5,10.6,51.5,9,45,9c-6.5,0-12.6,1.6-18.1,4.8C21.4,17,17,21.4,13.8,26.9
	S9,38.5,9,45c0,6.5,1.6,12.5,4.8,18.1s7.6,9.9,13.1,13.1C32.4,79.4,38.5,81,45,81c6.5,0,12.5-1.6,18.1-4.8
	c5.5-3.2,9.9-7.6,13.1-13.1C79.4,57.5,81,51.5,81,45C81,38.5,79.4,32.4,76.2,26.9z M45,69.1l-4.3-4.3L57.5,48H20.9v-6h36.6
	L40.8,25.2l4.3-4.3L69.1,45L45,69.1z"/>
</svg>
