<?xml version="1.0" encoding="utf-8"?>
<!-- Generator: Adobe Illustrator 19.2.1, SVG Export Plug-In . SVG Version: 6.00 Build 0)  -->
<!DOCTYPE svg PUBLIC "-//W3C//DTD SVG 1.1//EN" "http://www.w3.org/Graphics/SVG/1.1/DTD/svg11.dtd">
<svg version="1.1" id="icons" xmlns="http://www.w3.org/2000/svg" xmlns:xlink="http://www.w3.org/1999/xlink" x="0px" y="0px"
	 viewBox="0 0 79.5 90" enable-background="new 0 0 79.5 90" xml:space="preserve">
<g>
	<path d="M48.9,34.7c-1.1,0-2-0.4-2.7-1.1c-0.8-0.8-1.1-1.7-1.1-2.7V9H12.9c-1.1,0-2,0.4-2.7,1.1C9.4,10.9,9,11.8,9,12.8v64.3
		c0,1.1,0.4,2,1.1,2.7c0.8,0.8,1.7,1.1,2.7,1.1h54c1.1,0,2-0.4,2.7-1.1c0.8-0.8,1.1-1.7,1.1-2.7V34.7H48.9z M21.5,37
		c1.5-1.5,3.3-2.3,5.5-2.3c2.1,0,4,0.8,5.5,2.3c1.5,1.5,2.3,3.3,2.3,5.5c0,2.1-0.8,4-2.3,5.5c-1.5,1.5-3.3,2.3-5.5,2.3
		c-2.1,0-4-0.8-5.5-2.3c-1.5-1.5-2.3-3.3-2.3-5.5C19.3,40.3,20,38.5,21.5,37z M60.4,70.7H19.3V63l7.7-7.7l5.1,5.1L47.6,45l12.9,12.9
		V70.7z"/>
	<path d="M68,28.1L51.6,11.7c-0.4-0.4-0.9-0.8-1.4-1.1v19h19C68.8,29,68.4,28.5,68,28.1z"/>
</g>
</svg>
