<?xml version="1.0" encoding="utf-8"?>
<!-- Generator: Adobe Illustrator 18.1.1, SVG Export Plug-In . SVG Version: 6.00 Build 0)  -->
<!DOCTYPE svg PUBLIC "-//W3C//DTD SVG 1.1//EN" "http://www.w3.org/Graphics/SVG/1.1/DTD/svg11.dtd">
<svg version="1.1" id="icons" xmlns="http://www.w3.org/2000/svg" xmlns:xlink="http://www.w3.org/1999/xlink" x="0px" y="0px"
	 viewBox="0 0 85.2 90" enable-background="new 0 0 85.2 90" xml:space="preserve">
<g>
	<path d="M75.7,24.5v51.2c0,1.4-0.5,2.6-1.5,3.6c-1,1-2.2,1.5-3.6,1.5H14.3c-1.4,0-2.6-0.5-3.6-1.5c-1-1-1.5-2.2-1.5-3.6V24.5
		c0-1.4,0.5-2.6,1.5-3.6c1-1,2.2-1.5,3.6-1.5h5.1v-3.8c0-1.8,0.6-3.3,1.9-4.5s2.8-1.9,4.5-1.9h2.6c1.8,0,3.3,0.6,4.5,1.9
		c1.3,1.3,1.9,2.8,1.9,4.5v3.8h15.4v-3.8c0-1.8,0.6-3.3,1.9-4.5c1.3-1.3,2.8-1.9,4.5-1.9h2.6c1.8,0,3.3,0.6,4.5,1.9
		c1.2,1.3,1.9,2.8,1.9,4.5v3.8h5.1c1.4,0,2.6,0.5,3.6,1.5C75.2,21.9,75.7,23.1,75.7,24.5z M14.3,46.3h11.5V34.8H14.3V46.3z
		 M14.3,61.6h11.5V48.8H14.3V61.6z M14.3,75.7h11.5V64.2H14.3V75.7z M29.6,27.1V15.6c0-0.4-0.1-0.6-0.4-0.9
		c-0.3-0.3-0.6-0.4-0.9-0.4h-2.6c-0.4,0-0.6,0.1-0.9,0.4c-0.3,0.3-0.4,0.6-0.4,0.9v11.5c0,0.4,0.1,0.6,0.4,0.9
		c0.3,0.3,0.6,0.4,0.9,0.4h2.6c0.4,0,0.6-0.1,0.9-0.4C29.5,27.7,29.6,27.4,29.6,27.1z M28.4,46.3h12.8V34.8H28.4V46.3z M28.4,61.6
		h12.8V48.8H28.4V61.6z M28.4,75.7h12.8V64.2H28.4V75.7z M43.7,46.3h12.8V34.8H43.7V46.3z M43.7,61.6h12.8V48.8H43.7V61.6z
		 M43.7,75.7h12.8V64.2H43.7V75.7z M60.4,27.1V15.6c0-0.4-0.1-0.6-0.4-0.9c-0.3-0.3-0.6-0.4-0.9-0.4h-2.6c-0.4,0-0.6,0.1-0.9,0.4
		c-0.3,0.3-0.4,0.6-0.4,0.9v11.5c0,0.4,0.1,0.6,0.4,0.9c0.3,0.3,0.5,0.4,0.9,0.4h2.6c0.3,0,0.6-0.1,0.9-0.4
		C60.2,27.7,60.4,27.4,60.4,27.1z M59.1,46.3h11.5V34.8H59.1V46.3z M59.1,61.6h11.5V48.8H59.1V61.6z M59.1,75.7h11.5V64.2H59.1V75.7
		z"/>
</g>
</svg>
