<?xml version="1.0" encoding="utf-8"?>
<!-- Generator: Adobe Illustrator 18.1.1, SVG Export Plug-In . SVG Version: 6.00 Build 0)  -->
<!DOCTYPE svg PUBLIC "-//W3C//DTD SVG 1.1//EN" "http://www.w3.org/Graphics/SVG/1.1/DTD/svg11.dtd">
<svg version="1.1" id="icons" xmlns="http://www.w3.org/2000/svg" xmlns:xlink="http://www.w3.org/1999/xlink" x="0px" y="0px"
	 viewBox="0 0 90 90" enable-background="new 0 0 90 90" xml:space="preserve">
<path d="M61.2,55.2H58l-1.1-1.1c3.9-4.5,6.3-10.4,6.3-16.9c0-14.3-11.6-26-26-26s-26,11.6-26,26s11.6,26,26,26
	c6.5,0,12.4-2.4,16.9-6.3l1.1,1.1v3.2l20,19.9l6-6L61.2,55.2z M37.2,55.2c-9.9,0-18-8.1-18-18s8.1-18,18-18s18,8.1,18,18
	S47.2,55.2,37.2,55.2z"/>
</svg>
