<?xml version="1.0" encoding="utf-8"?>
<!-- Generator: Adobe Illustrator 19.2.1, SVG Export Plug-In . SVG Version: 6.00 Build 0)  -->
<!DOCTYPE svg PUBLIC "-//W3C//DTD SVG 1.1//EN" "http://www.w3.org/Graphics/SVG/1.1/DTD/svg11.dtd">
<svg version="1.1" id="icons" xmlns="http://www.w3.org/2000/svg" xmlns:xlink="http://www.w3.org/1999/xlink" x="0px" y="0px"
	 viewBox="0 0 90 90" enable-background="new 0 0 90 90" xml:space="preserve">
<path d="M45,9C25.1,9,9,25.1,9,45s16.1,36,36,36s36-16.1,36-36S64.9,9,45,9z M63.7,57.3c0,4-8.4,7.3-18.7,7.3s-18.7-3.3-18.7-7.3V51
	c3.4,3.1,11.3,4.8,18.7,4.8s15.3-1.6,18.7-4.8V57.3z M63.7,47c-0.4,3-7.9,6.1-18.7,6.1c-10.8,0-18.3-3.2-18.7-6.1v-7.8
	c3.4,3.1,11.3,4.8,18.7,4.8s15.3-1.6,18.7-4.8V47z M63.7,35.1c-0.4,3-7.9,6.1-18.7,6.1c-10.8,0-18.3-3.2-18.7-6.1v-0.3
	c0-4,8.4-7.3,18.7-7.3s18.7,3.3,18.7,7.3V35.1z"/>
</svg>
