<?xml version="1.0" encoding="utf-8"?>
<!-- Generator: Adobe Illustrator 18.1.0, SVG Export Plug-In . SVG Version: 6.00 Build 0)  -->
<!DOCTYPE svg PUBLIC "-//W3C//DTD SVG 1.1//EN" "http://www.w3.org/Graphics/SVG/1.1/DTD/svg11.dtd">
<svg version="1.1" id="icons" xmlns="http://www.w3.org/2000/svg" xmlns:xlink="http://www.w3.org/1999/xlink" x="0px" y="0px"
	 viewBox="0 0 90 90" enable-background="new 0 0 90 90" xml:space="preserve">
<path d="M79.6,52.4c0,0.2,0,0.3,0,0.3c-2,8.3-6.2,15.1-12.5,20.3c-6.3,5.2-13.8,7.8-22.3,7.8c-4.5,0-8.9-0.9-13.2-2.6
	c-4.2-1.7-8-4.1-11.4-7.3l-6,6c-0.6,0.6-1.3,0.9-2.1,0.9c-0.8,0-1.5-0.3-2.1-0.9c-0.6-0.6-0.9-1.3-0.9-2.1V53.9
	c0-0.8,0.3-1.5,0.9-2.1c0.6-0.6,1.3-0.9,2.1-0.9h20.9c0.8,0,1.5,0.3,2.1,0.9c0.6,0.6,0.9,1.3,0.9,2.1s-0.3,1.5-0.9,2.1l-6.4,6.4
	c2.2,2.1,4.7,3.6,7.5,4.8c2.8,1.1,5.7,1.7,8.7,1.7c4.2,0,8-1,11.7-3c3.6-2,6.5-4.8,8.7-8.3c0.3-0.5,1.2-2.3,2.5-5.5
	c0.2-0.7,0.7-1.1,1.4-1.1h9c0.4,0,0.8,0.1,1,0.4C79.5,51.7,79.6,52,79.6,52.4z M80.8,15.1V36c0,0.8-0.3,1.5-0.9,2.1
	c-0.6,0.6-1.3,0.9-2.1,0.9H56.9c-0.8,0-1.5-0.3-2.1-0.9C54.2,37.5,54,36.8,54,36c0-0.8,0.3-1.5,0.9-2.1l6.4-6.4
	c-4.6-4.3-10-6.4-16.3-6.4c-4.2,0-8,1-11.7,3c-3.6,2-6.5,4.8-8.7,8.3c-0.3,0.5-1.2,2.3-2.5,5.5C22,38.6,21.5,39,20.8,39h-9.3
	c-0.4,0-0.8-0.1-1-0.4c-0.3-0.3-0.4-0.6-0.4-1v-0.3c2-8.3,6.2-15.1,12.6-20.3C29,11.7,36.5,9.1,45,9.1c4.5,0,9,0.9,13.2,2.6
	c4.3,1.7,8.1,4.2,11.4,7.3l6.1-6c0.6-0.6,1.3-0.9,2.1-0.9s1.5,0.3,2.1,0.9C80.5,13.6,80.8,14.3,80.8,15.1z"/>
</svg>
