<?xml version="1.0" encoding="utf-8"?>
<!-- Generator: Adobe Illustrator 18.1.0, SVG Export Plug-In . SVG Version: 6.00 Build 0)  -->
<!DOCTYPE svg PUBLIC "-//W3C//DTD SVG 1.1//EN" "http://www.w3.org/Graphics/SVG/1.1/DTD/svg11.dtd">
<svg version="1.1" xmlns="http://www.w3.org/2000/svg" xmlns:xlink="http://www.w3.org/1999/xlink" x="0px" y="0px"
	 viewBox="0 0 90 90" enable-background="new 0 0 90 90" xml:space="preserve">
<g id="icons">
	<g>
		<path d="M23.9,45c0-0.6,0.2-1.2,0.7-1.7L58.3,9.7c0.5-0.5,1-0.7,1.7-0.7c0.6,0,1.2,0.2,1.7,0.7l3.6,3.6c0.5,0.5,0.7,1,0.7,1.7
			s-0.2,1.2-0.7,1.7L36.9,45l28.4,28.4c0.5,0.5,0.7,1,0.7,1.7c0,0.6-0.2,1.2-0.7,1.7l-3.6,3.6c-0.5,0.5-1,0.7-1.7,0.7
			c-0.6,0-1.2-0.2-1.7-0.7L24.7,46.6C24.2,46.2,23.9,45.6,23.9,45z"/>
	</g>
</g>
<g id="Painter_Palette">
</g>
</svg>
