<?xml version="1.0" encoding="utf-8"?>
<!-- Generator: Adobe Illustrator 18.1.0, SVG Export Plug-In . SVG Version: 6.00 Build 0)  -->
<!DOCTYPE svg PUBLIC "-//W3C//DTD SVG 1.1//EN" "http://www.w3.org/Graphics/SVG/1.1/DTD/svg11.dtd">
<svg version="1.1" id="icons" xmlns="http://www.w3.org/2000/svg" xmlns:xlink="http://www.w3.org/1999/xlink" x="0px" y="0px"
	 viewBox="0 0 90 90" enable-background="new 0 0 90 90" xml:space="preserve">
<g>
	<path d="M13.8,63.1C10.6,57.5,9,51.5,9,45c0-6.5,1.6-12.6,4.8-18.1s7.6-9.9,13.1-13.1C32.4,10.6,38.5,9,45,9
		c6.5,0,12.5,1.6,18.1,4.8c5.5,3.2,9.9,7.6,13.1,13.1C79.4,32.4,81,38.5,81,45c0,6.5-1.6,12.5-4.8,18.1c-3.2,5.5-7.6,9.9-13.1,13.1
		C57.5,79.4,51.5,81,45,81c-6.5,0-12.6-1.6-18.1-4.8C21.4,72.9,17,68.6,13.8,63.1z M21,42v6c0,0.8,0.3,1.5,0.9,2.1
		c0.6,0.6,1.3,0.9,2.1,0.9h23.5l-8.9,8.9c-0.6,0.6-0.9,1.3-0.9,2.1c0,0.8,0.3,1.5,0.9,2.1l4.3,4.3c0.6,0.6,1.3,0.8,2.1,0.8
		c0.8,0,1.5-0.3,2.1-0.8l17-17l4.3-4.3c0.6-0.6,0.8-1.3,0.8-2.1c0-0.8-0.3-1.6-0.8-2.1l-4.3-4.3l-17-17c-0.6-0.6-1.3-0.8-2.1-0.8
		c-0.8,0-1.6,0.3-2.1,0.8l-4.3,4.3c-0.6,0.6-0.8,1.3-0.8,2.1c0,0.8,0.3,1.6,0.8,2.1l8.9,8.9H24c-0.8,0-1.5,0.3-2.1,0.9
		C21.3,40.5,21,41.2,21,42z"/>
</g>
</svg>
