<?xml version="1.0" encoding="utf-8"?>
<!-- Generator: Adobe Illustrator 18.1.0, SVG Export Plug-In . SVG Version: 6.00 Build 0)  -->
<!DOCTYPE svg PUBLIC "-//W3C//DTD SVG 1.1//EN" "http://www.w3.org/Graphics/SVG/1.1/DTD/svg11.dtd">
<svg version="1.1" xmlns="http://www.w3.org/2000/svg" xmlns:xlink="http://www.w3.org/1999/xlink" x="0px" y="0px"
	 viewBox="0 0 102.7 90" enable-background="new 0 0 102.7 90" xml:space="preserve">
<g id="icons">
	<g>
		<path d="M93.3,48.9c0,7-1,12.6-3.1,16.8c-1.3,2.6-3.1,4.9-5.4,6.7c-2.3,1.9-4.7,3.3-7.2,4.4c-2.5,1-5.4,1.8-8.6,2.4
			c-3.3,0.6-6.2,1-8.7,1.1c-2.5,0.1-5.4,0.2-8.5,0.2c-2.6,0-5-0.1-7.2-0.2c-2.2-0.1-4.7-0.3-7.5-0.6c-2.8-0.3-5.4-0.8-7.7-1.5
			c-2.3-0.7-4.7-1.6-6.9-2.6c-2.3-1.1-4.4-2.4-6.1-4.1c-1.8-1.7-3.2-3.6-4.4-5.8c-2.1-4.2-3.1-9.8-3.1-16.8c0-8,2.3-14.7,6.9-20.1
			c-0.9-2.8-1.4-5.6-1.4-8.6c0-3.9,0.9-7.6,2.6-11.1c3.7,0,6.9,0.7,9.6,2c2.8,1.3,6,3.4,9.6,6.3c5-1.2,10.2-1.8,15.7-1.8
			c5,0,9.7,0.5,14.2,1.6c3.6-2.8,6.7-4.8,9.5-6.1c2.8-1.3,6-2,9.6-2c1.7,3.4,2.6,7.1,2.6,11.1c0,2.9-0.5,5.8-1.4,8.5
			C91,34.1,93.3,40.9,93.3,48.9z M82,57.8c0-4.1-1.2-7.5-3.5-10.4c-2.3-2.8-5.5-4.3-9.5-4.3c-1.4,0-4.7,0.4-9.9,1.1
			c-2.4,0.4-5.1,0.6-8,0.6s-5.6-0.2-8-0.6c-5.1-0.7-8.4-1.1-9.9-1.1c-4,0-7.1,1.4-9.5,4.3c-2.3,2.8-3.5,6.3-3.5,10.4
			c0,3,0.5,5.6,1.6,7.8c1.1,2.2,2.5,4,4.1,5.2c1.7,1.3,3.7,2.3,6.2,3c2.5,0.8,4.8,1.3,7.1,1.5c2.3,0.2,4.8,0.4,7.6,0.4h8.5
			c2.8,0,5.3-0.1,7.6-0.4c2.3-0.2,4.6-0.7,7.1-1.5c2.5-0.8,4.5-1.8,6.2-3c1.7-1.3,3-3,4.1-5.2C81.4,63.4,82,60.8,82,57.8z
			 M40.8,53.7c0.4,1.4,0.6,2.8,0.6,4.2c0,1.4-0.2,2.7-0.6,4.2c-0.4,1.4-1.2,2.7-2.2,3.9c-1,1.2-2.3,1.7-3.7,1.7
			c-1.4,0-2.6-0.6-3.7-1.7c-1-1.1-1.8-2.4-2.2-3.9c-0.4-1.4-0.6-2.8-0.6-4.2c0-1.4,0.2-2.7,0.6-4.2c0.4-1.4,1.1-2.7,2.2-3.9
			c1-1.1,2.3-1.7,3.7-1.7c1.4,0,2.6,0.6,3.7,1.7C39.6,51,40.3,52.2,40.8,53.7z M73.2,53.7c0.4,1.4,0.6,2.8,0.6,4.2
			c0,1.4-0.2,2.7-0.6,4.2c-0.4,1.4-1.1,2.7-2.2,3.9c-1,1.2-2.3,1.7-3.7,1.7s-2.6-0.6-3.7-1.7c-1-1.1-1.8-2.4-2.2-3.9
			c-0.4-1.4-0.6-2.8-0.6-4.2c0-1.4,0.2-2.7,0.6-4.2c0.4-1.4,1.2-2.7,2.2-3.9c1-1.1,2.3-1.7,3.7-1.7s2.6,0.6,3.7,1.7
			C72.1,51,72.8,52.2,73.2,53.7z"/>
	</g>
</g>
<g id="Painter_Palette">
</g>
</svg>
