<?xml version="1.0" encoding="utf-8"?>
<!-- Generator: Adobe Illustrator 19.2.1, SVG Export Plug-In . SVG Version: 6.00 Build 0)  -->
<!DOCTYPE svg PUBLIC "-//W3C//DTD SVG 1.1//EN" "http://www.w3.org/Graphics/SVG/1.1/DTD/svg11.dtd">
<svg version="1.1" id="icons" xmlns="http://www.w3.org/2000/svg" xmlns:xlink="http://www.w3.org/1999/xlink" x="0px" y="0px"
	 viewBox="0 0 90 90" enable-background="new 0 0 90 90" xml:space="preserve">
<path d="M68,32H22c-7.2,0-13,5.8-13,13s5.8,13,13,13H68c7.2,0,13-5.8,13-13S75.2,32,68,32z M36.3,52.4c-1.7,0-3-1.4-3-3s1.4-3,3-3
	c1.7,0,3,1.4,3,3S38,52.4,36.3,52.4z M36.3,43.7c-1.7,0-3-1.4-3-3s1.4-3,3-3c1.7,0,3,1.4,3,3S38,43.7,36.3,43.7z M45,52.4
	c-1.7,0-3-1.4-3-3s1.4-3,3-3s3,1.4,3,3S46.7,52.4,45,52.4z M45,43.7c-1.7,0-3-1.4-3-3s1.4-3,3-3s3,1.4,3,3S46.7,43.7,45,43.7z
	 M53.7,52.4c-1.7,0-3-1.4-3-3s1.4-3,3-3c1.7,0,3,1.4,3,3S55.3,52.4,53.7,52.4z M53.7,43.7c-1.7,0-3-1.4-3-3s1.4-3,3-3
	c1.7,0,3,1.4,3,3S55.3,43.7,53.7,43.7z"/>
</svg>
