<?xml version="1.0" encoding="utf-8"?>
<!-- Generator: Adobe Illustrator 19.1.1, SVG Export Plug-In . SVG Version: 6.00 Build 0)  -->
<!DOCTYPE svg PUBLIC "-//W3C//DTD SVG 1.1//EN" "http://www.w3.org/Graphics/SVG/1.1/DTD/svg11.dtd">
<svg version="1.1" id="icons" xmlns="http://www.w3.org/2000/svg" xmlns:xlink="http://www.w3.org/1999/xlink" x="0px" y="0px"
	 viewBox="0 0 90 90" enable-background="new 0 0 90 90" xml:space="preserve">
<g>
	<path d="M73.7,66.6c-2.9,3.9-6.5,7-10.7,9.5s-8.5,3.9-13,4.6c-4.5,0.6-9.1,0.4-13.8-0.8c-4.7-1.1-9-3.2-12.9-6.1s-7-6.5-9.5-10.6
		c-2.4-4.2-3.9-8.5-4.6-13C8.8,45.6,9,41,10.2,36.3c1.1-4.7,3.2-9,6.1-12.9c3.6-4.7,8-8.4,13.2-10.9S40.2,8.9,46,9.1
		c5.8,0.2,11.2,1.6,16.3,4.4L56,21.8c-5.4-2.6-11.1-3.2-17.1-1.7c-5.9,1.4-10.7,4.6-14.4,9.5c-2.1,2.8-3.5,5.8-4.3,9.2
		c-0.8,3.4-1,6.6-0.5,9.8c0.5,3.2,1.5,6.3,3.3,9.3c1.7,3,4,5.5,6.7,7.6c2.8,2.1,5.8,3.5,9.2,4.3s6.6,1,9.8,0.5
		c3.2-0.5,6.3-1.5,9.3-3.3c3-1.7,5.5-4,7.6-6.7c3.7-4.9,5.4-10.4,5.1-16.5c-0.3-6.1-2.4-11.4-6.4-15.9l6.3-8.3
		c4.1,4.1,7,8.9,8.8,14.4c1.8,5.5,2.2,11.1,1.2,16.8C79.5,56.6,77.3,61.8,73.7,66.6z"/>
</g>
</svg>
