<?xml version="1.0" encoding="utf-8"?>
<!-- Generator: Adobe Illustrator 19.2.1, SVG Export Plug-In . SVG Version: 6.00 Build 0)  -->
<!DOCTYPE svg PUBLIC "-//W3C//DTD SVG 1.1//EN" "http://www.w3.org/Graphics/SVG/1.1/DTD/svg11.dtd">
<svg version="1.1" id="icons" xmlns="http://www.w3.org/2000/svg" xmlns:xlink="http://www.w3.org/1999/xlink" x="0px" y="0px"
	 viewBox="0 0 79.5 90" enable-background="new 0 0 79.5 90" xml:space="preserve">
<g>
	<path d="M68.2,28.2L51.7,11.8c-0.4-0.4-0.9-0.8-1.5-1.1v19h19C68.9,29.1,68.5,28.6,68.2,28.2z"/>
	<path d="M49,34.8c-1.1,0-2-0.4-2.7-1.1c-0.8-0.8-1.1-1.7-1.1-2.7V9H12.9c-1.1,0-2,0.4-2.7,1.1C9.4,10.9,9,11.8,9,12.9v64.5
		c0,1.1,0.4,2,1.1,2.7c0.8,0.8,1.7,1.1,2.7,1.1H67c1.1,0,2-0.4,2.7-1.1c0.8-0.8,1.1-1.7,1.1-2.7V34.8H49z M56.6,62.9
		c0,0.6-0.2,1.2-0.7,1.7c-0.5,0.5-1,0.7-1.7,0.7h-2.7v4.5h-4.3v-4.5h-5.2v4.5h-4.3v-4.5h-5.2v4.5h-4.3v-4.5h-2.7
		c-0.6,0-1.2-0.2-1.7-0.7c-0.5-0.5-0.7-1-0.7-1.7V47.9c0-0.6,0.2-1.2,0.7-1.7c0.5-0.5,1-0.7,1.7-0.7h2.7V41h4.3v4.5h5.2V41h4.3v4.5
		h5.2V41h4.3v4.5h2.7c0.6,0,1.2,0.2,1.7,0.7c0.5,0.5,0.7,1,0.7,1.7V62.9z"/>
</g>
</svg>
