<?xml version="1.0" encoding="utf-8"?>
<!-- Generator: Adobe Illustrator 18.1.1, SVG Export Plug-In . SVG Version: 6.00 Build 0)  -->
<!DOCTYPE svg PUBLIC "-//W3C//DTD SVG 1.1//EN" "http://www.w3.org/Graphics/SVG/1.1/DTD/svg11.dtd">
<svg version="1.1" id="icons" xmlns="http://www.w3.org/2000/svg" xmlns:xlink="http://www.w3.org/1999/xlink" x="0px" y="0px"
	 viewBox="0 0 79.5 90" enable-background="new 0 0 79.5 90" xml:space="preserve">
<g>
	<path d="M38.3,61.2c-1-0.5-2.2-0.8-3.6-0.8s-2.6,0.3-3.6,0.8c-1,0.5-1.5,1.1-1.5,1.8c0,0.7,0.5,1.3,1.5,1.8c1,0.5,2.2,0.8,3.6,0.8
		s2.6-0.3,3.6-0.8c1-0.5,1.5-1.1,1.5-1.8C39.8,62.3,39.3,61.7,38.3,61.2z"/>
	<path d="M68,28.1L51.6,11.8c-0.4-0.4-0.9-0.8-1.4-1.1v19h19C68.7,29,68.3,28.5,68,28.1z"/>
	<path d="M48.8,34.7c-1.1,0-2-0.4-2.7-1.1C45.3,32.9,45,32,45,30.9V9H12.8c-1.1,0-2,0.4-2.7,1.1C9.4,10.9,9,11.8,9,12.9v64.3
		c0,1.1,0.4,2,1.1,2.7c0.8,0.8,1.7,1.1,2.7,1.1h54c1.1,0,2-0.4,2.7-1.1c0.8-0.8,1.1-1.7,1.1-2.7V34.7H48.8z M42.1,68.5
		c-1.9,1.5-4.4,2.2-7.4,2.2s-5.4-0.7-7.4-2.2c-1.9-1.5-2.9-3.3-2.9-5.5c0-0.7,0.1-1.4,0.3-2.1c0.6-1.7,2.2-7,4.8-15.9v-5.1h5.1v-5.1
		h-5.1v-5.1h5.1v-5.1h-5.1v-5.1h5.1v-5.1h5.1v5.1h-5.1v5.1h5.1v5.1h-5.1v5.1h5.1v5.1h-5.1V45h3.2c0.6,0,1.1,0.2,1.6,0.5
		c0.5,0.3,0.8,0.8,0.9,1.4l4.3,14c0.2,0.7,0.3,1.4,0.3,2.1C45,65.2,44,67.1,42.1,68.5z"/>
</g>
</svg>
