<?xml version="1.0" encoding="utf-8"?>
<!-- Generator: Adobe Illustrator 18.1.0, SVG Export Plug-In . SVG Version: 6.00 Build 0)  -->
<!DOCTYPE svg PUBLIC "-//W3C//DTD SVG 1.1//EN" "http://www.w3.org/Graphics/SVG/1.1/DTD/svg11.dtd">
<svg version="1.1" id="icons" xmlns="http://www.w3.org/2000/svg" xmlns:xlink="http://www.w3.org/1999/xlink" x="0px" y="0px"
	 viewBox="0 0 75.7 90" enable-background="new 0 0 75.7 90" xml:space="preserve">
<path d="M12.8,36.9l4.2,36.8c0.2,1.7,8.7,7.5,20.9,7.5c12.2,0,20.7-5.8,20.9-7.5l4.2-36.8c-6.4,3.6-15.9,5.3-25.1,5.3
	S19.1,40.5,12.8,36.9z M49.8,14.1l-3.3-3.6c-1.3-1.8-2.6-2.1-5.3-2.1h-6.9c-2.7,0-4,0.3-5.3,2.1l-3.3,3.6C16.1,15.8,9,20.4,9,23.7
	v0.6C9,30.2,21.9,35,37.8,35s28.8-4.8,28.8-10.6v-0.6C66.6,20.4,59.6,15.8,49.8,14.1z M45.7,22.6l-4.7-5.1h-6.2L30,22.6h-6.4
	c0,0,7.1-8.4,8-9.6c0.7-0.9,1.5-1.2,2.4-1.2h7.7c1,0,1.7,0.3,2.4,1.2c0.9,1.1,8,9.6,8,9.6H45.7z"/>
</svg>
