<?xml version="1.0" encoding="utf-8"?>
<!-- Generator: Adobe Illustrator 18.1.0, SVG Export Plug-In . SVG Version: 6.00 Build 0)  -->
<!DOCTYPE svg PUBLIC "-//W3C//DTD SVG 1.1//EN" "http://www.w3.org/Graphics/SVG/1.1/DTD/svg11.dtd">
<svg version="1.1" id="icons" xmlns="http://www.w3.org/2000/svg" xmlns:xlink="http://www.w3.org/1999/xlink" x="0px" y="0px"
	 viewBox="0 0 103 90" enable-background="new 0 0 103 90" xml:space="preserve">
<path d="M81.2,50v16.3c0,4-1.4,7.5-4.3,10.4C74,79.5,70.6,81,66.5,81H24.1c-4,0-7.5-1.4-10.4-4.3c-2.9-2.9-4.3-6.3-4.3-10.4V23.9
	c0-4,1.4-7.5,4.3-10.4c2.9-2.9,6.3-4.3,10.4-4.3H60c0.5,0,0.9,0.2,1.2,0.5s0.5,0.7,0.5,1.2v3.3c0,0.5-0.2,0.9-0.5,1.2
	s-0.7,0.5-1.2,0.5H24.1c-2.2,0-4.2,0.8-5.8,2.4c-1.6,1.6-2.4,3.5-2.4,5.8v42.4c0,2.2,0.8,4.2,2.4,5.8c1.6,1.6,3.5,2.4,5.8,2.4h42.4
	c2.2,0,4.2-0.8,5.8-2.4c1.6-1.6,2.4-3.5,2.4-5.8V50c0-0.5,0.2-0.9,0.5-1.2c0.3-0.3,0.7-0.5,1.2-0.5h3.3c0.5,0,0.9,0.2,1.2,0.5
	C81.1,49.1,81.2,49.5,81.2,50z M100.8,5.9V32c0,0.9-0.3,1.7-1,2.3c-0.6,0.6-1.4,1-2.3,1s-1.7-0.3-2.3-1l-9-9L53,58.6
	c-0.3,0.3-0.7,0.5-1.2,0.5s-0.8-0.2-1.2-0.5l-5.8-5.8c-0.3-0.3-0.5-0.7-0.5-1.2c0-0.4,0.2-0.8,0.5-1.2l33.2-33.2l-9-9
	c-0.6-0.6-1-1.4-1-2.3s0.3-1.6,1-2.3c0.6-0.6,1.4-1,2.3-1h26.1c0.9,0,1.7,0.3,2.3,1C100.5,4.3,100.8,5,100.8,5.9z"/>
</svg>
