<?xml version="1.0" encoding="utf-8"?>
<!-- Generator: Adobe Illustrator 19.1.0, SVG Export Plug-In . SVG Version: 6.00 Build 0)  -->
<!DOCTYPE svg PUBLIC "-//W3C//DTD SVG 1.1//EN" "http://www.w3.org/Graphics/SVG/1.1/DTD/svg11.dtd">
<svg version="1.1" id="icons" xmlns="http://www.w3.org/2000/svg" xmlns:xlink="http://www.w3.org/1999/xlink" x="0px" y="0px"
	 viewBox="0 0 109.5 90" enable-background="new 0 0 109.5 90" xml:space="preserve">
<path d="M52.9,36.4l-13,33.5H25.8L13.2,36.4H9V23.9h21.6v12.5h-2.5l4.8,16.5l5.5-16.5h-2.8V23.9h21.4v12.5H52.9z"/>
<path d="M87.2,70.9c-7.3,0-11.1-3.2-13.7-5.3v7.7h4.9v12.5H55.1V73.3H60V36.4h-4.9V23.9h18.4v5.4c3-4.2,7.3-6.3,12.8-6.3
	c12.7,0,23.3,10.9,23.3,24.2C109.6,60,99.2,70.9,87.2,70.9z M84.4,35.8c-6.2,0-11.4,4.9-11.4,11.2s5.1,11.1,11.4,11.1
	s11.4-5,11.4-11.2C95.8,40.7,90.7,35.8,84.4,35.8z"/>
</svg>
